<?xml version="1.0" encoding="UTF-8"?>
<svg xmlns="http://www.w3.org/2000/svg" xmlns:xlink="http://www.w3.org/1999/xlink" width="103" height="78" viewBox="0 0 103 78">
<path fill-rule="nonzero" fill="rgb(0%, 0%, 0%)" fill-opacity="1" d="M 0 5.832031 L 2.605469 5.832031 L 2.605469 8.058594 C 3.230469 7.285156 3.800781 6.722656 4.308594 6.371094 C 5.175781 5.777344 6.160156 5.480469 7.265625 5.480469 C 8.515625 5.480469 9.519531 5.785156 10.285156 6.402344 C 10.714844 6.753906 11.105469 7.269531 11.457031 7.957031 C 12.042969 7.117188 12.730469 6.492188 13.519531 6.085938 C 14.3125 5.683594 15.199219 5.480469 16.1875 5.480469 C 18.296875 5.480469 19.730469 6.242188 20.492188 7.765625 C 20.902344 8.585938 21.109375 9.6875 21.109375 11.074219 L 21.109375 21.519531 L 18.371094 21.519531 L 18.371094 10.621094 C 18.371094 9.574219 18.109375 8.859375 17.585938 8.46875 C 17.0625 8.078125 16.425781 7.882812 15.675781 7.882812 C 14.640625 7.882812 13.746094 8.230469 13 8.921875 C 12.253906 9.613281 11.878906 10.773438 11.878906 12.394531 L 11.878906 21.519531 L 9.199219 21.519531 L 9.199219 11.28125 C 9.199219 10.214844 9.074219 9.441406 8.816406 8.949219 C 8.417969 8.21875 7.671875 7.851562 6.578125 7.851562 C 5.582031 7.851562 4.675781 8.238281 3.859375 9.011719 C 3.042969 9.78125 2.636719 11.175781 2.636719 13.199219 L 2.636719 21.519531 L 0 21.519531 Z M 27.625 5.832031 L 27.625 16.246094 C 27.625 17.046875 27.75 17.699219 28.007812 18.207031 C 28.476562 19.144531 29.347656 19.613281 30.628906 19.613281 C 32.464844 19.613281 33.714844 18.792969 34.378906 17.152344 C 34.738281 16.273438 34.921875 15.070312 34.921875 13.535156 L 34.921875 5.832031 L 37.554688 5.832031 L 37.554688 21.519531 L 35.066406 21.519531 L 35.09375 19.207031 C 34.753906 19.800781 34.328125 20.304688 33.820312 20.714844 C 32.816406 21.535156 31.59375 21.945312 30.160156 21.945312 C 27.921875 21.945312 26.398438 21.199219 25.589844 19.703125 C 25.148438 18.902344 24.929688 17.832031 24.929688 16.496094 L 24.929688 5.832031 Z M 41.75 0 L 44.386719 0 L 44.386719 21.519531 L 41.75 21.519531 Z M 48.867188 1.449219 L 51.53125 1.449219 L 51.53125 5.832031 L 54.039062 5.832031 L 54.039062 7.984375 L 51.53125 7.984375 L 51.53125 18.222656 C 51.53125 18.769531 51.71875 19.136719 52.089844 19.324219 C 52.296875 19.429688 52.636719 19.484375 53.117188 19.484375 C 53.242188 19.484375 53.378906 19.480469 53.523438 19.476562 C 53.671875 19.472656 53.84375 19.457031 54.039062 19.441406 L 54.039062 21.519531 C 53.734375 21.605469 53.421875 21.671875 53.09375 21.710938 C 52.765625 21.75 52.414062 21.769531 52.03125 21.769531 C 50.800781 21.769531 49.964844 21.453125 49.527344 20.824219 C 49.085938 20.195312 48.867188 19.375 48.867188 18.371094 L 48.867188 7.984375 L 46.742188 7.984375 L 46.742188 5.832031 L 48.867188 5.832031 Z M 56.675781 5.902344 L 59.355469 5.902344 L 59.355469 21.519531 L 56.675781 21.519531 Z M 56.675781 0 L 59.355469 0 L 59.355469 2.988281 L 56.675781 2.988281 Z M 69.960938 19.746094 C 71.191406 19.746094 72.214844 19.230469 73.03125 18.203125 C 73.84375 17.171875 74.253906 15.628906 74.253906 13.582031 C 74.253906 12.332031 74.070312 11.253906 73.710938 10.355469 C 73.027344 8.628906 71.777344 7.765625 69.960938 7.765625 C 68.132812 7.765625 66.882812 8.675781 66.210938 10.503906 C 65.851562 11.480469 65.667969 12.722656 65.667969 14.222656 C 65.667969 15.433594 65.851562 16.464844 66.210938 17.316406 C 66.894531 18.9375 68.144531 19.746094 69.960938 19.746094 Z M 63.132812 5.902344 L 65.699219 5.902344 L 65.699219 7.984375 C 66.226562 7.269531 66.800781 6.71875 67.425781 6.328125 C 68.316406 5.742188 69.359375 5.449219 70.5625 5.449219 C 72.339844 5.449219 73.847656 6.132812 75.085938 7.492188 C 76.328125 8.855469 76.949219 10.800781 76.949219 13.332031 C 76.949219 16.75 76.054688 19.191406 74.265625 20.65625 C 73.132812 21.582031 71.816406 22.046875 70.3125 22.046875 C 69.132812 22.046875 68.140625 21.789062 67.339844 21.269531 C 66.871094 20.976562 66.347656 20.472656 65.773438 19.761719 L 65.773438 27.773438 L 63.132812 27.773438 Z M 80.097656 0 L 82.734375 0 L 82.734375 21.519531 L 80.097656 21.519531 Z M 93.226562 5.480469 C 94.339844 5.480469 95.417969 5.742188 96.460938 6.261719 C 97.507812 6.785156 98.304688 7.460938 98.851562 8.292969 C 99.378906 9.082031 99.726562 10.003906 99.90625 11.058594 C 100.0625 11.78125 100.140625 12.933594 100.140625 14.519531 L 88.640625 14.519531 C 88.6875 16.109375 89.0625 17.386719 89.765625 18.347656 C 90.46875 19.308594 91.558594 19.792969 93.035156 19.792969 C 94.410156 19.792969 95.507812 19.335938 96.328125 18.429688 C 96.796875 17.902344 97.132812 17.292969 97.328125 16.597656 L 99.917969 16.597656 C 99.851562 17.175781 99.625 17.816406 99.238281 18.523438 C 98.851562 19.230469 98.421875 19.808594 97.941406 20.261719 C 97.140625 21.042969 96.148438 21.566406 94.96875 21.839844 C 94.332031 21.996094 93.617188 22.074219 92.8125 22.074219 C 90.859375 22.074219 89.207031 21.367188 87.847656 19.945312 C 86.492188 18.523438 85.8125 16.535156 85.8125 13.976562 C 85.8125 11.457031 86.496094 9.410156 87.863281 7.839844 C 89.230469 6.265625 91.015625 5.480469 93.226562 5.480469 Z M 97.429688 12.421875 C 97.320312 11.28125 97.070312 10.367188 96.679688 9.683594 C 95.957031 8.414062 94.753906 7.777344 93.0625 7.777344 C 91.851562 7.777344 90.835938 8.214844 90.015625 9.089844 C 89.195312 9.964844 88.761719 11.074219 88.710938 12.421875 Z M -1.933594 -1.582031 "/>
<path fill-rule="nonzero" fill="rgb(0%, 0%, 0%)" fill-opacity="1" d="M 0 27.773438 L 2.636719 27.773438 L 2.636719 49.292969 L 0 49.292969 Z M 6.589844 33.675781 L 9.269531 33.675781 L 9.269531 49.292969 L 6.589844 49.292969 Z M 6.589844 27.773438 L 9.269531 27.773438 L 9.269531 30.761719 L 6.589844 30.761719 Z M 13.253906 33.605469 L 15.757812 33.605469 L 15.757812 35.832031 C 16.5 34.914062 17.289062 34.253906 18.117188 33.855469 C 18.945312 33.453125 19.871094 33.253906 20.886719 33.253906 C 23.113281 33.253906 24.617188 34.027344 25.398438 35.582031 C 25.828125 36.433594 26.042969 37.648438 26.042969 39.230469 L 26.042969 49.292969 L 23.359375 49.292969 L 23.359375 39.40625 C 23.359375 38.449219 23.21875 37.675781 22.9375 37.089844 C 22.46875 36.113281 21.617188 35.625 20.386719 35.625 C 19.761719 35.625 19.25 35.691406 18.851562 35.816406 C 18.128906 36.03125 17.492188 36.460938 16.945312 37.105469 C 16.507812 37.621094 16.21875 38.15625 16.089844 38.710938 C 15.957031 39.261719 15.890625 40.050781 15.890625 41.074219 L 15.890625 49.292969 L 13.253906 49.292969 Z M 36.476562 33.253906 C 37.589844 33.253906 38.667969 33.515625 39.710938 34.035156 C 40.757812 34.558594 41.554688 35.234375 42.101562 36.066406 C 42.628906 36.855469 42.976562 37.777344 43.15625 38.832031 C 43.3125 39.554688 43.390625 40.707031 43.390625 42.292969 L 31.890625 42.292969 C 31.9375 43.882812 32.3125 45.160156 33.015625 46.121094 C 33.71875 47.082031 34.808594 47.566406 36.285156 47.566406 C 37.660156 47.566406 38.757812 47.109375 39.578125 46.203125 C 40.046875 45.675781 40.382812 45.066406 40.578125 44.371094 L 43.167969 44.371094 C 43.101562 44.949219 42.875 45.589844 42.488281 46.296875 C 42.101562 47.003906 41.671875 47.582031 41.191406 48.035156 C 40.390625 48.816406 39.398438 49.339844 38.21875 49.613281 C 37.582031 49.769531 36.867188 49.847656 36.0625 49.847656 C 34.109375 49.847656 32.457031 49.140625 31.097656 47.71875 C 29.742188 46.296875 29.0625 44.308594 29.0625 41.75 C 29.0625 39.230469 29.746094 37.183594 31.113281 35.613281 C 32.480469 34.039062 34.265625 33.253906 36.476562 33.253906 Z M 40.679688 40.195312 C 40.570312 39.054688 40.320312 38.140625 39.929688 37.457031 C 39.207031 36.1875 38.003906 35.550781 36.3125 35.550781 C 35.101562 35.550781 34.085938 35.988281 33.265625 36.863281 C 32.445312 37.738281 32.011719 38.847656 31.960938 40.195312 Z M 48.191406 44.371094 C 48.269531 45.25 48.488281 45.925781 48.851562 46.394531 C 49.515625 47.242188 50.667969 47.667969 52.308594 47.667969 C 53.285156 47.667969 54.144531 47.453125 54.886719 47.03125 C 55.628906 46.605469 56 45.949219 56 45.058594 C 56 44.386719 55.703125 43.871094 55.105469 43.519531 C 54.726562 43.304688 53.972656 43.058594 52.851562 42.773438 L 50.753906 42.246094 C 49.417969 41.914062 48.433594 41.542969 47.796875 41.132812 C 46.664062 40.421875 46.097656 39.433594 46.097656 38.175781 C 46.097656 36.691406 46.632812 35.488281 47.703125 34.570312 C 48.769531 33.652344 50.207031 33.195312 52.015625 33.195312 C 54.378906 33.195312 56.082031 33.886719 57.128906 35.273438 C 57.78125 36.152344 58.097656 37.101562 58.082031 38.117188 L 55.589844 38.117188 C 55.542969 37.519531 55.332031 36.980469 54.960938 36.488281 C 54.355469 35.796875 53.304688 35.449219 51.808594 35.449219 C 50.8125 35.449219 50.058594 35.640625 49.546875 36.019531 C 49.035156 36.402344 48.777344 36.90625 48.777344 37.53125 C 48.777344 38.214844 49.113281 38.761719 49.789062 39.171875 C 50.179688 39.414062 50.753906 39.628906 51.519531 39.816406 L 53.261719 40.238281 C 55.15625 40.699219 56.425781 41.144531 57.070312 41.574219 C 58.09375 42.246094 58.605469 43.308594 58.605469 44.753906 C 58.605469 46.148438 58.078125 47.355469 57.019531 48.371094 C 55.957031 49.386719 54.34375 49.894531 52.175781 49.894531 C 49.84375 49.894531 48.191406 49.363281 47.21875 48.304688 C 46.246094 47.246094 45.726562 45.933594 45.660156 44.371094 Z M -2.007812 26.191406 "/>
<path fill-rule="nonzero" fill="rgb(0%, 0%, 0%)" fill-opacity="1" d="M 2.125 56.996094 L 4.789062 56.996094 L 4.789062 61.378906 L 7.296875 61.378906 L 7.296875 63.53125 L 4.789062 63.53125 L 4.789062 73.769531 C 4.789062 74.316406 4.976562 74.683594 5.347656 74.871094 C 5.554688 74.976562 5.894531 75.03125 6.375 75.03125 C 6.5 75.03125 6.636719 75.027344 6.78125 75.023438 C 6.929688 75.019531 7.101562 75.003906 7.296875 74.988281 L 7.296875 77.066406 C 6.992188 77.152344 6.679688 77.21875 6.351562 77.257812 C 6.023438 77.296875 5.671875 77.316406 5.289062 77.316406 C 4.058594 77.316406 3.222656 77 2.785156 76.371094 C 2.34375 75.742188 2.125 74.921875 2.125 73.917969 L 2.125 63.53125 L 0 63.53125 L 0 61.378906 L 2.125 61.378906 Z M 16.46875 61.027344 C 17.582031 61.027344 18.660156 61.289062 19.703125 61.808594 C 20.75 62.332031 21.546875 63.007812 22.09375 63.839844 C 22.621094 64.628906 22.96875 65.550781 23.148438 66.605469 C 23.304688 67.328125 23.382812 68.480469 23.382812 70.066406 L 11.882812 70.066406 C 11.929688 71.65625 12.304688 72.933594 13.007812 73.894531 C 13.710938 74.855469 14.800781 75.339844 16.277344 75.339844 C 17.652344 75.339844 18.75 74.882812 19.570312 73.976562 C 20.039062 73.449219 20.375 72.839844 20.570312 72.144531 L 23.160156 72.144531 C 23.09375 72.722656 22.867188 73.363281 22.480469 74.070312 C 22.09375 74.777344 21.664062 75.355469 21.183594 75.808594 C 20.382812 76.589844 19.390625 77.113281 18.210938 77.386719 C 17.574219 77.542969 16.859375 77.621094 16.054688 77.621094 C 14.101562 77.621094 12.449219 76.914062 11.089844 75.492188 C 9.734375 74.070312 9.054688 72.082031 9.054688 69.523438 C 9.054688 67.003906 9.738281 64.957031 11.105469 63.386719 C 12.472656 61.8125 14.257812 61.027344 16.46875 61.027344 Z M 20.671875 67.96875 C 20.5625 66.828125 20.3125 65.914062 19.921875 65.230469 C 19.199219 63.960938 17.996094 63.324219 16.304688 63.324219 C 15.09375 63.324219 14.078125 63.761719 13.257812 64.636719 C 12.4375 65.511719 12.003906 66.621094 11.953125 67.96875 Z M 25.121094 61.378906 L 28.535156 61.378906 L 32.140625 66.902344 L 35.785156 61.378906 L 38.996094 61.449219 L 33.707031 69.023438 L 39.230469 77.066406 L 35.859375 77.066406 L 31.964844 71.175781 L 28.183594 77.066406 L 24.84375 77.066406 L 30.367188 69.023438 Z M 42.144531 56.996094 L 44.808594 56.996094 L 44.808594 61.378906 L 47.316406 61.378906 L 47.316406 63.53125 L 44.808594 63.53125 L 44.808594 73.769531 C 44.808594 74.316406 44.996094 74.683594 45.367188 74.871094 C 45.574219 74.976562 45.914062 75.03125 46.394531 75.03125 C 46.519531 75.03125 46.65625 75.027344 46.800781 75.023438 C 46.949219 75.019531 47.121094 75.003906 47.316406 74.988281 L 47.316406 77.066406 C 47.011719 77.152344 46.699219 77.21875 46.371094 77.257812 C 46.042969 77.296875 45.691406 77.316406 45.308594 77.316406 C 44.078125 77.316406 43.242188 77 42.804688 76.371094 C 42.363281 75.742188 42.144531 74.921875 42.144531 73.917969 L 42.144531 63.53125 L 40.019531 63.53125 L 40.019531 61.378906 L 42.144531 61.378906 Z M -0.335938 53.964844 "/>
</svg>
