<?xml version="1.0" encoding="UTF-8"?>
<svg xmlns="http://www.w3.org/2000/svg" xmlns:xlink="http://www.w3.org/1999/xlink" width="189" height="34" viewBox="0 0 189 34">
<path fill-rule="nonzero" fill="rgb(0%, 0%, 0%)" fill-opacity="1" d="M 0 4.085938 L 1.671875 4.085938 L 1.671875 5.894531 C 1.808594 5.542969 2.144531 5.113281 2.679688 4.609375 C 3.210938 4.105469 3.828125 3.851562 4.523438 3.851562 C 4.554688 3.851562 4.609375 3.855469 4.6875 3.863281 C 4.765625 3.871094 4.902344 3.882812 5.089844 3.902344 L 5.089844 5.757812 C 4.984375 5.738281 4.890625 5.726562 4.800781 5.71875 C 4.714844 5.710938 4.617188 5.710938 4.515625 5.710938 C 3.628906 5.710938 2.949219 5.992188 2.472656 6.5625 C 1.996094 7.132812 1.757812 7.789062 1.757812 8.53125 L 1.757812 14.546875 L 0 14.546875 Z M 10.96875 3.851562 C 11.710938 3.851562 12.429688 4.027344 13.128906 4.375 C 13.824219 4.722656 14.355469 5.175781 14.71875 5.726562 C 15.070312 6.253906 15.304688 6.871094 15.421875 7.574219 C 15.527344 8.054688 15.578125 8.824219 15.578125 9.878906 L 7.910156 9.878906 C 7.945312 10.941406 8.195312 11.792969 8.664062 12.433594 C 9.132812 13.074219 9.859375 13.394531 10.839844 13.394531 C 11.757812 13.394531 12.492188 13.09375 13.039062 12.484375 C 13.351562 12.132812 13.574219 11.726562 13.703125 11.265625 L 15.433594 11.265625 C 15.386719 11.648438 15.234375 12.078125 14.976562 12.550781 C 14.71875 13.023438 14.433594 13.40625 14.113281 13.707031 C 13.578125 14.226562 12.917969 14.578125 12.128906 14.761719 C 11.707031 14.867188 11.230469 14.917969 10.695312 14.917969 C 9.394531 14.917969 8.289062 14.445312 7.386719 13.496094 C 6.480469 12.550781 6.027344 11.222656 6.027344 9.515625 C 6.027344 7.835938 6.484375 6.472656 7.394531 5.425781 C 8.304688 4.378906 9.496094 3.851562 10.96875 3.851562 Z M 13.769531 8.484375 C 13.699219 7.722656 13.535156 7.113281 13.273438 6.65625 C 12.792969 5.808594 11.988281 5.386719 10.863281 5.386719 C 10.054688 5.386719 9.378906 5.679688 8.832031 6.261719 C 8.285156 6.84375 7.992188 7.585938 7.960938 8.484375 Z M 17.734375 4.085938 L 19.40625 4.085938 L 19.40625 5.570312 C 19.898438 4.960938 20.421875 4.519531 20.976562 4.253906 C 21.53125 3.988281 22.144531 3.851562 22.820312 3.851562 C 24.304688 3.851562 25.308594 4.371094 25.828125 5.40625 C 26.117188 5.972656 26.257812 6.78125 26.257812 7.835938 L 26.257812 14.546875 L 24.472656 14.546875 L 24.472656 7.953125 C 24.472656 7.316406 24.378906 6.804688 24.1875 6.414062 C 23.875 5.761719 23.3125 5.4375 22.492188 5.4375 C 22.074219 5.4375 21.730469 5.476562 21.464844 5.5625 C 20.984375 5.707031 20.558594 5.992188 20.195312 6.421875 C 19.902344 6.765625 19.710938 7.125 19.625 7.492188 C 19.535156 7.859375 19.492188 8.382812 19.492188 9.070312 L 19.492188 14.546875 L 17.734375 14.546875 Z M 29.972656 9.4375 C 29.972656 10.558594 30.210938 11.496094 30.6875 12.25 C 31.160156 13.007812 31.921875 13.382812 32.96875 13.382812 C 33.785156 13.382812 34.453125 13.035156 34.976562 12.335938 C 35.5 11.636719 35.765625 10.632812 35.765625 9.320312 C 35.765625 8 35.492188 7.023438 34.953125 6.386719 C 34.414062 5.753906 33.746094 5.4375 32.953125 5.4375 C 32.066406 5.4375 31.347656 5.773438 30.796875 6.453125 C 30.246094 7.128906 29.972656 8.125 29.972656 9.4375 Z M 32.617188 3.902344 C 33.417969 3.902344 34.089844 4.070312 34.632812 4.410156 C 34.945312 4.605469 35.296875 4.945312 35.695312 5.4375 L 35.695312 0.152344 L 37.382812 0.152344 L 37.382812 14.546875 L 35.804688 14.546875 L 35.804688 13.09375 C 35.394531 13.738281 34.90625 14.203125 34.347656 14.488281 C 33.789062 14.773438 33.148438 14.917969 32.421875 14.917969 C 31.257812 14.917969 30.25 14.429688 29.398438 13.449219 C 28.542969 12.46875 28.117188 11.164062 28.117188 9.539062 C 28.117188 8.015625 28.507812 6.695312 29.285156 5.578125 C 30.0625 4.460938 31.171875 3.902344 32.617188 3.902344 Z M 44.339844 3.851562 C 45.082031 3.851562 45.800781 4.027344 46.5 4.375 C 47.195312 4.722656 47.726562 5.175781 48.089844 5.726562 C 48.441406 6.253906 48.675781 6.871094 48.792969 7.574219 C 48.898438 8.054688 48.949219 8.824219 48.949219 9.878906 L 41.28125 9.878906 C 41.316406 10.941406 41.566406 11.792969 42.035156 12.433594 C 42.503906 13.074219 43.230469 13.394531 44.210938 13.394531 C 45.128906 13.394531 45.863281 13.09375 46.410156 12.484375 C 46.722656 12.132812 46.945312 11.726562 47.074219 11.265625 L 48.804688 11.265625 C 48.757812 11.648438 48.605469 12.078125 48.347656 12.550781 C 48.089844 13.023438 47.804688 13.40625 47.484375 13.707031 C 46.949219 14.226562 46.289062 14.578125 45.5 14.761719 C 45.078125 14.867188 44.601562 14.917969 44.066406 14.917969 C 42.765625 14.917969 41.660156 14.445312 40.757812 13.496094 C 39.851562 12.550781 39.398438 11.222656 39.398438 9.515625 C 39.398438 7.835938 39.855469 6.472656 40.765625 5.425781 C 41.675781 4.378906 42.867188 3.851562 44.339844 3.851562 Z M 47.140625 8.484375 C 47.070312 7.722656 46.90625 7.113281 46.644531 6.65625 C 46.164062 5.808594 45.359375 5.386719 44.234375 5.386719 C 43.425781 5.386719 42.75 5.679688 42.203125 6.261719 C 41.65625 6.84375 41.363281 7.585938 41.332031 8.484375 Z M 51.152344 4.085938 L 52.824219 4.085938 L 52.824219 5.894531 C 52.960938 5.542969 53.296875 5.113281 53.832031 4.609375 C 54.363281 4.105469 54.980469 3.851562 55.675781 3.851562 C 55.707031 3.851562 55.761719 3.855469 55.839844 3.863281 C 55.917969 3.871094 56.054688 3.882812 56.242188 3.902344 L 56.242188 5.757812 C 56.136719 5.738281 56.042969 5.726562 55.953125 5.71875 C 55.867188 5.710938 55.769531 5.710938 55.667969 5.710938 C 54.78125 5.710938 54.101562 5.992188 53.625 6.5625 C 53.148438 7.132812 52.910156 7.789062 52.910156 8.53125 L 52.910156 14.546875 L 51.152344 14.546875 Z M 57.765625 4.136719 L 59.554688 4.136719 L 59.554688 14.546875 L 57.765625 14.546875 Z M 57.765625 0.203125 L 59.554688 0.203125 L 59.554688 2.195312 L 57.765625 2.195312 Z M 62.210938 4.085938 L 63.882812 4.085938 L 63.882812 5.570312 C 64.375 4.960938 64.898438 4.519531 65.453125 4.253906 C 66.007812 3.988281 66.621094 3.851562 67.296875 3.851562 C 68.78125 3.851562 69.785156 4.371094 70.304688 5.40625 C 70.59375 5.972656 70.734375 6.78125 70.734375 7.835938 L 70.734375 14.546875 L 68.949219 14.546875 L 68.949219 7.953125 C 68.949219 7.316406 68.855469 6.804688 68.664062 6.414062 C 68.351562 5.761719 67.789062 5.4375 66.96875 5.4375 C 66.550781 5.4375 66.207031 5.476562 65.941406 5.5625 C 65.460938 5.707031 65.035156 5.992188 64.671875 6.421875 C 64.378906 6.765625 64.1875 7.125 64.101562 7.492188 C 64.011719 7.859375 63.96875 8.382812 63.96875 9.070312 L 63.96875 14.546875 L 62.210938 14.546875 Z M 77.023438 3.902344 C 77.84375 3.902344 78.558594 4.105469 79.171875 4.507812 C 79.503906 4.734375 79.84375 5.066406 80.1875 5.503906 L 80.1875 4.1875 L 81.808594 4.1875 L 81.808594 13.695312 C 81.808594 15.023438 81.613281 16.074219 81.222656 16.84375 C 80.492188 18.261719 79.117188 18.96875 77.089844 18.96875 C 75.964844 18.96875 75.019531 18.71875 74.25 18.214844 C 73.480469 17.710938 73.050781 16.921875 72.960938 15.84375 L 74.746094 15.84375 C 74.832031 16.3125 75.003906 16.675781 75.253906 16.929688 C 75.652344 17.320312 76.277344 17.515625 77.128906 17.515625 C 78.476562 17.515625 79.359375 17.039062 79.777344 16.089844 C 80.023438 15.53125 80.136719 14.53125 80.121094 13.09375 C 79.769531 13.625 79.34375 14.023438 78.847656 14.28125 C 78.355469 14.542969 77.699219 14.671875 76.886719 14.671875 C 75.753906 14.671875 74.761719 14.273438 73.914062 13.46875 C 73.0625 12.664062 72.636719 11.335938 72.636719 9.476562 C 72.636719 7.726562 73.066406 6.359375 73.921875 5.375 C 74.777344 4.394531 75.8125 3.902344 77.023438 3.902344 Z M 80.1875 9.273438 C 80.1875 7.976562 79.921875 7.015625 79.386719 6.390625 C 78.851562 5.765625 78.171875 5.453125 77.347656 5.453125 C 76.109375 5.453125 75.261719 6.035156 74.808594 7.195312 C 74.566406 7.8125 74.445312 8.621094 74.445312 9.625 C 74.445312 10.804688 74.683594 11.699219 75.164062 12.316406 C 75.640625 12.929688 76.285156 13.238281 77.089844 13.238281 C 78.355469 13.238281 79.242188 12.667969 79.757812 11.53125 C 80.042969 10.886719 80.1875 10.132812 80.1875 9.273438 Z M 91.125 9.4375 C 91.125 10.558594 91.363281 11.496094 91.839844 12.25 C 92.3125 13.007812 93.074219 13.382812 94.121094 13.382812 C 94.9375 13.382812 95.605469 13.035156 96.128906 12.335938 C 96.652344 11.636719 96.917969 10.632812 96.917969 9.320312 C 96.917969 8 96.644531 7.023438 96.105469 6.386719 C 95.566406 5.753906 94.898438 5.4375 94.105469 5.4375 C 93.21875 5.4375 92.5 5.773438 91.949219 6.453125 C 91.398438 7.128906 91.125 8.125 91.125 9.4375 Z M 93.769531 3.902344 C 94.570312 3.902344 95.242188 4.070312 95.785156 4.410156 C 96.097656 4.605469 96.449219 4.945312 96.847656 5.4375 L 96.847656 0.152344 L 98.535156 0.152344 L 98.535156 14.546875 L 96.957031 14.546875 L 96.957031 13.09375 C 96.546875 13.738281 96.058594 14.203125 95.5 14.488281 C 94.941406 14.773438 94.300781 14.917969 93.574219 14.917969 C 92.410156 14.917969 91.402344 14.429688 90.550781 13.449219 C 89.695312 12.46875 89.269531 11.164062 89.269531 9.539062 C 89.269531 8.015625 89.660156 6.695312 90.4375 5.578125 C 91.214844 4.460938 92.324219 3.902344 93.769531 3.902344 Z M 105.488281 3.851562 C 106.230469 3.851562 106.949219 4.027344 107.648438 4.375 C 108.34375 4.722656 108.875 5.175781 109.238281 5.726562 C 109.589844 6.253906 109.824219 6.871094 109.941406 7.574219 C 110.046875 8.054688 110.097656 8.824219 110.097656 9.878906 L 102.429688 9.878906 C 102.464844 10.941406 102.714844 11.792969 103.183594 12.433594 C 103.652344 13.074219 104.378906 13.394531 105.359375 13.394531 C 106.277344 13.394531 107.011719 13.09375 107.558594 12.484375 C 107.871094 12.132812 108.09375 11.726562 108.222656 11.265625 L 109.953125 11.265625 C 109.90625 11.648438 109.753906 12.078125 109.496094 12.550781 C 109.238281 13.023438 108.953125 13.40625 108.632812 13.707031 C 108.097656 14.226562 107.4375 14.578125 106.648438 14.761719 C 106.226562 14.867188 105.75 14.917969 105.214844 14.917969 C 103.914062 14.917969 102.808594 14.445312 101.90625 13.496094 C 101 12.550781 100.546875 11.222656 100.546875 9.515625 C 100.546875 7.835938 101.003906 6.472656 101.914062 5.425781 C 102.824219 4.378906 104.015625 3.851562 105.488281 3.851562 Z M 108.289062 8.484375 C 108.21875 7.722656 108.054688 7.113281 107.792969 6.65625 C 107.3125 5.808594 106.507812 5.386719 105.382812 5.386719 C 104.574219 5.386719 103.898438 5.679688 103.351562 6.261719 C 102.804688 6.84375 102.511719 7.585938 102.480469 8.484375 Z M 112.695312 2.496094 C 112.722656 1.765625 112.851562 1.234375 113.078125 0.894531 C 113.488281 0.296875 114.28125 -0.00390625 115.453125 -0.00390625 C 115.5625 -0.00390625 115.675781 0 115.792969 0.0078125 C 115.910156 0.0117188 116.042969 0.0234375 116.195312 0.0351562 L 116.195312 1.636719 C 116.011719 1.625 115.878906 1.617188 115.796875 1.613281 C 115.714844 1.609375 115.640625 1.609375 115.570312 1.609375 C 115.035156 1.609375 114.714844 1.746094 114.609375 2.023438 C 114.507812 2.300781 114.453125 3.003906 114.453125 4.136719 L 116.195312 4.136719 L 116.195312 5.523438 L 114.4375 5.523438 L 114.4375 14.546875 L 112.695312 14.546875 L 112.695312 5.523438 L 111.242188 5.523438 L 111.242188 4.136719 L 112.695312 4.136719 Z M 119.160156 11.765625 C 119.160156 12.273438 119.34375 12.671875 119.71875 12.964844 C 120.089844 13.257812 120.527344 13.40625 121.035156 13.40625 C 121.652344 13.40625 122.253906 13.261719 122.832031 12.976562 C 123.808594 12.5 124.296875 11.722656 124.296875 10.640625 L 124.296875 9.226562 C 124.082031 9.363281 123.804688 9.476562 123.46875 9.566406 C 123.128906 9.65625 122.796875 9.722656 122.46875 9.761719 L 121.40625 9.898438 C 120.769531 9.984375 120.289062 10.117188 119.96875 10.296875 C 119.429688 10.605469 119.160156 11.09375 119.160156 11.765625 Z M 123.417969 8.210938 C 123.820312 8.15625 124.09375 7.988281 124.226562 7.703125 C 124.304688 7.546875 124.34375 7.320312 124.34375 7.027344 C 124.34375 6.429688 124.132812 5.992188 123.707031 5.722656 C 123.28125 5.453125 122.667969 5.320312 121.875 5.320312 C 120.957031 5.320312 120.304688 5.566406 119.921875 6.0625 C 119.707031 6.335938 119.566406 6.742188 119.5 7.28125 L 117.859375 7.28125 C 117.894531 5.992188 118.3125 5.09375 119.117188 4.589844 C 119.921875 4.085938 120.851562 3.835938 121.914062 3.835938 C 123.144531 3.835938 124.144531 4.070312 124.914062 4.539062 C 125.675781 5.007812 126.054688 5.734375 126.054688 6.726562 L 126.054688 12.75 C 126.054688 12.933594 126.09375 13.078125 126.167969 13.1875 C 126.242188 13.300781 126.398438 13.355469 126.640625 13.355469 C 126.71875 13.355469 126.804688 13.351562 126.90625 13.339844 C 127.003906 13.332031 127.105469 13.316406 127.21875 13.296875 L 127.21875 14.59375 C 126.945312 14.671875 126.734375 14.722656 126.59375 14.742188 C 126.449219 14.761719 126.253906 14.773438 126.007812 14.773438 C 125.402344 14.773438 124.960938 14.554688 124.6875 14.125 C 124.542969 13.898438 124.445312 13.578125 124.382812 13.160156 C 124.027344 13.628906 123.511719 14.035156 122.84375 14.382812 C 122.171875 14.726562 121.433594 14.898438 120.625 14.898438 C 119.65625 14.898438 118.863281 14.605469 118.246094 14.015625 C 117.632812 13.425781 117.324219 12.6875 117.324219 11.804688 C 117.324219 10.832031 117.625 10.082031 118.234375 9.546875 C 118.839844 9.011719 119.632812 8.683594 120.617188 8.5625 Z M 130.695312 4.085938 L 130.695312 11.03125 C 130.695312 11.566406 130.78125 12 130.949219 12.339844 C 131.261719 12.964844 131.84375 13.277344 132.695312 13.277344 C 133.921875 13.277344 134.753906 12.730469 135.195312 11.636719 C 135.4375 11.050781 135.558594 10.246094 135.558594 9.226562 L 135.558594 4.085938 L 137.316406 4.085938 L 137.316406 14.546875 L 135.65625 14.546875 L 135.675781 13.003906 C 135.449219 13.402344 135.164062 13.734375 134.828125 14.007812 C 134.15625 14.554688 133.34375 14.828125 132.382812 14.828125 C 130.894531 14.828125 129.878906 14.332031 129.335938 13.335938 C 129.042969 12.800781 128.898438 12.089844 128.898438 11.195312 L 128.898438 4.085938 Z M 140.109375 0.203125 L 141.867188 0.203125 L 141.867188 14.546875 L 140.109375 14.546875 Z M 144.855469 1.167969 L 146.632812 1.167969 L 146.632812 4.085938 L 148.300781 4.085938 L 148.300781 5.523438 L 146.632812 5.523438 L 146.632812 12.351562 C 146.632812 12.714844 146.757812 12.957031 147.003906 13.082031 C 147.140625 13.152344 147.367188 13.1875 147.6875 13.1875 C 147.773438 13.1875 147.863281 13.1875 147.960938 13.183594 C 148.058594 13.179688 148.171875 13.171875 148.300781 13.160156 L 148.300781 14.546875 C 148.101562 14.605469 147.890625 14.648438 147.671875 14.671875 C 147.453125 14.699219 147.21875 14.710938 146.964844 14.710938 C 146.144531 14.710938 145.589844 14.503906 145.292969 14.082031 C 145 13.664062 144.855469 13.117188 144.855469 12.445312 L 144.855469 5.523438 L 143.441406 5.523438 L 143.441406 4.085938 L 144.855469 4.085938 Z M 156.054688 2.496094 C 156.082031 1.765625 156.210938 1.234375 156.4375 0.894531 C 156.847656 0.296875 157.640625 -0.00390625 158.8125 -0.00390625 C 158.921875 -0.00390625 159.035156 0 159.152344 0.0078125 C 159.269531 0.0117188 159.402344 0.0234375 159.554688 0.0351562 L 159.554688 1.636719 C 159.371094 1.625 159.238281 1.617188 159.15625 1.613281 C 159.074219 1.609375 159 1.609375 158.929688 1.609375 C 158.394531 1.609375 158.074219 1.746094 157.96875 2.023438 C 157.867188 2.300781 157.8125 3.003906 157.8125 4.136719 L 159.554688 4.136719 L 159.554688 5.523438 L 157.796875 5.523438 L 157.796875 14.546875 L 156.054688 14.546875 L 156.054688 5.523438 L 154.601562 5.523438 L 154.601562 4.136719 L 156.054688 4.136719 Z M 165.320312 13.414062 C 166.488281 13.414062 167.285156 12.972656 167.71875 12.089844 C 168.152344 11.207031 168.367188 10.226562 168.367188 9.148438 C 168.367188 8.171875 168.210938 7.375 167.898438 6.765625 C 167.40625 5.800781 166.554688 5.320312 165.34375 5.320312 C 164.269531 5.320312 163.484375 5.726562 163 6.546875 C 162.511719 7.367188 162.265625 8.359375 162.265625 9.515625 C 162.265625 10.628906 162.507812 11.558594 163 12.300781 C 163.488281 13.042969 164.261719 13.414062 165.320312 13.414062 Z M 165.390625 3.785156 C 166.738281 3.785156 167.878906 4.234375 168.808594 5.132812 C 169.738281 6.03125 170.203125 7.351562 170.203125 9.097656 C 170.203125 10.785156 169.796875 12.175781 168.976562 13.277344 C 168.15625 14.378906 166.882812 14.929688 165.15625 14.929688 C 163.71875 14.929688 162.574219 14.441406 161.726562 13.46875 C 160.882812 12.496094 160.460938 11.1875 160.460938 9.546875 C 160.460938 7.789062 160.90625 6.390625 161.796875 5.347656 C 162.6875 4.304688 163.886719 3.785156 165.390625 3.785156 Z M 172.296875 4.085938 L 173.96875 4.085938 L 173.96875 5.570312 C 174.460938 4.960938 174.984375 4.519531 175.539062 4.253906 C 176.09375 3.988281 176.707031 3.851562 177.382812 3.851562 C 178.867188 3.851562 179.871094 4.371094 180.390625 5.40625 C 180.679688 5.972656 180.820312 6.78125 180.820312 7.835938 L 180.820312 14.546875 L 179.035156 14.546875 L 179.035156 7.953125 C 179.035156 7.316406 178.941406 6.804688 178.75 6.414062 C 178.4375 5.761719 177.875 5.4375 177.054688 5.4375 C 176.636719 5.4375 176.292969 5.476562 176.027344 5.5625 C 175.546875 5.707031 175.121094 5.992188 174.757812 6.421875 C 174.464844 6.765625 174.273438 7.125 174.1875 7.492188 C 174.097656 7.859375 174.054688 8.382812 174.054688 9.070312 L 174.054688 14.546875 L 172.296875 14.546875 Z M 183.773438 1.167969 L 185.550781 1.167969 L 185.550781 4.085938 L 187.21875 4.085938 L 187.21875 5.523438 L 185.550781 5.523438 L 185.550781 12.351562 C 185.550781 12.714844 185.675781 12.957031 185.921875 13.082031 C 186.058594 13.152344 186.285156 13.1875 186.605469 13.1875 C 186.691406 13.1875 186.78125 13.1875 186.878906 13.183594 C 186.976562 13.179688 187.089844 13.171875 187.21875 13.160156 L 187.21875 14.546875 C 187.019531 14.605469 186.808594 14.648438 186.589844 14.671875 C 186.371094 14.699219 186.136719 14.710938 185.882812 14.710938 C 185.0625 14.710938 184.507812 14.503906 184.210938 14.082031 C 183.917969 13.664062 183.773438 13.117188 183.773438 12.445312 L 183.773438 5.523438 L 182.359375 5.523438 L 182.359375 4.085938 L 183.773438 4.085938 Z M -1.335938 -0.851562 "/>
<path fill-rule="nonzero" fill="rgb(0%, 0%, 0%)" fill-opacity="1" d="M 0 23.113281 L 1.789062 23.113281 L 1.789062 33.523438 L 0 33.523438 Z M 0 19.179688 L 1.789062 19.179688 L 1.789062 21.171875 L 0 21.171875 Z M 4.882812 21.472656 C 4.910156 20.742188 5.039062 20.210938 5.265625 19.871094 C 5.675781 19.273438 6.46875 18.972656 7.640625 18.972656 C 7.75 18.972656 7.863281 18.976562 7.980469 18.984375 C 8.097656 18.988281 8.230469 19 8.382812 19.011719 L 8.382812 20.613281 C 8.199219 20.601562 8.066406 20.59375 7.984375 20.589844 C 7.902344 20.585938 7.828125 20.585938 7.757812 20.585938 C 7.222656 20.585938 6.902344 20.722656 6.796875 21 C 6.695312 21.277344 6.640625 21.980469 6.640625 23.113281 L 8.382812 23.113281 L 8.382812 24.5 L 6.625 24.5 L 6.625 33.523438 L 4.882812 33.523438 L 4.882812 24.5 L 3.429688 24.5 L 3.429688 23.113281 L 4.882812 23.113281 Z M 15.992188 21.472656 C 16.019531 20.742188 16.148438 20.210938 16.375 19.871094 C 16.785156 19.273438 17.578125 18.972656 18.75 18.972656 C 18.859375 18.972656 18.972656 18.976562 19.089844 18.984375 C 19.207031 18.988281 19.339844 19 19.492188 19.011719 L 19.492188 20.613281 C 19.308594 20.601562 19.175781 20.59375 19.09375 20.589844 C 19.011719 20.585938 18.9375 20.585938 18.867188 20.585938 C 18.332031 20.585938 18.011719 20.722656 17.90625 21 C 17.804688 21.277344 17.75 21.980469 17.75 23.113281 L 19.492188 23.113281 L 19.492188 24.5 L 17.734375 24.5 L 17.734375 33.523438 L 15.992188 33.523438 L 15.992188 24.5 L 14.539062 24.5 L 14.539062 23.113281 L 15.992188 23.113281 Z M 25.261719 32.390625 C 26.429688 32.390625 27.226562 31.949219 27.660156 31.066406 C 28.09375 30.183594 28.308594 29.203125 28.308594 28.125 C 28.308594 27.148438 28.152344 26.351562 27.839844 25.742188 C 27.347656 24.777344 26.496094 24.296875 25.285156 24.296875 C 24.210938 24.296875 23.425781 24.703125 22.941406 25.523438 C 22.453125 26.34375 22.207031 27.335938 22.207031 28.492188 C 22.207031 29.605469 22.449219 30.535156 22.941406 31.277344 C 23.429688 32.019531 24.203125 32.390625 25.261719 32.390625 Z M 25.332031 22.761719 C 26.679688 22.761719 27.820312 23.210938 28.75 24.109375 C 29.679688 25.007812 30.144531 26.328125 30.144531 28.074219 C 30.144531 29.761719 29.738281 31.152344 28.917969 32.253906 C 28.097656 33.355469 26.824219 33.90625 25.097656 33.90625 C 23.660156 33.90625 22.515625 33.417969 21.667969 32.445312 C 20.824219 31.472656 20.402344 30.164062 20.402344 28.523438 C 20.402344 26.765625 20.847656 25.367188 21.738281 24.324219 C 22.628906 23.28125 23.828125 22.761719 25.332031 22.761719 Z M 32.234375 23.0625 L 33.90625 23.0625 L 33.90625 24.546875 C 34.398438 23.9375 34.921875 23.496094 35.476562 23.230469 C 36.03125 22.964844 36.644531 22.828125 37.320312 22.828125 C 38.804688 22.828125 39.808594 23.347656 40.328125 24.382812 C 40.617188 24.949219 40.757812 25.757812 40.757812 26.8125 L 40.757812 33.523438 L 38.972656 33.523438 L 38.972656 26.929688 C 38.972656 26.292969 38.878906 25.78125 38.6875 25.390625 C 38.375 24.738281 37.8125 24.414062 36.992188 24.414062 C 36.574219 24.414062 36.230469 24.453125 35.964844 24.539062 C 35.484375 24.683594 35.058594 24.96875 34.695312 25.398438 C 34.402344 25.742188 34.210938 26.101562 34.125 26.46875 C 34.035156 26.835938 33.992188 27.359375 33.992188 28.046875 L 33.992188 33.523438 L 32.234375 33.523438 Z M 43.710938 20.144531 L 45.488281 20.144531 L 45.488281 23.0625 L 47.15625 23.0625 L 47.15625 24.5 L 45.488281 24.5 L 45.488281 31.328125 C 45.488281 31.691406 45.613281 31.933594 45.859375 32.058594 C 45.996094 32.128906 46.222656 32.164062 46.542969 32.164062 C 46.628906 32.164062 46.71875 32.164062 46.816406 32.160156 C 46.914062 32.15625 47.027344 32.148438 47.15625 32.136719 L 47.15625 33.523438 C 46.957031 33.582031 46.746094 33.625 46.527344 33.648438 C 46.308594 33.675781 46.074219 33.6875 45.820312 33.6875 C 45 33.6875 44.445312 33.480469 44.148438 33.058594 C 43.855469 32.640625 43.710938 32.09375 43.710938 31.421875 L 43.710938 24.5 L 42.296875 24.5 L 42.296875 23.0625 L 43.710938 23.0625 Z M 54.472656 23.113281 L 56.261719 23.113281 L 56.261719 33.523438 L 54.472656 33.523438 Z M 54.472656 19.179688 L 56.261719 19.179688 L 56.261719 21.171875 L 54.472656 21.171875 Z M 59.960938 30.242188 C 60.011719 30.828125 60.15625 31.277344 60.398438 31.589844 C 60.839844 32.15625 61.609375 32.4375 62.703125 32.4375 C 63.355469 32.4375 63.925781 32.296875 64.421875 32.015625 C 64.917969 31.730469 65.164062 31.292969 65.164062 30.703125 C 65.164062 30.253906 64.964844 29.910156 64.570312 29.675781 C 64.316406 29.53125 63.8125 29.367188 63.0625 29.179688 L 61.667969 28.828125 C 60.777344 28.605469 60.117188 28.359375 59.695312 28.085938 C 58.941406 27.609375 58.5625 26.953125 58.5625 26.109375 C 58.5625 25.121094 58.917969 24.320312 59.632812 23.710938 C 60.34375 23.097656 61.304688 22.789062 62.507812 22.789062 C 64.082031 22.789062 65.21875 23.253906 65.914062 24.179688 C 66.351562 24.765625 66.5625 25.394531 66.550781 26.070312 L 64.890625 26.070312 C 64.859375 25.675781 64.71875 25.3125 64.46875 24.988281 C 64.066406 24.527344 63.367188 24.296875 62.371094 24.296875 C 61.707031 24.296875 61.203125 24.421875 60.863281 24.675781 C 60.519531 24.929688 60.351562 25.265625 60.351562 25.679688 C 60.351562 26.136719 60.574219 26.5 61.023438 26.773438 C 61.285156 26.9375 61.667969 27.082031 62.175781 27.203125 L 63.335938 27.488281 C 64.601562 27.792969 65.445312 28.089844 65.875 28.375 C 66.558594 28.824219 66.902344 29.53125 66.902344 30.496094 C 66.902344 31.425781 66.550781 32.230469 65.84375 32.90625 C 65.136719 33.585938 64.0625 33.921875 62.617188 33.921875 C 61.058594 33.921875 59.957031 33.570312 59.308594 32.863281 C 58.660156 32.15625 58.316406 31.285156 58.269531 30.242188 Z M 74.472656 23.0625 L 76.144531 23.0625 L 76.144531 24.546875 C 76.636719 23.9375 77.160156 23.496094 77.714844 23.230469 C 78.269531 22.964844 78.882812 22.828125 79.558594 22.828125 C 81.042969 22.828125 82.046875 23.347656 82.566406 24.382812 C 82.855469 24.949219 82.996094 25.757812 82.996094 26.8125 L 82.996094 33.523438 L 81.210938 33.523438 L 81.210938 26.929688 C 81.210938 26.292969 81.117188 25.78125 80.925781 25.390625 C 80.613281 24.738281 80.050781 24.414062 79.230469 24.414062 C 78.8125 24.414062 78.46875 24.453125 78.203125 24.539062 C 77.722656 24.683594 77.296875 24.96875 76.933594 25.398438 C 76.640625 25.742188 76.449219 26.101562 76.363281 26.46875 C 76.273438 26.835938 76.230469 27.359375 76.230469 28.046875 L 76.230469 33.523438 L 74.472656 33.523438 Z M 89.742188 32.390625 C 90.910156 32.390625 91.707031 31.949219 92.140625 31.066406 C 92.574219 30.183594 92.789062 29.203125 92.789062 28.125 C 92.789062 27.148438 92.632812 26.351562 92.320312 25.742188 C 91.828125 24.777344 90.976562 24.296875 89.765625 24.296875 C 88.691406 24.296875 87.90625 24.703125 87.421875 25.523438 C 86.933594 26.34375 86.6875 27.335938 86.6875 28.492188 C 86.6875 29.605469 86.929688 30.535156 87.421875 31.277344 C 87.910156 32.019531 88.683594 32.390625 89.742188 32.390625 Z M 89.8125 22.761719 C 91.160156 22.761719 92.300781 23.210938 93.230469 24.109375 C 94.160156 25.007812 94.625 26.328125 94.625 28.074219 C 94.625 29.761719 94.21875 31.152344 93.398438 32.253906 C 92.578125 33.355469 91.304688 33.90625 89.578125 33.90625 C 88.140625 33.90625 86.996094 33.417969 86.148438 32.445312 C 85.304688 31.472656 84.882812 30.164062 84.882812 28.523438 C 84.882812 26.765625 85.328125 25.367188 86.21875 24.324219 C 87.109375 23.28125 88.308594 22.761719 89.8125 22.761719 Z M 97.070312 20.144531 L 98.847656 20.144531 L 98.847656 23.0625 L 100.515625 23.0625 L 100.515625 24.5 L 98.847656 24.5 L 98.847656 31.328125 C 98.847656 31.691406 98.972656 31.933594 99.21875 32.058594 C 99.355469 32.128906 99.582031 32.164062 99.902344 32.164062 C 99.988281 32.164062 100.078125 32.164062 100.175781 32.160156 C 100.273438 32.15625 100.386719 32.148438 100.515625 32.136719 L 100.515625 33.523438 C 100.316406 33.582031 100.105469 33.625 99.886719 33.648438 C 99.667969 33.675781 99.433594 33.6875 99.179688 33.6875 C 98.359375 33.6875 97.804688 33.480469 97.507812 33.058594 C 97.214844 32.640625 97.070312 32.09375 97.070312 31.421875 L 97.070312 24.5 L 95.65625 24.5 L 95.65625 23.0625 L 97.070312 23.0625 Z M 107.832031 23.113281 L 109.621094 23.113281 L 109.621094 33.523438 L 107.832031 33.523438 Z M 107.832031 19.179688 L 109.621094 19.179688 L 109.621094 21.171875 L 107.832031 21.171875 Z M 112.273438 23.0625 L 113.945312 23.0625 L 113.945312 24.546875 C 114.4375 23.9375 114.960938 23.496094 115.515625 23.230469 C 116.070312 22.964844 116.683594 22.828125 117.359375 22.828125 C 118.84375 22.828125 119.847656 23.347656 120.367188 24.382812 C 120.65625 24.949219 120.796875 25.757812 120.796875 26.8125 L 120.796875 33.523438 L 119.011719 33.523438 L 119.011719 26.929688 C 119.011719 26.292969 118.917969 25.78125 118.726562 25.390625 C 118.414062 24.738281 117.851562 24.414062 117.03125 24.414062 C 116.613281 24.414062 116.269531 24.453125 116.003906 24.539062 C 115.523438 24.683594 115.097656 24.96875 114.734375 25.398438 C 114.441406 25.742188 114.25 26.101562 114.164062 26.46875 C 114.074219 26.835938 114.03125 27.359375 114.03125 28.046875 L 114.03125 33.523438 L 112.273438 33.523438 Z M 124.445312 30.242188 C 124.496094 30.828125 124.640625 31.277344 124.882812 31.589844 C 125.324219 32.15625 126.09375 32.4375 127.1875 32.4375 C 127.839844 32.4375 128.410156 32.296875 128.90625 32.015625 C 129.402344 31.730469 129.648438 31.292969 129.648438 30.703125 C 129.648438 30.253906 129.449219 29.910156 129.054688 29.675781 C 128.800781 29.53125 128.296875 29.367188 127.546875 29.179688 L 126.152344 28.828125 C 125.261719 28.605469 124.601562 28.359375 124.179688 28.085938 C 123.425781 27.609375 123.046875 26.953125 123.046875 26.109375 C 123.046875 25.121094 123.402344 24.320312 124.117188 23.710938 C 124.828125 23.097656 125.789062 22.789062 126.992188 22.789062 C 128.566406 22.789062 129.703125 23.253906 130.398438 24.179688 C 130.835938 24.765625 131.046875 25.394531 131.035156 26.070312 L 129.375 26.070312 C 129.34375 25.675781 129.203125 25.3125 128.953125 24.988281 C 128.550781 24.527344 127.851562 24.296875 126.855469 24.296875 C 126.191406 24.296875 125.6875 24.421875 125.347656 24.675781 C 125.003906 24.929688 124.835938 25.265625 124.835938 25.679688 C 124.835938 26.136719 125.058594 26.5 125.507812 26.773438 C 125.769531 26.9375 126.152344 27.082031 126.660156 27.203125 L 127.820312 27.488281 C 129.085938 27.792969 129.929688 28.089844 130.359375 28.375 C 131.042969 28.824219 131.386719 29.53125 131.386719 30.496094 C 131.386719 31.425781 131.035156 32.230469 130.328125 32.90625 C 129.621094 33.585938 128.546875 33.921875 127.101562 33.921875 C 125.542969 33.921875 124.441406 33.570312 123.792969 32.863281 C 123.144531 32.15625 122.800781 31.285156 122.753906 30.242188 Z M 133.75 20.144531 L 135.527344 20.144531 L 135.527344 23.0625 L 137.195312 23.0625 L 137.195312 24.5 L 135.527344 24.5 L 135.527344 31.328125 C 135.527344 31.691406 135.652344 31.933594 135.898438 32.058594 C 136.035156 32.128906 136.261719 32.164062 136.582031 32.164062 C 136.667969 32.164062 136.757812 32.164062 136.855469 32.160156 C 136.953125 32.15625 137.066406 32.148438 137.195312 32.136719 L 137.195312 33.523438 C 136.996094 33.582031 136.785156 33.625 136.566406 33.648438 C 136.347656 33.675781 136.113281 33.6875 135.859375 33.6875 C 135.039062 33.6875 134.484375 33.480469 134.1875 33.058594 C 133.894531 32.640625 133.75 32.09375 133.75 31.421875 L 133.75 24.5 L 132.335938 24.5 L 132.335938 23.0625 L 133.75 23.0625 Z M 140.300781 30.742188 C 140.300781 31.25 140.484375 31.648438 140.859375 31.941406 C 141.230469 32.234375 141.667969 32.382812 142.175781 32.382812 C 142.792969 32.382812 143.394531 32.238281 143.972656 31.953125 C 144.949219 31.476562 145.4375 30.699219 145.4375 29.617188 L 145.4375 28.203125 C 145.222656 28.339844 144.945312 28.453125 144.609375 28.542969 C 144.269531 28.632812 143.9375 28.699219 143.609375 28.738281 L 142.546875 28.875 C 141.910156 28.960938 141.429688 29.09375 141.109375 29.273438 C 140.570312 29.582031 140.300781 30.070312 140.300781 30.742188 Z M 144.558594 27.1875 C 144.960938 27.132812 145.234375 26.964844 145.367188 26.679688 C 145.445312 26.523438 145.484375 26.296875 145.484375 26.003906 C 145.484375 25.40625 145.273438 24.96875 144.847656 24.699219 C 144.421875 24.429688 143.808594 24.296875 143.015625 24.296875 C 142.097656 24.296875 141.445312 24.542969 141.0625 25.039062 C 140.847656 25.3125 140.707031 25.71875 140.640625 26.257812 L 139 26.257812 C 139.035156 24.96875 139.453125 24.070312 140.257812 23.566406 C 141.0625 23.0625 141.992188 22.8125 143.054688 22.8125 C 144.285156 22.8125 145.285156 23.046875 146.054688 23.515625 C 146.816406 23.984375 147.195312 24.710938 147.195312 25.703125 L 147.195312 31.726562 C 147.195312 31.910156 147.234375 32.054688 147.308594 32.164062 C 147.382812 32.277344 147.539062 32.332031 147.78125 32.332031 C 147.859375 32.332031 147.945312 32.328125 148.046875 32.316406 C 148.144531 32.308594 148.246094 32.292969 148.359375 32.273438 L 148.359375 33.570312 C 148.085938 33.648438 147.875 33.699219 147.734375 33.71875 C 147.589844 33.738281 147.394531 33.75 147.148438 33.75 C 146.542969 33.75 146.101562 33.53125 145.828125 33.101562 C 145.683594 32.875 145.585938 32.554688 145.523438 32.136719 C 145.167969 32.605469 144.652344 33.011719 143.984375 33.359375 C 143.3125 33.703125 142.574219 33.875 141.765625 33.875 C 140.796875 33.875 140.003906 33.582031 139.386719 32.992188 C 138.773438 32.402344 138.464844 31.664062 138.464844 30.78125 C 138.464844 29.808594 138.765625 29.058594 139.375 28.523438 C 139.980469 27.988281 140.773438 27.660156 141.757812 27.539062 Z M 150.125 19.179688 L 151.882812 19.179688 L 151.882812 33.523438 L 150.125 33.523438 Z M 154.570312 19.179688 L 156.328125 19.179688 L 156.328125 33.523438 L 154.570312 33.523438 Z M 163.320312 22.828125 C 164.0625 22.828125 164.78125 23.003906 165.480469 23.351562 C 166.175781 23.699219 166.707031 24.152344 167.070312 24.703125 C 167.421875 25.230469 167.65625 25.847656 167.773438 26.550781 C 167.878906 27.03125 167.929688 27.800781 167.929688 28.855469 L 160.261719 28.855469 C 160.296875 29.917969 160.546875 30.769531 161.015625 31.410156 C 161.484375 32.050781 162.210938 32.371094 163.191406 32.371094 C 164.109375 32.371094 164.84375 32.070312 165.390625 31.460938 C 165.703125 31.109375 165.925781 30.703125 166.054688 30.242188 L 167.785156 30.242188 C 167.738281 30.625 167.585938 31.054688 167.328125 31.527344 C 167.070312 32 166.785156 32.382812 166.464844 32.683594 C 165.929688 33.203125 165.269531 33.554688 164.480469 33.738281 C 164.058594 33.84375 163.582031 33.894531 163.046875 33.894531 C 161.746094 33.894531 160.640625 33.421875 159.738281 32.472656 C 158.832031 31.527344 158.378906 30.199219 158.378906 28.492188 C 158.378906 26.8125 158.835938 25.449219 159.746094 24.402344 C 160.65625 23.355469 161.847656 22.828125 163.320312 22.828125 Z M 166.121094 27.460938 C 166.050781 26.699219 165.886719 26.089844 165.625 25.632812 C 165.144531 24.785156 164.339844 24.363281 163.214844 24.363281 C 162.40625 24.363281 161.730469 24.65625 161.183594 25.238281 C 160.636719 25.820312 160.34375 26.5625 160.3125 27.460938 Z M 171.199219 28.414062 C 171.199219 29.535156 171.4375 30.472656 171.914062 31.226562 C 172.386719 31.984375 173.148438 32.359375 174.195312 32.359375 C 175.011719 32.359375 175.679688 32.011719 176.203125 31.3125 C 176.726562 30.613281 176.992188 29.609375 176.992188 28.296875 C 176.992188 26.976562 176.71875 26 176.179688 25.363281 C 175.640625 24.730469 174.972656 24.414062 174.179688 24.414062 C 173.292969 24.414062 172.574219 24.75 172.023438 25.429688 C 171.472656 26.105469 171.199219 27.101562 171.199219 28.414062 Z M 173.84375 22.878906 C 174.644531 22.878906 175.316406 23.046875 175.859375 23.386719 C 176.171875 23.582031 176.523438 23.921875 176.921875 24.414062 L 176.921875 19.128906 L 178.609375 19.128906 L 178.609375 33.523438 L 177.03125 33.523438 L 177.03125 32.070312 C 176.621094 32.714844 176.132812 33.179688 175.574219 33.464844 C 175.015625 33.75 174.375 33.894531 173.648438 33.894531 C 172.484375 33.894531 171.476562 33.40625 170.625 32.425781 C 169.769531 31.445312 169.34375 30.140625 169.34375 28.515625 C 169.34375 26.992188 169.734375 25.671875 170.511719 24.554688 C 171.289062 23.4375 172.398438 22.878906 173.84375 22.878906 Z M -1.289062 18.125 "/>
</svg>
