<?xml version="1.0" encoding="UTF-8"?>
<svg xmlns="http://www.w3.org/2000/svg" xmlns:xlink="http://www.w3.org/1999/xlink" width="155" height="51" viewBox="0 0 155 51">
<rect x="-15.5" y="-5.1" width="186" height="61.2" fill="rgb(0%, 0%, 100%)" fill-opacity="1"/>
<path fill-rule="nonzero" fill="rgb(0%, 0%, 0%)" fill-opacity="1" d="M 0 0 L 2.566406 0 L 2.566406 7.808594 C 3.140625 7.058594 3.828125 6.484375 4.632812 6.089844 C 5.433594 5.695312 6.300781 5.496094 7.238281 5.496094 C 9.191406 5.496094 10.777344 6.167969 11.992188 7.507812 C 13.207031 8.851562 13.816406 10.832031 13.816406 13.449219 C 13.816406 15.929688 13.214844 17.992188 12.015625 19.632812 C 10.8125 21.273438 9.148438 22.09375 7.019531 22.09375 C 5.828125 22.09375 4.820312 21.804688 4 21.226562 C 3.511719 20.886719 2.992188 20.339844 2.433594 19.585938 L 2.433594 21.59375 L 0 21.59375 Z M 6.859375 19.761719 C 8.285156 19.761719 9.351562 19.195312 10.058594 18.0625 C 10.765625 16.929688 11.121094 15.4375 11.121094 13.582031 C 11.121094 11.929688 10.765625 10.5625 10.058594 9.480469 C 9.351562 8.394531 8.308594 7.851562 6.929688 7.851562 C 5.730469 7.851562 4.675781 8.296875 3.773438 9.1875 C 2.871094 10.074219 2.417969 11.539062 2.417969 13.582031 C 2.417969 15.054688 2.605469 16.25 2.976562 17.171875 C 3.667969 18.898438 4.960938 19.761719 6.859375 19.761719 Z M 18.910156 17.417969 C 18.910156 18.179688 19.191406 18.78125 19.746094 19.21875 C 20.304688 19.660156 20.964844 19.878906 21.722656 19.878906 C 22.652344 19.878906 23.550781 19.664062 24.417969 19.234375 C 25.882812 18.523438 26.617188 17.355469 26.617188 15.734375 L 26.617188 13.609375 C 26.292969 13.816406 25.878906 13.984375 25.371094 14.125 C 24.863281 14.261719 24.367188 14.359375 23.878906 14.414062 L 22.28125 14.621094 C 21.324219 14.75 20.605469 14.949219 20.128906 15.222656 C 19.316406 15.679688 18.910156 16.414062 18.910156 17.417969 Z M 25.300781 12.085938 C 25.90625 12.007812 26.308594 11.753906 26.515625 11.324219 C 26.632812 11.089844 26.691406 10.753906 26.691406 10.3125 C 26.691406 9.414062 26.371094 8.765625 25.730469 8.359375 C 25.089844 7.953125 24.175781 7.75 22.984375 7.75 C 21.605469 7.75 20.628906 8.121094 20.054688 8.863281 C 19.730469 9.273438 19.523438 9.882812 19.425781 10.695312 L 16.964844 10.695312 C 17.011719 8.761719 17.640625 7.417969 18.847656 6.660156 C 20.050781 5.902344 21.449219 5.523438 23.042969 5.523438 C 24.886719 5.523438 26.386719 5.875 27.539062 6.578125 C 28.683594 7.28125 29.253906 8.375 29.253906 9.859375 L 29.253906 18.898438 C 29.253906 19.171875 29.308594 19.390625 29.421875 19.558594 C 29.535156 19.722656 29.769531 19.804688 30.132812 19.804688 C 30.25 19.804688 30.382812 19.800781 30.527344 19.785156 C 30.675781 19.769531 30.832031 19.75 30.996094 19.71875 L 30.996094 21.667969 C 30.585938 21.785156 30.273438 21.859375 30.058594 21.886719 C 29.84375 21.914062 29.550781 21.929688 29.179688 21.929688 C 28.273438 21.929688 27.613281 21.609375 27.203125 20.964844 C 26.988281 20.621094 26.835938 20.140625 26.75 19.515625 C 26.210938 20.21875 25.441406 20.828125 24.433594 21.34375 C 23.429688 21.863281 22.320312 22.121094 21.109375 22.121094 C 19.652344 22.121094 18.464844 21.679688 17.542969 20.796875 C 16.621094 19.914062 16.160156 18.804688 16.160156 17.476562 C 16.160156 16.023438 16.613281 14.894531 17.519531 14.09375 C 18.429688 13.292969 19.621094 12.800781 21.09375 12.613281 Z M 39.625 5.453125 C 41.390625 5.453125 42.828125 5.882812 43.9375 6.742188 C 45.046875 7.601562 45.710938 9.078125 45.9375 11.179688 L 43.375 11.179688 C 43.21875 10.210938 42.859375 9.410156 42.304688 8.769531 C 41.75 8.128906 40.855469 7.808594 39.625 7.808594 C 37.945312 7.808594 36.742188 8.628906 36.019531 10.269531 C 35.550781 11.335938 35.316406 12.648438 35.316406 14.210938 C 35.316406 15.78125 35.648438 17.105469 36.3125 18.179688 C 36.976562 19.253906 38.023438 19.792969 39.449219 19.792969 C 40.542969 19.792969 41.410156 19.457031 42.046875 18.789062 C 42.6875 18.121094 43.128906 17.203125 43.375 16.042969 L 45.9375 16.042969 C 45.644531 18.121094 44.914062 19.644531 43.742188 20.605469 C 42.570312 21.566406 41.070312 22.046875 39.242188 22.046875 C 37.191406 22.046875 35.554688 21.296875 34.335938 19.800781 C 33.117188 18.300781 32.503906 16.429688 32.503906 14.179688 C 32.503906 11.425781 33.171875 9.285156 34.511719 7.75 C 35.851562 6.21875 37.554688 5.453125 39.625 5.453125 Z M 48.515625 0.0742188 L 51.050781 0.0742188 L 51.050781 12.570312 L 57.816406 5.90625 L 61.1875 5.90625 L 55.179688 11.78125 L 61.523438 21.59375 L 58.15625 21.59375 L 53.261719 13.683594 L 51.050781 15.703125 L 51.050781 21.59375 L 48.515625 21.59375 Z M 69.109375 5.625 C 70.339844 5.625 71.414062 5.929688 72.335938 6.535156 C 72.832031 6.875 73.339844 7.375 73.859375 8.03125 L 73.859375 6.050781 L 76.289062 6.050781 L 76.289062 20.320312 C 76.289062 22.3125 75.996094 23.882812 75.410156 25.035156 C 74.316406 27.164062 72.25 28.230469 69.214844 28.230469 C 67.523438 28.230469 66.101562 27.851562 64.953125 27.09375 C 63.800781 26.335938 63.15625 25.152344 63.015625 23.542969 L 65.699219 23.542969 C 65.824219 24.246094 66.078125 24.789062 66.460938 25.167969 C 67.054688 25.753906 67.992188 26.046875 69.273438 26.046875 C 71.292969 26.046875 72.617188 25.335938 73.242188 23.90625 C 73.613281 23.066406 73.785156 21.570312 73.753906 19.410156 C 73.226562 20.210938 72.59375 20.808594 71.851562 21.199219 C 71.109375 21.589844 70.125 21.785156 68.90625 21.785156 C 67.207031 21.785156 65.71875 21.179688 64.445312 19.976562 C 63.171875 18.769531 62.535156 16.773438 62.535156 13.992188 C 62.535156 11.363281 63.175781 9.3125 64.460938 7.839844 C 65.746094 6.363281 67.296875 5.625 69.109375 5.625 Z M 73.859375 13.683594 C 73.859375 11.742188 73.457031 10.300781 72.65625 9.363281 C 71.855469 8.425781 70.835938 7.957031 69.59375 7.957031 C 67.738281 7.957031 66.46875 8.824219 65.785156 10.5625 C 65.425781 11.492188 65.242188 12.707031 65.242188 14.210938 C 65.242188 15.976562 65.601562 17.324219 66.320312 18.246094 C 67.039062 19.167969 68.003906 19.632812 69.214844 19.632812 C 71.109375 19.632812 72.441406 18.777344 73.210938 17.066406 C 73.640625 16.101562 73.859375 14.972656 73.859375 13.683594 Z M 80.335938 5.90625 L 82.839844 5.90625 L 82.839844 8.617188 C 83.046875 8.089844 83.546875 7.445312 84.347656 6.6875 C 85.148438 5.929688 86.070312 5.554688 87.117188 5.554688 C 87.164062 5.554688 87.25 5.558594 87.367188 5.570312 C 87.484375 5.578125 87.683594 5.597656 87.96875 5.625 L 87.96875 8.410156 C 87.8125 8.382812 87.667969 8.359375 87.535156 8.351562 C 87.402344 8.34375 87.257812 8.335938 87.101562 8.335938 C 85.773438 8.335938 84.753906 8.765625 84.039062 9.617188 C 83.328125 10.472656 82.972656 11.457031 82.972656 12.570312 L 82.972656 21.59375 L 80.335938 21.59375 Z M 96.476562 19.894531 C 98.222656 19.894531 99.421875 19.234375 100.070312 17.910156 C 100.722656 16.585938 101.046875 15.113281 101.046875 13.492188 C 101.046875 12.027344 100.8125 10.835938 100.34375 9.917969 C 99.601562 8.472656 98.320312 7.75 96.503906 7.75 C 94.894531 7.75 93.722656 8.367188 92.988281 9.597656 C 92.257812 10.828125 91.890625 12.3125 91.890625 14.050781 C 91.890625 15.71875 92.257812 17.109375 92.988281 18.226562 C 93.722656 19.339844 94.882812 19.894531 96.476562 19.894531 Z M 96.578125 5.453125 C 98.597656 5.453125 100.308594 6.125 101.707031 7.472656 C 103.101562 8.820312 103.800781 10.804688 103.800781 13.421875 C 103.800781 15.949219 103.183594 18.039062 101.953125 19.6875 C 100.722656 21.339844 98.816406 22.164062 96.226562 22.164062 C 94.066406 22.164062 92.355469 21.433594 91.085938 19.976562 C 89.816406 18.515625 89.179688 16.554688 89.179688 14.09375 C 89.179688 11.457031 89.847656 9.359375 91.1875 7.796875 C 92.527344 6.234375 94.324219 5.453125 96.578125 5.453125 Z M 109.570312 5.90625 L 109.570312 16.320312 C 109.570312 17.121094 109.695312 17.773438 109.953125 18.28125 C 110.421875 19.21875 111.292969 19.6875 112.574219 19.6875 C 114.410156 19.6875 115.660156 18.867188 116.324219 17.226562 C 116.683594 16.347656 116.867188 15.144531 116.867188 13.609375 L 116.867188 5.90625 L 119.5 5.90625 L 119.5 21.59375 L 117.011719 21.59375 L 117.039062 19.28125 C 116.699219 19.875 116.273438 20.378906 115.765625 20.789062 C 114.761719 21.609375 113.539062 22.019531 112.105469 22.019531 C 109.867188 22.019531 108.34375 21.273438 107.535156 19.777344 C 107.09375 18.976562 106.875 17.90625 106.875 16.570312 L 106.875 5.90625 Z M 123.621094 5.90625 L 126.125 5.90625 L 126.125 8.132812 C 126.867188 7.214844 127.65625 6.554688 128.484375 6.15625 C 129.3125 5.753906 130.238281 5.554688 131.253906 5.554688 C 133.480469 5.554688 134.984375 6.328125 135.765625 7.882812 C 136.195312 8.734375 136.410156 9.949219 136.410156 11.53125 L 136.410156 21.59375 L 133.726562 21.59375 L 133.726562 11.707031 C 133.726562 10.75 133.585938 9.976562 133.304688 9.390625 C 132.835938 8.414062 131.984375 7.925781 130.753906 7.925781 C 130.128906 7.925781 129.617188 7.992188 129.21875 8.117188 C 128.496094 8.332031 127.859375 8.761719 127.3125 9.40625 C 126.875 9.921875 126.585938 10.457031 126.457031 11.011719 C 126.324219 11.5625 126.257812 12.351562 126.257812 13.375 L 126.257812 21.59375 L 123.621094 21.59375 Z M 141.972656 13.933594 C 141.972656 15.613281 142.332031 17.019531 143.042969 18.152344 C 143.757812 19.285156 144.898438 19.851562 146.472656 19.851562 C 147.691406 19.851562 148.695312 19.324219 149.480469 18.277344 C 150.269531 17.226562 150.660156 15.71875 150.660156 13.757812 C 150.660156 11.773438 150.253906 10.308594 149.445312 9.355469 C 148.636719 8.402344 147.632812 7.925781 146.441406 7.925781 C 145.113281 7.925781 144.039062 8.433594 143.210938 9.449219 C 142.386719 10.464844 141.972656 11.960938 141.972656 13.933594 Z M 145.945312 5.625 C 147.144531 5.625 148.152344 5.882812 148.960938 6.390625 C 149.429688 6.683594 149.964844 7.195312 150.558594 7.925781 L 150.558594 0 L 153.09375 0 L 153.09375 21.59375 L 150.71875 21.59375 L 150.71875 19.410156 C 150.105469 20.378906 149.378906 21.078125 148.535156 21.507812 C 147.695312 21.9375 146.734375 22.148438 145.652344 22.148438 C 143.902344 22.148438 142.390625 21.414062 141.109375 19.945312 C 139.832031 18.476562 139.191406 16.519531 139.191406 14.078125 C 139.191406 11.792969 139.773438 9.8125 140.941406 8.140625 C 142.109375 6.464844 143.777344 5.625 145.945312 5.625 Z M -1.726562 -1.507812 "/>
<path fill-rule="nonzero" fill="rgb(0%, 0%, 0%)" fill-opacity="1" d="M 7.121094 33.679688 C 8.886719 33.679688 10.324219 34.109375 11.433594 34.96875 C 12.542969 35.828125 13.207031 37.304688 13.433594 39.40625 L 10.871094 39.40625 C 10.714844 38.4375 10.355469 37.636719 9.800781 36.996094 C 9.246094 36.355469 8.351562 36.035156 7.121094 36.035156 C 5.441406 36.035156 4.238281 36.855469 3.515625 38.496094 C 3.046875 39.5625 2.8125 40.875 2.8125 42.4375 C 2.8125 44.007812 3.144531 45.332031 3.808594 46.40625 C 4.472656 47.480469 5.519531 48.019531 6.945312 48.019531 C 8.039062 48.019531 8.90625 47.683594 9.542969 47.015625 C 10.183594 46.347656 10.625 45.429688 10.871094 44.269531 L 13.433594 44.269531 C 13.140625 46.347656 12.410156 47.871094 11.238281 48.832031 C 10.066406 49.792969 8.566406 50.273438 6.738281 50.273438 C 4.6875 50.273438 3.050781 49.523438 1.832031 48.027344 C 0.613281 46.527344 0 44.65625 0 42.40625 C 0 39.652344 0.667969 37.511719 2.007812 35.976562 C 3.347656 34.445312 5.050781 33.679688 7.121094 33.679688 Z M 22.296875 48.121094 C 24.042969 48.121094 25.242188 47.460938 25.890625 46.136719 C 26.542969 44.8125 26.867188 43.339844 26.867188 41.71875 C 26.867188 40.253906 26.632812 39.0625 26.164062 38.144531 C 25.421875 36.699219 24.140625 35.976562 22.324219 35.976562 C 20.714844 35.976562 19.542969 36.59375 18.808594 37.824219 C 18.078125 39.054688 17.710938 40.539062 17.710938 42.277344 C 17.710938 43.945312 18.078125 45.335938 18.808594 46.453125 C 19.542969 47.566406 20.703125 48.121094 22.296875 48.121094 Z M 22.398438 33.679688 C 24.417969 33.679688 26.128906 34.351562 27.527344 35.699219 C 28.921875 37.046875 29.621094 39.03125 29.621094 41.648438 C 29.621094 44.175781 29.003906 46.265625 27.773438 47.914062 C 26.542969 49.566406 24.636719 50.390625 22.046875 50.390625 C 19.886719 50.390625 18.175781 49.660156 16.90625 48.203125 C 15.636719 46.742188 15 44.78125 15 42.320312 C 15 39.683594 15.667969 37.585938 17.007812 36.023438 C 18.347656 34.460938 20.144531 33.679688 22.398438 33.679688 Z M 32.828125 28.300781 L 35.464844 28.300781 L 35.464844 49.820312 L 32.828125 49.820312 Z M 45.644531 48.121094 C 47.390625 48.121094 48.589844 47.460938 49.238281 46.136719 C 49.890625 44.8125 50.214844 43.339844 50.214844 41.71875 C 50.214844 40.253906 49.980469 39.0625 49.511719 38.144531 C 48.769531 36.699219 47.488281 35.976562 45.671875 35.976562 C 44.0625 35.976562 42.890625 36.59375 42.15625 37.824219 C 41.425781 39.054688 41.058594 40.539062 41.058594 42.277344 C 41.058594 43.945312 41.425781 45.335938 42.15625 46.453125 C 42.890625 47.566406 44.050781 48.121094 45.644531 48.121094 Z M 45.746094 33.679688 C 47.765625 33.679688 49.476562 34.351562 50.875 35.699219 C 52.269531 37.046875 52.96875 39.03125 52.96875 41.648438 C 52.96875 44.175781 52.351562 46.265625 51.121094 47.914062 C 49.890625 49.566406 47.984375 50.390625 45.394531 50.390625 C 43.234375 50.390625 41.523438 49.660156 40.253906 48.203125 C 38.984375 46.742188 38.347656 44.78125 38.347656 42.320312 C 38.347656 39.683594 39.015625 37.585938 40.355469 36.023438 C 41.695312 34.460938 43.492188 33.679688 45.746094 33.679688 Z M 56.179688 34.132812 L 58.683594 34.132812 L 58.683594 36.84375 C 58.890625 36.316406 59.390625 35.671875 60.191406 34.914062 C 60.992188 34.15625 61.914062 33.78125 62.960938 33.78125 C 63.007812 33.78125 63.09375 33.785156 63.210938 33.796875 C 63.328125 33.804688 63.527344 33.824219 63.8125 33.851562 L 63.8125 36.636719 C 63.65625 36.609375 63.511719 36.585938 63.378906 36.578125 C 63.246094 36.570312 63.101562 36.5625 62.945312 36.5625 C 61.617188 36.5625 60.597656 36.992188 59.882812 37.84375 C 59.171875 38.699219 58.816406 39.683594 58.816406 40.796875 L 58.816406 49.820312 L 56.179688 49.820312 Z M -0.863281 26.71875 "/>
</svg>
