<?xml version="1.0" encoding="UTF-8"?>
<svg xmlns="http://www.w3.org/2000/svg" xmlns:xlink="http://www.w3.org/1999/xlink" width="65" height="23" viewBox="0 0 65 23">
<path fill-rule="nonzero" fill="rgb(100%, 0%, 0%)" fill-opacity="1" d="M 7.121094 5.378906 C 8.886719 5.378906 10.324219 5.808594 11.433594 6.667969 C 12.542969 7.527344 13.207031 9.003906 13.433594 11.105469 L 10.871094 11.105469 C 10.714844 10.136719 10.355469 9.335938 9.800781 8.695312 C 9.246094 8.054688 8.351562 7.734375 7.121094 7.734375 C 5.441406 7.734375 4.238281 8.554688 3.515625 10.195312 C 3.046875 11.261719 2.8125 12.574219 2.8125 14.136719 C 2.8125 15.707031 3.144531 17.03125 3.808594 18.105469 C 4.472656 19.179688 5.519531 19.71875 6.945312 19.71875 C 8.039062 19.71875 8.90625 19.382812 9.542969 18.714844 C 10.183594 18.046875 10.625 17.128906 10.871094 15.96875 L 13.433594 15.96875 C 13.140625 18.046875 12.410156 19.570312 11.238281 20.53125 C 10.066406 21.492188 8.566406 21.972656 6.738281 21.972656 C 4.6875 21.972656 3.050781 21.222656 1.832031 19.726562 C 0.613281 18.226562 0 16.355469 0 14.105469 C 0 11.351562 0.667969 9.210938 2.007812 7.675781 C 3.347656 6.144531 5.050781 5.378906 7.121094 5.378906 Z M 22.296875 19.820312 C 24.042969 19.820312 25.242188 19.160156 25.890625 17.835938 C 26.542969 16.511719 26.867188 15.039062 26.867188 13.417969 C 26.867188 11.953125 26.632812 10.761719 26.164062 9.84375 C 25.421875 8.398438 24.140625 7.675781 22.324219 7.675781 C 20.714844 7.675781 19.542969 8.292969 18.808594 9.523438 C 18.078125 10.753906 17.710938 12.238281 17.710938 13.976562 C 17.710938 15.644531 18.078125 17.035156 18.808594 18.152344 C 19.542969 19.265625 20.703125 19.820312 22.296875 19.820312 Z M 22.398438 5.378906 C 24.417969 5.378906 26.128906 6.050781 27.527344 7.398438 C 28.921875 8.746094 29.621094 10.730469 29.621094 13.347656 C 29.621094 15.875 29.003906 17.964844 27.773438 19.613281 C 26.542969 21.265625 24.636719 22.089844 22.046875 22.089844 C 19.886719 22.089844 18.175781 21.359375 16.90625 19.902344 C 15.636719 18.441406 15 16.480469 15 14.019531 C 15 11.382812 15.667969 9.285156 17.007812 7.722656 C 18.347656 6.160156 20.144531 5.378906 22.398438 5.378906 Z M 32.828125 0 L 35.464844 0 L 35.464844 21.519531 L 32.828125 21.519531 Z M 45.644531 19.820312 C 47.390625 19.820312 48.589844 19.160156 49.238281 17.835938 C 49.890625 16.511719 50.214844 15.039062 50.214844 13.417969 C 50.214844 11.953125 49.980469 10.761719 49.511719 9.84375 C 48.769531 8.398438 47.488281 7.675781 45.671875 7.675781 C 44.0625 7.675781 42.890625 8.292969 42.15625 9.523438 C 41.425781 10.753906 41.058594 12.238281 41.058594 13.976562 C 41.058594 15.644531 41.425781 17.035156 42.15625 18.152344 C 42.890625 19.265625 44.050781 19.820312 45.644531 19.820312 Z M 45.746094 5.378906 C 47.765625 5.378906 49.476562 6.050781 50.875 7.398438 C 52.269531 8.746094 52.96875 10.730469 52.96875 13.347656 C 52.96875 15.875 52.351562 17.964844 51.121094 19.613281 C 49.890625 21.265625 47.984375 22.089844 45.394531 22.089844 C 43.234375 22.089844 41.523438 21.359375 40.253906 19.902344 C 38.984375 18.441406 38.347656 16.480469 38.347656 14.019531 C 38.347656 11.382812 39.015625 9.285156 40.355469 7.722656 C 41.695312 6.160156 43.492188 5.378906 45.746094 5.378906 Z M 56.179688 5.832031 L 58.683594 5.832031 L 58.683594 8.542969 C 58.890625 8.015625 59.390625 7.371094 60.191406 6.613281 C 60.992188 5.855469 61.914062 5.480469 62.960938 5.480469 C 63.007812 5.480469 63.09375 5.484375 63.210938 5.496094 C 63.328125 5.503906 63.527344 5.523438 63.8125 5.550781 L 63.8125 8.335938 C 63.65625 8.308594 63.511719 8.285156 63.378906 8.277344 C 63.246094 8.269531 63.101562 8.261719 62.945312 8.261719 C 61.617188 8.261719 60.597656 8.691406 59.882812 9.542969 C 59.171875 10.398438 58.816406 11.382812 58.816406 12.496094 L 58.816406 21.519531 L 56.179688 21.519531 Z M -0.863281 -1.582031 "/>
</svg>
