<?xml version="1.0" encoding="UTF-8"?>
<svg xmlns="http://www.w3.org/2000/svg" xmlns:xlink="http://www.w3.org/1999/xlink" width="102" height="75" viewBox="0 0 102 75">
<defs>
<filter id="filter-remove-color-and-invert-alpha" x="0%" y="0%" width="100%" height="100%">
<feColorMatrix color-interpolation-filters="sRGB" values="0 0 0 0 1 0 0 0 0 1 0 0 0 0 1 0 0 0 -1 1"/>
</filter>
<filter id="filter-0" x="0%" y="0%" width="100%" height="100%">
<feImage xlink:href="#compositing-group-1" result="source" x="0" y="0" width="122.4" height="90"/>
<feImage xlink:href="#compositing-group-2" result="destination" x="0" y="0" width="122.4" height="90"/>
<feComposite in="source" in2="destination" operator="arithmetic" k1="0" k2="1" k3="1" k4="0" color-interpolation-filters="sRGB"/>
</filter>
<g id="compositing-group-0" transform="translate(10.2, 7.5)">
<rect x="-10.2" y="-7.5" width="122.4" height="90" fill="rgb(0%, 0%, 0%)" fill-opacity="0"/>
<path fill-rule="nonzero" fill="rgb(100%, 100%, 100%)" fill-opacity="1" d="M 5 20 L 92 20 L 92 65 L 5 65 Z M 5 20 "/>
</g>
<mask id="mask-0">
<use xlink:href="#compositing-group-0"/>
</mask>
<mask id="mask-1">
<use xlink:href="#compositing-group-0" filter="url(#filter-remove-color-and-invert-alpha)"/>
</mask>
<g id="compositing-group-1" mask="url(#mask-0)">
<g transform="translate(10.2, 7.5)">
</g>
</g>
<g id="compositing-group-2" mask="url(#mask-1)">
<g transform="translate(10.2, 7.5)">
<rect x="-10.2" y="-7.5" width="122.4" height="90" fill="rgb(0%, 50.196078%, 0%)" fill-opacity="1"/>
</g>
</g>
</defs>
<g filter="url(#filter-0)" transform="translate(-10.2, -7.5)">
<rect x="0" y="0" width="122.4" height="90" fill="rgb(0%, 0%, 0%)" fill-opacity="1"/>
</g>
<path fill-rule="nonzero" fill="rgb(0%, 0%, 0%)" fill-opacity="1" d="M 7.882812 25.90625 L 10.902344 38.269531 L 13.960938 25.90625 L 16.921875 25.90625 L 20 38.195312 L 23.207031 25.90625 L 25.84375 25.90625 L 21.289062 41.59375 L 18.546875 41.59375 L 15.355469 29.449219 L 12.265625 41.59375 L 9.523438 41.59375 L 5 25.90625 Z M 28.332031 25.976562 L 31.011719 25.976562 L 31.011719 41.59375 L 28.332031 41.59375 Z M 28.332031 20.074219 L 31.011719 20.074219 L 31.011719 23.0625 L 28.332031 23.0625 Z M 35.523438 21.523438 L 38.1875 21.523438 L 38.1875 25.90625 L 40.695312 25.90625 L 40.695312 28.058594 L 38.1875 28.058594 L 38.1875 38.296875 C 38.1875 38.84375 38.375 39.210938 38.746094 39.398438 C 38.953125 39.503906 39.292969 39.558594 39.773438 39.558594 C 39.898438 39.558594 40.035156 39.554688 40.179688 39.550781 C 40.328125 39.546875 40.5 39.53125 40.695312 39.515625 L 40.695312 41.59375 C 40.390625 41.679688 40.078125 41.746094 39.75 41.785156 C 39.421875 41.824219 39.070312 41.84375 38.6875 41.84375 C 37.457031 41.84375 36.621094 41.527344 36.183594 40.898438 C 35.742188 40.269531 35.523438 39.449219 35.523438 38.445312 L 35.523438 28.058594 L 33.398438 28.058594 L 33.398438 25.90625 L 35.523438 25.90625 Z M 43.332031 20 L 45.96875 20 L 45.96875 28.03125 C 46.59375 27.238281 47.15625 26.679688 47.652344 26.359375 C 48.503906 25.804688 49.5625 25.523438 50.832031 25.523438 C 53.109375 25.523438 54.648438 26.320312 55.460938 27.914062 C 55.898438 28.78125 56.121094 29.988281 56.121094 31.53125 L 56.121094 41.59375 L 53.410156 41.59375 L 53.410156 31.707031 C 53.410156 30.554688 53.265625 29.710938 52.96875 29.171875 C 52.492188 28.3125 51.59375 27.882812 50.273438 27.882812 C 49.179688 27.882812 48.191406 28.257812 47.300781 29.011719 C 46.414062 29.761719 45.96875 31.183594 45.96875 33.273438 L 45.96875 41.59375 L 43.332031 41.59375 Z M 4.734375 18.492188 "/>
<path fill-rule="nonzero" fill="rgb(0%, 0%, 0%)" fill-opacity="1" d="M 5 42.164062 L 7.566406 42.164062 L 7.566406 49.972656 C 8.140625 49.222656 8.828125 48.648438 9.632812 48.253906 C 10.433594 47.859375 11.300781 47.660156 12.238281 47.660156 C 14.191406 47.660156 15.777344 48.332031 16.992188 49.671875 C 18.207031 51.015625 18.816406 52.996094 18.816406 55.613281 C 18.816406 58.09375 18.214844 60.15625 17.015625 61.796875 C 15.8125 63.4375 14.148438 64.257812 12.019531 64.257812 C 10.828125 64.257812 9.820312 63.96875 9 63.390625 C 8.511719 63.050781 7.992188 62.503906 7.433594 61.75 L 7.433594 63.757812 L 5 63.757812 Z M 11.859375 61.925781 C 13.285156 61.925781 14.351562 61.359375 15.058594 60.226562 C 15.765625 59.09375 16.121094 57.601562 16.121094 55.746094 C 16.121094 54.09375 15.765625 52.726562 15.058594 51.644531 C 14.351562 50.558594 13.308594 50.015625 11.929688 50.015625 C 10.730469 50.015625 9.675781 50.460938 8.773438 51.351562 C 7.871094 52.238281 7.417969 53.703125 7.417969 55.746094 C 7.417969 57.21875 7.605469 58.414062 7.976562 59.335938 C 8.667969 61.0625 9.960938 61.925781 11.859375 61.925781 Z M 28.117188 62.058594 C 29.863281 62.058594 31.0625 61.398438 31.710938 60.074219 C 32.363281 58.75 32.6875 57.277344 32.6875 55.65625 C 32.6875 54.191406 32.453125 53 31.984375 52.082031 C 31.242188 50.636719 29.960938 49.914062 28.144531 49.914062 C 26.535156 49.914062 25.363281 50.53125 24.628906 51.761719 C 23.898438 52.992188 23.53125 54.476562 23.53125 56.214844 C 23.53125 57.882812 23.898438 59.273438 24.628906 60.390625 C 25.363281 61.503906 26.523438 62.058594 28.117188 62.058594 Z M 28.21875 47.617188 C 30.238281 47.617188 31.949219 48.289062 33.347656 49.636719 C 34.742188 50.984375 35.441406 52.96875 35.441406 55.585938 C 35.441406 58.113281 34.824219 60.203125 33.59375 61.851562 C 32.363281 63.503906 30.457031 64.328125 27.867188 64.328125 C 25.707031 64.328125 23.996094 63.597656 22.726562 62.140625 C 21.457031 60.679688 20.820312 58.71875 20.820312 56.257812 C 20.820312 53.621094 21.488281 51.523438 22.828125 49.960938 C 24.167969 48.398438 25.964844 47.617188 28.21875 47.617188 Z M 38.648438 48.070312 L 41.152344 48.070312 L 41.152344 50.78125 C 41.359375 50.253906 41.859375 49.609375 42.660156 48.851562 C 43.460938 48.09375 44.382812 47.71875 45.429688 47.71875 C 45.476562 47.71875 45.5625 47.722656 45.679688 47.734375 C 45.796875 47.742188 45.996094 47.761719 46.28125 47.789062 L 46.28125 50.574219 C 46.125 50.546875 45.980469 50.523438 45.847656 50.515625 C 45.714844 50.507812 45.570312 50.5 45.414062 50.5 C 44.085938 50.5 43.066406 50.929688 42.351562 51.78125 C 41.640625 52.636719 41.285156 53.621094 41.285156 54.734375 L 41.285156 63.757812 L 38.648438 63.757812 Z M 50.234375 56.097656 C 50.234375 57.777344 50.59375 59.183594 51.304688 60.316406 C 52.019531 61.449219 53.160156 62.015625 54.734375 62.015625 C 55.953125 62.015625 56.957031 61.488281 57.742188 60.441406 C 58.53125 59.390625 58.921875 57.882812 58.921875 55.921875 C 58.921875 53.9375 58.515625 52.472656 57.707031 51.519531 C 56.898438 50.566406 55.894531 50.089844 54.703125 50.089844 C 53.375 50.089844 52.300781 50.597656 51.472656 51.613281 C 50.648438 52.628906 50.234375 54.125 50.234375 56.097656 Z M 54.207031 47.789062 C 55.40625 47.789062 56.414062 48.046875 57.222656 48.554688 C 57.691406 48.847656 58.226562 49.359375 58.820312 50.089844 L 58.820312 42.164062 L 61.355469 42.164062 L 61.355469 63.757812 L 58.980469 63.757812 L 58.980469 61.574219 C 58.367188 62.542969 57.640625 63.242188 56.796875 63.671875 C 55.957031 64.101562 54.996094 64.3125 53.914062 64.3125 C 52.164062 64.3125 50.652344 63.578125 49.371094 62.109375 C 48.09375 60.640625 47.453125 58.683594 47.453125 56.242188 C 47.453125 53.957031 48.035156 51.976562 49.203125 50.304688 C 50.371094 48.628906 52.039062 47.789062 54.207031 47.789062 Z M 71.785156 47.71875 C 72.898438 47.71875 73.976562 47.980469 75.019531 48.5 C 76.066406 49.023438 76.863281 49.699219 77.410156 50.53125 C 77.9375 51.320312 78.285156 52.242188 78.464844 53.296875 C 78.621094 54.019531 78.699219 55.171875 78.699219 56.757812 L 67.199219 56.757812 C 67.246094 58.347656 67.621094 59.625 68.324219 60.585938 C 69.027344 61.546875 70.117188 62.03125 71.59375 62.03125 C 72.96875 62.03125 74.066406 61.574219 74.886719 60.667969 C 75.355469 60.140625 75.691406 59.53125 75.886719 58.835938 L 78.476562 58.835938 C 78.410156 59.414062 78.183594 60.054688 77.796875 60.761719 C 77.410156 61.46875 76.980469 62.046875 76.5 62.5 C 75.699219 63.28125 74.707031 63.804688 73.527344 64.078125 C 72.890625 64.234375 72.175781 64.3125 71.371094 64.3125 C 69.417969 64.3125 67.765625 63.605469 66.40625 62.183594 C 65.050781 60.761719 64.371094 58.773438 64.371094 56.214844 C 64.371094 53.695312 65.054688 51.648438 66.421875 50.078125 C 67.789062 48.503906 69.574219 47.71875 71.785156 47.71875 Z M 75.988281 54.660156 C 75.878906 53.519531 75.628906 52.605469 75.238281 51.921875 C 74.515625 50.652344 73.3125 50.015625 71.621094 50.015625 C 70.410156 50.015625 69.394531 50.453125 68.574219 51.328125 C 67.753906 52.203125 67.320312 53.3125 67.269531 54.660156 Z M 82.007812 48.070312 L 84.511719 48.070312 L 84.511719 50.78125 C 84.71875 50.253906 85.21875 49.609375 86.019531 48.851562 C 86.820312 48.09375 87.742188 47.71875 88.789062 47.71875 C 88.835938 47.71875 88.921875 47.722656 89.039062 47.734375 C 89.15625 47.742188 89.355469 47.761719 89.640625 47.789062 L 89.640625 50.574219 C 89.484375 50.546875 89.339844 50.523438 89.207031 50.515625 C 89.074219 50.507812 88.929688 50.5 88.773438 50.5 C 87.445312 50.5 86.425781 50.929688 85.710938 51.78125 C 85 52.636719 84.644531 53.621094 84.644531 54.734375 L 84.644531 63.757812 L 82.007812 63.757812 Z M 3.273438 40.65625 "/>
</svg>
