<?xml version="1.0" encoding="UTF-8"?>
<svg xmlns="http://www.w3.org/2000/svg" xmlns:xlink="http://www.w3.org/1999/xlink" width="254" height="102" viewBox="0 0 254 102">
<rect x="-25.4" y="-10.2" width="304.8" height="122.4" fill="rgb(0%, 50.196078%, 0%)" fill-opacity="1"/>
<path fill-rule="nonzero" fill="rgb(100%, 100%, 100%)" fill-opacity="1" d="M 50 20 L 244 20 L 244 92 L 50 92 Z M 50 20 "/>
<path fill-rule="nonzero" fill="rgb(0%, 0%, 0%)" fill-opacity="1" d="M 60 30 L 62.566406 30 L 62.566406 37.808594 C 63.140625 37.058594 63.828125 36.484375 64.632812 36.089844 C 65.433594 35.695312 66.300781 35.496094 67.238281 35.496094 C 69.191406 35.496094 70.777344 36.167969 71.992188 37.507812 C 73.207031 38.851562 73.816406 40.832031 73.816406 43.449219 C 73.816406 45.929688 73.214844 47.992188 72.015625 49.632812 C 70.8125 51.273438 69.148438 52.09375 67.019531 52.09375 C 65.828125 52.09375 64.820312 51.804688 64 51.226562 C 63.511719 50.886719 62.992188 50.339844 62.433594 49.585938 L 62.433594 51.59375 L 60 51.59375 Z M 66.859375 49.761719 C 68.285156 49.761719 69.351562 49.195312 70.058594 48.0625 C 70.765625 46.929688 71.121094 45.4375 71.121094 43.582031 C 71.121094 41.929688 70.765625 40.5625 70.058594 39.480469 C 69.351562 38.394531 68.308594 37.851562 66.929688 37.851562 C 65.730469 37.851562 64.675781 38.296875 63.773438 39.1875 C 62.871094 40.074219 62.417969 41.539062 62.417969 43.582031 C 62.417969 45.054688 62.605469 46.25 62.976562 47.171875 C 63.667969 48.898438 64.960938 49.761719 66.859375 49.761719 Z M 83.117188 49.894531 C 84.863281 49.894531 86.0625 49.234375 86.710938 47.910156 C 87.363281 46.585938 87.6875 45.113281 87.6875 43.492188 C 87.6875 42.027344 87.453125 40.835938 86.984375 39.917969 C 86.242188 38.472656 84.960938 37.75 83.144531 37.75 C 81.535156 37.75 80.363281 38.367188 79.628906 39.597656 C 78.898438 40.828125 78.53125 42.3125 78.53125 44.050781 C 78.53125 45.71875 78.898438 47.109375 79.628906 48.226562 C 80.363281 49.339844 81.523438 49.894531 83.117188 49.894531 Z M 83.21875 35.453125 C 85.238281 35.453125 86.949219 36.125 88.347656 37.472656 C 89.742188 38.820312 90.441406 40.804688 90.441406 43.421875 C 90.441406 45.949219 89.824219 48.039062 88.59375 49.6875 C 87.363281 51.339844 85.457031 52.164062 82.867188 52.164062 C 80.707031 52.164062 78.996094 51.433594 77.726562 49.976562 C 76.457031 48.515625 75.820312 46.554688 75.820312 44.09375 C 75.820312 41.457031 76.488281 39.359375 77.828125 37.796875 C 79.167969 36.234375 80.964844 35.453125 83.21875 35.453125 Z M 93.648438 35.90625 L 96.152344 35.90625 L 96.152344 38.617188 C 96.359375 38.089844 96.859375 37.445312 97.660156 36.6875 C 98.460938 35.929688 99.382812 35.554688 100.429688 35.554688 C 100.476562 35.554688 100.5625 35.558594 100.679688 35.570312 C 100.796875 35.578125 100.996094 35.597656 101.28125 35.625 L 101.28125 38.410156 C 101.125 38.382812 100.980469 38.359375 100.847656 38.351562 C 100.714844 38.34375 100.570312 38.335938 100.414062 38.335938 C 99.085938 38.335938 98.066406 38.765625 97.351562 39.617188 C 96.640625 40.472656 96.285156 41.457031 96.285156 42.570312 L 96.285156 51.59375 L 93.648438 51.59375 Z M 105.234375 43.933594 C 105.234375 45.613281 105.59375 47.019531 106.304688 48.152344 C 107.019531 49.285156 108.160156 49.851562 109.734375 49.851562 C 110.953125 49.851562 111.957031 49.324219 112.742188 48.277344 C 113.53125 47.226562 113.921875 45.71875 113.921875 43.757812 C 113.921875 41.773438 113.515625 40.308594 112.707031 39.355469 C 111.898438 38.402344 110.894531 37.925781 109.703125 37.925781 C 108.375 37.925781 107.300781 38.433594 106.472656 39.449219 C 105.648438 40.464844 105.234375 41.960938 105.234375 43.933594 Z M 109.207031 35.625 C 110.40625 35.625 111.414062 35.882812 112.222656 36.390625 C 112.691406 36.683594 113.226562 37.195312 113.820312 37.925781 L 113.820312 30 L 116.355469 30 L 116.355469 51.59375 L 113.980469 51.59375 L 113.980469 49.410156 C 113.367188 50.378906 112.640625 51.078125 111.796875 51.507812 C 110.957031 51.9375 109.996094 52.148438 108.914062 52.148438 C 107.164062 52.148438 105.652344 51.414062 104.371094 49.945312 C 103.09375 48.476562 102.453125 46.519531 102.453125 44.078125 C 102.453125 41.792969 103.035156 39.8125 104.203125 38.140625 C 105.371094 36.464844 107.039062 35.625 109.207031 35.625 Z M 126.785156 35.554688 C 127.898438 35.554688 128.976562 35.816406 130.019531 36.335938 C 131.066406 36.859375 131.863281 37.535156 132.410156 38.367188 C 132.9375 39.15625 133.285156 40.078125 133.464844 41.132812 C 133.621094 41.855469 133.699219 43.007812 133.699219 44.59375 L 122.199219 44.59375 C 122.246094 46.183594 122.621094 47.460938 123.324219 48.421875 C 124.027344 49.382812 125.117188 49.867188 126.59375 49.867188 C 127.96875 49.867188 129.066406 49.410156 129.886719 48.503906 C 130.355469 47.976562 130.691406 47.367188 130.886719 46.671875 L 133.476562 46.671875 C 133.410156 47.25 133.183594 47.890625 132.796875 48.597656 C 132.410156 49.304688 131.980469 49.882812 131.5 50.335938 C 130.699219 51.117188 129.707031 51.640625 128.527344 51.914062 C 127.890625 52.070312 127.175781 52.148438 126.371094 52.148438 C 124.417969 52.148438 122.765625 51.441406 121.40625 50.019531 C 120.050781 48.597656 119.371094 46.609375 119.371094 44.050781 C 119.371094 41.53125 120.054688 39.484375 121.421875 37.914062 C 122.789062 36.339844 124.574219 35.554688 126.785156 35.554688 Z M 130.988281 42.496094 C 130.878906 41.355469 130.628906 40.441406 130.238281 39.757812 C 129.515625 38.488281 128.3125 37.851562 126.621094 37.851562 C 125.410156 37.851562 124.394531 38.289062 123.574219 39.164062 C 122.753906 40.039062 122.320312 41.148438 122.269531 42.496094 Z M 137.007812 35.90625 L 139.511719 35.90625 L 139.511719 38.617188 C 139.71875 38.089844 140.21875 37.445312 141.019531 36.6875 C 141.820312 35.929688 142.742188 35.554688 143.789062 35.554688 C 143.835938 35.554688 143.921875 35.558594 144.039062 35.570312 C 144.15625 35.578125 144.355469 35.597656 144.640625 35.625 L 144.640625 38.410156 C 144.484375 38.382812 144.339844 38.359375 144.207031 38.351562 C 144.074219 38.34375 143.929688 38.335938 143.773438 38.335938 C 142.445312 38.335938 141.425781 38.765625 140.710938 39.617188 C 140 40.472656 139.644531 41.457031 139.644531 42.570312 L 139.644531 51.59375 L 137.007812 51.59375 Z M 58.273438 28.492188 "/>
<path fill-rule="nonzero" fill="rgb(0%, 0%, 0%)" fill-opacity="1" d="M 62.75 75.644531 C 62.75 76.40625 63.03125 77.007812 63.585938 77.445312 C 64.144531 77.886719 64.804688 78.105469 65.5625 78.105469 C 66.492188 78.105469 67.390625 77.890625 68.257812 77.460938 C 69.722656 76.75 70.457031 75.582031 70.457031 73.960938 L 70.457031 71.835938 C 70.132812 72.042969 69.71875 72.210938 69.210938 72.351562 C 68.703125 72.488281 68.207031 72.585938 67.71875 72.640625 L 66.121094 72.847656 C 65.164062 72.976562 64.445312 73.175781 63.96875 73.449219 C 63.15625 73.90625 62.75 74.640625 62.75 75.644531 Z M 69.140625 70.3125 C 69.746094 70.234375 70.148438 69.980469 70.355469 69.550781 C 70.472656 69.316406 70.53125 68.980469 70.53125 68.539062 C 70.53125 67.640625 70.210938 66.992188 69.570312 66.585938 C 68.929688 66.179688 68.015625 65.976562 66.824219 65.976562 C 65.445312 65.976562 64.46875 66.347656 63.894531 67.089844 C 63.570312 67.5 63.363281 68.109375 63.265625 68.921875 L 60.804688 68.921875 C 60.851562 66.988281 61.480469 65.644531 62.6875 64.886719 C 63.890625 64.128906 65.289062 63.75 66.882812 63.75 C 68.726562 63.75 70.226562 64.101562 71.378906 64.804688 C 72.523438 65.507812 73.09375 66.601562 73.09375 68.085938 L 73.09375 77.125 C 73.09375 77.398438 73.148438 77.617188 73.261719 77.785156 C 73.375 77.949219 73.609375 78.03125 73.972656 78.03125 C 74.089844 78.03125 74.222656 78.027344 74.367188 78.011719 C 74.515625 77.996094 74.671875 77.976562 74.835938 77.945312 L 74.835938 79.894531 C 74.425781 80.011719 74.113281 80.085938 73.898438 80.113281 C 73.683594 80.140625 73.390625 80.15625 73.019531 80.15625 C 72.113281 80.15625 71.453125 79.835938 71.042969 79.191406 C 70.828125 78.847656 70.675781 78.367188 70.589844 77.742188 C 70.050781 78.445312 69.28125 79.054688 68.273438 79.570312 C 67.269531 80.089844 66.160156 80.347656 64.949219 80.347656 C 63.492188 80.347656 62.304688 79.90625 61.382812 79.023438 C 60.460938 78.140625 60 77.03125 60 75.703125 C 60 74.25 60.453125 73.121094 61.359375 72.320312 C 62.269531 71.519531 63.460938 71.027344 64.933594 70.839844 Z M 77.414062 64.132812 L 79.917969 64.132812 L 79.917969 66.359375 C 80.660156 65.441406 81.449219 64.78125 82.277344 64.382812 C 83.105469 63.980469 84.03125 63.78125 85.046875 63.78125 C 87.273438 63.78125 88.777344 64.554688 89.558594 66.109375 C 89.988281 66.960938 90.203125 68.175781 90.203125 69.757812 L 90.203125 79.820312 L 87.519531 79.820312 L 87.519531 69.933594 C 87.519531 68.976562 87.378906 68.203125 87.097656 67.617188 C 86.628906 66.640625 85.777344 66.152344 84.546875 66.152344 C 83.921875 66.152344 83.410156 66.21875 83.011719 66.34375 C 82.289062 66.558594 81.652344 66.988281 81.105469 67.632812 C 80.667969 68.148438 80.378906 68.683594 80.25 69.238281 C 80.117188 69.789062 80.050781 70.578125 80.050781 71.601562 L 80.050781 79.820312 L 77.414062 79.820312 Z M 95.765625 72.160156 C 95.765625 73.839844 96.125 75.246094 96.835938 76.378906 C 97.550781 77.511719 98.691406 78.078125 100.265625 78.078125 C 101.484375 78.078125 102.488281 77.550781 103.273438 76.503906 C 104.0625 75.453125 104.453125 73.945312 104.453125 71.984375 C 104.453125 70 104.046875 68.535156 103.238281 67.582031 C 102.429688 66.628906 101.425781 66.152344 100.234375 66.152344 C 98.90625 66.152344 97.832031 66.660156 97.003906 67.675781 C 96.179688 68.691406 95.765625 70.1875 95.765625 72.160156 Z M 99.738281 63.851562 C 100.9375 63.851562 101.945312 64.109375 102.753906 64.617188 C 103.222656 64.910156 103.757812 65.421875 104.351562 66.152344 L 104.351562 58.226562 L 106.886719 58.226562 L 106.886719 79.820312 L 104.511719 79.820312 L 104.511719 77.636719 C 103.898438 78.605469 103.171875 79.304688 102.328125 79.734375 C 101.488281 80.164062 100.527344 80.375 99.445312 80.375 C 97.695312 80.375 96.183594 79.640625 94.902344 78.171875 C 93.625 76.703125 92.984375 74.746094 92.984375 72.304688 C 92.984375 70.019531 93.566406 68.039062 94.734375 66.367188 C 95.902344 64.691406 97.570312 63.851562 99.738281 63.851562 Z M 125.742188 78.046875 C 126.972656 78.046875 127.996094 77.53125 128.8125 76.503906 C 129.625 75.472656 130.035156 73.929688 130.035156 71.882812 C 130.035156 70.632812 129.851562 69.554688 129.492188 68.65625 C 128.808594 66.929688 127.558594 66.066406 125.742188 66.066406 C 123.914062 66.066406 122.664062 66.976562 121.992188 68.804688 C 121.632812 69.78125 121.449219 71.023438 121.449219 72.523438 C 121.449219 73.734375 121.632812 74.765625 121.992188 75.617188 C 122.675781 77.238281 123.925781 78.046875 125.742188 78.046875 Z M 118.914062 64.203125 L 121.480469 64.203125 L 121.480469 66.285156 C 122.007812 65.570312 122.582031 65.019531 123.207031 64.628906 C 124.097656 64.042969 125.140625 63.75 126.34375 63.75 C 128.121094 63.75 129.628906 64.433594 130.867188 65.792969 C 132.109375 67.15625 132.730469 69.101562 132.730469 71.632812 C 132.730469 75.050781 131.835938 77.492188 130.046875 78.957031 C 128.914062 79.882812 127.597656 80.347656 126.09375 80.347656 C 124.914062 80.347656 123.921875 80.089844 123.121094 79.570312 C 122.652344 79.277344 122.128906 78.773438 121.554688 78.0625 L 121.554688 86.074219 L 118.914062 86.074219 Z M 137.824219 75.644531 C 137.824219 76.40625 138.105469 77.007812 138.660156 77.445312 C 139.21875 77.886719 139.878906 78.105469 140.636719 78.105469 C 141.566406 78.105469 142.464844 77.890625 143.332031 77.460938 C 144.796875 76.75 145.53125 75.582031 145.53125 73.960938 L 145.53125 71.835938 C 145.207031 72.042969 144.792969 72.210938 144.285156 72.351562 C 143.777344 72.488281 143.28125 72.585938 142.792969 72.640625 L 141.195312 72.847656 C 140.238281 72.976562 139.519531 73.175781 139.042969 73.449219 C 138.230469 73.90625 137.824219 74.640625 137.824219 75.644531 Z M 144.214844 70.3125 C 144.820312 70.234375 145.222656 69.980469 145.429688 69.550781 C 145.546875 69.316406 145.605469 68.980469 145.605469 68.539062 C 145.605469 67.640625 145.285156 66.992188 144.644531 66.585938 C 144.003906 66.179688 143.089844 65.976562 141.898438 65.976562 C 140.519531 65.976562 139.542969 66.347656 138.96875 67.089844 C 138.644531 67.5 138.4375 68.109375 138.339844 68.921875 L 135.878906 68.921875 C 135.925781 66.988281 136.554688 65.644531 137.761719 64.886719 C 138.964844 64.128906 140.363281 63.75 141.957031 63.75 C 143.800781 63.75 145.300781 64.101562 146.453125 64.804688 C 147.597656 65.507812 148.167969 66.601562 148.167969 68.085938 L 148.167969 77.125 C 148.167969 77.398438 148.222656 77.617188 148.335938 77.785156 C 148.449219 77.949219 148.683594 78.03125 149.046875 78.03125 C 149.164062 78.03125 149.296875 78.027344 149.441406 78.011719 C 149.589844 77.996094 149.746094 77.976562 149.910156 77.945312 L 149.910156 79.894531 C 149.5 80.011719 149.1875 80.085938 148.972656 80.113281 C 148.757812 80.140625 148.464844 80.15625 148.09375 80.15625 C 147.1875 80.15625 146.527344 79.835938 146.117188 79.191406 C 145.902344 78.847656 145.75 78.367188 145.664062 77.742188 C 145.125 78.445312 144.355469 79.054688 143.347656 79.570312 C 142.34375 80.089844 141.234375 80.347656 140.023438 80.347656 C 138.566406 80.347656 137.378906 79.90625 136.457031 79.023438 C 135.535156 78.140625 135.074219 77.03125 135.074219 75.703125 C 135.074219 74.25 135.527344 73.121094 136.433594 72.320312 C 137.34375 71.519531 138.535156 71.027344 140.007812 70.839844 Z M 154.15625 72.160156 C 154.15625 73.839844 154.515625 75.246094 155.226562 76.378906 C 155.941406 77.511719 157.082031 78.078125 158.65625 78.078125 C 159.875 78.078125 160.878906 77.550781 161.664062 76.503906 C 162.453125 75.453125 162.84375 73.945312 162.84375 71.984375 C 162.84375 70 162.4375 68.535156 161.628906 67.582031 C 160.820312 66.628906 159.816406 66.152344 158.625 66.152344 C 157.296875 66.152344 156.222656 66.660156 155.394531 67.675781 C 154.570312 68.691406 154.15625 70.1875 154.15625 72.160156 Z M 158.128906 63.851562 C 159.328125 63.851562 160.335938 64.109375 161.144531 64.617188 C 161.613281 64.910156 162.148438 65.421875 162.742188 66.152344 L 162.742188 58.226562 L 165.277344 58.226562 L 165.277344 79.820312 L 162.902344 79.820312 L 162.902344 77.636719 C 162.289062 78.605469 161.5625 79.304688 160.71875 79.734375 C 159.878906 80.164062 158.917969 80.375 157.835938 80.375 C 156.085938 80.375 154.574219 79.640625 153.292969 78.171875 C 152.015625 76.703125 151.375 74.746094 151.375 72.304688 C 151.375 70.019531 151.957031 68.039062 153.125 66.367188 C 154.292969 64.691406 155.960938 63.851562 158.128906 63.851562 Z M 170.839844 72.160156 C 170.839844 73.839844 171.199219 75.246094 171.910156 76.378906 C 172.625 77.511719 173.765625 78.078125 175.339844 78.078125 C 176.558594 78.078125 177.5625 77.550781 178.347656 76.503906 C 179.136719 75.453125 179.527344 73.945312 179.527344 71.984375 C 179.527344 70 179.121094 68.535156 178.3125 67.582031 C 177.503906 66.628906 176.5 66.152344 175.308594 66.152344 C 173.980469 66.152344 172.90625 66.660156 172.078125 67.675781 C 171.253906 68.691406 170.839844 70.1875 170.839844 72.160156 Z M 174.8125 63.851562 C 176.011719 63.851562 177.019531 64.109375 177.828125 64.617188 C 178.296875 64.910156 178.832031 65.421875 179.425781 66.152344 L 179.425781 58.226562 L 181.960938 58.226562 L 181.960938 79.820312 L 179.585938 79.820312 L 179.585938 77.636719 C 178.972656 78.605469 178.246094 79.304688 177.402344 79.734375 C 176.5625 80.164062 175.601562 80.375 174.519531 80.375 C 172.769531 80.375 171.257812 79.640625 169.976562 78.171875 C 168.699219 76.703125 168.058594 74.746094 168.058594 72.304688 C 168.058594 70.019531 168.640625 68.039062 169.808594 66.367188 C 170.976562 64.691406 172.644531 63.851562 174.8125 63.851562 Z M 185.855469 64.203125 L 188.535156 64.203125 L 188.535156 79.820312 L 185.855469 79.820312 Z M 185.855469 58.300781 L 188.535156 58.300781 L 188.535156 61.289062 L 185.855469 61.289062 Z M 192.523438 64.132812 L 195.027344 64.132812 L 195.027344 66.359375 C 195.769531 65.441406 196.558594 64.78125 197.386719 64.382812 C 198.214844 63.980469 199.140625 63.78125 200.15625 63.78125 C 202.382812 63.78125 203.886719 64.554688 204.667969 66.109375 C 205.097656 66.960938 205.3125 68.175781 205.3125 69.757812 L 205.3125 79.820312 L 202.628906 79.820312 L 202.628906 69.933594 C 202.628906 68.976562 202.488281 68.203125 202.207031 67.617188 C 201.738281 66.640625 200.886719 66.152344 199.65625 66.152344 C 199.03125 66.152344 198.519531 66.21875 198.121094 66.34375 C 197.398438 66.558594 196.761719 66.988281 196.214844 67.632812 C 195.777344 68.148438 195.488281 68.683594 195.359375 69.238281 C 195.226562 69.789062 195.160156 70.578125 195.160156 71.601562 L 195.160156 79.820312 L 192.523438 79.820312 Z M 214.742188 63.851562 C 215.972656 63.851562 217.046875 64.15625 217.96875 64.761719 C 218.464844 65.101562 218.972656 65.601562 219.492188 66.257812 L 219.492188 64.277344 L 221.921875 64.277344 L 221.921875 78.546875 C 221.921875 80.539062 221.628906 82.109375 221.042969 83.261719 C 219.949219 85.390625 217.882812 86.457031 214.847656 86.457031 C 213.15625 86.457031 211.734375 86.078125 210.585938 85.320312 C 209.433594 84.5625 208.789062 83.378906 208.648438 81.769531 L 211.332031 81.769531 C 211.457031 82.472656 211.710938 83.015625 212.09375 83.394531 C 212.6875 83.980469 213.625 84.273438 214.90625 84.273438 C 216.925781 84.273438 218.25 83.5625 218.875 82.132812 C 219.246094 81.292969 219.417969 79.796875 219.386719 77.636719 C 218.859375 78.4375 218.226562 79.035156 217.484375 79.425781 C 216.742188 79.816406 215.757812 80.011719 214.539062 80.011719 C 212.839844 80.011719 211.351562 79.40625 210.078125 78.203125 C 208.804688 76.996094 208.167969 75 208.167969 72.21875 C 208.167969 69.589844 208.808594 67.539062 210.09375 66.066406 C 211.378906 64.589844 212.929688 63.851562 214.742188 63.851562 Z M 219.492188 71.910156 C 219.492188 69.96875 219.089844 68.527344 218.289062 67.589844 C 217.488281 66.652344 216.46875 66.183594 215.226562 66.183594 C 213.371094 66.183594 212.101562 67.050781 211.417969 68.789062 C 211.058594 69.71875 210.875 70.933594 210.875 72.4375 C 210.875 74.203125 211.234375 75.550781 211.953125 76.472656 C 212.671875 77.394531 213.636719 77.859375 214.847656 77.859375 C 216.742188 77.859375 218.074219 77.003906 218.84375 75.292969 C 219.273438 74.328125 219.492188 73.199219 219.492188 71.910156 Z M 58.796875 56.71875 "/>
</svg>
