<?xml version="1.0" encoding="UTF-8"?>
<svg xmlns="http://www.w3.org/2000/svg" xmlns:xlink="http://www.w3.org/1999/xlink" width="114" height="57" viewBox="0 0 114 57">
<path fill-rule="nonzero" fill="rgb(0%, 0%, 0%)" fill-opacity="1" d="M 0.796875 1.523438 L 3.460938 1.523438 L 3.460938 5.90625 L 5.96875 5.90625 L 5.96875 8.058594 L 3.460938 8.058594 L 3.460938 18.296875 C 3.460938 18.84375 3.648438 19.210938 4.019531 19.398438 C 4.226562 19.503906 4.566406 19.558594 5.046875 19.558594 C 5.171875 19.558594 5.308594 19.554688 5.453125 19.550781 C 5.601562 19.546875 5.773438 19.53125 5.96875 19.515625 L 5.96875 21.59375 C 5.664062 21.679688 5.351562 21.746094 5.023438 21.785156 C 4.695312 21.824219 4.34375 21.84375 3.960938 21.84375 C 2.730469 21.84375 1.894531 21.527344 1.457031 20.898438 C 1.015625 20.269531 0.796875 19.449219 0.796875 18.445312 L 0.796875 8.058594 L -1.328125 8.058594 L -1.328125 5.90625 L 0.796875 5.90625 Z M 15.140625 5.554688 C 16.253906 5.554688 17.332031 5.816406 18.375 6.335938 C 19.421875 6.859375 20.21875 7.535156 20.765625 8.367188 C 21.292969 9.15625 21.640625 10.078125 21.820312 11.132812 C 21.976562 11.855469 22.054688 13.007812 22.054688 14.59375 L 10.554688 14.59375 C 10.601562 16.183594 10.976562 17.460938 11.679688 18.421875 C 12.382812 19.382812 13.472656 19.867188 14.949219 19.867188 C 16.324219 19.867188 17.421875 19.410156 18.242188 18.503906 C 18.710938 17.976562 19.046875 17.367188 19.242188 16.671875 L 21.832031 16.671875 C 21.765625 17.25 21.539062 17.890625 21.152344 18.597656 C 20.765625 19.304688 20.335938 19.882812 19.855469 20.335938 C 19.054688 21.117188 18.0625 21.640625 16.882812 21.914062 C 16.246094 22.070312 15.53125 22.148438 14.726562 22.148438 C 12.773438 22.148438 11.121094 21.441406 9.761719 20.019531 C 8.40625 18.597656 7.726562 16.609375 7.726562 14.050781 C 7.726562 11.53125 8.410156 9.484375 9.777344 7.914062 C 11.144531 6.339844 12.929688 5.554688 15.140625 5.554688 Z M 19.34375 12.496094 C 19.234375 11.355469 18.984375 10.441406 18.59375 9.757812 C 17.871094 8.488281 16.667969 7.851562 14.976562 7.851562 C 13.765625 7.851562 12.75 8.289062 11.929688 9.164062 C 11.109375 10.039062 10.675781 11.148438 10.625 12.496094 Z M 23.792969 5.90625 L 27.207031 5.90625 L 30.8125 11.429688 L 34.457031 5.90625 L 37.667969 5.976562 L 32.378906 13.550781 L 37.902344 21.59375 L 34.53125 21.59375 L 30.636719 15.703125 L 26.855469 21.59375 L 23.515625 21.59375 L 29.039062 13.550781 Z M 40.816406 1.523438 L 43.480469 1.523438 L 43.480469 5.90625 L 45.988281 5.90625 L 45.988281 8.058594 L 43.480469 8.058594 L 43.480469 18.296875 C 43.480469 18.84375 43.667969 19.210938 44.039062 19.398438 C 44.246094 19.503906 44.585938 19.558594 45.066406 19.558594 C 45.191406 19.558594 45.328125 19.554688 45.472656 19.550781 C 45.621094 19.546875 45.792969 19.53125 45.988281 19.515625 L 45.988281 21.59375 C 45.683594 21.679688 45.371094 21.746094 45.042969 21.785156 C 44.714844 21.824219 44.363281 21.84375 43.980469 21.84375 C 42.75 21.84375 41.914062 21.527344 41.476562 20.898438 C 41.035156 20.269531 40.816406 19.449219 40.816406 18.445312 L 40.816406 8.058594 L 38.691406 8.058594 L 38.691406 5.90625 L 40.816406 5.90625 Z M 60.019531 12.773438 L 56.753906 3.269531 L 53.285156 12.773438 Z M 55.230469 0.0742188 L 58.527344 0.0742188 L 66.335938 21.59375 L 63.140625 21.59375 L 60.957031 15.148438 L 52.449219 15.148438 L 50.121094 21.59375 L 47.128906 21.59375 Z M 68.707031 0.0742188 L 71.34375 0.0742188 L 71.34375 21.59375 L 68.707031 21.59375 Z M 75.300781 5.976562 L 77.980469 5.976562 L 77.980469 21.59375 L 75.300781 21.59375 Z M 75.300781 0.0742188 L 77.980469 0.0742188 L 77.980469 3.0625 L 75.300781 3.0625 Z M 87.5 5.625 C 88.730469 5.625 89.804688 5.929688 90.726562 6.535156 C 91.222656 6.875 91.730469 7.375 92.25 8.03125 L 92.25 6.050781 L 94.679688 6.050781 L 94.679688 20.320312 C 94.679688 22.3125 94.386719 23.882812 93.800781 25.035156 C 92.707031 27.164062 90.640625 28.230469 87.605469 28.230469 C 85.914062 28.230469 84.492188 27.851562 83.34375 27.09375 C 82.191406 26.335938 81.546875 25.152344 81.40625 23.542969 L 84.089844 23.542969 C 84.214844 24.246094 84.46875 24.789062 84.851562 25.167969 C 85.445312 25.753906 86.382812 26.046875 87.664062 26.046875 C 89.683594 26.046875 91.007812 25.335938 91.632812 23.90625 C 92.003906 23.066406 92.175781 21.570312 92.144531 19.410156 C 91.617188 20.210938 90.984375 20.808594 90.242188 21.199219 C 89.5 21.589844 88.515625 21.785156 87.296875 21.785156 C 85.597656 21.785156 84.109375 21.179688 82.835938 19.976562 C 81.5625 18.769531 80.925781 16.773438 80.925781 13.992188 C 80.925781 11.363281 81.566406 9.3125 82.851562 7.839844 C 84.136719 6.363281 85.6875 5.625 87.5 5.625 Z M 92.25 13.683594 C 92.25 11.742188 91.847656 10.300781 91.046875 9.363281 C 90.246094 8.425781 89.226562 7.957031 87.984375 7.957031 C 86.128906 7.957031 84.859375 8.824219 84.175781 10.5625 C 83.816406 11.492188 83.632812 12.707031 83.632812 14.210938 C 83.632812 15.976562 83.992188 17.324219 84.710938 18.246094 C 85.429688 19.167969 86.394531 19.632812 87.605469 19.632812 C 89.5 19.632812 90.832031 18.777344 91.601562 17.066406 C 92.03125 16.101562 92.25 14.972656 92.25 13.683594 Z M 98.648438 5.90625 L 101.152344 5.90625 L 101.152344 8.132812 C 101.894531 7.214844 102.683594 6.554688 103.511719 6.15625 C 104.339844 5.753906 105.265625 5.554688 106.28125 5.554688 C 108.507812 5.554688 110.011719 6.328125 110.792969 7.882812 C 111.222656 8.734375 111.4375 9.949219 111.4375 11.53125 L 111.4375 21.59375 L 108.753906 21.59375 L 108.753906 11.707031 C 108.753906 10.75 108.613281 9.976562 108.332031 9.390625 C 107.863281 8.414062 107.011719 7.925781 105.78125 7.925781 C 105.15625 7.925781 104.644531 7.992188 104.246094 8.117188 C 103.523438 8.332031 102.886719 8.761719 102.339844 9.40625 C 101.902344 9.921875 101.613281 10.457031 101.484375 11.011719 C 101.351562 11.5625 101.285156 12.351562 101.285156 13.375 L 101.285156 21.59375 L 98.648438 21.59375 Z M -1.664062 -1.507812 "/>
<path fill-rule="nonzero" fill="rgb(0%, 0%, 0%)" fill-opacity="1" d="M 59.015625 34.132812 L 61.519531 34.132812 L 61.519531 36.84375 C 61.726562 36.316406 62.226562 35.671875 63.027344 34.914062 C 63.828125 34.15625 64.75 33.78125 65.796875 33.78125 C 65.84375 33.78125 65.929688 33.785156 66.046875 33.796875 C 66.164062 33.804688 66.363281 33.824219 66.648438 33.851562 L 66.648438 36.636719 C 66.492188 36.609375 66.347656 36.585938 66.214844 36.578125 C 66.082031 36.570312 65.9375 36.5625 65.78125 36.5625 C 64.453125 36.5625 63.433594 36.992188 62.71875 37.84375 C 62.007812 38.699219 61.652344 39.683594 61.652344 40.796875 L 61.652344 49.820312 L 59.015625 49.820312 Z M 68.933594 34.203125 L 71.613281 34.203125 L 71.613281 49.820312 L 68.933594 49.820312 Z M 68.933594 28.300781 L 71.613281 28.300781 L 71.613281 31.289062 L 68.933594 31.289062 Z M 81.132812 33.851562 C 82.363281 33.851562 83.4375 34.15625 84.359375 34.761719 C 84.855469 35.101562 85.363281 35.601562 85.882812 36.257812 L 85.882812 34.277344 L 88.3125 34.277344 L 88.3125 48.546875 C 88.3125 50.539062 88.019531 52.109375 87.433594 53.261719 C 86.339844 55.390625 84.273438 56.457031 81.238281 56.457031 C 79.546875 56.457031 78.125 56.078125 76.976562 55.320312 C 75.824219 54.5625 75.179688 53.378906 75.039062 51.769531 L 77.722656 51.769531 C 77.847656 52.472656 78.101562 53.015625 78.484375 53.394531 C 79.078125 53.980469 80.015625 54.273438 81.296875 54.273438 C 83.316406 54.273438 84.640625 53.5625 85.265625 52.132812 C 85.636719 51.292969 85.808594 49.796875 85.777344 47.636719 C 85.25 48.4375 84.617188 49.035156 83.875 49.425781 C 83.132812 49.816406 82.148438 50.011719 80.929688 50.011719 C 79.230469 50.011719 77.742188 49.40625 76.46875 48.203125 C 75.195312 46.996094 74.558594 45 74.558594 42.21875 C 74.558594 39.589844 75.199219 37.539062 76.484375 36.066406 C 77.769531 34.589844 79.320312 33.851562 81.132812 33.851562 Z M 85.882812 41.910156 C 85.882812 39.96875 85.480469 38.527344 84.679688 37.589844 C 83.878906 36.652344 82.859375 36.183594 81.617188 36.183594 C 79.761719 36.183594 78.492188 37.050781 77.808594 38.789062 C 77.449219 39.71875 77.265625 40.933594 77.265625 42.4375 C 77.265625 44.203125 77.625 45.550781 78.34375 46.472656 C 79.0625 47.394531 80.027344 47.859375 81.238281 47.859375 C 83.132812 47.859375 84.464844 47.003906 85.234375 45.292969 C 85.664062 44.328125 85.882812 43.199219 85.882812 41.910156 Z M 92.28125 28.226562 L 94.917969 28.226562 L 94.917969 36.257812 C 95.542969 35.464844 96.105469 34.90625 96.601562 34.585938 C 97.453125 34.03125 98.511719 33.75 99.78125 33.75 C 102.058594 33.75 103.597656 34.546875 104.410156 36.140625 C 104.847656 37.007812 105.070312 38.214844 105.070312 39.757812 L 105.070312 49.820312 L 102.359375 49.820312 L 102.359375 39.933594 C 102.359375 38.78125 102.214844 37.9375 101.917969 37.398438 C 101.441406 36.539062 100.542969 36.109375 99.222656 36.109375 C 98.128906 36.109375 97.140625 36.484375 96.25 37.238281 C 95.363281 37.988281 94.917969 39.410156 94.917969 41.5 L 94.917969 49.820312 L 92.28125 49.820312 Z M 109.492188 29.75 L 112.15625 29.75 L 112.15625 34.132812 L 114.664062 34.132812 L 114.664062 36.285156 L 112.15625 36.285156 L 112.15625 46.523438 C 112.15625 47.070312 112.34375 47.4375 112.714844 47.625 C 112.921875 47.730469 113.261719 47.785156 113.742188 47.785156 C 113.867188 47.785156 114.003906 47.78125 114.148438 47.777344 C 114.296875 47.773438 114.46875 47.757812 114.664062 47.742188 L 114.664062 49.820312 C 114.359375 49.90625 114.046875 49.972656 113.71875 50.011719 C 113.390625 50.050781 113.039062 50.070312 112.65625 50.070312 C 111.425781 50.070312 110.589844 49.753906 110.152344 49.125 C 109.710938 48.496094 109.492188 47.675781 109.492188 46.671875 L 109.492188 36.285156 L 107.367188 36.285156 L 107.367188 34.132812 L 109.492188 34.132812 Z M 57.007812 26.71875 "/>
</svg>
