<?xml version="1.0" encoding="UTF-8"?>
<svg xmlns="http://www.w3.org/2000/svg" xmlns:xlink="http://www.w3.org/1999/xlink" width="114" height="51" viewBox="0 0 114 51">
<path fill-rule="nonzero" fill="rgb(0%, 0%, 0%)" fill-opacity="1" d="M 1.011719 1.449219 L 3.675781 1.449219 L 3.675781 5.832031 L 6.183594 5.832031 L 6.183594 7.984375 L 3.675781 7.984375 L 3.675781 18.222656 C 3.675781 18.769531 3.863281 19.136719 4.234375 19.324219 C 4.441406 19.429688 4.78125 19.484375 5.261719 19.484375 C 5.386719 19.484375 5.523438 19.480469 5.667969 19.476562 C 5.816406 19.472656 5.988281 19.457031 6.183594 19.441406 L 6.183594 21.519531 C 5.878906 21.605469 5.566406 21.671875 5.238281 21.710938 C 4.910156 21.75 4.558594 21.769531 4.175781 21.769531 C 2.945312 21.769531 2.109375 21.453125 1.671875 20.824219 C 1.230469 20.195312 1.011719 19.375 1.011719 18.371094 L 1.011719 7.984375 L -1.113281 7.984375 L -1.113281 5.832031 L 1.011719 5.832031 Z M 15.355469 5.480469 C 16.46875 5.480469 17.546875 5.742188 18.589844 6.261719 C 19.636719 6.785156 20.433594 7.460938 20.980469 8.292969 C 21.507812 9.082031 21.855469 10.003906 22.035156 11.058594 C 22.191406 11.78125 22.269531 12.933594 22.269531 14.519531 L 10.769531 14.519531 C 10.816406 16.109375 11.191406 17.386719 11.894531 18.347656 C 12.597656 19.308594 13.6875 19.792969 15.164062 19.792969 C 16.539062 19.792969 17.636719 19.335938 18.457031 18.429688 C 18.925781 17.902344 19.261719 17.292969 19.457031 16.597656 L 22.046875 16.597656 C 21.980469 17.175781 21.753906 17.816406 21.367188 18.523438 C 20.980469 19.230469 20.550781 19.808594 20.070312 20.261719 C 19.269531 21.042969 18.277344 21.566406 17.097656 21.839844 C 16.460938 21.996094 15.746094 22.074219 14.941406 22.074219 C 12.988281 22.074219 11.335938 21.367188 9.976562 19.945312 C 8.621094 18.523438 7.941406 16.535156 7.941406 13.976562 C 7.941406 11.457031 8.625 9.410156 9.992188 7.839844 C 11.359375 6.265625 13.144531 5.480469 15.355469 5.480469 Z M 19.558594 12.421875 C 19.449219 11.28125 19.199219 10.367188 18.808594 9.683594 C 18.085938 8.414062 16.882812 7.777344 15.191406 7.777344 C 13.980469 7.777344 12.964844 8.214844 12.144531 9.089844 C 11.324219 9.964844 10.890625 11.074219 10.839844 12.421875 Z M 24.007812 5.832031 L 27.421875 5.832031 L 31.027344 11.355469 L 34.671875 5.832031 L 37.882812 5.902344 L 32.59375 13.476562 L 38.117188 21.519531 L 34.746094 21.519531 L 30.851562 15.628906 L 27.070312 21.519531 L 23.730469 21.519531 L 29.253906 13.476562 Z M 41.03125 1.449219 L 43.695312 1.449219 L 43.695312 5.832031 L 46.203125 5.832031 L 46.203125 7.984375 L 43.695312 7.984375 L 43.695312 18.222656 C 43.695312 18.769531 43.882812 19.136719 44.253906 19.324219 C 44.460938 19.429688 44.800781 19.484375 45.28125 19.484375 C 45.40625 19.484375 45.542969 19.480469 45.6875 19.476562 C 45.835938 19.472656 46.007812 19.457031 46.203125 19.441406 L 46.203125 21.519531 C 45.898438 21.605469 45.585938 21.671875 45.257812 21.710938 C 44.929688 21.75 44.578125 21.769531 44.195312 21.769531 C 42.964844 21.769531 42.128906 21.453125 41.691406 20.824219 C 41.25 20.195312 41.03125 19.375 41.03125 18.371094 L 41.03125 7.984375 L 38.90625 7.984375 L 38.90625 5.832031 L 41.03125 5.832031 Z M 60.234375 12.699219 L 56.96875 3.195312 L 53.5 12.699219 Z M 55.445312 0 L 58.742188 0 L 66.550781 21.519531 L 63.355469 21.519531 L 61.171875 15.074219 L 52.664062 15.074219 L 50.335938 21.519531 L 47.34375 21.519531 Z M 68.921875 0 L 71.558594 0 L 71.558594 21.519531 L 68.921875 21.519531 Z M 75.511719 5.902344 L 78.191406 5.902344 L 78.191406 21.519531 L 75.511719 21.519531 Z M 75.511719 0 L 78.191406 0 L 78.191406 2.988281 L 75.511719 2.988281 Z M 87.714844 5.550781 C 88.945312 5.550781 90.019531 5.855469 90.941406 6.460938 C 91.4375 6.800781 91.945312 7.300781 92.464844 7.957031 L 92.464844 5.976562 L 94.894531 5.976562 L 94.894531 20.246094 C 94.894531 22.238281 94.601562 23.808594 94.015625 24.960938 C 92.921875 27.089844 90.855469 28.15625 87.820312 28.15625 C 86.128906 28.15625 84.707031 27.777344 83.558594 27.019531 C 82.40625 26.261719 81.761719 25.078125 81.621094 23.46875 L 84.304688 23.46875 C 84.429688 24.171875 84.683594 24.714844 85.066406 25.09375 C 85.660156 25.679688 86.597656 25.972656 87.878906 25.972656 C 89.898438 25.972656 91.222656 25.261719 91.847656 23.832031 C 92.21875 22.992188 92.390625 21.496094 92.359375 19.335938 C 91.832031 20.136719 91.199219 20.734375 90.457031 21.125 C 89.714844 21.515625 88.730469 21.710938 87.511719 21.710938 C 85.8125 21.710938 84.324219 21.105469 83.050781 19.902344 C 81.777344 18.695312 81.140625 16.699219 81.140625 13.917969 C 81.140625 11.289062 81.78125 9.238281 83.066406 7.765625 C 84.351562 6.289062 85.902344 5.550781 87.714844 5.550781 Z M 92.464844 13.609375 C 92.464844 11.667969 92.0625 10.226562 91.261719 9.289062 C 90.460938 8.351562 89.441406 7.882812 88.199219 7.882812 C 86.34375 7.882812 85.074219 8.75 84.390625 10.488281 C 84.03125 11.417969 83.847656 12.632812 83.847656 14.136719 C 83.847656 15.902344 84.207031 17.25 84.925781 18.171875 C 85.644531 19.09375 86.609375 19.558594 87.820312 19.558594 C 89.714844 19.558594 91.046875 18.703125 91.816406 16.992188 C 92.246094 16.027344 92.464844 14.898438 92.464844 13.609375 Z M 98.863281 5.832031 L 101.367188 5.832031 L 101.367188 8.058594 C 102.109375 7.140625 102.898438 6.480469 103.726562 6.082031 C 104.554688 5.679688 105.480469 5.480469 106.496094 5.480469 C 108.722656 5.480469 110.226562 6.253906 111.007812 7.808594 C 111.4375 8.660156 111.652344 9.875 111.652344 11.457031 L 111.652344 21.519531 L 108.96875 21.519531 L 108.96875 11.632812 C 108.96875 10.675781 108.828125 9.902344 108.546875 9.316406 C 108.078125 8.339844 107.226562 7.851562 105.996094 7.851562 C 105.371094 7.851562 104.859375 7.917969 104.460938 8.042969 C 103.738281 8.257812 103.101562 8.6875 102.554688 9.332031 C 102.117188 9.847656 101.828125 10.382812 101.699219 10.9375 C 101.566406 11.488281 101.5 12.277344 101.5 13.300781 L 101.5 21.519531 L 98.863281 21.519531 Z M -1.449219 -1.582031 "/>
<path fill-rule="nonzero" fill="rgb(0%, 0%, 0%)" fill-opacity="1" d="M 22.535156 33.53125 C 24.300781 33.53125 25.738281 33.960938 26.847656 34.820312 C 27.957031 35.679688 28.621094 37.15625 28.847656 39.257812 L 26.285156 39.257812 C 26.128906 38.289062 25.769531 37.488281 25.214844 36.847656 C 24.660156 36.207031 23.765625 35.886719 22.535156 35.886719 C 20.855469 35.886719 19.652344 36.707031 18.929688 38.347656 C 18.460938 39.414062 18.226562 40.726562 18.226562 42.289062 C 18.226562 43.859375 18.558594 45.183594 19.222656 46.257812 C 19.886719 47.332031 20.933594 47.871094 22.359375 47.871094 C 23.453125 47.871094 24.320312 47.535156 24.957031 46.867188 C 25.597656 46.199219 26.039062 45.28125 26.285156 44.121094 L 28.847656 44.121094 C 28.554688 46.199219 27.824219 47.722656 26.652344 48.683594 C 25.480469 49.644531 23.980469 50.125 22.152344 50.125 C 20.101562 50.125 18.464844 49.375 17.246094 47.878906 C 16.027344 46.378906 15.414062 44.507812 15.414062 42.257812 C 15.414062 39.503906 16.082031 37.363281 17.421875 35.828125 C 18.761719 34.296875 20.464844 33.53125 22.535156 33.53125 Z M 38.019531 33.632812 C 39.132812 33.632812 40.210938 33.894531 41.253906 34.414062 C 42.300781 34.9375 43.097656 35.613281 43.644531 36.445312 C 44.171875 37.234375 44.519531 38.15625 44.699219 39.210938 C 44.855469 39.933594 44.933594 41.085938 44.933594 42.671875 L 33.433594 42.671875 C 33.480469 44.261719 33.855469 45.539062 34.558594 46.5 C 35.261719 47.460938 36.351562 47.945312 37.828125 47.945312 C 39.203125 47.945312 40.300781 47.488281 41.121094 46.582031 C 41.589844 46.054688 41.925781 45.445312 42.121094 44.75 L 44.710938 44.75 C 44.644531 45.328125 44.417969 45.96875 44.03125 46.675781 C 43.644531 47.382812 43.214844 47.960938 42.734375 48.414062 C 41.933594 49.195312 40.941406 49.71875 39.761719 49.992188 C 39.125 50.148438 38.410156 50.226562 37.605469 50.226562 C 35.652344 50.226562 34 49.519531 32.640625 48.097656 C 31.285156 46.675781 30.605469 44.6875 30.605469 42.128906 C 30.605469 39.609375 31.289062 37.5625 32.65625 35.992188 C 34.023438 34.417969 35.808594 33.632812 38.019531 33.632812 Z M 42.222656 40.574219 C 42.113281 39.433594 41.863281 38.519531 41.472656 37.835938 C 40.75 36.566406 39.546875 35.929688 37.855469 35.929688 C 36.644531 35.929688 35.628906 36.367188 34.808594 37.242188 C 33.988281 38.117188 33.554688 39.226562 33.503906 40.574219 Z M 48.167969 33.984375 L 50.671875 33.984375 L 50.671875 36.210938 C 51.414062 35.292969 52.203125 34.632812 53.03125 34.234375 C 53.859375 33.832031 54.785156 33.632812 55.800781 33.632812 C 58.027344 33.632812 59.53125 34.40625 60.3125 35.960938 C 60.742188 36.8125 60.957031 38.027344 60.957031 39.609375 L 60.957031 49.671875 L 58.273438 49.671875 L 58.273438 39.785156 C 58.273438 38.828125 58.132812 38.054688 57.851562 37.46875 C 57.382812 36.492188 56.53125 36.003906 55.300781 36.003906 C 54.675781 36.003906 54.164062 36.070312 53.765625 36.195312 C 53.042969 36.410156 52.40625 36.839844 51.859375 37.484375 C 51.421875 38 51.132812 38.535156 51.003906 39.089844 C 50.871094 39.640625 50.804688 40.429688 50.804688 41.453125 L 50.804688 49.671875 L 48.167969 49.671875 Z M 65.382812 29.601562 L 68.046875 29.601562 L 68.046875 33.984375 L 70.554688 33.984375 L 70.554688 36.136719 L 68.046875 36.136719 L 68.046875 46.375 C 68.046875 46.921875 68.234375 47.289062 68.605469 47.476562 C 68.8125 47.582031 69.152344 47.636719 69.632812 47.636719 C 69.757812 47.636719 69.894531 47.632812 70.039062 47.628906 C 70.1875 47.625 70.359375 47.609375 70.554688 47.59375 L 70.554688 49.671875 C 70.25 49.757812 69.9375 49.824219 69.609375 49.863281 C 69.28125 49.902344 68.929688 49.921875 68.546875 49.921875 C 67.316406 49.921875 66.480469 49.605469 66.042969 48.976562 C 65.601562 48.347656 65.382812 47.527344 65.382812 46.523438 L 65.382812 36.136719 L 63.257812 36.136719 L 63.257812 33.984375 L 65.382812 33.984375 Z M 79.722656 33.632812 C 80.835938 33.632812 81.914062 33.894531 82.957031 34.414062 C 84.003906 34.9375 84.800781 35.613281 85.347656 36.445312 C 85.875 37.234375 86.222656 38.15625 86.402344 39.210938 C 86.558594 39.933594 86.636719 41.085938 86.636719 42.671875 L 75.136719 42.671875 C 75.183594 44.261719 75.558594 45.539062 76.261719 46.5 C 76.964844 47.460938 78.054688 47.945312 79.53125 47.945312 C 80.90625 47.945312 82.003906 47.488281 82.824219 46.582031 C 83.292969 46.054688 83.628906 45.445312 83.824219 44.75 L 86.414062 44.75 C 86.347656 45.328125 86.121094 45.96875 85.734375 46.675781 C 85.347656 47.382812 84.917969 47.960938 84.4375 48.414062 C 83.636719 49.195312 82.644531 49.71875 81.464844 49.992188 C 80.828125 50.148438 80.113281 50.226562 79.308594 50.226562 C 77.355469 50.226562 75.703125 49.519531 74.34375 48.097656 C 72.988281 46.675781 72.308594 44.6875 72.308594 42.128906 C 72.308594 39.609375 72.992188 37.5625 74.359375 35.992188 C 75.726562 34.417969 77.511719 33.632812 79.722656 33.632812 Z M 83.925781 40.574219 C 83.816406 39.433594 83.566406 38.519531 83.175781 37.835938 C 82.453125 36.566406 81.25 35.929688 79.558594 35.929688 C 78.347656 35.929688 77.332031 36.367188 76.511719 37.242188 C 75.691406 38.117188 75.257812 39.226562 75.207031 40.574219 Z M 89.945312 33.984375 L 92.449219 33.984375 L 92.449219 36.695312 C 92.65625 36.167969 93.15625 35.523438 93.957031 34.765625 C 94.757812 34.007812 95.679688 33.632812 96.726562 33.632812 C 96.773438 33.632812 96.859375 33.636719 96.976562 33.648438 C 97.09375 33.65625 97.292969 33.675781 97.578125 33.703125 L 97.578125 36.488281 C 97.421875 36.460938 97.277344 36.4375 97.144531 36.429688 C 97.011719 36.421875 96.867188 36.414062 96.710938 36.414062 C 95.382812 36.414062 94.363281 36.84375 93.648438 37.695312 C 92.9375 38.550781 92.582031 39.535156 92.582031 40.648438 L 92.582031 49.671875 L 89.945312 49.671875 Z M 14.550781 26.570312 "/>
</svg>
