<?xml version="1.0" encoding="UTF-8"?>
<svg xmlns="http://www.w3.org/2000/svg" xmlns:xlink="http://www.w3.org/1999/xlink" width="213" height="170" viewBox="0 0 213 170">
<rect x="-21.3" y="-17" width="255.6" height="204" fill="rgb(0%, 50.196078%, 0%)" fill-opacity="1"/>
<path fill-rule="nonzero" fill="rgb(100%, 100%, 100%)" fill-opacity="1" d="M 50 20 L 203 20 L 203 160 L 50 160 Z M 50 20 "/>
<path fill-rule="nonzero" fill="rgb(0%, 0%, 0%)" fill-opacity="1" d="M 69.796875 31.523438 L 72.460938 31.523438 L 72.460938 35.90625 L 74.96875 35.90625 L 74.96875 38.058594 L 72.460938 38.058594 L 72.460938 48.296875 C 72.460938 48.84375 72.648438 49.210938 73.019531 49.398438 C 73.226562 49.503906 73.566406 49.558594 74.046875 49.558594 C 74.171875 49.558594 74.308594 49.554688 74.453125 49.550781 C 74.601562 49.546875 74.773438 49.53125 74.96875 49.515625 L 74.96875 51.59375 C 74.664062 51.679688 74.351562 51.746094 74.023438 51.785156 C 73.695312 51.824219 73.34375 51.84375 72.960938 51.84375 C 71.730469 51.84375 70.894531 51.527344 70.457031 50.898438 C 70.015625 50.269531 69.796875 49.449219 69.796875 48.445312 L 69.796875 38.058594 L 67.671875 38.058594 L 67.671875 35.90625 L 69.796875 35.90625 Z M 84.140625 35.554688 C 85.253906 35.554688 86.332031 35.816406 87.375 36.335938 C 88.421875 36.859375 89.21875 37.535156 89.765625 38.367188 C 90.292969 39.15625 90.640625 40.078125 90.820312 41.132812 C 90.976562 41.855469 91.054688 43.007812 91.054688 44.59375 L 79.554688 44.59375 C 79.601562 46.183594 79.976562 47.460938 80.679688 48.421875 C 81.382812 49.382812 82.472656 49.867188 83.949219 49.867188 C 85.324219 49.867188 86.421875 49.410156 87.242188 48.503906 C 87.710938 47.976562 88.046875 47.367188 88.242188 46.671875 L 90.832031 46.671875 C 90.765625 47.25 90.539062 47.890625 90.152344 48.597656 C 89.765625 49.304688 89.335938 49.882812 88.855469 50.335938 C 88.054688 51.117188 87.0625 51.640625 85.882812 51.914062 C 85.246094 52.070312 84.53125 52.148438 83.726562 52.148438 C 81.773438 52.148438 80.121094 51.441406 78.761719 50.019531 C 77.40625 48.597656 76.726562 46.609375 76.726562 44.050781 C 76.726562 41.53125 77.410156 39.484375 78.777344 37.914062 C 80.144531 36.339844 81.929688 35.554688 84.140625 35.554688 Z M 88.34375 42.496094 C 88.234375 41.355469 87.984375 40.441406 87.59375 39.757812 C 86.871094 38.488281 85.667969 37.851562 83.976562 37.851562 C 82.765625 37.851562 81.75 38.289062 80.929688 39.164062 C 80.109375 40.039062 79.675781 41.148438 79.625 42.496094 Z M 92.792969 35.90625 L 96.207031 35.90625 L 99.8125 41.429688 L 103.457031 35.90625 L 106.667969 35.976562 L 101.378906 43.550781 L 106.902344 51.59375 L 103.53125 51.59375 L 99.636719 45.703125 L 95.855469 51.59375 L 92.515625 51.59375 L 98.039062 43.550781 Z M 109.816406 31.523438 L 112.480469 31.523438 L 112.480469 35.90625 L 114.988281 35.90625 L 114.988281 38.058594 L 112.480469 38.058594 L 112.480469 48.296875 C 112.480469 48.84375 112.667969 49.210938 113.039062 49.398438 C 113.246094 49.503906 113.585938 49.558594 114.066406 49.558594 C 114.191406 49.558594 114.328125 49.554688 114.472656 49.550781 C 114.621094 49.546875 114.792969 49.53125 114.988281 49.515625 L 114.988281 51.59375 C 114.683594 51.679688 114.371094 51.746094 114.042969 51.785156 C 113.714844 51.824219 113.363281 51.84375 112.980469 51.84375 C 111.75 51.84375 110.914062 51.527344 110.476562 50.898438 C 110.035156 50.269531 109.816406 49.449219 109.816406 48.445312 L 109.816406 38.058594 L 107.691406 38.058594 L 107.691406 35.90625 L 109.816406 35.90625 Z M 129.019531 42.773438 L 125.753906 33.269531 L 122.285156 42.773438 Z M 124.230469 30.074219 L 127.527344 30.074219 L 135.335938 51.59375 L 132.140625 51.59375 L 129.957031 45.148438 L 121.449219 45.148438 L 119.121094 51.59375 L 116.128906 51.59375 Z M 137.707031 30.074219 L 140.34375 30.074219 L 140.34375 51.59375 L 137.707031 51.59375 Z M 144.300781 35.976562 L 146.980469 35.976562 L 146.980469 51.59375 L 144.300781 51.59375 Z M 144.300781 30.074219 L 146.980469 30.074219 L 146.980469 33.0625 L 144.300781 33.0625 Z M 156.5 35.625 C 157.730469 35.625 158.804688 35.929688 159.726562 36.535156 C 160.222656 36.875 160.730469 37.375 161.25 38.03125 L 161.25 36.050781 L 163.679688 36.050781 L 163.679688 50.320312 C 163.679688 52.3125 163.386719 53.882812 162.800781 55.035156 C 161.707031 57.164062 159.640625 58.230469 156.605469 58.230469 C 154.914062 58.230469 153.492188 57.851562 152.34375 57.09375 C 151.191406 56.335938 150.546875 55.152344 150.40625 53.542969 L 153.089844 53.542969 C 153.214844 54.246094 153.46875 54.789062 153.851562 55.167969 C 154.445312 55.753906 155.382812 56.046875 156.664062 56.046875 C 158.683594 56.046875 160.007812 55.335938 160.632812 53.90625 C 161.003906 53.066406 161.175781 51.570312 161.144531 49.410156 C 160.617188 50.210938 159.984375 50.808594 159.242188 51.199219 C 158.5 51.589844 157.515625 51.785156 156.296875 51.785156 C 154.597656 51.785156 153.109375 51.179688 151.835938 49.976562 C 150.5625 48.769531 149.925781 46.773438 149.925781 43.992188 C 149.925781 41.363281 150.566406 39.3125 151.851562 37.839844 C 153.136719 36.363281 154.6875 35.625 156.5 35.625 Z M 161.25 43.683594 C 161.25 41.742188 160.847656 40.300781 160.046875 39.363281 C 159.246094 38.425781 158.226562 37.957031 156.984375 37.957031 C 155.128906 37.957031 153.859375 38.824219 153.175781 40.5625 C 152.816406 41.492188 152.632812 42.707031 152.632812 44.210938 C 152.632812 45.976562 152.992188 47.324219 153.710938 48.246094 C 154.429688 49.167969 155.394531 49.632812 156.605469 49.632812 C 158.5 49.632812 159.832031 48.777344 160.601562 47.066406 C 161.03125 46.101562 161.25 44.972656 161.25 43.683594 Z M 167.648438 35.90625 L 170.152344 35.90625 L 170.152344 38.132812 C 170.894531 37.214844 171.683594 36.554688 172.511719 36.15625 C 173.339844 35.753906 174.265625 35.554688 175.28125 35.554688 C 177.507812 35.554688 179.011719 36.328125 179.792969 37.882812 C 180.222656 38.734375 180.4375 39.949219 180.4375 41.53125 L 180.4375 51.59375 L 177.753906 51.59375 L 177.753906 41.707031 C 177.753906 40.75 177.613281 39.976562 177.332031 39.390625 C 176.863281 38.414062 176.011719 37.925781 174.78125 37.925781 C 174.15625 37.925781 173.644531 37.992188 173.246094 38.117188 C 172.523438 38.332031 171.886719 38.761719 171.339844 39.40625 C 170.902344 39.921875 170.613281 40.457031 170.484375 41.011719 C 170.351562 41.5625 170.285156 42.351562 170.285156 43.375 L 170.285156 51.59375 L 167.648438 51.59375 Z M 67.335938 28.492188 "/>
<path fill-rule="nonzero" fill="rgb(0%, 0%, 0%)" fill-opacity="1" d="M 128.015625 84.132812 L 130.519531 84.132812 L 130.519531 86.84375 C 130.726562 86.316406 131.226562 85.671875 132.027344 84.914062 C 132.828125 84.15625 133.75 83.78125 134.796875 83.78125 C 134.84375 83.78125 134.929688 83.785156 135.046875 83.796875 C 135.164062 83.804688 135.363281 83.824219 135.648438 83.851562 L 135.648438 86.636719 C 135.492188 86.609375 135.347656 86.585938 135.214844 86.578125 C 135.082031 86.570312 134.9375 86.5625 134.78125 86.5625 C 133.453125 86.5625 132.433594 86.992188 131.71875 87.84375 C 131.007812 88.699219 130.652344 89.683594 130.652344 90.796875 L 130.652344 99.820312 L 128.015625 99.820312 Z M 137.933594 84.203125 L 140.613281 84.203125 L 140.613281 99.820312 L 137.933594 99.820312 Z M 137.933594 78.300781 L 140.613281 78.300781 L 140.613281 81.289062 L 137.933594 81.289062 Z M 150.132812 83.851562 C 151.363281 83.851562 152.4375 84.15625 153.359375 84.761719 C 153.855469 85.101562 154.363281 85.601562 154.882812 86.257812 L 154.882812 84.277344 L 157.3125 84.277344 L 157.3125 98.546875 C 157.3125 100.539062 157.019531 102.109375 156.433594 103.261719 C 155.339844 105.390625 153.273438 106.457031 150.238281 106.457031 C 148.546875 106.457031 147.125 106.078125 145.976562 105.320312 C 144.824219 104.5625 144.179688 103.378906 144.039062 101.769531 L 146.722656 101.769531 C 146.847656 102.472656 147.101562 103.015625 147.484375 103.394531 C 148.078125 103.980469 149.015625 104.273438 150.296875 104.273438 C 152.316406 104.273438 153.640625 103.5625 154.265625 102.132812 C 154.636719 101.292969 154.808594 99.796875 154.777344 97.636719 C 154.25 98.4375 153.617188 99.035156 152.875 99.425781 C 152.132812 99.816406 151.148438 100.011719 149.929688 100.011719 C 148.230469 100.011719 146.742188 99.40625 145.46875 98.203125 C 144.195312 96.996094 143.558594 95 143.558594 92.21875 C 143.558594 89.589844 144.199219 87.539062 145.484375 86.066406 C 146.769531 84.589844 148.320312 83.851562 150.132812 83.851562 Z M 154.882812 91.910156 C 154.882812 89.96875 154.480469 88.527344 153.679688 87.589844 C 152.878906 86.652344 151.859375 86.183594 150.617188 86.183594 C 148.761719 86.183594 147.492188 87.050781 146.808594 88.789062 C 146.449219 89.71875 146.265625 90.933594 146.265625 92.4375 C 146.265625 94.203125 146.625 95.550781 147.34375 96.472656 C 148.0625 97.394531 149.027344 97.859375 150.238281 97.859375 C 152.132812 97.859375 153.464844 97.003906 154.234375 95.292969 C 154.664062 94.328125 154.882812 93.199219 154.882812 91.910156 Z M 161.28125 78.226562 L 163.917969 78.226562 L 163.917969 86.257812 C 164.542969 85.464844 165.105469 84.90625 165.601562 84.585938 C 166.453125 84.03125 167.511719 83.75 168.78125 83.75 C 171.058594 83.75 172.597656 84.546875 173.410156 86.140625 C 173.847656 87.007812 174.070312 88.214844 174.070312 89.757812 L 174.070312 99.820312 L 171.359375 99.820312 L 171.359375 89.933594 C 171.359375 88.78125 171.214844 87.9375 170.917969 87.398438 C 170.441406 86.539062 169.542969 86.109375 168.222656 86.109375 C 167.128906 86.109375 166.140625 86.484375 165.25 87.238281 C 164.363281 87.988281 163.917969 89.410156 163.917969 91.5 L 163.917969 99.820312 L 161.28125 99.820312 Z M 178.492188 79.75 L 181.15625 79.75 L 181.15625 84.132812 L 183.664062 84.132812 L 183.664062 86.285156 L 181.15625 86.285156 L 181.15625 96.523438 C 181.15625 97.070312 181.34375 97.4375 181.714844 97.625 C 181.921875 97.730469 182.261719 97.785156 182.742188 97.785156 C 182.867188 97.785156 183.003906 97.78125 183.148438 97.777344 C 183.296875 97.773438 183.46875 97.757812 183.664062 97.742188 L 183.664062 99.820312 C 183.359375 99.90625 183.046875 99.972656 182.71875 100.011719 C 182.390625 100.050781 182.039062 100.070312 181.65625 100.070312 C 180.425781 100.070312 179.589844 99.753906 179.152344 99.125 C 178.710938 98.496094 178.492188 97.675781 178.492188 96.671875 L 178.492188 86.285156 L 176.367188 86.285156 L 176.367188 84.132812 L 178.492188 84.132812 Z M 126.007812 76.71875 "/>
<path fill-rule="nonzero" fill="rgb(0%, 0%, 0%)" fill-opacity="1" d="M 62.414062 132.359375 L 65.433594 144.722656 L 68.492188 132.359375 L 71.453125 132.359375 L 74.53125 144.648438 L 77.738281 132.359375 L 80.375 132.359375 L 75.820312 148.046875 L 73.078125 148.046875 L 69.886719 135.902344 L 66.796875 148.046875 L 64.054688 148.046875 L 59.53125 132.359375 Z M 82.863281 132.429688 L 85.542969 132.429688 L 85.542969 148.046875 L 82.863281 148.046875 Z M 82.863281 126.527344 L 85.542969 126.527344 L 85.542969 129.515625 L 82.863281 129.515625 Z M 90.054688 127.976562 L 92.71875 127.976562 L 92.71875 132.359375 L 95.226562 132.359375 L 95.226562 134.511719 L 92.71875 134.511719 L 92.71875 144.75 C 92.71875 145.296875 92.90625 145.664062 93.277344 145.851562 C 93.484375 145.957031 93.824219 146.011719 94.304688 146.011719 C 94.429688 146.011719 94.566406 146.007812 94.710938 146.003906 C 94.859375 146 95.03125 145.984375 95.226562 145.96875 L 95.226562 148.046875 C 94.921875 148.132812 94.609375 148.199219 94.28125 148.238281 C 93.953125 148.277344 93.601562 148.296875 93.21875 148.296875 C 91.988281 148.296875 91.152344 147.980469 90.714844 147.351562 C 90.273438 146.722656 90.054688 145.902344 90.054688 144.898438 L 90.054688 134.511719 L 87.929688 134.511719 L 87.929688 132.359375 L 90.054688 132.359375 Z M 97.863281 126.453125 L 100.5 126.453125 L 100.5 134.484375 C 101.125 133.691406 101.6875 133.132812 102.183594 132.8125 C 103.035156 132.257812 104.09375 131.976562 105.363281 131.976562 C 107.640625 131.976562 109.179688 132.773438 109.992188 134.367188 C 110.429688 135.234375 110.652344 136.441406 110.652344 137.984375 L 110.652344 148.046875 L 107.941406 148.046875 L 107.941406 138.160156 C 107.941406 137.007812 107.796875 136.164062 107.5 135.625 C 107.023438 134.765625 106.125 134.335938 104.804688 134.335938 C 103.710938 134.335938 102.722656 134.710938 101.832031 135.464844 C 100.945312 136.214844 100.5 137.636719 100.5 139.726562 L 100.5 148.046875 L 97.863281 148.046875 Z M 124.449219 143.125 C 124.527344 144.003906 124.746094 144.679688 125.109375 145.148438 C 125.773438 145.996094 126.925781 146.421875 128.566406 146.421875 C 129.542969 146.421875 130.402344 146.207031 131.144531 145.785156 C 131.886719 145.359375 132.257812 144.703125 132.257812 143.8125 C 132.257812 143.140625 131.960938 142.625 131.363281 142.273438 C 130.984375 142.058594 130.230469 141.8125 129.109375 141.527344 L 127.011719 141 C 125.675781 140.667969 124.691406 140.296875 124.054688 139.886719 C 122.921875 139.175781 122.355469 138.1875 122.355469 136.929688 C 122.355469 135.445312 122.890625 134.242188 123.960938 133.324219 C 125.027344 132.40625 126.464844 131.949219 128.273438 131.949219 C 130.636719 131.949219 132.339844 132.640625 133.386719 134.027344 C 134.039062 134.90625 134.355469 135.855469 134.339844 136.871094 L 131.847656 136.871094 C 131.800781 136.273438 131.589844 135.734375 131.21875 135.242188 C 130.613281 134.550781 129.5625 134.203125 128.066406 134.203125 C 127.070312 134.203125 126.316406 134.394531 125.804688 134.773438 C 125.292969 135.15625 125.035156 135.660156 125.035156 136.285156 C 125.035156 136.96875 125.371094 137.515625 126.046875 137.925781 C 126.4375 138.167969 127.011719 138.382812 127.777344 138.570312 L 129.519531 138.992188 C 131.414062 139.453125 132.683594 139.898438 133.328125 140.328125 C 134.351562 141 134.863281 142.0625 134.863281 143.507812 C 134.863281 144.902344 134.335938 146.109375 133.277344 147.125 C 132.214844 148.140625 130.601562 148.648438 128.433594 148.648438 C 126.101562 148.648438 124.449219 148.117188 123.476562 147.058594 C 122.503906 146 121.984375 144.6875 121.917969 143.125 Z M 138.410156 127.976562 L 141.074219 127.976562 L 141.074219 132.359375 L 143.582031 132.359375 L 143.582031 134.511719 L 141.074219 134.511719 L 141.074219 144.75 C 141.074219 145.296875 141.261719 145.664062 141.632812 145.851562 C 141.839844 145.957031 142.179688 146.011719 142.660156 146.011719 C 142.785156 146.011719 142.921875 146.007812 143.066406 146.003906 C 143.214844 146 143.386719 145.984375 143.582031 145.96875 L 143.582031 148.046875 C 143.277344 148.132812 142.964844 148.199219 142.636719 148.238281 C 142.308594 148.277344 141.957031 148.296875 141.574219 148.296875 C 140.34375 148.296875 139.507812 147.980469 139.070312 147.351562 C 138.628906 146.722656 138.410156 145.902344 138.410156 144.898438 L 138.410156 134.511719 L 136.285156 134.511719 L 136.285156 132.359375 L 138.410156 132.359375 Z M 156.019531 132.359375 L 158.933594 132.359375 C 158.5625 133.363281 157.738281 135.660156 156.457031 139.242188 C 155.5 141.9375 154.699219 144.136719 154.054688 145.835938 C 152.53125 149.839844 151.457031 152.28125 150.832031 153.160156 C 150.207031 154.039062 149.132812 154.476562 147.609375 154.476562 C 147.238281 154.476562 146.953125 154.460938 146.753906 154.433594 C 146.554688 154.40625 146.308594 154.351562 146.011719 154.273438 L 146.011719 151.871094 C 146.472656 151.996094 146.804688 152.074219 147.011719 152.105469 C 147.214844 152.132812 147.394531 152.148438 147.550781 152.148438 C 148.039062 152.148438 148.398438 152.066406 148.628906 151.90625 C 148.859375 151.746094 149.050781 151.546875 149.207031 151.3125 C 149.253906 151.234375 149.433594 150.835938 149.734375 150.113281 C 150.035156 149.390625 150.257812 148.851562 150.394531 148.5 L 144.59375 132.359375 L 147.582031 132.359375 L 151.785156 145.132812 Z M 161.292969 126.527344 L 163.929688 126.527344 L 163.929688 148.046875 L 161.292969 148.046875 Z M 174.417969 132.007812 C 175.53125 132.007812 176.609375 132.269531 177.652344 132.789062 C 178.699219 133.3125 179.496094 133.988281 180.042969 134.820312 C 180.570312 135.609375 180.917969 136.53125 181.097656 137.585938 C 181.253906 138.308594 181.332031 139.460938 181.332031 141.046875 L 169.832031 141.046875 C 169.878906 142.636719 170.253906 143.914062 170.957031 144.875 C 171.660156 145.835938 172.75 146.320312 174.226562 146.320312 C 175.601562 146.320312 176.699219 145.863281 177.519531 144.957031 C 177.988281 144.429688 178.324219 143.820312 178.519531 143.125 L 181.109375 143.125 C 181.042969 143.703125 180.816406 144.34375 180.429688 145.050781 C 180.042969 145.757812 179.613281 146.335938 179.132812 146.789062 C 178.332031 147.570312 177.339844 148.09375 176.160156 148.367188 C 175.523438 148.523438 174.808594 148.601562 174.003906 148.601562 C 172.050781 148.601562 170.398438 147.894531 169.039062 146.472656 C 167.683594 145.050781 167.003906 143.0625 167.003906 140.503906 C 167.003906 137.984375 167.6875 135.9375 169.054688 134.367188 C 170.421875 132.792969 172.207031 132.007812 174.417969 132.007812 Z M 178.621094 138.949219 C 178.511719 137.808594 178.261719 136.894531 177.871094 136.210938 C 177.148438 134.941406 175.945312 134.304688 174.253906 134.304688 C 173.042969 134.304688 172.027344 134.742188 171.207031 135.617188 C 170.386719 136.492188 169.953125 137.601562 169.902344 138.949219 Z M 59.265625 124.945312 "/>
</svg>
