<?xml version="1.0" encoding="UTF-8"?>
<svg xmlns="http://www.w3.org/2000/svg" xmlns:xlink="http://www.w3.org/1999/xlink" width="213" height="170" viewBox="0 0 213 170">
<rect x="-21.3" y="-17" width="255.6" height="204" fill="rgb(0%, 50.196078%, 0%)" fill-opacity="1"/>
<path fill-rule="nonzero" fill="rgb(100%, 100%, 100%)" fill-opacity="1" d="M 50 20 L 203 20 L 203 160 L 50 160 Z M 50 20 "/>
<path fill-rule="nonzero" fill="rgb(0%, 0%, 0%)" fill-opacity="1" d="M 65.492188 31.523438 L 68.15625 31.523438 L 68.15625 35.90625 L 70.664062 35.90625 L 70.664062 38.058594 L 68.15625 38.058594 L 68.15625 48.296875 C 68.15625 48.84375 68.34375 49.210938 68.714844 49.398438 C 68.921875 49.503906 69.261719 49.558594 69.742188 49.558594 C 69.867188 49.558594 70.003906 49.554688 70.148438 49.550781 C 70.296875 49.546875 70.46875 49.53125 70.664062 49.515625 L 70.664062 51.59375 C 70.359375 51.679688 70.046875 51.746094 69.71875 51.785156 C 69.390625 51.824219 69.039062 51.84375 68.65625 51.84375 C 67.425781 51.84375 66.589844 51.527344 66.152344 50.898438 C 65.710938 50.269531 65.492188 49.449219 65.492188 48.445312 L 65.492188 38.058594 L 63.367188 38.058594 L 63.367188 35.90625 L 65.492188 35.90625 Z M 79.835938 35.554688 C 80.949219 35.554688 82.027344 35.816406 83.070312 36.335938 C 84.117188 36.859375 84.914062 37.535156 85.460938 38.367188 C 85.988281 39.15625 86.335938 40.078125 86.515625 41.132812 C 86.671875 41.855469 86.75 43.007812 86.75 44.59375 L 75.25 44.59375 C 75.296875 46.183594 75.671875 47.460938 76.375 48.421875 C 77.078125 49.382812 78.167969 49.867188 79.644531 49.867188 C 81.019531 49.867188 82.117188 49.410156 82.9375 48.503906 C 83.40625 47.976562 83.742188 47.367188 83.9375 46.671875 L 86.527344 46.671875 C 86.460938 47.25 86.234375 47.890625 85.847656 48.597656 C 85.460938 49.304688 85.03125 49.882812 84.550781 50.335938 C 83.75 51.117188 82.757812 51.640625 81.578125 51.914062 C 80.941406 52.070312 80.226562 52.148438 79.421875 52.148438 C 77.46875 52.148438 75.816406 51.441406 74.457031 50.019531 C 73.101562 48.597656 72.421875 46.609375 72.421875 44.050781 C 72.421875 41.53125 73.105469 39.484375 74.472656 37.914062 C 75.839844 36.339844 77.625 35.554688 79.835938 35.554688 Z M 84.039062 42.496094 C 83.929688 41.355469 83.679688 40.441406 83.289062 39.757812 C 82.566406 38.488281 81.363281 37.851562 79.671875 37.851562 C 78.460938 37.851562 77.445312 38.289062 76.625 39.164062 C 75.804688 40.039062 75.371094 41.148438 75.320312 42.496094 Z M 88.488281 35.90625 L 91.902344 35.90625 L 95.507812 41.429688 L 99.152344 35.90625 L 102.363281 35.976562 L 97.074219 43.550781 L 102.597656 51.59375 L 99.226562 51.59375 L 95.332031 45.703125 L 91.550781 51.59375 L 88.210938 51.59375 L 93.734375 43.550781 Z M 105.511719 31.523438 L 108.175781 31.523438 L 108.175781 35.90625 L 110.683594 35.90625 L 110.683594 38.058594 L 108.175781 38.058594 L 108.175781 48.296875 C 108.175781 48.84375 108.363281 49.210938 108.734375 49.398438 C 108.941406 49.503906 109.28125 49.558594 109.761719 49.558594 C 109.886719 49.558594 110.023438 49.554688 110.167969 49.550781 C 110.316406 49.546875 110.488281 49.53125 110.683594 49.515625 L 110.683594 51.59375 C 110.378906 51.679688 110.066406 51.746094 109.738281 51.785156 C 109.410156 51.824219 109.058594 51.84375 108.675781 51.84375 C 107.445312 51.84375 106.609375 51.527344 106.171875 50.898438 C 105.730469 50.269531 105.511719 49.449219 105.511719 48.445312 L 105.511719 38.058594 L 103.386719 38.058594 L 103.386719 35.90625 L 105.511719 35.90625 Z M 124.714844 42.773438 L 121.449219 33.269531 L 117.980469 42.773438 Z M 119.925781 30.074219 L 123.222656 30.074219 L 131.03125 51.59375 L 127.835938 51.59375 L 125.652344 45.148438 L 117.144531 45.148438 L 114.816406 51.59375 L 111.824219 51.59375 Z M 133.402344 30.074219 L 136.039062 30.074219 L 136.039062 51.59375 L 133.402344 51.59375 Z M 139.996094 35.976562 L 142.675781 35.976562 L 142.675781 51.59375 L 139.996094 51.59375 Z M 139.996094 30.074219 L 142.675781 30.074219 L 142.675781 33.0625 L 139.996094 33.0625 Z M 152.195312 35.625 C 153.425781 35.625 154.5 35.929688 155.421875 36.535156 C 155.917969 36.875 156.425781 37.375 156.945312 38.03125 L 156.945312 36.050781 L 159.375 36.050781 L 159.375 50.320312 C 159.375 52.3125 159.082031 53.882812 158.496094 55.035156 C 157.402344 57.164062 155.335938 58.230469 152.300781 58.230469 C 150.609375 58.230469 149.1875 57.851562 148.039062 57.09375 C 146.886719 56.335938 146.242188 55.152344 146.101562 53.542969 L 148.785156 53.542969 C 148.910156 54.246094 149.164062 54.789062 149.546875 55.167969 C 150.140625 55.753906 151.078125 56.046875 152.359375 56.046875 C 154.378906 56.046875 155.703125 55.335938 156.328125 53.90625 C 156.699219 53.066406 156.871094 51.570312 156.839844 49.410156 C 156.3125 50.210938 155.679688 50.808594 154.9375 51.199219 C 154.195312 51.589844 153.210938 51.785156 151.992188 51.785156 C 150.292969 51.785156 148.804688 51.179688 147.53125 49.976562 C 146.257812 48.769531 145.621094 46.773438 145.621094 43.992188 C 145.621094 41.363281 146.261719 39.3125 147.546875 37.839844 C 148.832031 36.363281 150.382812 35.625 152.195312 35.625 Z M 156.945312 43.683594 C 156.945312 41.742188 156.542969 40.300781 155.742188 39.363281 C 154.941406 38.425781 153.921875 37.957031 152.679688 37.957031 C 150.824219 37.957031 149.554688 38.824219 148.871094 40.5625 C 148.511719 41.492188 148.328125 42.707031 148.328125 44.210938 C 148.328125 45.976562 148.6875 47.324219 149.40625 48.246094 C 150.125 49.167969 151.089844 49.632812 152.300781 49.632812 C 154.195312 49.632812 155.527344 48.777344 156.296875 47.066406 C 156.726562 46.101562 156.945312 44.972656 156.945312 43.683594 Z M 163.34375 35.90625 L 165.847656 35.90625 L 165.847656 38.132812 C 166.589844 37.214844 167.378906 36.554688 168.207031 36.15625 C 169.035156 35.753906 169.960938 35.554688 170.976562 35.554688 C 173.203125 35.554688 174.707031 36.328125 175.488281 37.882812 C 175.917969 38.734375 176.132812 39.949219 176.132812 41.53125 L 176.132812 51.59375 L 173.449219 51.59375 L 173.449219 41.707031 C 173.449219 40.75 173.308594 39.976562 173.027344 39.390625 C 172.558594 38.414062 171.707031 37.925781 170.476562 37.925781 C 169.851562 37.925781 169.339844 37.992188 168.941406 38.117188 C 168.21875 38.332031 167.582031 38.761719 167.035156 39.40625 C 166.597656 39.921875 166.308594 40.457031 166.179688 41.011719 C 166.046875 41.5625 165.980469 42.351562 165.980469 43.375 L 165.980469 51.59375 L 163.34375 51.59375 Z M 63.03125 28.492188 "/>
<path fill-rule="nonzero" fill="rgb(0%, 0%, 0%)" fill-opacity="1" d="M 87.015625 83.679688 C 88.78125 83.679688 90.21875 84.109375 91.328125 84.96875 C 92.4375 85.828125 93.101562 87.304688 93.328125 89.40625 L 90.765625 89.40625 C 90.609375 88.4375 90.25 87.636719 89.695312 86.996094 C 89.140625 86.355469 88.246094 86.035156 87.015625 86.035156 C 85.335938 86.035156 84.132812 86.855469 83.410156 88.496094 C 82.941406 89.5625 82.707031 90.875 82.707031 92.4375 C 82.707031 94.007812 83.039062 95.332031 83.703125 96.40625 C 84.367188 97.480469 85.414062 98.019531 86.839844 98.019531 C 87.933594 98.019531 88.800781 97.683594 89.4375 97.015625 C 90.078125 96.347656 90.519531 95.429688 90.765625 94.269531 L 93.328125 94.269531 C 93.035156 96.347656 92.304688 97.871094 91.132812 98.832031 C 89.960938 99.792969 88.460938 100.273438 86.632812 100.273438 C 84.582031 100.273438 82.945312 99.523438 81.726562 98.027344 C 80.507812 96.527344 79.894531 94.65625 79.894531 92.40625 C 79.894531 89.652344 80.5625 87.511719 81.902344 85.976562 C 83.242188 84.445312 84.945312 83.679688 87.015625 83.679688 Z M 102.5 83.78125 C 103.613281 83.78125 104.691406 84.042969 105.734375 84.5625 C 106.78125 85.085938 107.578125 85.761719 108.125 86.59375 C 108.652344 87.382812 109 88.304688 109.179688 89.359375 C 109.335938 90.082031 109.414062 91.234375 109.414062 92.820312 L 97.914062 92.820312 C 97.960938 94.410156 98.335938 95.6875 99.039062 96.648438 C 99.742188 97.609375 100.832031 98.09375 102.308594 98.09375 C 103.683594 98.09375 104.78125 97.636719 105.601562 96.730469 C 106.070312 96.203125 106.40625 95.59375 106.601562 94.898438 L 109.191406 94.898438 C 109.125 95.476562 108.898438 96.117188 108.511719 96.824219 C 108.125 97.53125 107.695312 98.109375 107.214844 98.5625 C 106.414062 99.34375 105.421875 99.867188 104.242188 100.140625 C 103.605469 100.296875 102.890625 100.375 102.085938 100.375 C 100.132812 100.375 98.480469 99.667969 97.121094 98.246094 C 95.765625 96.824219 95.085938 94.835938 95.085938 92.277344 C 95.085938 89.757812 95.769531 87.710938 97.136719 86.140625 C 98.503906 84.566406 100.289062 83.78125 102.5 83.78125 Z M 106.703125 90.722656 C 106.59375 89.582031 106.34375 88.667969 105.953125 87.984375 C 105.230469 86.714844 104.027344 86.078125 102.335938 86.078125 C 101.125 86.078125 100.109375 86.515625 99.289062 87.390625 C 98.46875 88.265625 98.035156 89.375 97.984375 90.722656 Z M 112.648438 84.132812 L 115.152344 84.132812 L 115.152344 86.359375 C 115.894531 85.441406 116.683594 84.78125 117.511719 84.382812 C 118.339844 83.980469 119.265625 83.78125 120.28125 83.78125 C 122.507812 83.78125 124.011719 84.554688 124.792969 86.109375 C 125.222656 86.960938 125.4375 88.175781 125.4375 89.757812 L 125.4375 99.820312 L 122.753906 99.820312 L 122.753906 89.933594 C 122.753906 88.976562 122.613281 88.203125 122.332031 87.617188 C 121.863281 86.640625 121.011719 86.152344 119.78125 86.152344 C 119.15625 86.152344 118.644531 86.21875 118.246094 86.34375 C 117.523438 86.558594 116.886719 86.988281 116.339844 87.632812 C 115.902344 88.148438 115.613281 88.683594 115.484375 89.238281 C 115.351562 89.789062 115.285156 90.578125 115.285156 91.601562 L 115.285156 99.820312 L 112.648438 99.820312 Z M 129.859375 79.75 L 132.523438 79.75 L 132.523438 84.132812 L 135.03125 84.132812 L 135.03125 86.285156 L 132.523438 86.285156 L 132.523438 96.523438 C 132.523438 97.070312 132.710938 97.4375 133.082031 97.625 C 133.289062 97.730469 133.628906 97.785156 134.109375 97.785156 C 134.234375 97.785156 134.371094 97.78125 134.515625 97.777344 C 134.664062 97.773438 134.835938 97.757812 135.03125 97.742188 L 135.03125 99.820312 C 134.726562 99.90625 134.414062 99.972656 134.085938 100.011719 C 133.757812 100.050781 133.40625 100.070312 133.023438 100.070312 C 131.792969 100.070312 130.957031 99.753906 130.519531 99.125 C 130.078125 98.496094 129.859375 97.675781 129.859375 96.671875 L 129.859375 86.285156 L 127.734375 86.285156 L 127.734375 84.132812 L 129.859375 84.132812 Z M 144.203125 83.78125 C 145.316406 83.78125 146.394531 84.042969 147.4375 84.5625 C 148.484375 85.085938 149.28125 85.761719 149.828125 86.59375 C 150.355469 87.382812 150.703125 88.304688 150.882812 89.359375 C 151.039062 90.082031 151.117188 91.234375 151.117188 92.820312 L 139.617188 92.820312 C 139.664062 94.410156 140.039062 95.6875 140.742188 96.648438 C 141.445312 97.609375 142.535156 98.09375 144.011719 98.09375 C 145.386719 98.09375 146.484375 97.636719 147.304688 96.730469 C 147.773438 96.203125 148.109375 95.59375 148.304688 94.898438 L 150.894531 94.898438 C 150.828125 95.476562 150.601562 96.117188 150.214844 96.824219 C 149.828125 97.53125 149.398438 98.109375 148.917969 98.5625 C 148.117188 99.34375 147.125 99.867188 145.945312 100.140625 C 145.308594 100.296875 144.59375 100.375 143.789062 100.375 C 141.835938 100.375 140.183594 99.667969 138.824219 98.246094 C 137.46875 96.824219 136.789062 94.835938 136.789062 92.277344 C 136.789062 89.757812 137.472656 87.710938 138.839844 86.140625 C 140.207031 84.566406 141.992188 83.78125 144.203125 83.78125 Z M 148.40625 90.722656 C 148.296875 89.582031 148.046875 88.667969 147.65625 87.984375 C 146.933594 86.714844 145.730469 86.078125 144.039062 86.078125 C 142.828125 86.078125 141.8125 86.515625 140.992188 87.390625 C 140.171875 88.265625 139.738281 89.375 139.6875 90.722656 Z M 154.429688 84.132812 L 156.933594 84.132812 L 156.933594 86.84375 C 157.140625 86.316406 157.640625 85.671875 158.441406 84.914062 C 159.242188 84.15625 160.164062 83.78125 161.210938 83.78125 C 161.257812 83.78125 161.34375 83.785156 161.460938 83.796875 C 161.578125 83.804688 161.777344 83.824219 162.0625 83.851562 L 162.0625 86.636719 C 161.90625 86.609375 161.761719 86.585938 161.628906 86.578125 C 161.496094 86.570312 161.351562 86.5625 161.195312 86.5625 C 159.867188 86.5625 158.847656 86.992188 158.132812 87.84375 C 157.421875 88.699219 157.066406 89.683594 157.066406 90.796875 L 157.066406 99.820312 L 154.429688 99.820312 Z M 79.03125 76.71875 "/>
<path fill-rule="nonzero" fill="rgb(0%, 0%, 0%)" fill-opacity="1" d="M 62.179688 132.359375 L 65.199219 144.722656 L 68.257812 132.359375 L 71.21875 132.359375 L 74.296875 144.648438 L 77.503906 132.359375 L 80.140625 132.359375 L 75.585938 148.046875 L 72.84375 148.046875 L 69.652344 135.902344 L 66.5625 148.046875 L 63.820312 148.046875 L 59.296875 132.359375 Z M 82.628906 132.429688 L 85.308594 132.429688 L 85.308594 148.046875 L 82.628906 148.046875 Z M 82.628906 126.527344 L 85.308594 126.527344 L 85.308594 129.515625 L 82.628906 129.515625 Z M 89.820312 127.976562 L 92.484375 127.976562 L 92.484375 132.359375 L 94.992188 132.359375 L 94.992188 134.511719 L 92.484375 134.511719 L 92.484375 144.75 C 92.484375 145.296875 92.671875 145.664062 93.042969 145.851562 C 93.25 145.957031 93.589844 146.011719 94.070312 146.011719 C 94.195312 146.011719 94.332031 146.007812 94.476562 146.003906 C 94.625 146 94.796875 145.984375 94.992188 145.96875 L 94.992188 148.046875 C 94.6875 148.132812 94.375 148.199219 94.046875 148.238281 C 93.71875 148.277344 93.367188 148.296875 92.984375 148.296875 C 91.753906 148.296875 90.917969 147.980469 90.480469 147.351562 C 90.039062 146.722656 89.820312 145.902344 89.820312 144.898438 L 89.820312 134.511719 L 87.695312 134.511719 L 87.695312 132.359375 L 89.820312 132.359375 Z M 97.628906 126.453125 L 100.265625 126.453125 L 100.265625 134.484375 C 100.890625 133.691406 101.453125 133.132812 101.949219 132.8125 C 102.800781 132.257812 103.859375 131.976562 105.128906 131.976562 C 107.40625 131.976562 108.945312 132.773438 109.757812 134.367188 C 110.195312 135.234375 110.417969 136.441406 110.417969 137.984375 L 110.417969 148.046875 L 107.707031 148.046875 L 107.707031 138.160156 C 107.707031 137.007812 107.5625 136.164062 107.265625 135.625 C 106.789062 134.765625 105.890625 134.335938 104.570312 134.335938 C 103.476562 134.335938 102.488281 134.710938 101.597656 135.464844 C 100.710938 136.214844 100.265625 137.636719 100.265625 139.726562 L 100.265625 148.046875 L 97.628906 148.046875 Z M 124.214844 143.125 C 124.292969 144.003906 124.511719 144.679688 124.875 145.148438 C 125.539062 145.996094 126.691406 146.421875 128.332031 146.421875 C 129.308594 146.421875 130.167969 146.207031 130.910156 145.785156 C 131.652344 145.359375 132.023438 144.703125 132.023438 143.8125 C 132.023438 143.140625 131.726562 142.625 131.128906 142.273438 C 130.75 142.058594 129.996094 141.8125 128.875 141.527344 L 126.777344 141 C 125.441406 140.667969 124.457031 140.296875 123.820312 139.886719 C 122.6875 139.175781 122.121094 138.1875 122.121094 136.929688 C 122.121094 135.445312 122.65625 134.242188 123.726562 133.324219 C 124.792969 132.40625 126.230469 131.949219 128.039062 131.949219 C 130.402344 131.949219 132.105469 132.640625 133.152344 134.027344 C 133.804688 134.90625 134.121094 135.855469 134.105469 136.871094 L 131.613281 136.871094 C 131.566406 136.273438 131.355469 135.734375 130.984375 135.242188 C 130.378906 134.550781 129.328125 134.203125 127.832031 134.203125 C 126.835938 134.203125 126.082031 134.394531 125.570312 134.773438 C 125.058594 135.15625 124.800781 135.660156 124.800781 136.285156 C 124.800781 136.96875 125.136719 137.515625 125.8125 137.925781 C 126.203125 138.167969 126.777344 138.382812 127.542969 138.570312 L 129.285156 138.992188 C 131.179688 139.453125 132.449219 139.898438 133.09375 140.328125 C 134.117188 141 134.628906 142.0625 134.628906 143.507812 C 134.628906 144.902344 134.101562 146.109375 133.042969 147.125 C 131.980469 148.140625 130.367188 148.648438 128.199219 148.648438 C 125.867188 148.648438 124.214844 148.117188 123.242188 147.058594 C 122.269531 146 121.75 144.6875 121.683594 143.125 Z M 138.175781 127.976562 L 140.839844 127.976562 L 140.839844 132.359375 L 143.347656 132.359375 L 143.347656 134.511719 L 140.839844 134.511719 L 140.839844 144.75 C 140.839844 145.296875 141.027344 145.664062 141.398438 145.851562 C 141.605469 145.957031 141.945312 146.011719 142.425781 146.011719 C 142.550781 146.011719 142.6875 146.007812 142.832031 146.003906 C 142.980469 146 143.152344 145.984375 143.347656 145.96875 L 143.347656 148.046875 C 143.042969 148.132812 142.730469 148.199219 142.402344 148.238281 C 142.074219 148.277344 141.722656 148.296875 141.339844 148.296875 C 140.109375 148.296875 139.273438 147.980469 138.835938 147.351562 C 138.394531 146.722656 138.175781 145.902344 138.175781 144.898438 L 138.175781 134.511719 L 136.050781 134.511719 L 136.050781 132.359375 L 138.175781 132.359375 Z M 155.785156 132.359375 L 158.699219 132.359375 C 158.328125 133.363281 157.503906 135.660156 156.222656 139.242188 C 155.265625 141.9375 154.464844 144.136719 153.820312 145.835938 C 152.296875 149.839844 151.222656 152.28125 150.597656 153.160156 C 149.972656 154.039062 148.898438 154.476562 147.375 154.476562 C 147.003906 154.476562 146.71875 154.460938 146.519531 154.433594 C 146.320312 154.40625 146.074219 154.351562 145.777344 154.273438 L 145.777344 151.871094 C 146.238281 151.996094 146.570312 152.074219 146.777344 152.105469 C 146.980469 152.132812 147.160156 152.148438 147.316406 152.148438 C 147.804688 152.148438 148.164062 152.066406 148.394531 151.90625 C 148.625 151.746094 148.816406 151.546875 148.972656 151.3125 C 149.019531 151.234375 149.199219 150.835938 149.5 150.113281 C 149.800781 149.390625 150.023438 148.851562 150.160156 148.5 L 144.359375 132.359375 L 147.347656 132.359375 L 151.550781 145.132812 Z M 161.058594 126.527344 L 163.695312 126.527344 L 163.695312 148.046875 L 161.058594 148.046875 Z M 174.183594 132.007812 C 175.296875 132.007812 176.375 132.269531 177.417969 132.789062 C 178.464844 133.3125 179.261719 133.988281 179.808594 134.820312 C 180.335938 135.609375 180.683594 136.53125 180.863281 137.585938 C 181.019531 138.308594 181.097656 139.460938 181.097656 141.046875 L 169.597656 141.046875 C 169.644531 142.636719 170.019531 143.914062 170.722656 144.875 C 171.425781 145.835938 172.515625 146.320312 173.992188 146.320312 C 175.367188 146.320312 176.464844 145.863281 177.285156 144.957031 C 177.753906 144.429688 178.089844 143.820312 178.285156 143.125 L 180.875 143.125 C 180.808594 143.703125 180.582031 144.34375 180.195312 145.050781 C 179.808594 145.757812 179.378906 146.335938 178.898438 146.789062 C 178.097656 147.570312 177.105469 148.09375 175.925781 148.367188 C 175.289062 148.523438 174.574219 148.601562 173.769531 148.601562 C 171.816406 148.601562 170.164062 147.894531 168.804688 146.472656 C 167.449219 145.050781 166.769531 143.0625 166.769531 140.503906 C 166.769531 137.984375 167.453125 135.9375 168.820312 134.367188 C 170.1875 132.792969 171.972656 132.007812 174.183594 132.007812 Z M 178.386719 138.949219 C 178.277344 137.808594 178.027344 136.894531 177.636719 136.210938 C 176.914062 134.941406 175.710938 134.304688 174.019531 134.304688 C 172.808594 134.304688 171.792969 134.742188 170.972656 135.617188 C 170.152344 136.492188 169.71875 137.601562 169.667969 138.949219 Z M 59.03125 124.945312 "/>
</svg>
