<?xml version="1.0" encoding="UTF-8"?>
<svg xmlns="http://www.w3.org/2000/svg" xmlns:xlink="http://www.w3.org/1999/xlink" width="190" height="29" viewBox="0 0 190 29">
<path fill-rule="nonzero" fill="rgb(0%, 0%, 0%)" fill-opacity="1" d="M 2.53125 16.597656 C 2.609375 17.476562 2.828125 18.152344 3.191406 18.621094 C 3.855469 19.46875 5.007812 19.894531 6.648438 19.894531 C 7.625 19.894531 8.484375 19.679688 9.226562 19.257812 C 9.96875 18.832031 10.339844 18.175781 10.339844 17.285156 C 10.339844 16.613281 10.042969 16.097656 9.445312 15.746094 C 9.066406 15.53125 8.3125 15.285156 7.191406 15 L 5.09375 14.472656 C 3.757812 14.140625 2.773438 13.769531 2.136719 13.359375 C 1.003906 12.648438 0.4375 11.660156 0.4375 10.402344 C 0.4375 8.917969 0.972656 7.714844 2.042969 6.796875 C 3.109375 5.878906 4.546875 5.421875 6.355469 5.421875 C 8.71875 5.421875 10.421875 6.113281 11.46875 7.5 C 12.121094 8.378906 12.4375 9.328125 12.421875 10.34375 L 9.929688 10.34375 C 9.882812 9.746094 9.671875 9.207031 9.300781 8.714844 C 8.695312 8.023438 7.644531 7.675781 6.148438 7.675781 C 5.152344 7.675781 4.398438 7.867188 3.886719 8.246094 C 3.375 8.628906 3.117188 9.132812 3.117188 9.757812 C 3.117188 10.441406 3.453125 10.988281 4.128906 11.398438 C 4.519531 11.640625 5.09375 11.855469 5.859375 12.042969 L 7.601562 12.464844 C 9.496094 12.925781 10.765625 13.371094 11.410156 13.800781 C 12.433594 14.472656 12.945312 15.535156 12.945312 16.980469 C 12.945312 18.375 12.417969 19.582031 11.359375 20.597656 C 10.296875 21.613281 8.683594 22.121094 6.515625 22.121094 C 4.183594 22.121094 2.53125 21.589844 1.558594 20.53125 C 0.585938 19.472656 0.0664062 18.160156 0 16.597656 Z M 15.964844 5.902344 L 18.644531 5.902344 L 18.644531 21.519531 L 15.964844 21.519531 Z M 15.964844 0 L 18.644531 0 L 18.644531 2.988281 L 15.964844 2.988281 Z M 22.628906 5.832031 L 25.132812 5.832031 L 25.132812 8.058594 C 25.875 7.140625 26.664062 6.480469 27.492188 6.082031 C 28.320312 5.679688 29.246094 5.480469 30.261719 5.480469 C 32.488281 5.480469 33.992188 6.253906 34.773438 7.808594 C 35.203125 8.660156 35.417969 9.875 35.417969 11.457031 L 35.417969 21.519531 L 32.734375 21.519531 L 32.734375 11.632812 C 32.734375 10.675781 32.59375 9.902344 32.3125 9.316406 C 31.84375 8.339844 30.992188 7.851562 29.761719 7.851562 C 29.136719 7.851562 28.625 7.917969 28.226562 8.042969 C 27.503906 8.257812 26.867188 8.6875 26.320312 9.332031 C 25.882812 9.847656 25.59375 10.382812 25.464844 10.9375 C 25.332031 11.488281 25.265625 12.277344 25.265625 13.300781 L 25.265625 21.519531 L 22.628906 21.519531 Z M 44.851562 5.550781 C 46.082031 5.550781 47.15625 5.855469 48.078125 6.460938 C 48.574219 6.800781 49.082031 7.300781 49.601562 7.957031 L 49.601562 5.976562 L 52.03125 5.976562 L 52.03125 20.246094 C 52.03125 22.238281 51.738281 23.808594 51.152344 24.960938 C 50.058594 27.089844 47.992188 28.15625 44.957031 28.15625 C 43.265625 28.15625 41.84375 27.777344 40.695312 27.019531 C 39.542969 26.261719 38.898438 25.078125 38.757812 23.46875 L 41.441406 23.46875 C 41.566406 24.171875 41.820312 24.714844 42.203125 25.09375 C 42.796875 25.679688 43.734375 25.972656 45.015625 25.972656 C 47.035156 25.972656 48.359375 25.261719 48.984375 23.832031 C 49.355469 22.992188 49.527344 21.496094 49.496094 19.335938 C 48.96875 20.136719 48.335938 20.734375 47.59375 21.125 C 46.851562 21.515625 45.867188 21.710938 44.648438 21.710938 C 42.949219 21.710938 41.460938 21.105469 40.1875 19.902344 C 38.914062 18.695312 38.277344 16.699219 38.277344 13.917969 C 38.277344 11.289062 38.917969 9.238281 40.203125 7.765625 C 41.488281 6.289062 43.039062 5.550781 44.851562 5.550781 Z M 49.601562 13.609375 C 49.601562 11.667969 49.199219 10.226562 48.398438 9.289062 C 47.597656 8.351562 46.578125 7.882812 45.335938 7.882812 C 43.480469 7.882812 42.210938 8.75 41.527344 10.488281 C 41.167969 11.417969 40.984375 12.632812 40.984375 14.136719 C 40.984375 15.902344 41.34375 17.25 42.0625 18.171875 C 42.78125 19.09375 43.746094 19.558594 44.957031 19.558594 C 46.851562 19.558594 48.183594 18.703125 48.953125 16.992188 C 49.382812 16.027344 49.601562 14.898438 49.601562 13.609375 Z M 56.074219 0 L 58.710938 0 L 58.710938 21.519531 L 56.074219 21.519531 Z M 69.199219 5.480469 C 70.3125 5.480469 71.390625 5.742188 72.433594 6.261719 C 73.480469 6.785156 74.277344 7.460938 74.824219 8.292969 C 75.351562 9.082031 75.699219 10.003906 75.878906 11.058594 C 76.035156 11.78125 76.113281 12.933594 76.113281 14.519531 L 64.613281 14.519531 C 64.660156 16.109375 65.035156 17.386719 65.738281 18.347656 C 66.441406 19.308594 67.53125 19.792969 69.007812 19.792969 C 70.382812 19.792969 71.480469 19.335938 72.300781 18.429688 C 72.769531 17.902344 73.105469 17.292969 73.300781 16.597656 L 75.890625 16.597656 C 75.824219 17.175781 75.597656 17.816406 75.210938 18.523438 C 74.824219 19.230469 74.394531 19.808594 73.914062 20.261719 C 73.113281 21.042969 72.121094 21.566406 70.941406 21.839844 C 70.304688 21.996094 69.589844 22.074219 68.785156 22.074219 C 66.832031 22.074219 65.179688 21.367188 63.820312 19.945312 C 62.464844 18.523438 61.785156 16.535156 61.785156 13.976562 C 61.785156 11.457031 62.46875 9.410156 63.835938 7.839844 C 65.203125 6.265625 66.988281 5.480469 69.199219 5.480469 Z M 73.402344 12.421875 C 73.292969 11.28125 73.042969 10.367188 72.652344 9.683594 C 71.929688 8.414062 70.726562 7.777344 69.035156 7.777344 C 67.824219 7.777344 66.808594 8.214844 65.988281 9.089844 C 65.167969 9.964844 64.734375 11.074219 64.683594 12.421875 Z M 87.757812 0 L 90.394531 0 L 90.394531 21.519531 L 87.757812 21.519531 Z M 94.347656 5.902344 L 97.027344 5.902344 L 97.027344 21.519531 L 94.347656 21.519531 Z M 94.347656 0 L 97.027344 0 L 97.027344 2.988281 L 94.347656 2.988281 Z M 101.011719 5.832031 L 103.515625 5.832031 L 103.515625 8.058594 C 104.257812 7.140625 105.046875 6.480469 105.875 6.082031 C 106.703125 5.679688 107.628906 5.480469 108.644531 5.480469 C 110.871094 5.480469 112.375 6.253906 113.15625 7.808594 C 113.585938 8.660156 113.800781 9.875 113.800781 11.457031 L 113.800781 21.519531 L 111.117188 21.519531 L 111.117188 11.632812 C 111.117188 10.675781 110.976562 9.902344 110.695312 9.316406 C 110.226562 8.339844 109.375 7.851562 108.144531 7.851562 C 107.519531 7.851562 107.007812 7.917969 106.609375 8.042969 C 105.886719 8.257812 105.25 8.6875 104.703125 9.332031 C 104.265625 9.847656 103.976562 10.382812 103.847656 10.9375 C 103.714844 11.488281 103.648438 12.277344 103.648438 13.300781 L 103.648438 21.519531 L 101.011719 21.519531 Z M 124.234375 5.480469 C 125.347656 5.480469 126.425781 5.742188 127.46875 6.261719 C 128.515625 6.785156 129.3125 7.460938 129.859375 8.292969 C 130.386719 9.082031 130.734375 10.003906 130.914062 11.058594 C 131.070312 11.78125 131.148438 12.933594 131.148438 14.519531 L 119.648438 14.519531 C 119.695312 16.109375 120.070312 17.386719 120.773438 18.347656 C 121.476562 19.308594 122.566406 19.792969 124.042969 19.792969 C 125.417969 19.792969 126.515625 19.335938 127.335938 18.429688 C 127.804688 17.902344 128.140625 17.292969 128.335938 16.597656 L 130.925781 16.597656 C 130.859375 17.175781 130.632812 17.816406 130.246094 18.523438 C 129.859375 19.230469 129.429688 19.808594 128.949219 20.261719 C 128.148438 21.042969 127.15625 21.566406 125.976562 21.839844 C 125.339844 21.996094 124.625 22.074219 123.820312 22.074219 C 121.867188 22.074219 120.214844 21.367188 118.855469 19.945312 C 117.5 18.523438 116.820312 16.535156 116.820312 13.976562 C 116.820312 11.457031 117.503906 9.410156 118.871094 7.839844 C 120.238281 6.265625 122.023438 5.480469 124.234375 5.480469 Z M 128.4375 12.421875 C 128.328125 11.28125 128.078125 10.367188 127.6875 9.683594 C 126.964844 8.414062 125.761719 7.777344 124.070312 7.777344 C 122.859375 7.777344 121.84375 8.214844 121.023438 9.089844 C 120.203125 9.964844 119.769531 11.074219 119.71875 12.421875 Z M 143.246094 1.449219 L 145.910156 1.449219 L 145.910156 5.832031 L 148.417969 5.832031 L 148.417969 7.984375 L 145.910156 7.984375 L 145.910156 18.222656 C 145.910156 18.769531 146.097656 19.136719 146.46875 19.324219 C 146.675781 19.429688 147.015625 19.484375 147.496094 19.484375 C 147.621094 19.484375 147.757812 19.480469 147.902344 19.476562 C 148.050781 19.472656 148.222656 19.457031 148.417969 19.441406 L 148.417969 21.519531 C 148.113281 21.605469 147.800781 21.671875 147.472656 21.710938 C 147.144531 21.75 146.792969 21.769531 146.410156 21.769531 C 145.179688 21.769531 144.34375 21.453125 143.90625 20.824219 C 143.464844 20.195312 143.246094 19.375 143.246094 18.371094 L 143.246094 7.984375 L 141.121094 7.984375 L 141.121094 5.832031 L 143.246094 5.832031 Z M 157.585938 5.480469 C 158.699219 5.480469 159.777344 5.742188 160.820312 6.261719 C 161.867188 6.785156 162.664062 7.460938 163.210938 8.292969 C 163.738281 9.082031 164.085938 10.003906 164.265625 11.058594 C 164.421875 11.78125 164.5 12.933594 164.5 14.519531 L 153 14.519531 C 153.046875 16.109375 153.421875 17.386719 154.125 18.347656 C 154.828125 19.308594 155.917969 19.792969 157.394531 19.792969 C 158.769531 19.792969 159.867188 19.335938 160.6875 18.429688 C 161.15625 17.902344 161.492188 17.292969 161.6875 16.597656 L 164.277344 16.597656 C 164.210938 17.175781 163.984375 17.816406 163.597656 18.523438 C 163.210938 19.230469 162.78125 19.808594 162.300781 20.261719 C 161.5 21.042969 160.507812 21.566406 159.328125 21.839844 C 158.691406 21.996094 157.976562 22.074219 157.171875 22.074219 C 155.21875 22.074219 153.566406 21.367188 152.207031 19.945312 C 150.851562 18.523438 150.171875 16.535156 150.171875 13.976562 C 150.171875 11.457031 150.855469 9.410156 152.222656 7.839844 C 153.589844 6.265625 155.375 5.480469 157.585938 5.480469 Z M 161.789062 12.421875 C 161.679688 11.28125 161.429688 10.367188 161.039062 9.683594 C 160.316406 8.414062 159.113281 7.777344 157.421875 7.777344 C 156.210938 7.777344 155.195312 8.214844 154.375 9.089844 C 153.554688 9.964844 153.121094 11.074219 153.070312 12.421875 Z M 166.242188 5.832031 L 169.65625 5.832031 L 173.261719 11.355469 L 176.90625 5.832031 L 180.117188 5.902344 L 174.828125 13.476562 L 180.351562 21.519531 L 176.980469 21.519531 L 173.085938 15.628906 L 169.304688 21.519531 L 165.964844 21.519531 L 171.488281 13.476562 Z M 183.265625 1.449219 L 185.929688 1.449219 L 185.929688 5.832031 L 188.4375 5.832031 L 188.4375 7.984375 L 185.929688 7.984375 L 185.929688 18.222656 C 185.929688 18.769531 186.117188 19.136719 186.488281 19.324219 C 186.695312 19.429688 187.035156 19.484375 187.515625 19.484375 C 187.640625 19.484375 187.777344 19.480469 187.921875 19.476562 C 188.070312 19.472656 188.242188 19.457031 188.4375 19.441406 L 188.4375 21.519531 C 188.132812 21.605469 187.820312 21.671875 187.492188 21.710938 C 187.164062 21.75 186.8125 21.769531 186.429688 21.769531 C 185.199219 21.769531 184.363281 21.453125 183.925781 20.824219 C 183.484375 20.195312 183.265625 19.375 183.265625 18.371094 L 183.265625 7.984375 L 181.140625 7.984375 L 181.140625 5.832031 L 183.265625 5.832031 Z M -0.96875 -1.582031 "/>
</svg>
