<?xml version="1.0" encoding="UTF-8"?>
<svg xmlns="http://www.w3.org/2000/svg" xmlns:xlink="http://www.w3.org/1999/xlink" width="221pt" height="30pt" viewBox="0 0 221 30" version="1.1">
<g id="surface675">
<path style=" stroke:none;fill-rule:nonzero;fill:rgb(0%,0%,0%);fill-opacity:1;" d="M 11.65625 6.871094 L 11.65625 9.417969 C 10.894531 9.035156 10.101562 8.742188 9.28125 8.542969 C 8.46875 8.347656 7.617188 8.246094 6.734375 8.246094 C 5.398438 8.246094 4.394531 8.457031 3.71875 8.871094 C 3.050781 9.277344 2.71875 9.894531 2.71875 10.714844 C 2.71875 11.339844 2.957031 11.832031 3.4375 12.183594 C 3.914062 12.539062 4.878906 12.878906 6.328125 13.199219 L 7.25 13.402344 C 9.164062 13.808594 10.523438 14.386719 11.328125 15.136719 C 12.140625 15.886719 12.546875 16.929688 12.546875 18.261719 C 12.546875 19.792969 11.941406 21.003906 10.734375 21.886719 C 9.523438 22.773438 7.867188 23.214844 5.765625 23.214844 C 4.878906 23.214844 3.957031 23.125 3 22.949219 C 2.050781 22.785156 1.050781 22.535156 0 22.199219 L 0 19.402344 C 1 19.925781 1.976562 20.316406 2.9375 20.574219 C 3.90625 20.835938 4.863281 20.964844 5.8125 20.964844 C 7.082031 20.964844 8.054688 20.746094 8.734375 20.308594 C 9.421875 19.871094 9.765625 19.257812 9.765625 18.464844 C 9.765625 17.738281 9.519531 17.179688 9.03125 16.792969 C 8.539062 16.398438 7.457031 16.019531 5.78125 15.652344 L 4.84375 15.433594 C 3.175781 15.089844 1.972656 14.554688 1.234375 13.824219 C 0.492188 13.097656 0.125 12.097656 0.125 10.824219 C 0.125 9.285156 0.671875 8.097656 1.765625 7.261719 C 2.859375 6.417969 4.410156 5.996094 6.421875 5.996094 C 7.410156 5.996094 8.34375 6.070312 9.21875 6.214844 C 10.101562 6.363281 10.914062 6.582031 11.65625 6.871094 Z M 16.832031 6.386719 L 19.519531 6.386719 L 19.519531 22.792969 L 16.832031 22.792969 Z M 16.832031 -0.00390625 L 19.519531 -0.00390625 L 19.519531 3.417969 L 16.832031 3.417969 Z M 38.808594 12.886719 L 38.808594 22.792969 L 36.105469 22.792969 L 36.105469 12.980469 C 36.105469 11.429688 35.800781 10.269531 35.199219 9.496094 C 34.59375 8.726562 33.6875 8.339844 32.480469 8.339844 C 31.019531 8.339844 29.871094 8.804688 29.027344 9.730469 C 28.191406 10.660156 27.777344 11.925781 27.777344 13.527344 L 27.777344 22.792969 L 25.058594 22.792969 L 25.058594 6.386719 L 27.777344 6.386719 L 27.777344 8.933594 C 28.421875 7.945312 29.183594 7.210938 30.058594 6.730469 C 30.933594 6.242188 31.9375 5.996094 33.074219 5.996094 C 34.957031 5.996094 36.386719 6.582031 37.355469 7.746094 C 38.324219 8.914062 38.808594 10.628906 38.808594 12.886719 Z M 54.976562 14.402344 C 54.976562 12.445312 54.570312 10.929688 53.757812 9.855469 C 52.953125 8.785156 51.828125 8.246094 50.382812 8.246094 C 48.933594 8.246094 47.804688 8.785156 46.992188 9.855469 C 46.1875 10.929688 45.789062 12.445312 45.789062 14.402344 C 45.789062 16.339844 46.1875 17.851562 46.992188 18.933594 C 47.804688 20.007812 48.933594 20.542969 50.382812 20.542969 C 51.828125 20.542969 52.953125 20.007812 53.757812 18.933594 C 54.570312 17.851562 54.976562 16.339844 54.976562 14.402344 Z M 57.664062 20.761719 C 57.664062 23.550781 57.042969 25.625 55.804688 26.980469 C 54.5625 28.34375 52.667969 29.027344 50.117188 29.027344 C 49.167969 29.027344 48.273438 28.953125 47.429688 28.808594 C 46.585938 28.671875 45.773438 28.457031 44.992188 28.167969 L 44.992188 25.542969 C 45.773438 25.980469 46.546875 26.296875 47.320312 26.496094 C 48.101562 26.703125 48.886719 26.808594 49.679688 26.808594 C 51.449219 26.808594 52.773438 26.34375 53.648438 25.417969 C 54.53125 24.5 54.976562 23.109375 54.976562 21.246094 L 54.976562 19.902344 C 54.414062 20.871094 53.699219 21.597656 52.835938 22.074219 C 51.96875 22.554688 50.929688 22.792969 49.710938 22.792969 C 47.699219 22.792969 46.078125 22.027344 44.851562 20.496094 C 43.621094 18.964844 43.007812 16.933594 43.007812 14.402344 C 43.007812 11.863281 43.621094 9.824219 44.851562 8.292969 C 46.078125 6.761719 47.699219 5.996094 49.710938 5.996094 C 50.929688 5.996094 51.96875 6.238281 52.835938 6.714844 C 53.699219 7.195312 54.414062 7.914062 54.976562 8.871094 L 54.976562 6.386719 L 57.664062 6.386719 Z M 63.226562 -0.00390625 L 65.914062 -0.00390625 L 65.914062 22.792969 L 63.226562 22.792969 Z M 85.589844 13.917969 L 85.589844 15.230469 L 73.199219 15.230469 C 73.3125 17.085938 73.871094 18.503906 74.871094 19.480469 C 75.871094 20.449219 77.265625 20.933594 79.058594 20.933594 C 80.089844 20.933594 81.089844 20.808594 82.058594 20.558594 C 83.035156 20.300781 84.003906 19.914062 84.964844 19.402344 L 84.964844 21.964844 C 83.996094 22.371094 83 22.679688 81.980469 22.886719 C 80.96875 23.105469 79.941406 23.214844 78.902344 23.214844 C 76.277344 23.214844 74.199219 22.457031 72.667969 20.933594 C 71.144531 19.414062 70.386719 17.351562 70.386719 14.746094 C 70.386719 12.058594 71.109375 9.929688 72.558594 8.355469 C 74.003906 6.785156 75.964844 5.996094 78.433594 5.996094 C 80.640625 5.996094 82.386719 6.707031 83.667969 8.121094 C 84.949219 9.539062 85.589844 11.472656 85.589844 13.917969 Z M 82.902344 13.121094 C 82.878906 11.652344 82.464844 10.480469 81.652344 9.605469 C 80.847656 8.722656 79.785156 8.277344 78.464844 8.277344 C 76.953125 8.277344 75.746094 8.707031 74.839844 9.558594 C 73.941406 10.402344 73.425781 11.597656 73.292969 13.136719 Z M 99.554688 -0.00390625 L 102.242188 -0.00390625 L 102.242188 22.792969 L 99.554688 22.792969 Z M 107.886719 6.386719 L 110.574219 6.386719 L 110.574219 22.792969 L 107.886719 22.792969 Z M 107.886719 -0.00390625 L 110.574219 -0.00390625 L 110.574219 3.417969 L 107.886719 3.417969 Z M 129.863281 12.886719 L 129.863281 22.792969 L 127.160156 22.792969 L 127.160156 12.980469 C 127.160156 11.429688 126.855469 10.269531 126.253906 9.496094 C 125.648438 8.726562 124.742188 8.339844 123.535156 8.339844 C 122.074219 8.339844 120.925781 8.804688 120.082031 9.730469 C 119.246094 10.660156 118.832031 11.925781 118.832031 13.527344 L 118.832031 22.792969 L 116.113281 22.792969 L 116.113281 6.386719 L 118.832031 6.386719 L 118.832031 8.933594 C 119.476562 7.945312 120.238281 7.210938 121.113281 6.730469 C 121.988281 6.242188 122.992188 5.996094 124.128906 5.996094 C 126.011719 5.996094 127.441406 6.582031 128.410156 7.746094 C 129.378906 8.914062 129.863281 10.628906 129.863281 12.886719 Z M 149.265625 13.917969 L 149.265625 15.230469 L 136.875 15.230469 C 136.988281 17.085938 137.546875 18.503906 138.546875 19.480469 C 139.546875 20.449219 140.941406 20.933594 142.734375 20.933594 C 143.765625 20.933594 144.765625 20.808594 145.734375 20.558594 C 146.710938 20.300781 147.679688 19.914062 148.640625 19.402344 L 148.640625 21.964844 C 147.671875 22.371094 146.675781 22.679688 145.65625 22.886719 C 144.644531 23.105469 143.617188 23.214844 142.578125 23.214844 C 139.953125 23.214844 137.875 22.457031 136.34375 20.933594 C 134.820312 19.414062 134.0625 17.351562 134.0625 14.746094 C 134.0625 12.058594 134.785156 9.929688 136.234375 8.355469 C 137.679688 6.785156 139.640625 5.996094 142.109375 5.996094 C 144.316406 5.996094 146.0625 6.707031 147.34375 8.121094 C 148.625 9.539062 149.265625 11.472656 149.265625 13.917969 Z M 146.578125 13.121094 C 146.554688 11.652344 146.140625 10.480469 145.328125 9.605469 C 144.523438 8.722656 143.460938 8.277344 142.140625 8.277344 C 140.628906 8.277344 139.421875 8.707031 138.515625 9.558594 C 137.617188 10.402344 137.101562 11.597656 136.96875 13.136719 Z M 165.902344 1.730469 L 165.902344 6.386719 L 171.449219 6.386719 L 171.449219 8.480469 L 165.902344 8.480469 L 165.902344 17.386719 C 165.902344 18.722656 166.082031 19.582031 166.449219 19.964844 C 166.8125 20.351562 167.558594 20.542969 168.683594 20.542969 L 171.449219 20.542969 L 171.449219 22.792969 L 168.683594 22.792969 C 166.597656 22.792969 165.160156 22.410156 164.371094 21.636719 C 163.578125 20.855469 163.183594 19.441406 163.183594 17.386719 L 163.183594 8.480469 L 161.214844 8.480469 L 161.214844 6.386719 L 163.183594 6.386719 L 163.183594 1.730469 Z M 189.023438 13.917969 L 189.023438 15.230469 L 176.632812 15.230469 C 176.746094 17.085938 177.304688 18.503906 178.304688 19.480469 C 179.304688 20.449219 180.699219 20.933594 182.492188 20.933594 C 183.523438 20.933594 184.523438 20.808594 185.492188 20.558594 C 186.46875 20.300781 187.4375 19.914062 188.398438 19.402344 L 188.398438 21.964844 C 187.429688 22.371094 186.433594 22.679688 185.414062 22.886719 C 184.402344 23.105469 183.375 23.214844 182.335938 23.214844 C 179.710938 23.214844 177.632812 22.457031 176.101562 20.933594 C 174.578125 19.414062 173.820312 17.351562 173.820312 14.746094 C 173.820312 12.058594 174.542969 9.929688 175.992188 8.355469 C 177.4375 6.785156 179.398438 5.996094 181.867188 5.996094 C 184.074219 5.996094 185.820312 6.707031 187.101562 8.121094 C 188.382812 9.539062 189.023438 11.472656 189.023438 13.917969 Z M 186.335938 13.121094 C 186.3125 11.652344 185.898438 10.480469 185.085938 9.605469 C 184.28125 8.722656 183.21875 8.277344 181.898438 8.277344 C 180.386719 8.277344 179.179688 8.707031 178.273438 9.558594 C 177.375 10.402344 176.859375 11.597656 176.726562 13.136719 Z M 206.5625 6.386719 L 200.625 14.371094 L 206.859375 22.792969 L 203.6875 22.792969 L 198.90625 16.339844 L 194.140625 22.792969 L 190.953125 22.792969 L 197.328125 14.214844 L 191.5 6.386719 L 194.671875 6.386719 L 199.03125 12.230469 L 203.375 6.386719 Z M 213.347656 1.730469 L 213.347656 6.386719 L 218.894531 6.386719 L 218.894531 8.480469 L 213.347656 8.480469 L 213.347656 17.386719 C 213.347656 18.722656 213.527344 19.582031 213.894531 19.964844 C 214.257812 20.351562 215.003906 20.542969 216.128906 20.542969 L 218.894531 20.542969 L 218.894531 22.792969 L 216.128906 22.792969 C 214.042969 22.792969 212.605469 22.410156 211.816406 21.636719 C 211.023438 20.855469 210.628906 19.441406 210.628906 17.386719 L 210.628906 8.480469 L 208.660156 8.480469 L 208.660156 6.386719 L 210.628906 6.386719 L 210.628906 1.730469 Z M -1.625 -5.054688 "/>
</g>
</svg>
