<?xml version="1.0" encoding="UTF-8"?>
<svg xmlns="http://www.w3.org/2000/svg" xmlns:xlink="http://www.w3.org/1999/xlink" width="121pt" height="82pt" viewBox="0 0 121 82" version="1.1">
<g id="surface21">
<path style=" stroke:none;fill-rule:nonzero;fill:rgb(0%,0%,0%);fill-opacity:1;" d="M 12.867188 9.542969 C 13.542969 8.324219 14.351562 7.429688 15.289062 6.855469 C 16.226562 6.285156 17.328125 5.996094 18.601562 5.996094 C 20.308594 5.996094 21.625 6.597656 22.554688 7.792969 C 23.480469 8.980469 23.945312 10.679688 23.945312 12.886719 L 23.945312 22.792969 L 21.242188 22.792969 L 21.242188 12.980469 C 21.242188 11.410156 20.960938 10.242188 20.398438 9.480469 C 19.84375 8.722656 18.996094 8.339844 17.851562 8.339844 C 16.453125 8.339844 15.351562 8.804688 14.539062 9.730469 C 13.734375 10.660156 13.335938 11.925781 13.335938 13.527344 L 13.335938 22.792969 L 10.617188 22.792969 L 10.617188 12.980469 C 10.617188 11.398438 10.335938 10.230469 9.773438 9.480469 C 9.21875 8.722656 8.367188 8.339844 7.210938 8.339844 C 5.824219 8.339844 4.726562 8.808594 3.914062 9.746094 C 3.109375 10.675781 2.710938 11.933594 2.710938 13.527344 L 2.710938 22.792969 L -0.0078125 22.792969 L -0.0078125 6.386719 L 2.710938 6.386719 L 2.710938 8.933594 C 3.324219 7.933594 4.058594 7.195312 4.914062 6.714844 C 5.777344 6.238281 6.796875 5.996094 7.976562 5.996094 C 9.171875 5.996094 10.1875 6.300781 11.023438 6.902344 C 11.855469 7.507812 12.46875 8.386719 12.867188 9.542969 Z M 29.042969 16.324219 L 29.042969 6.386719 L 31.746094 6.386719 L 31.746094 16.214844 C 31.746094 17.769531 32.046875 18.933594 32.652344 19.714844 C 33.253906 20.488281 34.160156 20.871094 35.371094 20.871094 C 36.828125 20.871094 37.980469 20.410156 38.824219 19.480469 C 39.667969 18.554688 40.089844 17.289062 40.089844 15.683594 L 40.089844 6.386719 L 42.792969 6.386719 L 42.792969 22.792969 L 40.089844 22.792969 L 40.089844 20.277344 C 39.433594 21.269531 38.671875 22.007812 37.808594 22.496094 C 36.941406 22.972656 35.941406 23.214844 34.808594 23.214844 C 32.921875 23.214844 31.488281 22.632812 30.511719 21.464844 C 29.53125 20.289062 29.042969 18.574219 29.042969 16.324219 Z M 35.824219 5.996094 Z M 48.339844 -0.00390625 L 51.027344 -0.00390625 L 51.027344 22.792969 L 48.339844 22.792969 Z M 59.34375 1.730469 L 59.34375 6.386719 L 64.890625 6.386719 L 64.890625 8.480469 L 59.34375 8.480469 L 59.34375 17.386719 C 59.34375 18.722656 59.523438 19.582031 59.890625 19.964844 C 60.253906 20.351562 61 20.542969 62.125 20.542969 L 64.890625 20.542969 L 64.890625 22.792969 L 62.125 22.792969 C 60.039062 22.792969 58.601562 22.410156 57.8125 21.636719 C 57.019531 20.855469 56.625 19.441406 56.625 17.386719 L 56.625 8.480469 L 54.65625 8.480469 L 54.65625 6.386719 L 56.625 6.386719 L 56.625 1.730469 Z M 68.4375 6.386719 L 71.125 6.386719 L 71.125 22.792969 L 68.4375 22.792969 Z M 68.4375 -0.00390625 L 71.125 -0.00390625 L 71.125 3.417969 L 68.4375 3.417969 Z M 79.382812 20.324219 L 79.382812 29.027344 L 76.664062 29.027344 L 76.664062 6.386719 L 79.382812 6.386719 L 79.382812 8.871094 C 79.945312 7.902344 80.65625 7.183594 81.523438 6.714844 C 82.386719 6.238281 83.417969 5.996094 84.617188 5.996094 C 86.617188 5.996094 88.234375 6.789062 89.476562 8.371094 C 90.726562 9.945312 91.351562 12.023438 91.351562 14.605469 C 91.351562 17.179688 90.726562 19.257812 89.476562 20.839844 C 88.234375 22.425781 86.617188 23.214844 84.617188 23.214844 C 83.417969 23.214844 82.386719 22.980469 81.523438 22.511719 C 80.65625 22.035156 79.945312 21.304688 79.382812 20.324219 Z M 88.554688 14.605469 C 88.554688 12.628906 88.140625 11.074219 87.320312 9.949219 C 86.507812 8.816406 85.386719 8.246094 83.960938 8.246094 C 82.53125 8.246094 81.414062 8.816406 80.601562 9.949219 C 79.789062 11.074219 79.382812 12.628906 79.382812 14.605469 C 79.382812 16.585938 79.789062 18.144531 80.601562 19.277344 C 81.414062 20.402344 82.53125 20.964844 83.960938 20.964844 C 85.386719 20.964844 86.507812 20.402344 87.320312 19.277344 C 88.140625 18.144531 88.554688 16.585938 88.554688 14.605469 Z M 95.8125 -0.00390625 L 98.5 -0.00390625 L 98.5 22.792969 L 95.8125 22.792969 Z M 118.179688 13.917969 L 118.179688 15.230469 L 105.789062 15.230469 C 105.902344 17.085938 106.460938 18.503906 107.460938 19.480469 C 108.460938 20.449219 109.855469 20.933594 111.648438 20.933594 C 112.679688 20.933594 113.679688 20.808594 114.648438 20.558594 C 115.625 20.300781 116.59375 19.914062 117.554688 19.402344 L 117.554688 21.964844 C 116.585938 22.371094 115.589844 22.679688 114.570312 22.886719 C 113.558594 23.105469 112.53125 23.214844 111.492188 23.214844 C 108.867188 23.214844 106.789062 22.457031 105.257812 20.933594 C 103.734375 19.414062 102.976562 17.351562 102.976562 14.746094 C 102.976562 12.058594 103.699219 9.929688 105.148438 8.355469 C 106.59375 6.785156 108.554688 5.996094 111.023438 5.996094 C 113.230469 5.996094 114.976562 6.707031 116.257812 8.121094 C 117.539062 9.539062 118.179688 11.472656 118.179688 13.917969 Z M 115.492188 13.121094 C 115.46875 11.652344 115.054688 10.480469 114.242188 9.605469 C 113.4375 8.722656 112.375 8.277344 111.054688 8.277344 C 109.542969 8.277344 108.335938 8.707031 107.429688 9.558594 C 106.53125 10.402344 106.015625 11.597656 105.882812 13.136719 Z M -2.726562 -5.054688 "/>
<path style=" stroke:none;fill-rule:nonzero;fill:rgb(0%,0%,0%);fill-opacity:1;" d="M 0 29.03125 L 2.6875 29.03125 L 2.6875 51.828125 L 0 51.828125 Z M 8.335938 35.421875 L 11.023438 35.421875 L 11.023438 51.828125 L 8.335938 51.828125 Z M 8.335938 29.03125 L 11.023438 29.03125 L 11.023438 32.453125 L 8.335938 32.453125 Z M 30.3125 41.921875 L 30.3125 51.828125 L 27.609375 51.828125 L 27.609375 42.015625 C 27.609375 40.464844 27.304688 39.304688 26.703125 38.53125 C 26.097656 37.761719 25.191406 37.375 23.984375 37.375 C 22.523438 37.375 21.375 37.839844 20.53125 38.765625 C 19.695312 39.695312 19.28125 40.960938 19.28125 42.5625 L 19.28125 51.828125 L 16.5625 51.828125 L 16.5625 35.421875 L 19.28125 35.421875 L 19.28125 37.96875 C 19.925781 36.980469 20.6875 36.246094 21.5625 35.765625 C 22.4375 35.277344 23.441406 35.03125 24.578125 35.03125 C 26.460938 35.03125 27.890625 35.617188 28.859375 36.78125 C 29.828125 37.949219 30.3125 39.664062 30.3125 41.921875 Z M 49.714844 42.953125 L 49.714844 44.265625 L 37.324219 44.265625 C 37.4375 46.121094 37.996094 47.539062 38.996094 48.515625 C 39.996094 49.484375 41.390625 49.96875 43.183594 49.96875 C 44.214844 49.96875 45.214844 49.84375 46.183594 49.59375 C 47.160156 49.335938 48.128906 48.949219 49.089844 48.4375 L 49.089844 51 C 48.121094 51.40625 47.125 51.714844 46.105469 51.921875 C 45.09375 52.140625 44.066406 52.25 43.027344 52.25 C 40.402344 52.25 38.324219 51.492188 36.792969 49.96875 C 35.269531 48.449219 34.511719 46.386719 34.511719 43.78125 C 34.511719 41.09375 35.234375 38.964844 36.683594 37.390625 C 38.128906 35.820312 40.089844 35.03125 42.558594 35.03125 C 44.765625 35.03125 46.511719 35.742188 47.792969 37.15625 C 49.074219 38.574219 49.714844 40.507812 49.714844 42.953125 Z M 47.027344 42.15625 C 47.003906 40.6875 46.589844 39.515625 45.777344 38.640625 C 44.972656 37.757812 43.910156 37.3125 42.589844 37.3125 C 41.078125 37.3125 39.871094 37.742188 38.964844 38.59375 C 38.066406 39.4375 37.550781 40.632812 37.417969 42.171875 Z M 64.59375 35.90625 L 64.59375 38.453125 C 63.832031 38.070312 63.039062 37.777344 62.21875 37.578125 C 61.40625 37.382812 60.554688 37.28125 59.671875 37.28125 C 58.335938 37.28125 57.332031 37.492188 56.65625 37.90625 C 55.988281 38.3125 55.65625 38.929688 55.65625 39.75 C 55.65625 40.375 55.894531 40.867188 56.375 41.21875 C 56.851562 41.574219 57.816406 41.914062 59.265625 42.234375 L 60.1875 42.4375 C 62.101562 42.84375 63.460938 43.421875 64.265625 44.171875 C 65.078125 44.921875 65.484375 45.964844 65.484375 47.296875 C 65.484375 48.828125 64.878906 50.039062 63.671875 50.921875 C 62.460938 51.808594 60.804688 52.25 58.703125 52.25 C 57.816406 52.25 56.894531 52.160156 55.9375 51.984375 C 54.988281 51.820312 53.988281 51.570312 52.9375 51.234375 L 52.9375 48.4375 C 53.9375 48.960938 54.914062 49.351562 55.875 49.609375 C 56.84375 49.871094 57.800781 50 58.75 50 C 60.019531 50 60.992188 49.78125 61.671875 49.34375 C 62.359375 48.90625 62.703125 48.292969 62.703125 47.5 C 62.703125 46.773438 62.457031 46.214844 61.96875 45.828125 C 61.476562 45.433594 60.394531 45.054688 58.71875 44.6875 L 57.78125 44.46875 C 56.113281 44.125 54.910156 43.589844 54.171875 42.859375 C 53.429688 42.132812 53.0625 41.132812 53.0625 39.859375 C 53.0625 38.320312 53.609375 37.132812 54.703125 36.296875 C 55.796875 35.453125 57.347656 35.03125 59.359375 35.03125 C 60.347656 35.03125 61.28125 35.105469 62.15625 35.25 C 63.039062 35.398438 63.851562 35.617188 64.59375 35.90625 Z M -2.828125 23.980469 "/>
<path style=" stroke:none;fill-rule:nonzero;fill:rgb(0%,0%,0%);fill-opacity:1;" d="M 4.695312 59.796875 L 4.695312 64.453125 L 10.242188 64.453125 L 10.242188 66.546875 L 4.695312 66.546875 L 4.695312 75.453125 C 4.695312 76.789062 4.875 77.648438 5.242188 78.03125 C 5.605469 78.417969 6.351562 78.609375 7.476562 78.609375 L 10.242188 78.609375 L 10.242188 80.859375 L 7.476562 80.859375 C 5.390625 80.859375 3.953125 80.476562 3.164062 79.703125 C 2.371094 78.921875 1.976562 77.507812 1.976562 75.453125 L 1.976562 66.546875 L 0.0078125 66.546875 L 0.0078125 64.453125 L 1.976562 64.453125 L 1.976562 59.796875 Z M 27.816406 71.984375 L 27.816406 73.296875 L 15.425781 73.296875 C 15.539062 75.152344 16.097656 76.570312 17.097656 77.546875 C 18.097656 78.515625 19.492188 79 21.285156 79 C 22.316406 79 23.316406 78.875 24.285156 78.625 C 25.261719 78.367188 26.230469 77.980469 27.191406 77.46875 L 27.191406 80.03125 C 26.222656 80.4375 25.226562 80.746094 24.207031 80.953125 C 23.195312 81.171875 22.167969 81.28125 21.128906 81.28125 C 18.503906 81.28125 16.425781 80.523438 14.894531 79 C 13.371094 77.480469 12.613281 75.417969 12.613281 72.8125 C 12.613281 70.125 13.335938 67.996094 14.785156 66.421875 C 16.230469 64.851562 18.191406 64.0625 20.660156 64.0625 C 22.867188 64.0625 24.613281 64.773438 25.894531 66.1875 C 27.175781 67.605469 27.816406 69.539062 27.816406 71.984375 Z M 25.128906 71.1875 C 25.105469 69.71875 24.691406 68.546875 23.878906 67.671875 C 23.074219 66.789062 22.011719 66.34375 20.691406 66.34375 C 19.179688 66.34375 17.972656 66.773438 17.066406 67.625 C 16.167969 68.46875 15.652344 69.664062 15.519531 71.203125 Z M 45.355469 64.453125 L 39.417969 72.4375 L 45.652344 80.859375 L 42.480469 80.859375 L 37.699219 74.40625 L 32.933594 80.859375 L 29.746094 80.859375 L 36.121094 72.28125 L 30.292969 64.453125 L 33.464844 64.453125 L 37.824219 70.296875 L 42.167969 64.453125 Z M 52.140625 59.796875 L 52.140625 64.453125 L 57.6875 64.453125 L 57.6875 66.546875 L 52.140625 66.546875 L 52.140625 75.453125 C 52.140625 76.789062 52.320312 77.648438 52.6875 78.03125 C 53.050781 78.417969 53.796875 78.609375 54.921875 78.609375 L 57.6875 78.609375 L 57.6875 80.859375 L 54.921875 80.859375 C 52.835938 80.859375 51.398438 80.476562 50.609375 79.703125 C 49.816406 78.921875 49.421875 77.507812 49.421875 75.453125 L 49.421875 66.546875 L 47.453125 66.546875 L 47.453125 64.453125 L 49.421875 64.453125 L 49.421875 59.796875 Z M -0.804688 53.011719 "/>
</g>
</svg>
