<?xml version="1.0" encoding="UTF-8"?>
<svg xmlns="http://www.w3.org/2000/svg" xmlns:xlink="http://www.w3.org/1999/xlink" width="231" height="70" viewBox="0 0 231 70">
<path fill-rule="nonzero" fill="rgb(0%, 0%, 0%)" fill-opacity="1" d="M 16.523438 20.019531 C 16.523438 20.957031 16.53125 22.363281 16.542969 24.238281 C 16.554688 26.113281 16.5625 27.519531 16.5625 28.457031 C 16.5625 28.742188 16.585938 29.179688 16.628906 29.765625 C 16.675781 30.351562 16.699219 30.789062 16.699219 31.074219 C 16.699219 31.632812 16.511719 32.09375 16.132812 32.449219 C 15.753906 32.808594 15.292969 32.988281 14.746094 32.988281 C 13.742188 32.988281 13.105469 32.371094 12.832031 31.132812 C 11.203125 31.980469 9.328125 32.402344 7.207031 32.402344 C 5.5 32.402344 4.089844 32.023438 2.96875 31.269531 C 1.730469 30.4375 0.996094 29.21875 0.761719 27.617188 C 0.253906 24.167969 0 21.09375 0 18.398438 C 0 16.613281 0.195312 14.582031 0.585938 12.304688 C 0.769531 11.171875 1.386719 10.605469 2.441406 10.605469 C 3 10.605469 3.46875 10.785156 3.847656 11.144531 C 4.226562 11.5 4.414062 11.960938 4.414062 12.519531 C 4.414062 13.117188 4.320312 14.074219 4.128906 15.390625 C 3.941406 16.707031 3.847656 17.707031 3.847656 18.398438 C 3.847656 20.574219 3.917969 22.433594 4.0625 23.984375 C 4.207031 25.535156 4.421875 26.777344 4.707031 27.714844 C 5.136719 27.949219 5.558594 28.128906 5.976562 28.253906 C 6.394531 28.375 6.804688 28.4375 7.207031 28.4375 C 8.953125 28.4375 10.792969 28.15625 12.734375 27.597656 L 12.714844 23.632812 L 12.675781 19.84375 C 12.675781 17.03125 12.800781 14.589844 13.046875 12.519531 C 13.191406 11.320312 13.820312 10.722656 14.941406 10.722656 C 15.5 10.722656 15.96875 10.90625 16.347656 11.269531 C 16.726562 11.632812 16.902344 12.089844 16.875 12.636719 Z M 34.570312 16.386719 C 33.855469 16.386719 33.351562 16.144531 33.066406 15.664062 C 32.871094 15.324219 32.703125 14.621094 32.558594 13.554688 C 31.582031 13.800781 30.078125 14.257812 28.046875 14.921875 C 25.949219 15.753906 24.894531 16.785156 24.882812 18.007812 C 25.273438 18.152344 25.65625 18.253906 26.035156 18.320312 C 29.03125 18.855469 31.257812 19.589844 32.714844 20.527344 C 34.835938 21.894531 35.898438 23.875 35.898438 26.464844 C 35.898438 28.585938 34.980469 30.1875 33.144531 31.269531 C 31.621094 32.15625 29.695312 32.597656 27.363281 32.597656 C 25.65625 32.597656 24.03125 32.3125 22.480469 31.738281 C 20.476562 31.007812 19.472656 29.992188 19.472656 28.691406 C 19.472656 28.171875 19.679688 27.714844 20.085938 27.324219 C 20.496094 26.933594 20.964844 26.738281 21.484375 26.738281 C 21.886719 26.738281 22.410156 27.050781 23.046875 27.675781 C 23.359375 27.976562 24.0625 28.222656 25.15625 28.417969 C 26.027344 28.574219 26.765625 28.652344 27.363281 28.652344 C 28.457031 28.652344 29.421875 28.523438 30.253906 28.261719 C 31.464844 27.882812 32.070312 27.285156 32.070312 26.464844 C 32.070312 24.695312 30.832031 23.496094 28.359375 22.871094 L 26.328125 22.421875 C 24.597656 22.042969 23.367188 21.601562 22.636719 21.09375 C 21.582031 20.363281 21.054688 19.265625 21.054688 17.792969 C 21.054688 15.070312 22.335938 13.132812 24.902344 11.972656 C 25.683594 11.621094 26.933594 11.199219 28.652344 10.714844 C 30.371094 10.226562 31.601562 9.8125 32.34375 9.472656 C 32.878906 9.238281 33.457031 9.121094 34.082031 9.121094 C 34.640625 9.121094 35.101562 9.304688 35.460938 9.667969 C 35.816406 10.03125 35.996094 10.507812 35.996094 11.09375 C 35.996094 11.472656 36.078125 12.023438 36.242188 12.753906 C 36.402344 13.484375 36.484375 14.035156 36.484375 14.414062 C 36.484375 15 36.304688 15.476562 35.945312 15.839844 C 35.589844 16.203125 35.128906 16.386719 34.570312 16.386719 Z M 49.980469 32.324219 C 47.039062 32.324219 44.65625 31.589844 42.832031 30.117188 C 40.839844 28.488281 39.84375 26.210938 39.84375 23.28125 C 39.84375 19.894531 40.664062 17.058594 42.304688 14.765625 C 44.089844 12.265625 46.472656 11.015625 49.453125 11.015625 C 51.613281 11.015625 53.378906 11.378906 54.746094 12.109375 C 56.425781 13.007812 57.265625 14.386719 57.265625 16.25 C 57.265625 17.550781 56.53125 18.738281 55.058594 19.804688 C 54.40625 20.273438 53.027344 21.003906 50.917969 21.992188 L 43.457031 25.527344 C 44.1875 26.609375 45.09375 27.421875 46.183594 27.96875 C 47.269531 28.515625 48.535156 28.789062 49.980469 28.789062 C 50.878906 28.789062 51.933594 28.621094 53.144531 28.28125 C 54.679688 27.851562 55.671875 27.289062 56.113281 26.589844 C 56.554688 25.894531 57.03125 25.546875 57.539062 25.546875 C 57.996094 25.546875 58.402344 25.71875 58.761719 26.066406 C 59.117188 26.410156 59.296875 26.808594 59.296875 27.265625 C 59.296875 28.710938 58.132812 29.953125 55.800781 30.996094 C 53.808594 31.882812 51.867188 32.324219 49.980469 32.324219 Z M 49.453125 14.53125 C 47.863281 14.53125 46.542969 15.144531 45.488281 16.378906 C 44.433594 17.609375 43.644531 19.460938 43.125 21.933594 L 49.121094 19.082031 C 51.476562 17.9375 53.15625 16.941406 54.160156 16.09375 C 53.039062 15.050781 51.472656 14.53125 49.453125 14.53125 Z M 78.457031 6.699219 C 77.832031 6.699219 77.292969 6.476562 76.835938 6.035156 C 76.378906 5.59375 76.152344 5.058594 76.152344 4.433594 C 76.152344 3.808594 76.378906 3.273438 76.835938 2.832031 C 77.292969 2.390625 77.832031 2.167969 78.457031 2.167969 C 79.082031 2.167969 79.621094 2.390625 80.066406 2.832031 C 80.515625 3.273438 80.742188 3.808594 80.742188 4.433594 C 80.742188 5.058594 80.519531 5.59375 80.066406 6.035156 C 79.617188 6.476562 79.082031 6.699219 78.457031 6.699219 Z M 79.335938 22.558594 C 79.335938 23.339844 79.359375 24.507812 79.402344 26.066406 C 79.449219 27.621094 79.472656 28.789062 79.472656 29.570312 C 79.472656 30.144531 79.296875 30.613281 78.945312 30.976562 C 78.59375 31.339844 78.132812 31.523438 77.558594 31.523438 C 77 31.523438 76.539062 31.339844 76.183594 30.976562 C 75.824219 30.613281 75.644531 30.144531 75.644531 29.570312 C 75.644531 28.789062 75.621094 27.621094 75.574219 26.066406 C 75.53125 24.507812 75.507812 23.339844 75.507812 22.558594 C 75.507812 21.335938 75.574219 19.808594 75.703125 17.980469 C 75.832031 16.148438 75.898438 14.621094 75.898438 13.398438 C 75.898438 12.8125 76.078125 12.335938 76.433594 11.972656 C 76.792969 11.609375 77.253906 11.425781 77.8125 11.425781 C 78.371094 11.425781 78.832031 11.609375 79.191406 11.972656 C 79.546875 12.335938 79.726562 12.8125 79.726562 13.398438 C 79.726562 14.621094 79.660156 16.148438 79.53125 17.980469 C 79.402344 19.808594 79.335938 21.335938 79.335938 22.558594 Z M 100.917969 32.8125 C 99.796875 32.8125 99.167969 32.199219 99.023438 30.976562 L 98.476562 26.699219 C 98.292969 25.175781 98.203125 23.75 98.203125 22.421875 C 98.203125 22.058594 98.226562 21.4375 98.269531 20.566406 C 98.316406 19.695312 98.339844 19.074219 98.339844 18.710938 C 98.339844 15.898438 97.820312 14.492188 96.777344 14.492188 C 95.320312 14.492188 93.925781 15.359375 92.597656 17.089844 C 91.398438 18.664062 90.460938 20.65625 89.785156 23.066406 C 89.757812 23.574219 89.699219 24.210938 89.609375 24.980469 C 89.53125 25.632812 89.492188 26.261719 89.492188 26.875 C 89.492188 27.265625 89.53125 27.851562 89.609375 28.632812 C 89.6875 29.414062 89.726562 30 89.726562 30.390625 C 89.726562 30.976562 89.546875 31.453125 89.191406 31.816406 C 88.832031 32.179688 88.371094 32.363281 87.8125 32.363281 C 87.238281 32.363281 86.777344 32.179688 86.425781 31.816406 C 86.074219 31.453125 85.898438 30.976562 85.898438 30.390625 C 85.898438 30 85.855469 29.414062 85.769531 28.632812 C 85.6875 27.851562 85.644531 27.265625 85.644531 26.875 C 85.644531 25.535156 85.738281 23.675781 85.925781 21.300781 C 86.117188 18.921875 86.210938 17.0625 86.210938 15.722656 C 86.210938 15.304688 86.1875 14.6875 86.144531 13.867188 C 86.097656 13.046875 86.074219 12.429688 86.074219 12.011719 C 86.074219 11.453125 86.261719 10.992188 86.628906 10.636719 C 87 10.277344 87.460938 10.097656 88.007812 10.097656 C 89.207031 10.097656 89.863281 10.945312 89.980469 12.636719 L 90.039062 14.921875 C 92.226562 12.003906 94.472656 10.546875 96.777344 10.546875 C 98.859375 10.546875 100.3125 11.464844 101.132812 13.300781 C 101.691406 14.523438 102 16.335938 102.050781 18.730469 L 102.050781 20.703125 L 102.03125 22.519531 C 102.03125 23.601562 102.171875 24.996094 102.449219 26.707031 C 102.730469 28.421875 102.871094 29.8125 102.871094 30.878906 C 102.871094 31.453125 102.683594 31.917969 102.316406 32.277344 C 101.945312 32.632812 101.476562 32.8125 100.917969 32.8125 Z M 120.058594 16.386719 C 119.34375 16.386719 118.839844 16.144531 118.554688 15.664062 C 118.359375 15.324219 118.191406 14.621094 118.046875 13.554688 C 117.070312 13.800781 115.566406 14.257812 113.535156 14.921875 C 111.4375 15.753906 110.382812 16.785156 110.371094 18.007812 C 110.761719 18.152344 111.144531 18.253906 111.523438 18.320312 C 114.519531 18.855469 116.746094 19.589844 118.203125 20.527344 C 120.324219 21.894531 121.386719 23.875 121.386719 26.464844 C 121.386719 28.585938 120.46875 30.1875 118.632812 31.269531 C 117.109375 32.15625 115.183594 32.597656 112.851562 32.597656 C 111.144531 32.597656 109.519531 32.3125 107.96875 31.738281 C 105.964844 31.007812 104.960938 29.992188 104.960938 28.691406 C 104.960938 28.171875 105.167969 27.714844 105.574219 27.324219 C 105.984375 26.933594 106.453125 26.738281 106.972656 26.738281 C 107.375 26.738281 107.898438 27.050781 108.535156 27.675781 C 108.847656 27.976562 109.550781 28.222656 110.644531 28.417969 C 111.515625 28.574219 112.253906 28.652344 112.851562 28.652344 C 113.945312 28.652344 114.910156 28.523438 115.742188 28.261719 C 116.953125 27.882812 117.558594 27.285156 117.558594 26.464844 C 117.558594 24.695312 116.320312 23.496094 113.847656 22.871094 L 111.816406 22.421875 C 110.085938 22.042969 108.855469 21.601562 108.125 21.09375 C 107.070312 20.363281 106.542969 19.265625 106.542969 17.792969 C 106.542969 15.070312 107.824219 13.132812 110.390625 11.972656 C 111.171875 11.621094 112.421875 11.199219 114.140625 10.714844 C 115.859375 10.226562 117.089844 9.8125 117.832031 9.472656 C 118.367188 9.238281 118.945312 9.121094 119.570312 9.121094 C 120.128906 9.121094 120.589844 9.304688 120.949219 9.667969 C 121.304688 10.03125 121.484375 10.507812 121.484375 11.09375 C 121.484375 11.472656 121.566406 12.023438 121.730469 12.753906 C 121.890625 13.484375 121.972656 14.035156 121.972656 14.414062 C 121.972656 15 121.792969 15.476562 121.433594 15.839844 C 121.078125 16.203125 120.617188 16.386719 120.058594 16.386719 Z M 139.414062 14.785156 C 139.140625 14.785156 138.820312 14.773438 138.445312 14.746094 C 138.074219 14.71875 137.753906 14.707031 137.480469 14.707031 C 137.179688 14.707031 136.296875 14.804688 134.824219 15 L 135.195312 26.542969 L 135.214844 27.402344 L 135.234375 28.398438 C 135.285156 31.25 134.601562 32.675781 133.183594 32.675781 C 132.664062 32.675781 132.210938 32.507812 131.828125 32.167969 C 131.441406 31.828125 131.25 31.40625 131.25 30.898438 C 131.25 30.402344 131.269531 29.660156 131.308594 28.671875 C 131.347656 27.683594 131.367188 26.941406 131.367188 26.445312 L 130.976562 15.039062 C 130.027344 15 128.582031 14.890625 126.640625 14.707031 C 125.480469 14.550781 124.902344 13.90625 124.902344 12.773438 C 124.902344 12.199219 125.078125 11.726562 125.429688 11.347656 C 125.78125 10.96875 126.230469 10.78125 126.777344 10.78125 L 130.878906 11.113281 C 130.878906 10.449219 130.851562 9.558594 130.789062 8.449219 C 130.730469 7.335938 130.703125 6.53125 130.703125 6.035156 C 130.703125 5.488281 130.890625 5.035156 131.269531 4.675781 C 131.648438 4.320312 132.109375 4.140625 132.65625 4.140625 C 133.828125 4.140625 134.511719 5.097656 134.707031 7.011719 C 134.746094 7.492188 134.765625 8.074219 134.765625 8.75 L 134.726562 9.882812 L 134.707031 11.09375 C 136.320312 10.886719 137.246094 10.78125 137.480469 10.78125 C 138.835938 10.78125 139.71875 10.847656 140.136719 10.976562 C 140.929688 11.238281 141.328125 11.847656 141.328125 12.8125 C 141.328125 13.386719 141.148438 13.855469 140.789062 14.230469 C 140.433594 14.601562 139.972656 14.785156 139.414062 14.785156 Z M 160.449219 32.714844 C 160.203125 32.714844 159.753906 32.429688 159.101562 31.855469 C 158.515625 31.320312 158.078125 30.847656 157.792969 30.429688 C 156.542969 31.105469 155.441406 31.617188 154.492188 31.964844 C 153.542969 32.308594 152.746094 32.480469 152.109375 32.480469 C 149.0625 32.480469 146.84375 31.621094 145.449219 29.902344 C 144.132812 28.289062 143.476562 25.8125 143.476562 22.480469 C 143.476562 19.328125 144.558594 16.632812 146.730469 14.394531 C 148.898438 12.15625 151.484375 11.035156 154.492188 11.035156 C 155.625 11.035156 156.894531 11.328125 158.300781 11.914062 C 160.070312 12.644531 160.957031 13.523438 160.957031 14.550781 C 160.957031 14.902344 160.828125 15.214844 160.566406 15.488281 C 160.4375 15.984375 160.335938 16.796875 160.261719 17.929688 C 160.191406 19.0625 160.148438 20.515625 160.136719 22.285156 C 160.125 23.898438 160.234375 25.175781 160.46875 26.113281 C 160.597656 26.6875 161.007812 27.832031 161.699219 29.550781 C 161.789062 29.785156 161.941406 30.128906 162.148438 30.585938 L 162.265625 30.917969 C 162.265625 31.4375 162.082031 31.867188 161.71875 32.207031 C 161.355469 32.546875 160.929688 32.714844 160.449219 32.714844 Z M 156.386719 19.140625 C 156.386719 18.582031 156.421875 17.972656 156.496094 17.316406 C 156.566406 16.65625 156.671875 15.957031 156.816406 15.214844 C 156.335938 14.96875 155.921875 14.785156 155.574219 14.667969 C 155.230469 14.550781 154.953125 14.492188 154.746094 14.492188 C 152.726562 14.492188 150.988281 15.316406 149.519531 16.964844 C 148.054688 18.609375 147.324219 20.507812 147.324219 22.65625 C 147.324219 24.792969 147.703125 26.394531 148.457031 27.460938 C 149.210938 28.527344 150.34375 29.0625 151.855469 29.0625 C 153.105469 29.0625 154.167969 28.835938 155.039062 28.378906 C 155.507812 28.132812 156.164062 27.636719 157.011719 26.894531 C 156.59375 23.445312 156.386719 20.859375 156.386719 19.140625 Z M 170.625 16.074219 L 170.332031 25.78125 C 170.332031 26.808594 170.28125 28.320312 170.175781 30.3125 C 170.046875 31.613281 169.40625 32.265625 168.261719 32.265625 C 166.984375 32.265625 166.347656 31.601562 166.347656 30.273438 C 166.347656 28.699219 166.417969 26.332031 166.5625 23.175781 C 166.707031 20.015625 166.777344 17.648438 166.777344 16.074219 C 166.777344 14.015625 166.808594 11.664062 166.875 9.011719 C 166.941406 6.363281 166.972656 4.011719 166.972656 1.953125 C 166.972656 0.652344 167.609375 0 168.886719 0 C 170.175781 0 170.820312 0.652344 170.820312 1.953125 C 170.820312 4.011719 170.789062 6.363281 170.722656 9.011719 C 170.65625 11.664062 170.625 14.015625 170.625 16.074219 Z M 181.582031 16.074219 L 181.289062 25.78125 C 181.289062 26.808594 181.238281 28.320312 181.132812 30.3125 C 181.003906 31.613281 180.363281 32.265625 179.21875 32.265625 C 177.941406 32.265625 177.304688 31.601562 177.304688 30.273438 C 177.304688 28.699219 177.375 26.332031 177.519531 23.175781 C 177.664062 20.015625 177.734375 17.648438 177.734375 16.074219 C 177.734375 14.015625 177.765625 11.664062 177.832031 9.011719 C 177.898438 6.363281 177.929688 4.011719 177.929688 1.953125 C 177.929688 0.652344 178.566406 0 179.84375 0 C 181.132812 0 181.777344 0.652344 181.777344 1.953125 C 181.777344 4.011719 181.746094 6.363281 181.679688 9.011719 C 181.613281 11.664062 181.582031 14.015625 181.582031 16.074219 Z M 196.699219 32.324219 C 193.757812 32.324219 191.375 31.589844 189.550781 30.117188 C 187.558594 28.488281 186.5625 26.210938 186.5625 23.28125 C 186.5625 19.894531 187.382812 17.058594 189.023438 14.765625 C 190.808594 12.265625 193.191406 11.015625 196.171875 11.015625 C 198.332031 11.015625 200.097656 11.378906 201.464844 12.109375 C 203.144531 13.007812 203.984375 14.386719 203.984375 16.25 C 203.984375 17.550781 203.25 18.738281 201.777344 19.804688 C 201.125 20.273438 199.746094 21.003906 197.636719 21.992188 L 190.175781 25.527344 C 190.90625 26.609375 191.8125 27.421875 192.902344 27.96875 C 193.988281 28.515625 195.253906 28.789062 196.699219 28.789062 C 197.597656 28.789062 198.652344 28.621094 199.863281 28.28125 C 201.398438 27.851562 202.390625 27.289062 202.832031 26.589844 C 203.273438 25.894531 203.75 25.546875 204.257812 25.546875 C 204.714844 25.546875 205.121094 25.71875 205.480469 26.066406 C 205.835938 26.410156 206.015625 26.808594 206.015625 27.265625 C 206.015625 28.710938 204.851562 29.953125 202.519531 30.996094 C 200.527344 31.882812 198.585938 32.324219 196.699219 32.324219 Z M 196.171875 14.53125 C 194.582031 14.53125 193.261719 15.144531 192.207031 16.378906 C 191.152344 17.609375 190.363281 19.460938 189.84375 21.933594 L 195.839844 19.082031 C 198.195312 17.9375 199.875 16.941406 200.878906 16.09375 C 199.757812 15.050781 198.191406 14.53125 196.171875 14.53125 Z M 227.480469 14.179688 C 227.324219 16.09375 227.246094 18.007812 227.246094 19.921875 C 227.246094 24.257812 227.449219 27.53125 227.851562 29.746094 C 227.878906 29.929688 227.890625 30.078125 227.890625 30.195312 C 227.890625 30.714844 227.707031 31.144531 227.34375 31.484375 C 226.980469 31.824219 226.554688 31.992188 226.074219 31.992188 C 225.265625 31.992188 224.675781 31.40625 224.296875 30.234375 C 223.359375 30.925781 222.386719 31.445312 221.378906 31.796875 C 220.367188 32.148438 219.316406 32.324219 218.222656 32.324219 C 215.527344 32.324219 213.292969 31.425781 211.523438 29.628906 C 209.699219 27.792969 208.789062 25.4375 208.789062 22.558594 C 208.789062 19.082031 209.710938 16.296875 211.550781 14.199219 C 213.394531 12.101562 215.789062 11.054688 218.730469 11.054688 C 220.242188 11.054688 221.40625 11.289062 222.226562 11.757812 L 224.0625 13.105469 C 224.246094 7.625 224.460938 3.933594 224.707031 2.03125 C 224.875 0.871094 225.46875 0.292969 226.484375 0.292969 C 227.667969 0.292969 228.261719 0.925781 228.261719 2.1875 C 228.261719 3.996094 228 7.996094 227.480469 14.179688 Z M 218.808594 14.6875 C 216.621094 14.6875 214.980469 15.335938 213.886719 16.628906 C 212.792969 17.925781 212.246094 19.875 212.246094 22.480469 C 212.246094 24.160156 212.839844 25.605469 214.035156 26.816406 C 215.226562 28.027344 216.621094 28.632812 218.222656 28.632812 C 219.316406 28.632812 220.242188 28.429688 220.996094 28.027344 C 221.4375 27.792969 222.160156 27.253906 223.164062 26.40625 C 223.359375 26.238281 223.546875 26.035156 223.730469 25.800781 L 223.671875 22.421875 L 223.691406 20.15625 L 223.730469 17.851562 C 223.234375 16.796875 222.578125 16.003906 221.757812 15.480469 C 220.9375 14.953125 219.953125 14.6875 218.808594 14.6875 Z M -2.128906 -12.65625 "/>
<path fill-rule="nonzero" fill="rgb(0%, 0%, 0%)" fill-opacity="1" d="M 14.375 38.515625 C 11.222656 38.515625 9.460938 40.703125 9.082031 45.078125 L 9.023438 46.289062 C 11.238281 46.132812 12.667969 46.054688 13.320312 46.054688 C 15.390625 46.054688 16.425781 46.707031 16.425781 48.007812 C 16.425781 48.957031 15.917969 49.523438 14.902344 49.707031 C 14.460938 49.785156 13.941406 49.8125 13.347656 49.796875 C 12.757812 49.777344 11.257812 49.863281 8.847656 50.058594 L 8.691406 54.511719 C 8.691406 55.320312 8.71875 56.53125 8.769531 58.144531 C 8.820312 59.757812 8.847656 60.964844 8.847656 61.757812 C 8.847656 64.230469 8.703125 66.160156 8.417969 67.539062 C 8.195312 68.582031 7.589844 69.101562 6.601562 69.101562 C 6.066406 69.101562 5.613281 68.929688 5.234375 68.585938 C 4.855469 68.238281 4.667969 67.804688 4.667969 67.285156 C 4.667969 67.179688 4.679688 67.050781 4.707031 66.894531 C 4.980469 65.203125 5.117188 63.359375 5.117188 61.367188 L 5.058594 56.035156 L 5.058594 50.371094 C 3.429688 50.5 2.402344 50.566406 1.972656 50.566406 C 0.65625 50.566406 0 49.933594 0 48.671875 C 0 47.382812 1.140625 46.707031 3.417969 46.640625 L 5.292969 46.582031 C 5.332031 45.851562 5.429688 44.863281 5.585938 43.613281 C 5.925781 40.722656 6.652344 38.59375 7.773438 37.226562 C 9.128906 35.574219 11.242188 34.746094 14.121094 34.746094 C 15.984375 34.746094 16.914062 35.378906 16.914062 36.640625 C 16.914062 37.890625 16.066406 38.515625 14.375 38.515625 Z M 28.90625 67.128906 C 26.71875 67.128906 24.835938 66.320312 23.261719 64.707031 C 21.503906 62.910156 20.578125 60.496094 20.488281 57.460938 C 20.410156 54.519531 21.152344 51.925781 22.714844 49.6875 C 24.539062 47.042969 27.078125 45.722656 30.332031 45.722656 C 32.9375 45.722656 34.910156 46.914062 36.25 49.296875 C 37.316406 51.222656 37.832031 53.542969 37.792969 56.25 C 37.753906 59.140625 37 61.609375 35.527344 63.652344 C 33.859375 65.96875 31.652344 67.128906 28.90625 67.128906 Z M 30.078125 49.6875 C 28.164062 49.675781 26.671875 50.585938 25.605469 52.421875 C 24.757812 53.894531 24.335938 55.574219 24.335938 57.460938 C 24.335938 59.347656 24.851562 60.820312 25.878906 61.875 C 26.738281 62.746094 27.746094 63.183594 28.90625 63.183594 C 30.261719 63.183594 31.425781 62.6875 32.402344 61.699219 C 33.507812 60.605469 34.09375 59.128906 34.160156 57.265625 C 34.34375 52.226562 32.980469 49.699219 30.078125 49.6875 Z M 57.597656 67.363281 C 56.476562 67.363281 55.847656 66.75 55.703125 65.527344 L 55.15625 61.25 C 54.972656 59.726562 54.882812 58.300781 54.882812 56.972656 C 54.882812 56.609375 54.90625 55.988281 54.949219 55.117188 C 54.996094 54.246094 55.019531 53.625 55.019531 53.261719 C 55.019531 50.449219 54.5 49.042969 53.457031 49.042969 C 52 49.042969 50.605469 49.910156 49.277344 51.640625 C 48.078125 53.214844 47.140625 55.207031 46.464844 57.617188 C 46.4375 58.125 46.378906 58.761719 46.289062 59.53125 C 46.210938 60.183594 46.171875 60.8125 46.171875 61.425781 C 46.171875 61.816406 46.210938 62.402344 46.289062 63.183594 C 46.367188 63.964844 46.40625 64.550781 46.40625 64.941406 C 46.40625 65.527344 46.226562 66.003906 45.871094 66.367188 C 45.511719 66.730469 45.050781 66.914062 44.492188 66.914062 C 43.917969 66.914062 43.457031 66.730469 43.105469 66.367188 C 42.753906 66.003906 42.578125 65.527344 42.578125 64.941406 C 42.578125 64.550781 42.535156 63.964844 42.449219 63.183594 C 42.367188 62.402344 42.324219 61.816406 42.324219 61.425781 C 42.324219 60.085938 42.417969 58.226562 42.605469 55.851562 C 42.796875 53.472656 42.890625 51.613281 42.890625 50.273438 C 42.890625 49.855469 42.867188 49.238281 42.824219 48.417969 C 42.777344 47.597656 42.753906 46.980469 42.753906 46.5625 C 42.753906 46.003906 42.941406 45.542969 43.308594 45.1875 C 43.679688 44.828125 44.140625 44.648438 44.6875 44.648438 C 45.886719 44.648438 46.542969 45.496094 46.660156 47.1875 L 46.71875 49.472656 C 48.90625 46.554688 51.152344 45.097656 53.457031 45.097656 C 55.539062 45.097656 56.992188 46.015625 57.8125 47.851562 C 58.371094 49.074219 58.679688 50.886719 58.730469 53.28125 L 58.730469 55.253906 L 58.710938 57.070312 C 58.710938 58.152344 58.851562 59.546875 59.128906 61.257812 C 59.410156 62.972656 59.550781 64.363281 59.550781 65.429688 C 59.550781 66.003906 59.363281 66.46875 58.996094 66.828125 C 58.625 67.183594 58.15625 67.363281 57.597656 67.363281 Z M 76.621094 49.335938 C 76.347656 49.335938 76.027344 49.324219 75.652344 49.296875 C 75.28125 49.269531 74.960938 49.257812 74.6875 49.257812 C 74.386719 49.257812 73.503906 49.355469 72.03125 49.550781 L 72.402344 61.09375 L 72.421875 61.953125 L 72.441406 62.949219 C 72.492188 65.800781 71.808594 67.226562 70.390625 67.226562 C 69.871094 67.226562 69.417969 67.058594 69.035156 66.71875 C 68.648438 66.378906 68.457031 65.957031 68.457031 65.449219 C 68.457031 64.953125 68.476562 64.210938 68.515625 63.222656 C 68.554688 62.234375 68.574219 61.492188 68.574219 60.996094 L 68.183594 49.589844 C 67.234375 49.550781 65.789062 49.441406 63.847656 49.257812 C 62.6875 49.101562 62.109375 48.457031 62.109375 47.324219 C 62.109375 46.75 62.285156 46.277344 62.636719 45.898438 C 62.988281 45.519531 63.4375 45.332031 63.984375 45.332031 L 68.085938 45.664062 C 68.085938 45 68.058594 44.109375 67.996094 43 C 67.9375 41.886719 67.910156 41.082031 67.910156 40.585938 C 67.910156 40.039062 68.097656 39.585938 68.476562 39.226562 C 68.855469 38.871094 69.316406 38.691406 69.863281 38.691406 C 71.035156 38.691406 71.71875 39.648438 71.914062 41.5625 C 71.953125 42.042969 71.972656 42.625 71.972656 43.300781 L 71.933594 44.433594 L 71.914062 45.644531 C 73.527344 45.4375 74.453125 45.332031 74.6875 45.332031 C 76.042969 45.332031 76.925781 45.398438 77.34375 45.527344 C 78.136719 45.789062 78.535156 46.398438 78.535156 47.363281 C 78.535156 47.9375 78.355469 48.40625 77.996094 48.78125 C 77.640625 49.152344 77.179688 49.335938 76.621094 49.335938 Z M -1.464844 21.894531 "/>
</svg>
