<?xml version="1.0" encoding="UTF-8"?>
<svg xmlns="http://www.w3.org/2000/svg" xmlns:xlink="http://www.w3.org/1999/xlink" width="256pt" height="62pt" viewBox="0 0 256 62" version="1.1">
<g id="surface121">
<path style=" stroke:none;fill-rule:nonzero;fill:rgb(0%,0%,0%);fill-opacity:1;" d="M 13.082031 9.625 L 19.800781 9.625 L 19.800781 28.3125 L 23.207031 28.3125 L 23.207031 30.390625 L 16.207031 30.390625 L 16.207031 26.71875 C 15.550781 28.09375 14.691406 29.148438 13.628906 29.875 C 12.574219 30.59375 11.351562 30.953125 9.957031 30.953125 C 7.652344 30.953125 5.957031 30.304688 4.863281 29 C 3.777344 27.6875 3.238281 25.632812 3.238281 22.828125 L 3.238281 11.71875 L 0.00390625 11.71875 L 0.00390625 9.625 L 6.863281 9.625 L 6.863281 21.71875 C 6.863281 24.242188 7.167969 25.96875 7.785156 26.90625 C 8.398438 27.84375 9.503906 28.3125 11.097656 28.3125 C 12.761719 28.3125 14.027344 27.703125 14.894531 26.484375 C 15.769531 25.257812 16.207031 23.480469 16.207031 21.15625 L 16.207031 11.71875 L 13.082031 11.71875 Z M 26.9375 29.234375 L 26.9375 24.390625 L 29 24.390625 C 29.050781 25.945312 29.535156 27.105469 30.453125 27.875 C 31.378906 28.636719 32.738281 29.015625 34.53125 29.015625 C 36.144531 29.015625 37.375 28.714844 38.21875 28.109375 C 39.070312 27.507812 39.5 26.625 39.5 25.46875 C 39.5 24.554688 39.1875 23.820312 38.5625 23.265625 C 37.945312 22.703125 36.644531 22.105469 34.65625 21.46875 L 32.046875 20.578125 C 30.265625 20.007812 28.972656 19.292969 28.171875 18.4375 C 27.367188 17.574219 26.96875 16.480469 26.96875 15.15625 C 26.96875 13.25 27.664062 11.761719 29.0625 10.6875 C 30.457031 9.605469 32.382812 9.0625 34.84375 9.0625 C 35.9375 9.0625 37.085938 9.210938 38.296875 9.5 C 39.515625 9.78125 40.765625 10.195312 42.046875 10.734375 L 42.046875 15.265625 L 39.984375 15.265625 C 39.929688 13.933594 39.460938 12.890625 38.578125 12.140625 C 37.691406 11.382812 36.488281 11 34.96875 11 C 33.457031 11 32.3125 11.265625 31.53125 11.796875 C 30.757812 12.328125 30.375 13.132812 30.375 14.203125 C 30.375 15.070312 30.664062 15.765625 31.25 16.296875 C 31.832031 16.828125 33.003906 17.367188 34.765625 17.90625 L 37.625 18.78125 C 39.582031 19.398438 40.992188 20.164062 41.859375 21.078125 C 42.734375 21.996094 43.171875 23.179688 43.171875 24.625 C 43.171875 26.59375 42.414062 28.140625 40.90625 29.265625 C 39.40625 30.390625 37.332031 30.953125 34.6875 30.953125 C 33.34375 30.953125 32.03125 30.804688 30.75 30.515625 C 29.476562 30.234375 28.207031 29.808594 26.9375 29.234375 Z M 66.902344 20.390625 L 51.402344 20.390625 L 51.402344 20.546875 C 51.402344 23.351562 51.925781 25.464844 52.980469 26.890625 C 54.042969 28.308594 55.597656 29.015625 57.652344 29.015625 C 59.234375 29.015625 60.527344 28.605469 61.527344 27.78125 C 62.535156 26.960938 63.246094 25.730469 63.652344 24.09375 L 66.542969 24.09375 C 65.96875 26.375 64.910156 28.089844 63.371094 29.234375 C 61.828125 30.382812 59.800781 30.953125 57.292969 30.953125 C 54.25 30.953125 51.808594 29.953125 49.964844 27.953125 C 48.128906 25.953125 47.214844 23.304688 47.214844 20 C 47.214844 16.71875 48.113281 14.078125 49.917969 12.078125 C 51.730469 10.070312 54.109375 9.0625 57.058594 9.0625 C 60.191406 9.0625 62.597656 10.03125 64.277344 11.96875 C 65.953125 13.898438 66.828125 16.703125 66.902344 20.390625 Z M 62.652344 18.3125 C 62.578125 15.898438 62.066406 14.074219 61.121094 12.84375 C 60.183594 11.617188 58.828125 11 57.058594 11 C 55.402344 11 54.09375 11.621094 53.136719 12.859375 C 52.1875 14.089844 51.609375 15.90625 51.402344 18.3125 Z M 85.492188 3.1875 C 85.492188 2.585938 85.710938 2.0625 86.148438 1.625 C 86.585938 1.179688 87.105469 0.953125 87.710938 0.953125 C 88.3125 0.953125 88.835938 1.179688 89.273438 1.625 C 89.710938 2.0625 89.929688 2.585938 89.929688 3.1875 C 89.929688 3.792969 89.710938 4.3125 89.273438 4.75 C 88.84375 5.179688 88.324219 5.390625 87.710938 5.390625 C 87.105469 5.390625 86.585938 5.179688 86.148438 4.75 C 85.710938 4.3125 85.492188 3.792969 85.492188 3.1875 Z M 90.085938 28.3125 L 93.476562 28.3125 L 93.476562 30.390625 L 83.054688 30.390625 L 83.054688 28.3125 L 86.492188 28.3125 L 86.492188 11.71875 L 83.054688 11.71875 L 83.054688 9.625 L 90.085938 9.625 Z M 96.035156 30.390625 L 96.035156 28.3125 L 99.285156 28.3125 L 99.285156 11.71875 L 95.847656 11.71875 L 95.847656 9.625 L 102.878906 9.625 L 102.878906 13.3125 C 103.535156 11.90625 104.394531 10.851562 105.457031 10.140625 C 106.519531 9.421875 107.753906 9.0625 109.160156 9.0625 C 111.449219 9.0625 113.136719 9.71875 114.222656 11.03125 C 115.304688 12.34375 115.847656 14.398438 115.847656 17.1875 L 115.847656 28.3125 L 119.050781 28.3125 L 119.050781 30.390625 L 109.128906 30.390625 L 109.128906 28.3125 L 112.222656 28.3125 L 112.222656 18.3125 C 112.222656 15.78125 111.910156 14.042969 111.285156 13.09375 C 110.660156 12.148438 109.558594 11.671875 107.988281 11.671875 C 106.320312 11.671875 105.050781 12.28125 104.175781 13.5 C 103.308594 14.71875 102.878906 16.496094 102.878906 18.828125 L 102.878906 28.3125 L 106.003906 28.3125 L 106.003906 30.390625 Z M 122.40625 29.234375 L 122.40625 24.390625 L 124.46875 24.390625 C 124.519531 25.945312 125.003906 27.105469 125.921875 27.875 C 126.847656 28.636719 128.207031 29.015625 130 29.015625 C 131.613281 29.015625 132.84375 28.714844 133.6875 28.109375 C 134.539062 27.507812 134.96875 26.625 134.96875 25.46875 C 134.96875 24.554688 134.65625 23.820312 134.03125 23.265625 C 133.414062 22.703125 132.113281 22.105469 130.125 21.46875 L 127.515625 20.578125 C 125.734375 20.007812 124.441406 19.292969 123.640625 18.4375 C 122.835938 17.574219 122.4375 16.480469 122.4375 15.15625 C 122.4375 13.25 123.132812 11.761719 124.53125 10.6875 C 125.925781 9.605469 127.851562 9.0625 130.3125 9.0625 C 131.40625 9.0625 132.554688 9.210938 133.765625 9.5 C 134.984375 9.78125 136.234375 10.195312 137.515625 10.734375 L 137.515625 15.265625 L 135.453125 15.265625 C 135.398438 13.933594 134.929688 12.890625 134.046875 12.140625 C 133.160156 11.382812 131.957031 11 130.4375 11 C 128.925781 11 127.78125 11.265625 127 11.796875 C 126.226562 12.328125 125.84375 13.132812 125.84375 14.203125 C 125.84375 15.070312 126.132812 15.765625 126.71875 16.296875 C 127.300781 16.828125 128.472656 17.367188 130.234375 17.90625 L 133.09375 18.78125 C 135.050781 19.398438 136.460938 20.164062 137.328125 21.078125 C 138.203125 21.996094 138.640625 23.179688 138.640625 24.625 C 138.640625 26.59375 137.882812 28.140625 136.375 29.265625 C 134.875 30.390625 132.800781 30.953125 130.15625 30.953125 C 128.8125 30.953125 127.5 30.804688 126.21875 30.515625 C 124.945312 30.234375 123.675781 29.808594 122.40625 29.234375 Z M 144.996094 11.71875 L 141.839844 11.71875 L 141.839844 9.625 L 144.996094 9.625 L 144.996094 3.1875 L 148.621094 3.1875 L 148.621094 9.625 L 155.371094 9.625 L 155.371094 11.71875 L 148.621094 11.71875 L 148.621094 24.90625 C 148.621094 26.65625 148.785156 27.78125 149.121094 28.28125 C 149.464844 28.773438 150.089844 29.015625 150.996094 29.015625 C 151.933594 29.015625 152.613281 28.742188 153.042969 28.1875 C 153.480469 27.636719 153.707031 26.742188 153.730469 25.5 L 156.449219 25.5 C 156.34375 27.398438 155.828125 28.78125 154.902344 29.65625 C 153.972656 30.519531 152.566406 30.953125 150.683594 30.953125 C 148.609375 30.953125 147.140625 30.492188 146.277344 29.578125 C 145.421875 28.664062 144.996094 27.105469 144.996094 24.90625 Z M 172.679688 23.859375 L 172.679688 19.46875 L 168.054688 19.46875 C 166.261719 19.46875 164.929688 19.855469 164.054688 20.625 C 163.1875 21.398438 162.757812 22.574219 162.757812 24.15625 C 162.757812 25.605469 163.199219 26.75 164.085938 27.59375 C 164.96875 28.4375 166.167969 28.859375 167.679688 28.859375 C 169.179688 28.859375 170.386719 28.402344 171.304688 27.484375 C 172.21875 26.558594 172.679688 25.351562 172.679688 23.859375 Z M 176.273438 17.421875 L 176.273438 28.3125 L 179.476562 28.3125 L 179.476562 30.390625 L 172.679688 30.390625 L 172.679688 28.140625 C 171.886719 29.109375 170.96875 29.824219 169.929688 30.28125 C 168.886719 30.726562 167.667969 30.953125 166.273438 30.953125 C 163.96875 30.953125 162.140625 30.34375 160.789062 29.125 C 159.433594 27.898438 158.757812 26.242188 158.757812 24.15625 C 158.757812 22.011719 159.527344 20.34375 161.070312 19.15625 C 162.621094 17.96875 164.808594 17.375 167.632812 17.375 L 172.679688 17.375 L 172.679688 15.953125 C 172.679688 14.382812 172.199219 13.164062 171.242188 12.296875 C 170.28125 11.433594 168.9375 11 167.210938 11 C 165.773438 11 164.632812 11.328125 163.789062 11.984375 C 162.945312 12.632812 162.417969 13.589844 162.210938 14.859375 L 160.351562 14.859375 L 160.351562 10.65625 C 161.601562 10.125 162.8125 9.730469 163.992188 9.46875 C 165.167969 9.199219 166.320312 9.0625 167.445312 9.0625 C 170.320312 9.0625 172.507812 9.777344 174.007812 11.203125 C 175.515625 12.632812 176.273438 14.703125 176.273438 17.421875 Z M 188.808594 28.3125 L 192.214844 28.3125 L 192.214844 30.390625 L 181.761719 30.390625 L 181.761719 28.3125 L 185.214844 28.3125 L 185.214844 2.0625 L 181.761719 2.0625 L 181.761719 0 L 188.808594 0 Z M 201.601562 28.3125 L 205.007812 28.3125 L 205.007812 30.390625 L 194.554688 30.390625 L 194.554688 28.3125 L 198.007812 28.3125 L 198.007812 2.0625 L 194.554688 2.0625 L 194.554688 0 L 201.601562 0 Z M 227.878906 20.390625 L 212.378906 20.390625 L 212.378906 20.546875 C 212.378906 23.351562 212.902344 25.464844 213.957031 26.890625 C 215.019531 28.308594 216.574219 29.015625 218.628906 29.015625 C 220.210938 29.015625 221.503906 28.605469 222.503906 27.78125 C 223.511719 26.960938 224.222656 25.730469 224.628906 24.09375 L 227.519531 24.09375 C 226.945312 26.375 225.886719 28.089844 224.347656 29.234375 C 222.804688 30.382812 220.777344 30.953125 218.269531 30.953125 C 215.226562 30.953125 212.785156 29.953125 210.941406 27.953125 C 209.105469 25.953125 208.191406 23.304688 208.191406 20 C 208.191406 16.71875 209.089844 14.078125 210.894531 12.078125 C 212.707031 10.070312 215.085938 9.0625 218.035156 9.0625 C 221.167969 9.0625 223.574219 10.03125 225.253906 11.96875 C 226.929688 13.898438 227.804688 16.703125 227.878906 20.390625 Z M 223.628906 18.3125 C 223.554688 15.898438 223.042969 14.074219 222.097656 12.84375 C 221.160156 11.617188 219.804688 11 218.035156 11 C 216.378906 11 215.070312 11.621094 214.113281 12.859375 C 213.164062 14.089844 212.585938 15.90625 212.378906 18.3125 Z M 250.863281 28.3125 L 254.300781 28.3125 L 254.300781 30.390625 L 247.269531 30.390625 L 247.269531 27.140625 C 246.558594 28.445312 245.664062 29.40625 244.582031 30.03125 C 243.496094 30.644531 242.152344 30.953125 240.550781 30.953125 C 237.996094 30.953125 235.910156 29.945312 234.285156 27.921875 C 232.667969 25.890625 231.863281 23.25 231.863281 20 C 231.863281 16.742188 232.667969 14.105469 234.285156 12.09375 C 235.898438 10.074219 237.988281 9.0625 240.550781 9.0625 C 242.152344 9.0625 243.496094 9.375 244.582031 10 C 245.664062 10.617188 246.558594 11.574219 247.269531 12.875 L 247.269531 2.0625 L 243.863281 2.0625 L 243.863281 0 L 250.863281 0 Z M 247.269531 21.03125 L 247.269531 18.984375 C 247.269531 16.496094 246.789062 14.59375 245.832031 13.28125 C 244.871094 11.96875 243.480469 11.3125 241.660156 11.3125 C 239.816406 11.3125 238.417969 12.042969 237.472656 13.5 C 236.523438 14.960938 236.050781 17.125 236.050781 20 C 236.050781 22.867188 236.523438 25.03125 237.472656 26.5 C 238.417969 27.96875 239.816406 28.703125 241.660156 28.703125 C 243.480469 28.703125 244.871094 28.054688 245.832031 26.75 C 246.789062 25.4375 247.269531 23.53125 247.269531 21.03125 Z M -1.074219 -6.738281 "/>
<path style=" stroke:none;fill-rule:nonzero;fill:rgb(0%,0%,0%);fill-opacity:1;" d="M 15.757812 35.863281 L 13.867188 35.863281 C 13.855469 34.886719 13.578125 34.140625 13.039062 33.628906 C 12.496094 33.121094 11.710938 32.863281 10.679688 32.863281 C 9.34375 32.863281 8.402344 33.234375 7.851562 33.972656 C 7.308594 34.714844 7.039062 36.027344 7.039062 37.910156 L 7.039062 40.582031 L 12.835938 40.582031 L 12.835938 42.675781 L 7.039062 42.675781 L 7.039062 59.269531 L 11.648438 59.269531 L 11.648438 61.347656 L 0.0078125 61.347656 L 0.0078125 59.269531 L 3.445312 59.269531 L 3.445312 42.675781 L 0.0078125 42.675781 L 0.0078125 40.582031 L 3.445312 40.582031 L 3.445312 37.988281 C 3.445312 35.667969 4.042969 33.917969 5.242188 32.738281 C 6.449219 31.550781 8.21875 30.957031 10.554688 30.957031 C 11.417969 30.957031 12.289062 31.035156 13.164062 31.191406 C 14.039062 31.347656 14.902344 31.589844 15.757812 31.910156 Z M 25.390625 59.972656 C 27.316406 59.972656 28.769531 59.214844 29.75 57.691406 C 30.738281 56.171875 31.234375 53.925781 31.234375 50.957031 C 31.234375 47.988281 30.738281 45.75 29.75 44.238281 C 28.769531 42.71875 27.316406 41.957031 25.390625 41.957031 C 23.460938 41.957031 22.003906 42.71875 21.015625 44.238281 C 20.035156 45.75 19.546875 47.988281 19.546875 50.957031 C 19.546875 53.925781 20.039062 56.171875 21.03125 57.691406 C 22.019531 59.214844 23.472656 59.972656 25.390625 59.972656 Z M 25.390625 61.910156 C 22.367188 61.910156 19.941406 60.910156 18.109375 58.910156 C 16.273438 56.910156 15.359375 54.261719 15.359375 50.957031 C 15.359375 47.644531 16.269531 44.996094 18.09375 43.003906 C 19.925781 41.015625 22.359375 40.019531 25.390625 40.019531 C 28.421875 40.019531 30.851562 41.015625 32.6875 43.003906 C 34.519531 44.996094 35.4375 47.644531 35.4375 50.957031 C 35.4375 54.261719 34.519531 56.910156 32.6875 58.910156 C 30.851562 60.910156 28.421875 61.910156 25.390625 61.910156 Z M 39.082031 61.347656 L 39.082031 59.269531 L 42.332031 59.269531 L 42.332031 42.675781 L 38.894531 42.675781 L 38.894531 40.582031 L 45.925781 40.582031 L 45.925781 44.269531 C 46.582031 42.863281 47.441406 41.808594 48.503906 41.097656 C 49.566406 40.378906 50.800781 40.019531 52.207031 40.019531 C 54.496094 40.019531 56.183594 40.675781 57.269531 41.988281 C 58.351562 43.300781 58.894531 45.355469 58.894531 48.144531 L 58.894531 59.269531 L 62.097656 59.269531 L 62.097656 61.347656 L 52.175781 61.347656 L 52.175781 59.269531 L 55.269531 59.269531 L 55.269531 49.269531 C 55.269531 46.738281 54.957031 45 54.332031 44.050781 C 53.707031 43.105469 52.605469 42.628906 51.035156 42.628906 C 49.367188 42.628906 48.097656 43.238281 47.222656 44.457031 C 46.355469 45.675781 45.925781 47.453125 45.925781 49.785156 L 45.925781 59.269531 L 49.050781 59.269531 L 49.050781 61.347656 Z M 67.515625 42.675781 L 64.359375 42.675781 L 64.359375 40.582031 L 67.515625 40.582031 L 67.515625 34.144531 L 71.140625 34.144531 L 71.140625 40.582031 L 77.890625 40.582031 L 77.890625 42.675781 L 71.140625 42.675781 L 71.140625 55.863281 C 71.140625 57.613281 71.304688 58.738281 71.640625 59.238281 C 71.984375 59.730469 72.609375 59.972656 73.515625 59.972656 C 74.453125 59.972656 75.132812 59.699219 75.5625 59.144531 C 76 58.59375 76.226562 57.699219 76.25 56.457031 L 78.96875 56.457031 C 78.863281 58.355469 78.347656 59.738281 77.421875 60.613281 C 76.492188 61.476562 75.085938 61.910156 73.203125 61.910156 C 71.128906 61.910156 69.660156 61.449219 68.796875 60.535156 C 67.941406 59.621094 67.515625 58.0625 67.515625 55.863281 Z M -1.445312 24.21875 "/>
</g>
</svg>
