<?xml version="1.0" encoding="UTF-8"?>
<svg xmlns="http://www.w3.org/2000/svg" xmlns:xlink="http://www.w3.org/1999/xlink" width="220pt" height="35pt" viewBox="0 0 220 35" version="1.1">
<g id="surface373">
<path style=" stroke:none;fill-rule:nonzero;fill:rgb(0%,0%,0%);fill-opacity:1;" d="M 6.402344 5.929688 C 6.203125 5.816406 5.984375 5.734375 5.746094 5.679688 C 5.503906 5.628906 5.246094 5.601562 4.964844 5.601562 C 3.941406 5.601562 3.160156 5.929688 2.621094 6.585938 C 2.078125 7.242188 1.808594 8.191406 1.808594 9.429688 L 1.808594 15.195312 L -0.00390625 15.195312 L -0.00390625 4.257812 L 1.808594 4.257812 L 1.808594 5.960938 C 2.183594 5.296875 2.671875 4.800781 3.277344 4.476562 C 3.878906 4.15625 4.621094 3.992188 5.496094 3.992188 C 5.609375 3.992188 5.738281 4.003906 5.886719 4.023438 C 6.042969 4.035156 6.214844 4.054688 6.402344 4.085938 Z M 17.203125 9.273438 L 17.203125 10.148438 L 8.953125 10.148438 C 9.023438 11.390625 9.394531 12.335938 10.0625 12.992188 C 10.726562 13.640625 11.660156 13.960938 12.859375 13.960938 C 13.546875 13.960938 14.210938 13.878906 14.859375 13.710938 C 15.503906 13.535156 16.148438 13.28125 16.796875 12.945312 L 16.796875 14.632812 C 16.148438 14.914062 15.488281 15.125 14.8125 15.257812 C 14.132812 15.402344 13.445312 15.476562 12.75 15.476562 C 11 15.476562 9.613281 14.972656 8.59375 13.960938 C 7.582031 12.941406 7.078125 11.566406 7.078125 9.835938 C 7.078125 8.046875 7.554688 6.625 8.515625 5.570312 C 9.484375 4.519531 10.789062 3.992188 12.4375 3.992188 C 13.90625 3.992188 15.066406 4.46875 15.921875 5.414062 C 16.773438 6.363281 17.203125 7.648438 17.203125 9.273438 Z M 15.40625 8.742188 C 15.394531 7.765625 15.117188 6.984375 14.578125 6.398438 C 14.046875 5.816406 13.335938 5.523438 12.453125 5.523438 C 11.453125 5.523438 10.648438 5.804688 10.046875 6.367188 C 9.441406 6.929688 9.09375 7.726562 9 8.757812 Z M 29.257812 8.585938 L 29.257812 15.195312 L 27.460938 15.195312 L 27.460938 8.648438 C 27.460938 7.617188 27.257812 6.847656 26.851562 6.335938 C 26.445312 5.816406 25.839844 5.554688 25.039062 5.554688 C 24.058594 5.554688 23.289062 5.867188 22.726562 6.492188 C 22.171875 7.109375 21.898438 7.945312 21.898438 9.007812 L 21.898438 15.195312 L 20.085938 15.195312 L 20.085938 4.257812 L 21.898438 4.257812 L 21.898438 5.960938 C 22.324219 5.304688 22.828125 4.816406 23.414062 4.492188 C 23.996094 4.160156 24.667969 3.992188 25.429688 3.992188 C 26.6875 3.992188 27.640625 4.382812 28.289062 5.164062 C 28.933594 5.9375 29.257812 7.078125 29.257812 8.585938 Z M 40.023438 5.914062 L 40.023438 -0.0078125 L 41.820312 -0.0078125 L 41.820312 15.195312 L 40.023438 15.195312 L 40.023438 13.554688 C 39.648438 14.203125 39.167969 14.6875 38.585938 15.007812 C 38.011719 15.320312 37.324219 15.476562 36.523438 15.476562 C 35.199219 15.476562 34.121094 14.953125 33.289062 13.898438 C 32.464844 12.847656 32.054688 11.460938 32.054688 9.742188 C 32.054688 8.023438 32.464844 6.640625 33.289062 5.585938 C 34.121094 4.523438 35.199219 3.992188 36.523438 3.992188 C 37.324219 3.992188 38.011719 4.15625 38.585938 4.476562 C 39.167969 4.789062 39.648438 5.269531 40.023438 5.914062 Z M 33.898438 9.742188 C 33.898438 11.054688 34.167969 12.09375 34.710938 12.851562 C 35.261719 13.601562 36.011719 13.976562 36.960938 13.976562 C 37.90625 13.976562 38.652344 13.601562 39.195312 12.851562 C 39.746094 12.09375 40.023438 11.054688 40.023438 9.742188 C 40.023438 8.421875 39.746094 7.382812 39.195312 6.632812 C 38.652344 5.875 37.90625 5.492188 36.960938 5.492188 C 36.011719 5.492188 35.261719 5.875 34.710938 6.632812 C 34.167969 7.382812 33.898438 8.421875 33.898438 9.742188 Z M 54.875 9.273438 L 54.875 10.148438 L 46.625 10.148438 C 46.695312 11.390625 47.066406 12.335938 47.734375 12.992188 C 48.398438 13.640625 49.332031 13.960938 50.53125 13.960938 C 51.21875 13.960938 51.882812 13.878906 52.53125 13.710938 C 53.175781 13.535156 53.820312 13.28125 54.46875 12.945312 L 54.46875 14.632812 C 53.820312 14.914062 53.160156 15.125 52.484375 15.257812 C 51.804688 15.402344 51.117188 15.476562 50.421875 15.476562 C 48.671875 15.476562 47.285156 14.972656 46.265625 13.960938 C 45.253906 12.941406 44.75 11.566406 44.75 9.835938 C 44.75 8.046875 45.226562 6.625 46.1875 5.570312 C 47.15625 4.519531 48.460938 3.992188 50.109375 3.992188 C 51.578125 3.992188 52.738281 4.46875 53.59375 5.414062 C 54.445312 6.363281 54.875 7.648438 54.875 9.273438 Z M 53.078125 8.742188 C 53.066406 7.765625 52.789062 6.984375 52.25 6.398438 C 51.71875 5.816406 51.007812 5.523438 50.125 5.523438 C 49.125 5.523438 48.320312 5.804688 47.71875 6.367188 C 47.113281 6.929688 46.765625 7.726562 46.671875 8.757812 Z M 64.164062 5.929688 C 63.964844 5.816406 63.746094 5.734375 63.507812 5.679688 C 63.265625 5.628906 63.007812 5.601562 62.726562 5.601562 C 61.703125 5.601562 60.921875 5.929688 60.382812 6.585938 C 59.839844 7.242188 59.570312 8.191406 59.570312 9.429688 L 59.570312 15.195312 L 57.757812 15.195312 L 57.757812 4.257812 L 59.570312 4.257812 L 59.570312 5.960938 C 59.945312 5.296875 60.433594 4.800781 61.039062 4.476562 C 61.640625 4.15625 62.382812 3.992188 63.257812 3.992188 C 63.371094 3.992188 63.5 4.003906 63.648438 4.023438 C 63.804688 4.035156 63.976562 4.054688 64.164062 4.085938 Z M 66.0625 4.257812 L 67.859375 4.257812 L 67.859375 15.195312 L 66.0625 15.195312 Z M 66.0625 -0.0078125 L 67.859375 -0.0078125 L 67.859375 2.273438 L 66.0625 2.273438 Z M 80.710938 8.585938 L 80.710938 15.195312 L 78.914062 15.195312 L 78.914062 8.648438 C 78.914062 7.617188 78.710938 6.847656 78.304688 6.335938 C 77.898438 5.816406 77.292969 5.554688 76.492188 5.554688 C 75.511719 5.554688 74.742188 5.867188 74.179688 6.492188 C 73.625 7.109375 73.351562 7.945312 73.351562 9.007812 L 73.351562 15.195312 L 71.539062 15.195312 L 71.539062 4.257812 L 73.351562 4.257812 L 73.351562 5.960938 C 73.777344 5.304688 74.28125 4.816406 74.867188 4.492188 C 75.449219 4.160156 76.121094 3.992188 76.882812 3.992188 C 78.140625 3.992188 79.09375 4.382812 79.742188 5.164062 C 80.386719 5.9375 80.710938 7.078125 80.710938 8.585938 Z M 91.480469 9.601562 C 91.480469 8.300781 91.207031 7.289062 90.667969 6.570312 C 90.136719 5.851562 89.386719 5.492188 88.417969 5.492188 C 87.457031 5.492188 86.707031 5.851562 86.167969 6.570312 C 85.625 7.289062 85.355469 8.300781 85.355469 9.601562 C 85.355469 10.894531 85.625 11.898438 86.167969 12.617188 C 86.707031 13.335938 87.457031 13.695312 88.417969 13.695312 C 89.386719 13.695312 90.136719 13.335938 90.667969 12.617188 C 91.207031 11.898438 91.480469 10.894531 91.480469 9.601562 Z M 93.277344 13.835938 C 93.277344 15.699219 92.863281 17.085938 92.042969 17.992188 C 91.21875 18.898438 89.953125 19.351562 88.246094 19.351562 C 87.609375 19.351562 87.011719 19.304688 86.449219 19.210938 C 85.894531 19.117188 85.355469 18.96875 84.824219 18.773438 L 84.824219 17.039062 C 85.355469 17.320312 85.875 17.527344 86.386719 17.664062 C 86.894531 17.796875 87.421875 17.867188 87.964844 17.867188 C 89.140625 17.867188 90.019531 17.558594 90.605469 16.945312 C 91.1875 16.328125 91.480469 15.402344 91.480469 14.164062 L 91.480469 13.273438 C 91.113281 13.921875 90.640625 14.40625 90.058594 14.726562 C 89.472656 15.039062 88.78125 15.195312 87.980469 15.195312 C 86.636719 15.195312 85.550781 14.6875 84.730469 13.664062 C 83.917969 12.644531 83.511719 11.289062 83.511719 9.601562 C 83.511719 7.90625 83.917969 6.546875 84.730469 5.523438 C 85.550781 4.503906 86.636719 3.992188 87.980469 3.992188 C 88.78125 3.992188 89.472656 4.15625 90.058594 4.476562 C 90.640625 4.789062 91.113281 5.269531 91.480469 5.914062 L 91.480469 4.257812 L 93.277344 4.257812 Z M 110.53125 5.914062 L 110.53125 -0.0078125 L 112.328125 -0.0078125 L 112.328125 15.195312 L 110.53125 15.195312 L 110.53125 13.554688 C 110.15625 14.203125 109.675781 14.6875 109.09375 15.007812 C 108.519531 15.320312 107.832031 15.476562 107.03125 15.476562 C 105.707031 15.476562 104.628906 14.953125 103.796875 13.898438 C 102.972656 12.847656 102.5625 11.460938 102.5625 9.742188 C 102.5625 8.023438 102.972656 6.640625 103.796875 5.585938 C 104.628906 4.523438 105.707031 3.992188 107.03125 3.992188 C 107.832031 3.992188 108.519531 4.15625 109.09375 4.476562 C 109.675781 4.789062 110.15625 5.269531 110.53125 5.914062 Z M 104.40625 9.742188 C 104.40625 11.054688 104.675781 12.09375 105.21875 12.851562 C 105.769531 13.601562 106.519531 13.976562 107.46875 13.976562 C 108.414062 13.976562 109.160156 13.601562 109.703125 12.851562 C 110.253906 12.09375 110.53125 11.054688 110.53125 9.742188 C 110.53125 8.421875 110.253906 7.382812 109.703125 6.632812 C 109.160156 5.875 108.414062 5.492188 107.46875 5.492188 C 106.519531 5.492188 105.769531 5.875 105.21875 6.632812 C 104.675781 7.382812 104.40625 8.421875 104.40625 9.742188 Z M 125.382812 9.273438 L 125.382812 10.148438 L 117.132812 10.148438 C 117.203125 11.390625 117.574219 12.335938 118.242188 12.992188 C 118.90625 13.640625 119.839844 13.960938 121.039062 13.960938 C 121.726562 13.960938 122.390625 13.878906 123.039062 13.710938 C 123.683594 13.535156 124.328125 13.28125 124.976562 12.945312 L 124.976562 14.632812 C 124.328125 14.914062 123.667969 15.125 122.992188 15.257812 C 122.3125 15.402344 121.625 15.476562 120.929688 15.476562 C 119.179688 15.476562 117.792969 14.972656 116.773438 13.960938 C 115.761719 12.941406 115.257812 11.566406 115.257812 9.835938 C 115.257812 8.046875 115.734375 6.625 116.695312 5.570312 C 117.664062 4.519531 118.96875 3.992188 120.617188 3.992188 C 122.085938 3.992188 123.246094 4.46875 124.101562 5.414062 C 124.953125 6.363281 125.382812 7.648438 125.382812 9.273438 Z M 123.585938 8.742188 C 123.574219 7.765625 123.296875 6.984375 122.757812 6.398438 C 122.226562 5.816406 121.515625 5.523438 120.632812 5.523438 C 119.632812 5.523438 118.828125 5.804688 118.226562 6.367188 C 117.621094 6.929688 117.273438 7.726562 117.179688 8.757812 Z M 133.875 -0.0078125 L 133.875 1.492188 L 132.15625 1.492188 C 131.507812 1.492188 131.0625 1.625 130.8125 1.882812 C 130.5625 2.144531 130.4375 2.613281 130.4375 3.289062 L 130.4375 4.257812 L 133.390625 4.257812 L 133.390625 5.648438 L 130.4375 5.648438 L 130.4375 15.195312 L 128.625 15.195312 L 128.625 5.648438 L 126.90625 5.648438 L 126.90625 4.257812 L 128.625 4.257812 L 128.625 3.492188 C 128.625 2.273438 128.90625 1.390625 129.46875 0.835938 C 130.039062 0.273438 130.941406 -0.0078125 132.171875 -0.0078125 Z M 140.355469 9.695312 C 138.894531 9.695312 137.886719 9.863281 137.324219 10.195312 C 136.769531 10.53125 136.496094 11.097656 136.496094 11.898438 C 136.496094 12.535156 136.703125 13.039062 137.121094 13.414062 C 137.546875 13.789062 138.121094 13.976562 138.839844 13.976562 C 139.839844 13.976562 140.636719 13.625 141.230469 12.914062 C 141.832031 12.207031 142.136719 11.269531 142.136719 10.101562 L 142.136719 9.695312 Z M 143.933594 8.960938 L 143.933594 15.195312 L 142.136719 15.195312 L 142.136719 13.539062 C 141.730469 14.195312 141.21875 14.6875 140.605469 15.007812 C 139.988281 15.320312 139.238281 15.476562 138.355469 15.476562 C 137.238281 15.476562 136.347656 15.164062 135.683594 14.539062 C 135.027344 13.90625 134.699219 13.0625 134.699219 12.007812 C 134.699219 10.78125 135.109375 9.851562 135.933594 9.226562 C 136.753906 8.601562 137.984375 8.289062 139.621094 8.289062 L 142.136719 8.289062 L 142.136719 8.117188 C 142.136719 7.285156 141.863281 6.644531 141.324219 6.195312 C 140.78125 5.75 140.015625 5.523438 139.027344 5.523438 C 138.402344 5.523438 137.792969 5.597656 137.199219 5.742188 C 136.613281 5.890625 136.046875 6.113281 135.496094 6.414062 L 135.496094 4.757812 C 136.152344 4.5 136.785156 4.304688 137.402344 4.179688 C 138.027344 4.054688 138.628906 3.992188 139.214844 3.992188 C 140.796875 3.992188 141.980469 4.40625 142.761719 5.226562 C 143.542969 6.050781 143.933594 7.296875 143.933594 8.960938 Z M 147.453125 10.882812 L 147.453125 4.257812 L 149.25 4.257812 L 149.25 10.804688 C 149.25 11.847656 149.445312 12.628906 149.84375 13.148438 C 150.25 13.660156 150.859375 13.914062 151.671875 13.914062 C 152.640625 13.914062 153.40625 13.609375 153.96875 12.992188 C 154.53125 12.367188 154.8125 11.523438 154.8125 10.460938 L 154.8125 4.257812 L 156.609375 4.257812 L 156.609375 15.195312 L 154.8125 15.195312 L 154.8125 13.507812 C 154.375 14.175781 153.867188 14.671875 153.296875 14.992188 C 152.722656 15.3125 152.050781 15.476562 151.28125 15.476562 C 150.03125 15.476562 149.078125 15.085938 148.421875 14.304688 C 147.773438 13.523438 147.453125 12.382812 147.453125 10.882812 Z M 151.96875 3.992188 Z M 160.320312 -0.0078125 L 162.117188 -0.0078125 L 162.117188 15.195312 L 160.320312 15.195312 Z M 167.640625 1.148438 L 167.640625 4.257812 L 171.34375 4.257812 L 171.34375 5.648438 L 167.640625 5.648438 L 167.640625 11.585938 C 167.640625 12.484375 167.757812 13.0625 168 13.320312 C 168.25 13.570312 168.75 13.695312 169.5 13.695312 L 171.34375 13.695312 L 171.34375 15.195312 L 169.5 15.195312 C 168.113281 15.195312 167.15625 14.941406 166.625 14.429688 C 166.101562 13.910156 165.84375 12.960938 165.84375 11.585938 L 165.84375 5.648438 L 164.515625 5.648438 L 164.515625 4.257812 L 165.84375 4.257812 L 165.84375 1.148438 Z M 185.605469 -0.0078125 L 185.605469 1.492188 L 183.886719 1.492188 C 183.238281 1.492188 182.792969 1.625 182.542969 1.882812 C 182.292969 2.144531 182.167969 2.613281 182.167969 3.289062 L 182.167969 4.257812 L 185.121094 4.257812 L 185.121094 5.648438 L 182.167969 5.648438 L 182.167969 15.195312 L 180.355469 15.195312 L 180.355469 5.648438 L 178.636719 5.648438 L 178.636719 4.257812 L 180.355469 4.257812 L 180.355469 3.492188 C 180.355469 2.273438 180.636719 1.390625 181.199219 0.835938 C 181.769531 0.273438 182.671875 -0.0078125 183.902344 -0.0078125 Z M 191.351562 5.523438 C 190.382812 5.523438 189.617188 5.898438 189.054688 6.648438 C 188.5 7.398438 188.226562 8.429688 188.226562 9.742188 C 188.226562 11.046875 188.5 12.078125 189.054688 12.835938 C 189.617188 13.585938 190.382812 13.960938 191.351562 13.960938 C 192.308594 13.960938 193.0625 13.585938 193.617188 12.835938 C 194.179688 12.078125 194.460938 11.046875 194.460938 9.742188 C 194.460938 8.441406 194.179688 7.414062 193.617188 6.664062 C 193.0625 5.90625 192.308594 5.523438 191.351562 5.523438 Z M 191.351562 3.992188 C 192.914062 3.992188 194.136719 4.503906 195.023438 5.523438 C 195.917969 6.535156 196.367188 7.941406 196.367188 9.742188 C 196.367188 11.523438 195.917969 12.925781 195.023438 13.945312 C 194.136719 14.96875 192.914062 15.476562 191.351562 15.476562 C 189.777344 15.476562 188.546875 14.96875 187.664062 13.945312 C 186.777344 12.925781 186.335938 11.523438 186.335938 9.742188 C 186.335938 7.941406 186.777344 6.535156 187.664062 5.523438 C 188.546875 4.503906 189.777344 3.992188 191.351562 3.992188 Z M 208.445312 8.585938 L 208.445312 15.195312 L 206.648438 15.195312 L 206.648438 8.648438 C 206.648438 7.617188 206.445312 6.847656 206.039062 6.335938 C 205.632812 5.816406 205.027344 5.554688 204.226562 5.554688 C 203.246094 5.554688 202.476562 5.867188 201.914062 6.492188 C 201.359375 7.109375 201.085938 7.945312 201.085938 9.007812 L 201.085938 15.195312 L 199.273438 15.195312 L 199.273438 4.257812 L 201.085938 4.257812 L 201.085938 5.960938 C 201.511719 5.304688 202.015625 4.816406 202.601562 4.492188 C 203.183594 4.160156 203.855469 3.992188 204.617188 3.992188 C 205.875 3.992188 206.828125 4.382812 207.476562 5.164062 C 208.121094 5.9375 208.445312 7.078125 208.445312 8.585938 Z M 213.792969 1.148438 L 213.792969 4.257812 L 217.496094 4.257812 L 217.496094 5.648438 L 213.792969 5.648438 L 213.792969 11.585938 C 213.792969 12.484375 213.910156 13.0625 214.152344 13.320312 C 214.402344 13.570312 214.902344 13.695312 215.652344 13.695312 L 217.496094 13.695312 L 217.496094 15.195312 L 215.652344 15.195312 C 214.265625 15.195312 213.308594 14.941406 212.777344 14.429688 C 212.253906 13.910156 211.996094 12.960938 211.996094 11.585938 L 211.996094 5.648438 L 210.667969 5.648438 L 210.667969 4.257812 L 211.996094 4.257812 L 211.996094 1.148438 Z M -1.816406 -3.367188 "/>
<path style=" stroke:none;fill-rule:nonzero;fill:rgb(0%,0%,0%);fill-opacity:1;" d="M 0.0078125 23.609375 L 1.804688 23.609375 L 1.804688 34.546875 L 0.0078125 34.546875 Z M 0.0078125 19.34375 L 1.804688 19.34375 L 1.804688 21.625 L 0.0078125 21.625 Z M 11.09375 19.34375 L 11.09375 20.84375 L 9.375 20.84375 C 8.726562 20.84375 8.28125 20.976562 8.03125 21.234375 C 7.78125 21.496094 7.65625 21.964844 7.65625 22.640625 L 7.65625 23.609375 L 10.609375 23.609375 L 10.609375 25 L 7.65625 25 L 7.65625 34.546875 L 5.84375 34.546875 L 5.84375 25 L 4.125 25 L 4.125 23.609375 L 5.84375 23.609375 L 5.84375 22.84375 C 5.84375 21.625 6.125 20.742188 6.6875 20.1875 C 7.257812 19.625 8.160156 19.34375 9.390625 19.34375 Z M 24.492188 19.34375 L 24.492188 20.84375 L 22.773438 20.84375 C 22.125 20.84375 21.679688 20.976562 21.429688 21.234375 C 21.179688 21.496094 21.054688 21.964844 21.054688 22.640625 L 21.054688 23.609375 L 24.007812 23.609375 L 24.007812 25 L 21.054688 25 L 21.054688 34.546875 L 19.242188 34.546875 L 19.242188 25 L 17.523438 25 L 17.523438 23.609375 L 19.242188 23.609375 L 19.242188 22.84375 C 19.242188 21.625 19.523438 20.742188 20.085938 20.1875 C 20.65625 19.625 21.558594 19.34375 22.789062 19.34375 Z M 30.238281 24.875 C 29.269531 24.875 28.503906 25.25 27.941406 26 C 27.386719 26.75 27.113281 27.78125 27.113281 29.09375 C 27.113281 30.398438 27.386719 31.429688 27.941406 32.1875 C 28.503906 32.9375 29.269531 33.3125 30.238281 33.3125 C 31.195312 33.3125 31.949219 32.9375 32.503906 32.1875 C 33.066406 31.429688 33.347656 30.398438 33.347656 29.09375 C 33.347656 27.792969 33.066406 26.765625 32.503906 26.015625 C 31.949219 25.257812 31.195312 24.875 30.238281 24.875 Z M 30.238281 23.34375 C 31.800781 23.34375 33.023438 23.855469 33.910156 24.875 C 34.804688 25.886719 35.253906 27.292969 35.253906 29.09375 C 35.253906 30.875 34.804688 32.277344 33.910156 33.296875 C 33.023438 34.320312 31.800781 34.828125 30.238281 34.828125 C 28.664062 34.828125 27.433594 34.320312 26.550781 33.296875 C 25.664062 32.277344 25.222656 30.875 25.222656 29.09375 C 25.222656 27.292969 25.664062 25.886719 26.550781 24.875 C 27.433594 23.855469 28.664062 23.34375 30.238281 23.34375 Z M 47.335938 27.9375 L 47.335938 34.546875 L 45.539062 34.546875 L 45.539062 28 C 45.539062 26.96875 45.335938 26.199219 44.929688 25.6875 C 44.523438 25.167969 43.917969 24.90625 43.117188 24.90625 C 42.136719 24.90625 41.367188 25.21875 40.804688 25.84375 C 40.25 26.460938 39.976562 27.296875 39.976562 28.359375 L 39.976562 34.546875 L 38.164062 34.546875 L 38.164062 23.609375 L 39.976562 23.609375 L 39.976562 25.3125 C 40.402344 24.65625 40.90625 24.167969 41.492188 23.84375 C 42.074219 23.511719 42.746094 23.34375 43.507812 23.34375 C 44.765625 23.34375 45.71875 23.734375 46.367188 24.515625 C 47.011719 25.289062 47.335938 26.429688 47.335938 27.9375 Z M 52.679688 20.5 L 52.679688 23.609375 L 56.382812 23.609375 L 56.382812 25 L 52.679688 25 L 52.679688 30.9375 C 52.679688 31.835938 52.796875 32.414062 53.039062 32.671875 C 53.289062 32.921875 53.789062 33.046875 54.539062 33.046875 L 56.382812 33.046875 L 56.382812 34.546875 L 54.539062 34.546875 C 53.152344 34.546875 52.195312 34.292969 51.664062 33.78125 C 51.140625 33.261719 50.882812 32.3125 50.882812 30.9375 L 50.882812 25 L 49.554688 25 L 49.554688 23.609375 L 50.882812 23.609375 L 50.882812 20.5 Z M 65.117188 23.609375 L 66.914062 23.609375 L 66.914062 34.546875 L 65.117188 34.546875 Z M 65.117188 19.34375 L 66.914062 19.34375 L 66.914062 21.625 L 65.117188 21.625 Z M 77.640625 23.9375 L 77.640625 25.625 C 77.128906 25.367188 76.597656 25.171875 76.046875 25.046875 C 75.503906 24.914062 74.941406 24.84375 74.359375 24.84375 C 73.460938 24.84375 72.789062 24.984375 72.34375 25.265625 C 71.90625 25.539062 71.6875 25.945312 71.6875 26.484375 C 71.6875 26.902344 71.84375 27.230469 72.15625 27.46875 C 72.476562 27.710938 73.117188 27.9375 74.078125 28.15625 L 74.703125 28.28125 C 75.972656 28.5625 76.875 28.953125 77.40625 29.453125 C 77.945312 29.945312 78.21875 30.636719 78.21875 31.53125 C 78.21875 32.542969 77.816406 33.34375 77.015625 33.9375 C 76.210938 34.53125 75.109375 34.828125 73.703125 34.828125 C 73.117188 34.828125 72.507812 34.769531 71.875 34.65625 C 71.238281 34.542969 70.566406 34.371094 69.859375 34.140625 L 69.859375 32.296875 C 70.523438 32.640625 71.179688 32.902344 71.828125 33.078125 C 72.472656 33.246094 73.113281 33.328125 73.75 33.328125 C 74.59375 33.328125 75.238281 33.183594 75.6875 32.890625 C 76.144531 32.601562 76.375 32.195312 76.375 31.671875 C 76.375 31.183594 76.207031 30.808594 75.875 30.546875 C 75.550781 30.289062 74.832031 30.039062 73.71875 29.796875 L 73.09375 29.640625 C 71.976562 29.414062 71.171875 29.058594 70.671875 28.578125 C 70.179688 28.089844 69.9375 27.417969 69.9375 26.5625 C 69.9375 25.542969 70.300781 24.75 71.03125 24.1875 C 71.757812 23.625 72.796875 23.34375 74.140625 23.34375 C 74.804688 23.34375 75.429688 23.398438 76.015625 23.5 C 76.597656 23.59375 77.140625 23.742188 77.640625 23.9375 Z M 96.542969 27.9375 L 96.542969 34.546875 L 94.746094 34.546875 L 94.746094 28 C 94.746094 26.96875 94.542969 26.199219 94.136719 25.6875 C 93.730469 25.167969 93.125 24.90625 92.324219 24.90625 C 91.34375 24.90625 90.574219 25.21875 90.011719 25.84375 C 89.457031 26.460938 89.183594 27.296875 89.183594 28.359375 L 89.183594 34.546875 L 87.371094 34.546875 L 87.371094 23.609375 L 89.183594 23.609375 L 89.183594 25.3125 C 89.609375 24.65625 90.113281 24.167969 90.699219 23.84375 C 91.28125 23.511719 91.953125 23.34375 92.714844 23.34375 C 93.972656 23.34375 94.925781 23.734375 95.574219 24.515625 C 96.21875 25.289062 96.542969 26.429688 96.542969 27.9375 Z M 104.359375 24.875 C 103.390625 24.875 102.625 25.25 102.0625 26 C 101.507812 26.75 101.234375 27.78125 101.234375 29.09375 C 101.234375 30.398438 101.507812 31.429688 102.0625 32.1875 C 102.625 32.9375 103.390625 33.3125 104.359375 33.3125 C 105.316406 33.3125 106.070312 32.9375 106.625 32.1875 C 107.1875 31.429688 107.46875 30.398438 107.46875 29.09375 C 107.46875 27.792969 107.1875 26.765625 106.625 26.015625 C 106.070312 25.257812 105.316406 24.875 104.359375 24.875 Z M 104.359375 23.34375 C 105.921875 23.34375 107.144531 23.855469 108.03125 24.875 C 108.925781 25.886719 109.375 27.292969 109.375 29.09375 C 109.375 30.875 108.925781 32.277344 108.03125 33.296875 C 107.144531 34.320312 105.921875 34.828125 104.359375 34.828125 C 102.785156 34.828125 101.554688 34.320312 100.671875 33.296875 C 99.785156 32.277344 99.34375 30.875 99.34375 29.09375 C 99.34375 27.292969 99.785156 25.886719 100.671875 24.875 C 101.554688 23.855469 102.785156 23.34375 104.359375 23.34375 Z M 114.125 20.5 L 114.125 23.609375 L 117.828125 23.609375 L 117.828125 25 L 114.125 25 L 114.125 30.9375 C 114.125 31.835938 114.242188 32.414062 114.484375 32.671875 C 114.734375 32.921875 115.234375 33.046875 115.984375 33.046875 L 117.828125 33.046875 L 117.828125 34.546875 L 115.984375 34.546875 C 114.597656 34.546875 113.640625 34.292969 113.109375 33.78125 C 112.585938 33.261719 112.328125 32.3125 112.328125 30.9375 L 112.328125 25 L 111 25 L 111 23.609375 L 112.328125 23.609375 L 112.328125 20.5 Z M 126.5625 23.609375 L 128.359375 23.609375 L 128.359375 34.546875 L 126.5625 34.546875 Z M 126.5625 19.34375 L 128.359375 19.34375 L 128.359375 21.625 L 126.5625 21.625 Z M 141.210938 27.9375 L 141.210938 34.546875 L 139.414062 34.546875 L 139.414062 28 C 139.414062 26.96875 139.210938 26.199219 138.804688 25.6875 C 138.398438 25.167969 137.792969 24.90625 136.992188 24.90625 C 136.011719 24.90625 135.242188 25.21875 134.679688 25.84375 C 134.125 26.460938 133.851562 27.296875 133.851562 28.359375 L 133.851562 34.546875 L 132.039062 34.546875 L 132.039062 23.609375 L 133.851562 23.609375 L 133.851562 25.3125 C 134.277344 24.65625 134.78125 24.167969 135.367188 23.84375 C 135.949219 23.511719 136.621094 23.34375 137.382812 23.34375 C 138.640625 23.34375 139.59375 23.734375 140.242188 24.515625 C 140.886719 25.289062 141.210938 26.429688 141.210938 27.9375 Z M 151.761719 23.9375 L 151.761719 25.625 C 151.25 25.367188 150.71875 25.171875 150.167969 25.046875 C 149.625 24.914062 149.0625 24.84375 148.480469 24.84375 C 147.582031 24.84375 146.910156 24.984375 146.464844 25.265625 C 146.027344 25.539062 145.808594 25.945312 145.808594 26.484375 C 145.808594 26.902344 145.964844 27.230469 146.277344 27.46875 C 146.597656 27.710938 147.238281 27.9375 148.199219 28.15625 L 148.824219 28.28125 C 150.09375 28.5625 150.996094 28.953125 151.527344 29.453125 C 152.066406 29.945312 152.339844 30.636719 152.339844 31.53125 C 152.339844 32.542969 151.9375 33.34375 151.136719 33.9375 C 150.332031 34.53125 149.230469 34.828125 147.824219 34.828125 C 147.238281 34.828125 146.628906 34.769531 145.996094 34.65625 C 145.359375 34.542969 144.6875 34.371094 143.980469 34.140625 L 143.980469 32.296875 C 144.644531 32.640625 145.300781 32.902344 145.949219 33.078125 C 146.59375 33.246094 147.234375 33.328125 147.871094 33.328125 C 148.714844 33.328125 149.359375 33.183594 149.808594 32.890625 C 150.265625 32.601562 150.496094 32.195312 150.496094 31.671875 C 150.496094 31.183594 150.328125 30.808594 149.996094 30.546875 C 149.671875 30.289062 148.953125 30.039062 147.839844 29.796875 L 147.214844 29.640625 C 146.097656 29.414062 145.292969 29.058594 144.792969 28.578125 C 144.300781 28.089844 144.058594 27.417969 144.058594 26.5625 C 144.058594 25.542969 144.421875 24.75 145.152344 24.1875 C 145.878906 23.625 146.917969 23.34375 148.261719 23.34375 C 148.925781 23.34375 149.550781 23.398438 150.136719 23.5 C 150.71875 23.59375 151.261719 23.742188 151.761719 23.9375 Z M 156.976562 20.5 L 156.976562 23.609375 L 160.679688 23.609375 L 160.679688 25 L 156.976562 25 L 156.976562 30.9375 C 156.976562 31.835938 157.09375 32.414062 157.335938 32.671875 C 157.585938 32.921875 158.085938 33.046875 158.835938 33.046875 L 160.679688 33.046875 L 160.679688 34.546875 L 158.835938 34.546875 C 157.449219 34.546875 156.492188 34.292969 155.960938 33.78125 C 155.4375 33.261719 155.179688 32.3125 155.179688 30.9375 L 155.179688 25 L 153.851562 25 L 153.851562 23.609375 L 155.179688 23.609375 L 155.179688 20.5 Z M 168.023438 29.046875 C 166.5625 29.046875 165.554688 29.214844 164.992188 29.546875 C 164.4375 29.882812 164.164062 30.449219 164.164062 31.25 C 164.164062 31.886719 164.371094 32.390625 164.789062 32.765625 C 165.214844 33.140625 165.789062 33.328125 166.507812 33.328125 C 167.507812 33.328125 168.304688 32.976562 168.898438 32.265625 C 169.5 31.558594 169.804688 30.621094 169.804688 29.453125 L 169.804688 29.046875 Z M 171.601562 28.3125 L 171.601562 34.546875 L 169.804688 34.546875 L 169.804688 32.890625 C 169.398438 33.546875 168.886719 34.039062 168.273438 34.359375 C 167.65625 34.671875 166.90625 34.828125 166.023438 34.828125 C 164.90625 34.828125 164.015625 34.515625 163.351562 33.890625 C 162.695312 33.257812 162.367188 32.414062 162.367188 31.359375 C 162.367188 30.132812 162.777344 29.203125 163.601562 28.578125 C 164.421875 27.953125 165.652344 27.640625 167.289062 27.640625 L 169.804688 27.640625 L 169.804688 27.46875 C 169.804688 26.636719 169.53125 25.996094 168.992188 25.546875 C 168.449219 25.101562 167.683594 24.875 166.695312 24.875 C 166.070312 24.875 165.460938 24.949219 164.867188 25.09375 C 164.28125 25.242188 163.714844 25.464844 163.164062 25.765625 L 163.164062 24.109375 C 163.820312 23.851562 164.453125 23.65625 165.070312 23.53125 C 165.695312 23.40625 166.296875 23.34375 166.882812 23.34375 C 168.464844 23.34375 169.648438 23.757812 170.429688 24.578125 C 171.210938 25.402344 171.601562 26.648438 171.601562 28.3125 Z M 175.3125 19.34375 L 177.109375 19.34375 L 177.109375 34.546875 L 175.3125 34.546875 Z M 180.867188 19.34375 L 182.664062 19.34375 L 182.664062 34.546875 L 180.867188 34.546875 Z M 195.765625 28.625 L 195.765625 29.5 L 187.515625 29.5 C 187.585938 30.742188 187.957031 31.6875 188.625 32.34375 C 189.289062 32.992188 190.222656 33.3125 191.421875 33.3125 C 192.109375 33.3125 192.773438 33.230469 193.421875 33.0625 C 194.066406 32.886719 194.710938 32.632812 195.359375 32.296875 L 195.359375 33.984375 C 194.710938 34.265625 194.050781 34.476562 193.375 34.609375 C 192.695312 34.753906 192.007812 34.828125 191.3125 34.828125 C 189.5625 34.828125 188.175781 34.324219 187.15625 33.3125 C 186.144531 32.292969 185.640625 30.917969 185.640625 29.1875 C 185.640625 27.398438 186.117188 25.976562 187.078125 24.921875 C 188.046875 23.871094 189.351562 23.34375 191 23.34375 C 192.46875 23.34375 193.628906 23.820312 194.484375 24.765625 C 195.335938 25.714844 195.765625 27 195.765625 28.625 Z M 193.96875 28.09375 C 193.957031 27.117188 193.679688 26.335938 193.140625 25.75 C 192.609375 25.167969 191.898438 24.875 191.015625 24.875 C 190.015625 24.875 189.210938 25.15625 188.609375 25.71875 C 188.003906 26.28125 187.65625 27.078125 187.5625 28.109375 Z M 205.914062 25.265625 L 205.914062 19.34375 L 207.710938 19.34375 L 207.710938 34.546875 L 205.914062 34.546875 L 205.914062 32.90625 C 205.539062 33.554688 205.058594 34.039062 204.476562 34.359375 C 203.902344 34.671875 203.214844 34.828125 202.414062 34.828125 C 201.089844 34.828125 200.011719 34.304688 199.179688 33.25 C 198.355469 32.199219 197.945312 30.8125 197.945312 29.09375 C 197.945312 27.375 198.355469 25.992188 199.179688 24.9375 C 200.011719 23.875 201.089844 23.34375 202.414062 23.34375 C 203.214844 23.34375 203.902344 23.507812 204.476562 23.828125 C 205.058594 24.140625 205.539062 24.621094 205.914062 25.265625 Z M 199.789062 29.09375 C 199.789062 30.40625 200.058594 31.445312 200.601562 32.203125 C 201.152344 32.953125 201.902344 33.328125 202.851562 33.328125 C 203.796875 33.328125 204.542969 32.953125 205.085938 32.203125 C 205.636719 31.445312 205.914062 30.40625 205.914062 29.09375 C 205.914062 27.773438 205.636719 26.734375 205.085938 25.984375 C 204.542969 25.226562 203.796875 24.84375 202.851562 24.84375 C 201.902344 24.84375 201.152344 25.226562 200.601562 25.984375 C 200.058594 26.734375 199.789062 27.773438 199.789062 29.09375 Z M -1.882812 15.984375 "/>
</g>
</svg>
