<?xml version="1.0" encoding="UTF-8"?>
<svg xmlns="http://www.w3.org/2000/svg" xmlns:xlink="http://www.w3.org/1999/xlink" width="175pt" height="53pt" viewBox="0 0 175 53" version="1.1">
<g id="surface71">
<rect x="0" y="0" width="175" height="53" style="fill:rgb(0%,0%,100%);fill-opacity:1;stroke:none;"/>
<path style=" stroke:none;fill-rule:nonzero;fill:rgb(0%,0%,0%);fill-opacity:1;" d="M 11.882812 14.605469 C 11.882812 12.628906 11.46875 11.074219 10.648438 9.949219 C 9.835938 8.816406 8.714844 8.246094 7.289062 8.246094 C 5.859375 8.246094 4.742188 8.816406 3.929688 9.949219 C 3.117188 11.074219 2.710938 12.628906 2.710938 14.605469 C 2.710938 16.585938 3.117188 18.144531 3.929688 19.277344 C 4.742188 20.402344 5.859375 20.964844 7.289062 20.964844 C 8.714844 20.964844 9.835938 20.402344 10.648438 19.277344 C 11.46875 18.144531 11.882812 16.585938 11.882812 14.605469 Z M 2.710938 8.871094 C 3.273438 7.902344 3.984375 7.183594 4.851562 6.714844 C 5.714844 6.238281 6.746094 5.996094 7.945312 5.996094 C 9.945312 5.996094 11.5625 6.789062 12.804688 8.371094 C 14.054688 9.945312 14.679688 12.023438 14.679688 14.605469 C 14.679688 17.179688 14.054688 19.257812 12.804688 20.839844 C 11.5625 22.425781 9.945312 23.214844 7.945312 23.214844 C 6.746094 23.214844 5.714844 22.980469 4.851562 22.511719 C 3.984375 22.035156 3.273438 21.304688 2.710938 20.324219 L 2.710938 22.792969 L -0.0078125 22.792969 L -0.0078125 -0.00390625 L 2.710938 -0.00390625 Z M 26.597656 14.542969 C 24.417969 14.542969 22.910156 14.792969 22.066406 15.292969 C 21.230469 15.792969 20.816406 16.644531 20.816406 17.839844 C 20.816406 18.800781 21.128906 19.558594 21.753906 20.121094 C 22.386719 20.683594 23.246094 20.964844 24.332031 20.964844 C 25.820312 20.964844 27.019531 20.433594 27.925781 19.371094 C 28.832031 18.308594 29.285156 16.902344 29.285156 15.152344 L 29.285156 14.542969 Z M 31.972656 13.433594 L 31.972656 22.792969 L 29.285156 22.792969 L 29.285156 20.308594 C 28.667969 21.300781 27.898438 22.035156 26.972656 22.511719 C 26.054688 22.980469 24.933594 23.214844 23.613281 23.214844 C 21.933594 23.214844 20.597656 22.746094 19.597656 21.808594 C 18.605469 20.863281 18.113281 19.597656 18.113281 18.011719 C 18.113281 16.167969 18.730469 14.777344 19.972656 13.839844 C 21.210938 12.902344 23.054688 12.433594 25.503906 12.433594 L 29.285156 12.433594 L 29.285156 12.167969 C 29.285156 10.929688 28.871094 9.972656 28.050781 9.292969 C 27.238281 8.617188 26.097656 8.277344 24.628906 8.277344 C 23.691406 8.277344 22.773438 8.394531 21.878906 8.621094 C 20.992188 8.839844 20.136719 9.175781 19.316406 9.621094 L 19.316406 7.136719 C 20.304688 6.753906 21.261719 6.464844 22.191406 6.277344 C 23.117188 6.089844 24.019531 5.996094 24.894531 5.996094 C 27.269531 5.996094 29.039062 6.613281 30.207031 7.839844 C 31.382812 9.070312 31.972656 10.933594 31.972656 13.433594 Z M 49.339844 7.011719 L 49.339844 9.542969 C 48.566406 9.117188 47.796875 8.800781 47.027344 8.589844 C 46.265625 8.382812 45.496094 8.277344 44.714844 8.277344 C 42.964844 8.277344 41.605469 8.835938 40.636719 9.949219 C 39.675781 11.054688 39.199219 12.605469 39.199219 14.605469 C 39.199219 16.605469 39.675781 18.164062 40.636719 19.277344 C 41.605469 20.382812 42.964844 20.933594 44.714844 20.933594 C 45.496094 20.933594 46.265625 20.832031 47.027344 20.621094 C 47.796875 20.414062 48.566406 20.097656 49.339844 19.667969 L 49.339844 22.167969 C 48.578125 22.511719 47.796875 22.773438 46.996094 22.949219 C 46.191406 23.125 45.339844 23.214844 44.433594 23.214844 C 41.953125 23.214844 39.984375 22.441406 38.527344 20.886719 C 37.078125 19.335938 36.355469 17.242188 36.355469 14.605469 C 36.355469 11.929688 37.089844 9.824219 38.558594 8.292969 C 40.027344 6.761719 42.042969 5.996094 44.605469 5.996094 C 45.425781 5.996094 46.234375 6.082031 47.027344 6.246094 C 47.816406 6.414062 48.589844 6.667969 49.339844 7.011719 Z M 53.914062 -0.00390625 L 56.632812 -0.00390625 L 56.632812 13.464844 L 64.679688 6.386719 L 68.117188 6.386719 L 59.414062 14.058594 L 68.476562 22.792969 L 64.960938 22.792969 L 56.632812 14.777344 L 56.632812 22.792969 L 53.914062 22.792969 Z M 82.191406 14.402344 C 82.191406 12.445312 81.785156 10.929688 80.972656 9.855469 C 80.167969 8.785156 79.042969 8.246094 77.597656 8.246094 C 76.148438 8.246094 75.019531 8.785156 74.207031 9.855469 C 73.402344 10.929688 73.003906 12.445312 73.003906 14.402344 C 73.003906 16.339844 73.402344 17.851562 74.207031 18.933594 C 75.019531 20.007812 76.148438 20.542969 77.597656 20.542969 C 79.042969 20.542969 80.167969 20.007812 80.972656 18.933594 C 81.785156 17.851562 82.191406 16.339844 82.191406 14.402344 Z M 84.878906 20.761719 C 84.878906 23.550781 84.257812 25.625 83.019531 26.980469 C 81.777344 28.34375 79.882812 29.027344 77.332031 29.027344 C 76.382812 29.027344 75.488281 28.953125 74.644531 28.808594 C 73.800781 28.671875 72.988281 28.457031 72.207031 28.167969 L 72.207031 25.542969 C 72.988281 25.980469 73.761719 26.296875 74.535156 26.496094 C 75.316406 26.703125 76.101562 26.808594 76.894531 26.808594 C 78.664062 26.808594 79.988281 26.34375 80.863281 25.417969 C 81.746094 24.5 82.191406 23.109375 82.191406 21.246094 L 82.191406 19.902344 C 81.628906 20.871094 80.914062 21.597656 80.050781 22.074219 C 79.183594 22.554688 78.144531 22.792969 76.925781 22.792969 C 74.914062 22.792969 73.292969 22.027344 72.066406 20.496094 C 70.835938 18.964844 70.222656 16.933594 70.222656 14.402344 C 70.222656 11.863281 70.835938 9.824219 72.066406 8.292969 C 73.292969 6.761719 74.914062 5.996094 76.925781 5.996094 C 78.144531 5.996094 79.183594 6.238281 80.050781 6.714844 C 80.914062 7.195312 81.628906 7.914062 82.191406 8.871094 L 82.191406 6.386719 L 84.878906 6.386719 Z M 99.9375 8.902344 C 99.632812 8.726562 99.304688 8.597656 98.953125 8.511719 C 98.597656 8.429688 98.207031 8.386719 97.78125 8.386719 C 96.25 8.386719 95.078125 8.886719 94.265625 9.886719 C 93.453125 10.878906 93.046875 12.300781 93.046875 14.152344 L 93.046875 22.792969 L 90.328125 22.792969 L 90.328125 6.386719 L 93.046875 6.386719 L 93.046875 8.933594 C 93.609375 7.933594 94.34375 7.195312 95.25 6.714844 C 96.164062 6.238281 97.269531 5.996094 98.5625 5.996094 C 98.75 5.996094 98.953125 6.007812 99.171875 6.027344 C 99.398438 6.050781 99.648438 6.085938 99.921875 6.136719 Z M 108.472656 8.277344 C 107.023438 8.277344 105.878906 8.839844 105.035156 9.964844 C 104.199219 11.089844 103.785156 12.636719 103.785156 14.605469 C 103.785156 16.566406 104.199219 18.113281 105.035156 19.246094 C 105.867188 20.371094 107.011719 20.933594 108.472656 20.933594 C 109.910156 20.933594 111.042969 20.367188 111.878906 19.230469 C 112.722656 18.097656 113.144531 16.554688 113.144531 14.605469 C 113.144531 12.660156 112.722656 11.117188 111.878906 9.980469 C 111.042969 8.847656 109.910156 8.277344 108.472656 8.277344 Z M 108.472656 5.996094 C 110.816406 5.996094 112.652344 6.757812 113.988281 8.277344 C 115.332031 9.800781 116.003906 11.910156 116.003906 14.605469 C 116.003906 17.292969 115.332031 19.402344 113.988281 20.933594 C 112.652344 22.457031 110.816406 23.214844 108.472656 23.214844 C 106.117188 23.214844 104.273438 22.457031 102.941406 20.933594 C 101.605469 19.402344 100.941406 17.292969 100.941406 14.605469 C 100.941406 11.910156 101.605469 9.800781 102.941406 8.277344 C 104.273438 6.757812 106.117188 5.996094 108.472656 5.996094 Z M 120.1875 16.324219 L 120.1875 6.386719 L 122.890625 6.386719 L 122.890625 16.214844 C 122.890625 17.769531 123.191406 18.933594 123.796875 19.714844 C 124.398438 20.488281 125.304688 20.871094 126.515625 20.871094 C 127.972656 20.871094 129.125 20.410156 129.96875 19.480469 C 130.8125 18.554688 131.234375 17.289062 131.234375 15.683594 L 131.234375 6.386719 L 133.9375 6.386719 L 133.9375 22.792969 L 131.234375 22.792969 L 131.234375 20.277344 C 130.578125 21.269531 129.816406 22.007812 128.953125 22.496094 C 128.085938 22.972656 127.085938 23.214844 125.953125 23.214844 C 124.066406 23.214844 122.632812 22.632812 121.65625 21.464844 C 120.675781 20.289062 120.1875 18.574219 120.1875 16.324219 Z M 126.96875 5.996094 Z M 153.121094 12.886719 L 153.121094 22.792969 L 150.417969 22.792969 L 150.417969 12.980469 C 150.417969 11.429688 150.113281 10.269531 149.511719 9.496094 C 148.90625 8.726562 148 8.339844 146.792969 8.339844 C 145.332031 8.339844 144.183594 8.804688 143.339844 9.730469 C 142.503906 10.660156 142.089844 11.925781 142.089844 13.527344 L 142.089844 22.792969 L 139.371094 22.792969 L 139.371094 6.386719 L 142.089844 6.386719 L 142.089844 8.933594 C 142.734375 7.945312 143.496094 7.210938 144.371094 6.730469 C 145.246094 6.242188 146.25 5.996094 147.386719 5.996094 C 149.269531 5.996094 150.699219 6.582031 151.667969 7.746094 C 152.636719 8.914062 153.121094 10.628906 153.121094 12.886719 Z M 169.292969 8.871094 L 169.292969 -0.00390625 L 171.980469 -0.00390625 L 171.980469 22.792969 L 169.292969 22.792969 L 169.292969 20.324219 C 168.730469 21.304688 168.015625 22.035156 167.152344 22.511719 C 166.285156 22.980469 165.246094 23.214844 164.027344 23.214844 C 162.046875 23.214844 160.433594 22.425781 159.183594 20.839844 C 157.941406 19.257812 157.324219 17.179688 157.324219 14.605469 C 157.324219 12.023438 157.941406 9.945312 159.183594 8.371094 C 160.433594 6.789062 162.046875 5.996094 164.027344 5.996094 C 165.246094 5.996094 166.285156 6.238281 167.152344 6.714844 C 168.015625 7.183594 168.730469 7.902344 169.292969 8.871094 Z M 160.105469 14.605469 C 160.105469 16.585938 160.511719 18.144531 161.324219 19.277344 C 162.144531 20.402344 163.269531 20.964844 164.699219 20.964844 C 166.113281 20.964844 167.234375 20.402344 168.058594 19.277344 C 168.878906 18.144531 169.292969 16.585938 169.292969 14.605469 C 169.292969 12.628906 168.878906 11.074219 168.058594 9.949219 C 167.234375 8.816406 166.113281 8.246094 164.699219 8.246094 C 163.269531 8.246094 162.144531 8.816406 161.324219 9.949219 C 160.511719 11.074219 160.105469 12.628906 160.105469 14.605469 Z M -2.726562 -5.054688 "/>
<path style=" stroke:none;fill-rule:nonzero;fill:rgb(0%,0%,0%);fill-opacity:1;" d="M 12.984375 36.046875 L 12.984375 38.578125 C 12.210938 38.152344 11.441406 37.835938 10.671875 37.625 C 9.910156 37.417969 9.140625 37.3125 8.359375 37.3125 C 6.609375 37.3125 5.25 37.871094 4.28125 38.984375 C 3.320312 40.089844 2.84375 41.640625 2.84375 43.640625 C 2.84375 45.640625 3.320312 47.199219 4.28125 48.3125 C 5.25 49.417969 6.609375 49.96875 8.359375 49.96875 C 9.140625 49.96875 9.910156 49.867188 10.671875 49.65625 C 11.441406 49.449219 12.210938 49.132812 12.984375 48.703125 L 12.984375 51.203125 C 12.222656 51.546875 11.441406 51.808594 10.640625 51.984375 C 9.835938 52.160156 8.984375 52.25 8.078125 52.25 C 5.597656 52.25 3.628906 51.476562 2.171875 49.921875 C 0.722656 48.371094 0 46.277344 0 43.640625 C 0 40.964844 0.734375 38.859375 2.203125 37.328125 C 3.671875 35.796875 5.6875 35.03125 8.25 35.03125 C 9.070312 35.03125 9.878906 35.117188 10.671875 35.28125 C 11.460938 35.449219 12.234375 35.703125 12.984375 36.046875 Z M 24.023438 37.3125 C 22.574219 37.3125 21.429688 37.875 20.585938 39 C 19.75 40.125 19.335938 41.671875 19.335938 43.640625 C 19.335938 45.601562 19.75 47.148438 20.585938 48.28125 C 21.417969 49.40625 22.5625 49.96875 24.023438 49.96875 C 25.460938 49.96875 26.59375 49.402344 27.429688 48.265625 C 28.273438 47.132812 28.695312 45.589844 28.695312 43.640625 C 28.695312 41.695312 28.273438 40.152344 27.429688 39.015625 C 26.59375 37.882812 25.460938 37.3125 24.023438 37.3125 Z M 24.023438 35.03125 C 26.367188 35.03125 28.203125 35.792969 29.539062 37.3125 C 30.882812 38.835938 31.554688 40.945312 31.554688 43.640625 C 31.554688 46.328125 30.882812 48.4375 29.539062 49.96875 C 28.203125 51.492188 26.367188 52.25 24.023438 52.25 C 21.667969 52.25 19.824219 51.492188 18.492188 49.96875 C 17.15625 48.4375 16.492188 46.328125 16.492188 43.640625 C 16.492188 40.945312 17.15625 38.835938 18.492188 37.3125 C 19.824219 35.792969 21.667969 35.03125 24.023438 35.03125 Z M 36.019531 29.03125 L 38.707031 29.03125 L 38.707031 51.828125 L 36.019531 51.828125 Z M 50.714844 37.3125 C 49.265625 37.3125 48.121094 37.875 47.277344 39 C 46.441406 40.125 46.027344 41.671875 46.027344 43.640625 C 46.027344 45.601562 46.441406 47.148438 47.277344 48.28125 C 48.109375 49.40625 49.253906 49.96875 50.714844 49.96875 C 52.152344 49.96875 53.285156 49.402344 54.121094 48.265625 C 54.964844 47.132812 55.386719 45.589844 55.386719 43.640625 C 55.386719 41.695312 54.964844 40.152344 54.121094 39.015625 C 53.285156 37.882812 52.152344 37.3125 50.714844 37.3125 Z M 50.714844 35.03125 C 53.058594 35.03125 54.894531 35.792969 56.230469 37.3125 C 57.574219 38.835938 58.246094 40.945312 58.246094 43.640625 C 58.246094 46.328125 57.574219 48.4375 56.230469 49.96875 C 54.894531 51.492188 53.058594 52.25 50.714844 52.25 C 48.359375 52.25 46.515625 51.492188 45.183594 49.96875 C 43.847656 48.4375 43.183594 46.328125 43.183594 43.640625 C 43.183594 40.945312 43.847656 38.835938 45.183594 37.3125 C 46.515625 35.792969 48.359375 35.03125 50.714844 35.03125 Z M 72.210938 37.9375 C 71.90625 37.761719 71.578125 37.632812 71.226562 37.546875 C 70.871094 37.464844 70.480469 37.421875 70.054688 37.421875 C 68.523438 37.421875 67.351562 37.921875 66.539062 38.921875 C 65.726562 39.914062 65.320312 41.335938 65.320312 43.1875 L 65.320312 51.828125 L 62.601562 51.828125 L 62.601562 35.421875 L 65.320312 35.421875 L 65.320312 37.96875 C 65.882812 36.96875 66.617188 36.230469 67.523438 35.75 C 68.4375 35.273438 69.542969 35.03125 70.835938 35.03125 C 71.023438 35.03125 71.226562 35.042969 71.445312 35.0625 C 71.671875 35.085938 71.921875 35.121094 72.195312 35.171875 Z M -1.65625 23.980469 "/>
</g>
</svg>
