<?xml version="1.0" encoding="UTF-8"?>
<svg xmlns="http://www.w3.org/2000/svg" xmlns:xlink="http://www.w3.org/1999/xlink" width="74pt" height="24pt" viewBox="0 0 74 24" version="1.1">
<g id="surface221">
<path style=" stroke:none;fill-rule:nonzero;fill:rgb(100%,0%,0%);fill-opacity:1;" d="M 12.984375 7.011719 L 12.984375 9.542969 C 12.210938 9.117188 11.441406 8.800781 10.671875 8.589844 C 9.910156 8.382812 9.140625 8.277344 8.359375 8.277344 C 6.609375 8.277344 5.25 8.835938 4.28125 9.949219 C 3.320312 11.054688 2.84375 12.605469 2.84375 14.605469 C 2.84375 16.605469 3.320312 18.164062 4.28125 19.277344 C 5.25 20.382812 6.609375 20.933594 8.359375 20.933594 C 9.140625 20.933594 9.910156 20.832031 10.671875 20.621094 C 11.441406 20.414062 12.210938 20.097656 12.984375 19.667969 L 12.984375 22.167969 C 12.222656 22.511719 11.441406 22.773438 10.640625 22.949219 C 9.835938 23.125 8.984375 23.214844 8.078125 23.214844 C 5.597656 23.214844 3.628906 22.441406 2.171875 20.886719 C 0.722656 19.335938 0 17.242188 0 14.605469 C 0 11.929688 0.734375 9.824219 2.203125 8.292969 C 3.671875 6.761719 5.6875 5.996094 8.25 5.996094 C 9.070312 5.996094 9.878906 6.082031 10.671875 6.246094 C 11.460938 6.414062 12.234375 6.667969 12.984375 7.011719 Z M 24.023438 8.277344 C 22.574219 8.277344 21.429688 8.839844 20.585938 9.964844 C 19.75 11.089844 19.335938 12.636719 19.335938 14.605469 C 19.335938 16.566406 19.75 18.113281 20.585938 19.246094 C 21.417969 20.371094 22.5625 20.933594 24.023438 20.933594 C 25.460938 20.933594 26.59375 20.367188 27.429688 19.230469 C 28.273438 18.097656 28.695312 16.554688 28.695312 14.605469 C 28.695312 12.660156 28.273438 11.117188 27.429688 9.980469 C 26.59375 8.847656 25.460938 8.277344 24.023438 8.277344 Z M 24.023438 5.996094 C 26.367188 5.996094 28.203125 6.757812 29.539062 8.277344 C 30.882812 9.800781 31.554688 11.910156 31.554688 14.605469 C 31.554688 17.292969 30.882812 19.402344 29.539062 20.933594 C 28.203125 22.457031 26.367188 23.214844 24.023438 23.214844 C 21.667969 23.214844 19.824219 22.457031 18.492188 20.933594 C 17.15625 19.402344 16.492188 17.292969 16.492188 14.605469 C 16.492188 11.910156 17.15625 9.800781 18.492188 8.277344 C 19.824219 6.757812 21.667969 5.996094 24.023438 5.996094 Z M 36.019531 -0.00390625 L 38.707031 -0.00390625 L 38.707031 22.792969 L 36.019531 22.792969 Z M 50.714844 8.277344 C 49.265625 8.277344 48.121094 8.839844 47.277344 9.964844 C 46.441406 11.089844 46.027344 12.636719 46.027344 14.605469 C 46.027344 16.566406 46.441406 18.113281 47.277344 19.246094 C 48.109375 20.371094 49.253906 20.933594 50.714844 20.933594 C 52.152344 20.933594 53.285156 20.367188 54.121094 19.230469 C 54.964844 18.097656 55.386719 16.554688 55.386719 14.605469 C 55.386719 12.660156 54.964844 11.117188 54.121094 9.980469 C 53.285156 8.847656 52.152344 8.277344 50.714844 8.277344 Z M 50.714844 5.996094 C 53.058594 5.996094 54.894531 6.757812 56.230469 8.277344 C 57.574219 9.800781 58.246094 11.910156 58.246094 14.605469 C 58.246094 17.292969 57.574219 19.402344 56.230469 20.933594 C 54.894531 22.457031 53.058594 23.214844 50.714844 23.214844 C 48.359375 23.214844 46.515625 22.457031 45.183594 20.933594 C 43.847656 19.402344 43.183594 17.292969 43.183594 14.605469 C 43.183594 11.910156 43.847656 9.800781 45.183594 8.277344 C 46.515625 6.757812 48.359375 5.996094 50.714844 5.996094 Z M 72.210938 8.902344 C 71.90625 8.726562 71.578125 8.597656 71.226562 8.511719 C 70.871094 8.429688 70.480469 8.386719 70.054688 8.386719 C 68.523438 8.386719 67.351562 8.886719 66.539062 9.886719 C 65.726562 10.878906 65.320312 12.300781 65.320312 14.152344 L 65.320312 22.792969 L 62.601562 22.792969 L 62.601562 6.386719 L 65.320312 6.386719 L 65.320312 8.933594 C 65.882812 7.933594 66.617188 7.195312 67.523438 6.714844 C 68.4375 6.238281 69.542969 5.996094 70.835938 5.996094 C 71.023438 5.996094 71.226562 6.007812 71.445312 6.027344 C 71.671875 6.050781 71.921875 6.085938 72.195312 6.136719 Z M -1.65625 -5.054688 "/>
</g>
</svg>
