<?xml version="1.0" encoding="UTF-8"?>
<svg xmlns="http://www.w3.org/2000/svg" xmlns:xlink="http://www.w3.org/1999/xlink" width="171pt" height="128pt" viewBox="0 0 171 128" version="1.1">
<g id="surface875">
<path style=" stroke:none;fill-rule:nonzero;fill:rgb(0%,0%,0%);fill-opacity:1;" d="M 9.601562 8.902344 C 9.296875 8.726562 8.96875 8.597656 8.617188 8.511719 C 8.261719 8.429688 7.871094 8.386719 7.445312 8.386719 C 5.914062 8.386719 4.742188 8.886719 3.929688 9.886719 C 3.117188 10.878906 2.710938 12.300781 2.710938 14.152344 L 2.710938 22.792969 L -0.0078125 22.792969 L -0.0078125 6.386719 L 2.710938 6.386719 L 2.710938 8.933594 C 3.273438 7.933594 4.007812 7.195312 4.914062 6.714844 C 5.828125 6.238281 6.933594 5.996094 8.226562 5.996094 C 8.414062 5.996094 8.617188 6.007812 8.835938 6.027344 C 9.0625 6.050781 9.3125 6.085938 9.585938 6.136719 Z M 25.808594 13.917969 L 25.808594 15.230469 L 13.417969 15.230469 C 13.53125 17.085938 14.089844 18.503906 15.089844 19.480469 C 16.089844 20.449219 17.484375 20.933594 19.277344 20.933594 C 20.308594 20.933594 21.308594 20.808594 22.277344 20.558594 C 23.253906 20.300781 24.222656 19.914062 25.183594 19.402344 L 25.183594 21.964844 C 24.214844 22.371094 23.21875 22.679688 22.199219 22.886719 C 21.1875 23.105469 20.160156 23.214844 19.121094 23.214844 C 16.496094 23.214844 14.417969 22.457031 12.886719 20.933594 C 11.363281 19.414062 10.605469 17.351562 10.605469 14.746094 C 10.605469 12.058594 11.328125 9.929688 12.777344 8.355469 C 14.222656 6.785156 16.183594 5.996094 18.652344 5.996094 C 20.859375 5.996094 22.605469 6.707031 23.886719 8.121094 C 25.167969 9.539062 25.808594 11.472656 25.808594 13.917969 Z M 23.121094 13.121094 C 23.097656 11.652344 22.683594 10.480469 21.871094 9.605469 C 21.066406 8.722656 20.003906 8.277344 18.683594 8.277344 C 17.171875 8.277344 15.964844 8.707031 15.058594 9.558594 C 14.160156 10.402344 13.644531 11.597656 13.511719 13.136719 Z M 43.875 12.886719 L 43.875 22.792969 L 41.171875 22.792969 L 41.171875 12.980469 C 41.171875 11.429688 40.867188 10.269531 40.265625 9.496094 C 39.660156 8.726562 38.753906 8.339844 37.546875 8.339844 C 36.085938 8.339844 34.9375 8.804688 34.09375 9.730469 C 33.257812 10.660156 32.84375 11.925781 32.84375 13.527344 L 32.84375 22.792969 L 30.125 22.792969 L 30.125 6.386719 L 32.84375 6.386719 L 32.84375 8.933594 C 33.488281 7.945312 34.25 7.210938 35.125 6.730469 C 36 6.242188 37.003906 5.996094 38.140625 5.996094 C 40.023438 5.996094 41.453125 6.582031 42.421875 7.746094 C 43.390625 8.914062 43.875 10.628906 43.875 12.886719 Z M 60.042969 8.871094 L 60.042969 -0.00390625 L 62.730469 -0.00390625 L 62.730469 22.792969 L 60.042969 22.792969 L 60.042969 20.324219 C 59.480469 21.304688 58.765625 22.035156 57.902344 22.511719 C 57.035156 22.980469 55.996094 23.214844 54.777344 23.214844 C 52.796875 23.214844 51.183594 22.425781 49.933594 20.839844 C 48.691406 19.257812 48.074219 17.179688 48.074219 14.605469 C 48.074219 12.023438 48.691406 9.945312 49.933594 8.371094 C 51.183594 6.789062 52.796875 5.996094 54.777344 5.996094 C 55.996094 5.996094 57.035156 6.238281 57.902344 6.714844 C 58.765625 7.183594 59.480469 7.902344 60.042969 8.871094 Z M 50.855469 14.605469 C 50.855469 16.585938 51.261719 18.144531 52.074219 19.277344 C 52.894531 20.402344 54.019531 20.964844 55.449219 20.964844 C 56.863281 20.964844 57.984375 20.402344 58.808594 19.277344 C 59.628906 18.144531 60.042969 16.585938 60.042969 14.605469 C 60.042969 12.628906 59.628906 11.074219 58.808594 9.949219 C 57.984375 8.816406 56.863281 8.246094 55.449219 8.246094 C 54.019531 8.246094 52.894531 8.816406 52.074219 9.949219 C 51.261719 11.074219 50.855469 12.628906 50.855469 14.605469 Z M 82.320312 13.917969 L 82.320312 15.230469 L 69.929688 15.230469 C 70.042969 17.085938 70.601562 18.503906 71.601562 19.480469 C 72.601562 20.449219 73.996094 20.933594 75.789062 20.933594 C 76.820312 20.933594 77.820312 20.808594 78.789062 20.558594 C 79.765625 20.300781 80.734375 19.914062 81.695312 19.402344 L 81.695312 21.964844 C 80.726562 22.371094 79.730469 22.679688 78.710938 22.886719 C 77.699219 23.105469 76.671875 23.214844 75.632812 23.214844 C 73.007812 23.214844 70.929688 22.457031 69.398438 20.933594 C 67.875 19.414062 67.117188 17.351562 67.117188 14.746094 C 67.117188 12.058594 67.839844 9.929688 69.289062 8.355469 C 70.734375 6.785156 72.695312 5.996094 75.164062 5.996094 C 77.371094 5.996094 79.117188 6.707031 80.398438 8.121094 C 81.679688 9.539062 82.320312 11.472656 82.320312 13.917969 Z M 79.632812 13.121094 C 79.609375 11.652344 79.195312 10.480469 78.382812 9.605469 C 77.578125 8.722656 76.515625 8.277344 75.195312 8.277344 C 73.683594 8.277344 72.476562 8.707031 71.570312 9.558594 C 70.671875 10.402344 70.15625 11.597656 70.023438 13.136719 Z M 96.246094 8.902344 C 95.941406 8.726562 95.613281 8.597656 95.261719 8.511719 C 94.90625 8.429688 94.515625 8.386719 94.089844 8.386719 C 92.558594 8.386719 91.386719 8.886719 90.574219 9.886719 C 89.761719 10.878906 89.355469 12.300781 89.355469 14.152344 L 89.355469 22.792969 L 86.636719 22.792969 L 86.636719 6.386719 L 89.355469 6.386719 L 89.355469 8.933594 C 89.917969 7.933594 90.652344 7.195312 91.558594 6.714844 C 92.472656 6.238281 93.578125 5.996094 94.871094 5.996094 C 95.058594 5.996094 95.261719 6.007812 95.480469 6.027344 C 95.707031 6.050781 95.957031 6.085938 96.230469 6.136719 Z M 111.289062 1.730469 L 111.289062 6.386719 L 116.835938 6.386719 L 116.835938 8.480469 L 111.289062 8.480469 L 111.289062 17.386719 C 111.289062 18.722656 111.46875 19.582031 111.835938 19.964844 C 112.199219 20.351562 112.945312 20.542969 114.070312 20.542969 L 116.835938 20.542969 L 116.835938 22.792969 L 114.070312 22.792969 C 111.984375 22.792969 110.546875 22.410156 109.757812 21.636719 C 108.964844 20.855469 108.570312 19.441406 108.570312 17.386719 L 108.570312 8.480469 L 106.601562 8.480469 L 106.601562 6.386719 L 108.570312 6.386719 L 108.570312 1.730469 Z M 134.410156 13.917969 L 134.410156 15.230469 L 122.019531 15.230469 C 122.132812 17.085938 122.691406 18.503906 123.691406 19.480469 C 124.691406 20.449219 126.085938 20.933594 127.878906 20.933594 C 128.910156 20.933594 129.910156 20.808594 130.878906 20.558594 C 131.855469 20.300781 132.824219 19.914062 133.785156 19.402344 L 133.785156 21.964844 C 132.816406 22.371094 131.820312 22.679688 130.800781 22.886719 C 129.789062 23.105469 128.761719 23.214844 127.722656 23.214844 C 125.097656 23.214844 123.019531 22.457031 121.488281 20.933594 C 119.964844 19.414062 119.207031 17.351562 119.207031 14.746094 C 119.207031 12.058594 119.929688 9.929688 121.378906 8.355469 C 122.824219 6.785156 124.785156 5.996094 127.253906 5.996094 C 129.460938 5.996094 131.207031 6.707031 132.488281 8.121094 C 133.769531 9.539062 134.410156 11.472656 134.410156 13.917969 Z M 131.722656 13.121094 C 131.699219 11.652344 131.285156 10.480469 130.472656 9.605469 C 129.667969 8.722656 128.605469 8.277344 127.285156 8.277344 C 125.773438 8.277344 124.566406 8.707031 123.660156 9.558594 C 122.761719 10.402344 122.246094 11.597656 122.113281 13.136719 Z M 151.949219 6.386719 L 146.011719 14.371094 L 152.246094 22.792969 L 149.074219 22.792969 L 144.292969 16.339844 L 139.527344 22.792969 L 136.339844 22.792969 L 142.714844 14.214844 L 136.886719 6.386719 L 140.058594 6.386719 L 144.417969 12.230469 L 148.761719 6.386719 Z M 158.734375 1.730469 L 158.734375 6.386719 L 164.28125 6.386719 L 164.28125 8.480469 L 158.734375 8.480469 L 158.734375 17.386719 C 158.734375 18.722656 158.914062 19.582031 159.28125 19.964844 C 159.644531 20.351562 160.390625 20.542969 161.515625 20.542969 L 164.28125 20.542969 L 164.28125 22.792969 L 161.515625 22.792969 C 159.429688 22.792969 157.992188 22.410156 157.203125 21.636719 C 156.410156 20.855469 156.015625 19.441406 156.015625 17.386719 L 156.015625 8.480469 L 154.046875 8.480469 L 154.046875 6.386719 L 156.015625 6.386719 L 156.015625 1.730469 Z M -2.726562 -5.054688 "/>
<path style=" stroke:none;fill-rule:nonzero;fill:rgb(0%,0%,0%);fill-opacity:1;" d="M 0.0078125 55.421875 L 2.695312 55.421875 L 6.070312 68.21875 L 9.414062 55.421875 L 12.601562 55.421875 L 15.976562 68.21875 L 19.320312 55.421875 L 22.023438 55.421875 L 17.726562 71.828125 L 14.554688 71.828125 L 11.023438 58.375 L 7.476562 71.828125 L 4.289062 71.828125 Z M 26.105469 55.421875 L 28.792969 55.421875 L 28.792969 71.828125 L 26.105469 71.828125 Z M 26.105469 49.03125 L 28.792969 49.03125 L 28.792969 52.453125 L 26.105469 52.453125 Z M 37.113281 50.765625 L 37.113281 55.421875 L 42.660156 55.421875 L 42.660156 57.515625 L 37.113281 57.515625 L 37.113281 66.421875 C 37.113281 67.757812 37.292969 68.617188 37.660156 69 C 38.023438 69.386719 38.769531 69.578125 39.894531 69.578125 L 42.660156 69.578125 L 42.660156 71.828125 L 39.894531 71.828125 C 37.808594 71.828125 36.371094 71.445312 35.582031 70.671875 C 34.789062 69.890625 34.394531 68.476562 34.394531 66.421875 L 34.394531 57.515625 L 32.425781 57.515625 L 32.425781 55.421875 L 34.394531 55.421875 L 34.394531 50.765625 Z M 59.84375 61.921875 L 59.84375 71.828125 L 57.140625 71.828125 L 57.140625 62.015625 C 57.140625 60.464844 56.835938 59.304688 56.234375 58.53125 C 55.628906 57.761719 54.722656 57.375 53.515625 57.375 C 52.054688 57.375 50.90625 57.839844 50.0625 58.765625 C 49.226562 59.695312 48.8125 60.960938 48.8125 62.5625 L 48.8125 71.828125 L 46.09375 71.828125 L 46.09375 49.03125 L 48.8125 49.03125 L 48.8125 57.96875 C 49.457031 56.980469 50.21875 56.246094 51.09375 55.765625 C 51.96875 55.277344 52.972656 55.03125 54.109375 55.03125 C 55.992188 55.03125 57.421875 55.617188 58.390625 56.78125 C 59.359375 57.949219 59.84375 59.664062 59.84375 61.921875 Z M -1.257812 43.980469 "/>
<path style=" stroke:none;fill-rule:nonzero;fill:rgb(0%,0%,0%);fill-opacity:1;" d="M 0 98.0625 L 2.6875 98.0625 L 2.6875 120.859375 L 0 120.859375 Z M 8.335938 104.453125 L 11.023438 104.453125 L 11.023438 120.859375 L 8.335938 120.859375 Z M 8.335938 98.0625 L 11.023438 98.0625 L 11.023438 101.484375 L 8.335938 101.484375 Z M 30.3125 110.953125 L 30.3125 120.859375 L 27.609375 120.859375 L 27.609375 111.046875 C 27.609375 109.496094 27.304688 108.335938 26.703125 107.5625 C 26.097656 106.792969 25.191406 106.40625 23.984375 106.40625 C 22.523438 106.40625 21.375 106.871094 20.53125 107.796875 C 19.695312 108.726562 19.28125 109.992188 19.28125 111.59375 L 19.28125 120.859375 L 16.5625 120.859375 L 16.5625 104.453125 L 19.28125 104.453125 L 19.28125 107 C 19.925781 106.011719 20.6875 105.277344 21.5625 104.796875 C 22.4375 104.308594 23.441406 104.0625 24.578125 104.0625 C 26.460938 104.0625 27.890625 104.648438 28.859375 105.8125 C 29.828125 106.980469 30.3125 108.695312 30.3125 110.953125 Z M 49.714844 111.984375 L 49.714844 113.296875 L 37.324219 113.296875 C 37.4375 115.152344 37.996094 116.570312 38.996094 117.546875 C 39.996094 118.515625 41.390625 119 43.183594 119 C 44.214844 119 45.214844 118.875 46.183594 118.625 C 47.160156 118.367188 48.128906 117.980469 49.089844 117.46875 L 49.089844 120.03125 C 48.121094 120.4375 47.125 120.746094 46.105469 120.953125 C 45.09375 121.171875 44.066406 121.28125 43.027344 121.28125 C 40.402344 121.28125 38.324219 120.523438 36.792969 119 C 35.269531 117.480469 34.511719 115.417969 34.511719 112.8125 C 34.511719 110.125 35.234375 107.996094 36.683594 106.421875 C 38.128906 104.851562 40.089844 104.0625 42.558594 104.0625 C 44.765625 104.0625 46.511719 104.773438 47.792969 106.1875 C 49.074219 107.605469 49.714844 109.539062 49.714844 111.984375 Z M 47.027344 111.1875 C 47.003906 109.71875 46.589844 108.546875 45.777344 107.671875 C 44.972656 106.789062 43.910156 106.34375 42.589844 106.34375 C 41.078125 106.34375 39.871094 106.773438 38.964844 107.625 C 38.066406 108.46875 37.550781 109.664062 37.417969 111.203125 Z M 67.375 99.703125 L 67.375 102.59375 C 66.25 102.054688 65.1875 101.652344 64.1875 101.390625 C 63.1875 101.132812 62.222656 101 61.296875 101 C 59.691406 101 58.453125 101.3125 57.578125 101.9375 C 56.703125 102.5625 56.265625 103.449219 56.265625 104.59375 C 56.265625 105.5625 56.550781 106.296875 57.125 106.796875 C 57.707031 107.289062 58.8125 107.683594 60.4375 107.984375 L 62.21875 108.34375 C 64.425781 108.773438 66.054688 109.515625 67.109375 110.578125 C 68.160156 111.632812 68.6875 113.046875 68.6875 114.828125 C 68.6875 116.945312 67.972656 118.546875 66.546875 119.640625 C 65.128906 120.734375 63.050781 121.28125 60.3125 121.28125 C 59.269531 121.28125 58.164062 121.160156 57 120.921875 C 55.832031 120.695312 54.625 120.351562 53.375 119.890625 L 53.375 116.84375 C 54.582031 117.523438 55.757812 118.03125 56.90625 118.375 C 58.0625 118.710938 59.195312 118.875 60.3125 118.875 C 62 118.875 63.300781 118.546875 64.21875 117.890625 C 65.132812 117.226562 65.59375 116.277344 65.59375 115.046875 C 65.59375 113.976562 65.265625 113.136719 64.609375 112.53125 C 63.953125 111.917969 62.867188 111.460938 61.359375 111.15625 L 59.5625 110.8125 C 57.351562 110.375 55.753906 109.6875 54.765625 108.75 C 53.785156 107.8125 53.296875 106.507812 53.296875 104.828125 C 53.296875 102.902344 53.972656 101.382812 55.328125 100.265625 C 56.691406 99.152344 58.570312 98.59375 60.96875 98.59375 C 61.988281 98.59375 63.03125 98.6875 64.09375 98.875 C 65.164062 99.0625 66.257812 99.339844 67.375 99.703125 Z M 75.792969 118.390625 L 75.792969 127.09375 L 73.074219 127.09375 L 73.074219 104.453125 L 75.792969 104.453125 L 75.792969 106.9375 C 76.355469 105.96875 77.066406 105.25 77.933594 104.78125 C 78.796875 104.304688 79.828125 104.0625 81.027344 104.0625 C 83.027344 104.0625 84.644531 104.855469 85.886719 106.4375 C 87.136719 108.011719 87.761719 110.089844 87.761719 112.671875 C 87.761719 115.246094 87.136719 117.324219 85.886719 118.90625 C 84.644531 120.492188 83.027344 121.28125 81.027344 121.28125 C 79.828125 121.28125 78.796875 121.046875 77.933594 120.578125 C 77.066406 120.101562 76.355469 119.371094 75.792969 118.390625 Z M 84.964844 112.671875 C 84.964844 110.695312 84.550781 109.140625 83.730469 108.015625 C 82.917969 106.882812 81.796875 106.3125 80.371094 106.3125 C 78.941406 106.3125 77.824219 106.882812 77.011719 108.015625 C 76.199219 109.140625 75.792969 110.695312 75.792969 112.671875 C 75.792969 114.652344 76.199219 116.210938 77.011719 117.34375 C 77.824219 118.46875 78.941406 119.03125 80.371094 119.03125 C 81.796875 119.03125 82.917969 118.46875 83.730469 117.34375 C 84.550781 116.210938 84.964844 114.652344 84.964844 112.671875 Z M 99.679688 112.609375 C 97.5 112.609375 95.992188 112.859375 95.148438 113.359375 C 94.3125 113.859375 93.898438 114.710938 93.898438 115.90625 C 93.898438 116.867188 94.210938 117.625 94.835938 118.1875 C 95.46875 118.75 96.328125 119.03125 97.414062 119.03125 C 98.902344 119.03125 100.101562 118.5 101.007812 117.4375 C 101.914062 116.375 102.367188 114.96875 102.367188 113.21875 L 102.367188 112.609375 Z M 105.054688 111.5 L 105.054688 120.859375 L 102.367188 120.859375 L 102.367188 118.375 C 101.75 119.367188 100.980469 120.101562 100.054688 120.578125 C 99.136719 121.046875 98.015625 121.28125 96.695312 121.28125 C 95.015625 121.28125 93.679688 120.8125 92.679688 119.875 C 91.6875 118.929688 91.195312 117.664062 91.195312 116.078125 C 91.195312 114.234375 91.8125 112.84375 93.054688 111.90625 C 94.292969 110.96875 96.136719 110.5 98.585938 110.5 L 102.367188 110.5 L 102.367188 110.234375 C 102.367188 108.996094 101.953125 108.039062 101.132812 107.359375 C 100.320312 106.683594 99.179688 106.34375 97.710938 106.34375 C 96.773438 106.34375 95.855469 106.460938 94.960938 106.6875 C 94.074219 106.90625 93.21875 107.242188 92.398438 107.6875 L 92.398438 105.203125 C 93.386719 104.820312 94.34375 104.53125 95.273438 104.34375 C 96.199219 104.15625 97.101562 104.0625 97.976562 104.0625 C 100.351562 104.0625 102.121094 104.679688 103.289062 105.90625 C 104.464844 107.136719 105.054688 109 105.054688 111.5 Z M 122.421875 105.078125 L 122.421875 107.609375 C 121.648438 107.183594 120.878906 106.867188 120.109375 106.65625 C 119.347656 106.449219 118.578125 106.34375 117.796875 106.34375 C 116.046875 106.34375 114.6875 106.902344 113.71875 108.015625 C 112.757812 109.121094 112.28125 110.671875 112.28125 112.671875 C 112.28125 114.671875 112.757812 116.230469 113.71875 117.34375 C 114.6875 118.449219 116.046875 119 117.796875 119 C 118.578125 119 119.347656 118.898438 120.109375 118.6875 C 120.878906 118.480469 121.648438 118.164062 122.421875 117.734375 L 122.421875 120.234375 C 121.660156 120.578125 120.878906 120.839844 120.078125 121.015625 C 119.273438 121.191406 118.421875 121.28125 117.515625 121.28125 C 115.035156 121.28125 113.066406 120.507812 111.609375 118.953125 C 110.160156 117.402344 109.4375 115.308594 109.4375 112.671875 C 109.4375 109.996094 110.171875 107.890625 111.640625 106.359375 C 113.109375 104.828125 115.125 104.0625 117.6875 104.0625 C 118.507812 104.0625 119.316406 104.148438 120.109375 104.3125 C 120.898438 104.480469 121.671875 104.734375 122.421875 105.078125 Z M 127.105469 104.453125 L 129.792969 104.453125 L 129.792969 120.859375 L 127.105469 120.859375 Z M 127.105469 98.0625 L 129.792969 98.0625 L 129.792969 101.484375 L 127.105469 101.484375 Z M 149.078125 110.953125 L 149.078125 120.859375 L 146.375 120.859375 L 146.375 111.046875 C 146.375 109.496094 146.070312 108.335938 145.46875 107.5625 C 144.863281 106.792969 143.957031 106.40625 142.75 106.40625 C 141.289062 106.40625 140.140625 106.871094 139.296875 107.796875 C 138.460938 108.726562 138.046875 109.992188 138.046875 111.59375 L 138.046875 120.859375 L 135.328125 120.859375 L 135.328125 104.453125 L 138.046875 104.453125 L 138.046875 107 C 138.691406 106.011719 139.453125 105.277344 140.328125 104.796875 C 141.203125 104.308594 142.207031 104.0625 143.34375 104.0625 C 145.226562 104.0625 146.65625 104.648438 147.625 105.8125 C 148.59375 106.980469 149.078125 108.695312 149.078125 110.953125 Z M 165.25 112.46875 C 165.25 110.511719 164.84375 108.996094 164.03125 107.921875 C 163.226562 106.851562 162.101562 106.3125 160.65625 106.3125 C 159.207031 106.3125 158.078125 106.851562 157.265625 107.921875 C 156.460938 108.996094 156.0625 110.511719 156.0625 112.46875 C 156.0625 114.40625 156.460938 115.917969 157.265625 117 C 158.078125 118.074219 159.207031 118.609375 160.65625 118.609375 C 162.101562 118.609375 163.226562 118.074219 164.03125 117 C 164.84375 115.917969 165.25 114.40625 165.25 112.46875 Z M 167.9375 118.828125 C 167.9375 121.617188 167.316406 123.691406 166.078125 125.046875 C 164.835938 126.410156 162.941406 127.09375 160.390625 127.09375 C 159.441406 127.09375 158.546875 127.019531 157.703125 126.875 C 156.859375 126.738281 156.046875 126.523438 155.265625 126.234375 L 155.265625 123.609375 C 156.046875 124.046875 156.820312 124.363281 157.59375 124.5625 C 158.375 124.769531 159.160156 124.875 159.953125 124.875 C 161.722656 124.875 163.046875 124.410156 163.921875 123.484375 C 164.804688 122.566406 165.25 121.175781 165.25 119.3125 L 165.25 117.96875 C 164.6875 118.9375 163.972656 119.664062 163.109375 120.140625 C 162.242188 120.621094 161.203125 120.859375 159.984375 120.859375 C 157.972656 120.859375 156.351562 120.09375 155.125 118.5625 C 153.894531 117.03125 153.28125 115 153.28125 112.46875 C 153.28125 109.929688 153.894531 107.890625 155.125 106.359375 C 156.351562 104.828125 157.972656 104.0625 159.984375 104.0625 C 161.203125 104.0625 162.242188 104.304688 163.109375 104.78125 C 163.972656 105.261719 164.6875 105.980469 165.25 106.9375 L 165.25 104.453125 L 167.9375 104.453125 Z M -2.828125 93.011719 "/>
</g>
</svg>
