<?xml version="1.0" encoding="UTF-8"?>
<svg xmlns="http://www.w3.org/2000/svg" xmlns:xlink="http://www.w3.org/1999/xlink" width="154" height="127" viewBox="0 0 154 127">
<path fill-rule="nonzero" fill="rgb(0%, 0%, 0%)" fill-opacity="1" d="M 0 6.417969 L 2.503906 6.417969 L 2.503906 9.128906 C 2.710938 8.601562 3.210938 7.957031 4.011719 7.199219 C 4.8125 6.441406 5.734375 6.066406 6.78125 6.066406 C 6.828125 6.066406 6.914062 6.070312 7.03125 6.082031 C 7.148438 6.089844 7.347656 6.109375 7.632812 6.136719 L 7.632812 8.921875 C 7.476562 8.894531 7.332031 8.871094 7.199219 8.863281 C 7.066406 8.855469 6.921875 8.847656 6.765625 8.847656 C 5.4375 8.847656 4.417969 9.277344 3.703125 10.128906 C 2.992188 10.984375 2.636719 11.96875 2.636719 13.082031 L 2.636719 22.105469 L 0 22.105469 Z M 16.453125 6.066406 C 17.566406 6.066406 18.644531 6.328125 19.6875 6.847656 C 20.734375 7.371094 21.53125 8.046875 22.078125 8.878906 C 22.605469 9.667969 22.953125 10.589844 23.132812 11.644531 C 23.289062 12.367188 23.367188 13.519531 23.367188 15.105469 L 11.867188 15.105469 C 11.914062 16.695312 12.289062 17.972656 12.992188 18.933594 C 13.695312 19.894531 14.785156 20.378906 16.261719 20.378906 C 17.636719 20.378906 18.734375 19.921875 19.554688 19.015625 C 20.023438 18.488281 20.359375 17.878906 20.554688 17.183594 L 23.144531 17.183594 C 23.078125 17.761719 22.851562 18.402344 22.464844 19.109375 C 22.078125 19.816406 21.648438 20.394531 21.167969 20.847656 C 20.367188 21.628906 19.375 22.152344 18.195312 22.425781 C 17.558594 22.582031 16.84375 22.660156 16.039062 22.660156 C 14.085938 22.660156 12.433594 21.953125 11.074219 20.53125 C 9.71875 19.109375 9.039062 17.121094 9.039062 14.5625 C 9.039062 12.042969 9.722656 9.996094 11.089844 8.425781 C 12.457031 6.851562 14.242188 6.066406 16.453125 6.066406 Z M 20.65625 13.007812 C 20.546875 11.867188 20.296875 10.953125 19.90625 10.269531 C 19.183594 9 17.980469 8.363281 16.289062 8.363281 C 15.078125 8.363281 14.0625 8.800781 13.242188 9.675781 C 12.421875 10.550781 11.988281 11.660156 11.9375 13.007812 Z M 26.601562 6.417969 L 29.105469 6.417969 L 29.105469 8.644531 C 29.847656 7.726562 30.636719 7.066406 31.464844 6.667969 C 32.292969 6.265625 33.21875 6.066406 34.234375 6.066406 C 36.460938 6.066406 37.964844 6.839844 38.746094 8.394531 C 39.175781 9.246094 39.390625 10.460938 39.390625 12.042969 L 39.390625 22.105469 L 36.707031 22.105469 L 36.707031 12.21875 C 36.707031 11.261719 36.566406 10.488281 36.285156 9.902344 C 35.816406 8.925781 34.964844 8.4375 33.734375 8.4375 C 33.109375 8.4375 32.597656 8.503906 32.199219 8.628906 C 31.476562 8.84375 30.839844 9.273438 30.292969 9.917969 C 29.855469 10.433594 29.566406 10.96875 29.4375 11.523438 C 29.304688 12.074219 29.238281 12.863281 29.238281 13.886719 L 29.238281 22.105469 L 26.601562 22.105469 Z M 44.953125 14.445312 C 44.953125 16.125 45.3125 17.53125 46.023438 18.664062 C 46.738281 19.796875 47.878906 20.363281 49.453125 20.363281 C 50.671875 20.363281 51.675781 19.835938 52.460938 18.789062 C 53.25 17.738281 53.640625 16.230469 53.640625 14.269531 C 53.640625 12.285156 53.234375 10.820312 52.425781 9.867188 C 51.617188 8.914062 50.613281 8.4375 49.421875 8.4375 C 48.09375 8.4375 47.019531 8.945312 46.191406 9.960938 C 45.367188 10.976562 44.953125 12.472656 44.953125 14.445312 Z M 48.925781 6.136719 C 50.125 6.136719 51.132812 6.394531 51.941406 6.902344 C 52.410156 7.195312 52.945312 7.707031 53.539062 8.4375 L 53.539062 0.511719 L 56.074219 0.511719 L 56.074219 22.105469 L 53.699219 22.105469 L 53.699219 19.921875 C 53.085938 20.890625 52.359375 21.589844 51.515625 22.019531 C 50.675781 22.449219 49.714844 22.660156 48.632812 22.660156 C 46.882812 22.660156 45.371094 21.925781 44.089844 20.457031 C 42.8125 18.988281 42.171875 17.03125 42.171875 14.589844 C 42.171875 12.304688 42.753906 10.324219 43.921875 8.652344 C 45.089844 6.976562 46.757812 6.136719 48.925781 6.136719 Z M 66.503906 6.066406 C 67.617188 6.066406 68.695312 6.328125 69.738281 6.847656 C 70.785156 7.371094 71.582031 8.046875 72.128906 8.878906 C 72.65625 9.667969 73.003906 10.589844 73.183594 11.644531 C 73.339844 12.367188 73.417969 13.519531 73.417969 15.105469 L 61.917969 15.105469 C 61.964844 16.695312 62.339844 17.972656 63.042969 18.933594 C 63.746094 19.894531 64.835938 20.378906 66.3125 20.378906 C 67.6875 20.378906 68.785156 19.921875 69.605469 19.015625 C 70.074219 18.488281 70.410156 17.878906 70.605469 17.183594 L 73.195312 17.183594 C 73.128906 17.761719 72.902344 18.402344 72.515625 19.109375 C 72.128906 19.816406 71.699219 20.394531 71.21875 20.847656 C 70.417969 21.628906 69.425781 22.152344 68.246094 22.425781 C 67.609375 22.582031 66.894531 22.660156 66.089844 22.660156 C 64.136719 22.660156 62.484375 21.953125 61.125 20.53125 C 59.769531 19.109375 59.089844 17.121094 59.089844 14.5625 C 59.089844 12.042969 59.773438 9.996094 61.140625 8.425781 C 62.507812 6.851562 64.292969 6.066406 66.503906 6.066406 Z M 70.707031 13.007812 C 70.597656 11.867188 70.347656 10.953125 69.957031 10.269531 C 69.234375 9 68.03125 8.363281 66.339844 8.363281 C 65.128906 8.363281 64.113281 8.800781 63.292969 9.675781 C 62.472656 10.550781 62.039062 11.660156 61.988281 13.007812 Z M 76.726562 6.417969 L 79.230469 6.417969 L 79.230469 9.128906 C 79.4375 8.601562 79.9375 7.957031 80.738281 7.199219 C 81.539062 6.441406 82.460938 6.066406 83.507812 6.066406 C 83.554688 6.066406 83.640625 6.070312 83.757812 6.082031 C 83.875 6.089844 84.074219 6.109375 84.359375 6.136719 L 84.359375 8.921875 C 84.203125 8.894531 84.058594 8.871094 83.925781 8.863281 C 83.792969 8.855469 83.648438 8.847656 83.492188 8.847656 C 82.164062 8.847656 81.144531 9.277344 80.429688 10.128906 C 79.71875 10.984375 79.363281 11.96875 79.363281 13.082031 L 79.363281 22.105469 L 76.726562 22.105469 Z M 95.507812 2.035156 L 98.171875 2.035156 L 98.171875 6.417969 L 100.679688 6.417969 L 100.679688 8.570312 L 98.171875 8.570312 L 98.171875 18.808594 C 98.171875 19.355469 98.359375 19.722656 98.730469 19.910156 C 98.9375 20.015625 99.277344 20.070312 99.757812 20.070312 C 99.882812 20.070312 100.019531 20.066406 100.164062 20.0625 C 100.3125 20.058594 100.484375 20.042969 100.679688 20.027344 L 100.679688 22.105469 C 100.375 22.191406 100.0625 22.257812 99.734375 22.296875 C 99.40625 22.335938 99.054688 22.355469 98.671875 22.355469 C 97.441406 22.355469 96.605469 22.039062 96.167969 21.410156 C 95.726562 20.78125 95.507812 19.960938 95.507812 18.957031 L 95.507812 8.570312 L 93.382812 8.570312 L 93.382812 6.417969 L 95.507812 6.417969 Z M 109.851562 6.066406 C 110.964844 6.066406 112.042969 6.328125 113.085938 6.847656 C 114.132812 7.371094 114.929688 8.046875 115.476562 8.878906 C 116.003906 9.667969 116.351562 10.589844 116.53125 11.644531 C 116.6875 12.367188 116.765625 13.519531 116.765625 15.105469 L 105.265625 15.105469 C 105.3125 16.695312 105.6875 17.972656 106.390625 18.933594 C 107.09375 19.894531 108.183594 20.378906 109.660156 20.378906 C 111.035156 20.378906 112.132812 19.921875 112.953125 19.015625 C 113.421875 18.488281 113.757812 17.878906 113.953125 17.183594 L 116.542969 17.183594 C 116.476562 17.761719 116.25 18.402344 115.863281 19.109375 C 115.476562 19.816406 115.046875 20.394531 114.566406 20.847656 C 113.765625 21.628906 112.773438 22.152344 111.59375 22.425781 C 110.957031 22.582031 110.242188 22.660156 109.4375 22.660156 C 107.484375 22.660156 105.832031 21.953125 104.472656 20.53125 C 103.117188 19.109375 102.4375 17.121094 102.4375 14.5625 C 102.4375 12.042969 103.121094 9.996094 104.488281 8.425781 C 105.855469 6.851562 107.640625 6.066406 109.851562 6.066406 Z M 114.054688 13.007812 C 113.945312 11.867188 113.695312 10.953125 113.304688 10.269531 C 112.582031 9 111.378906 8.363281 109.6875 8.363281 C 108.476562 8.363281 107.460938 8.800781 106.640625 9.675781 C 105.820312 10.550781 105.386719 11.660156 105.335938 13.007812 Z M 118.503906 6.417969 L 121.917969 6.417969 L 125.523438 11.941406 L 129.167969 6.417969 L 132.378906 6.488281 L 127.089844 14.0625 L 132.613281 22.105469 L 129.242188 22.105469 L 125.347656 16.214844 L 121.566406 22.105469 L 118.226562 22.105469 L 123.75 14.0625 Z M 135.527344 2.035156 L 138.191406 2.035156 L 138.191406 6.417969 L 140.699219 6.417969 L 140.699219 8.570312 L 138.191406 8.570312 L 138.191406 18.808594 C 138.191406 19.355469 138.378906 19.722656 138.75 19.910156 C 138.957031 20.015625 139.296875 20.070312 139.777344 20.070312 C 139.902344 20.070312 140.039062 20.066406 140.183594 20.0625 C 140.332031 20.058594 140.503906 20.042969 140.699219 20.027344 L 140.699219 22.105469 C 140.394531 22.191406 140.082031 22.257812 139.753906 22.296875 C 139.425781 22.335938 139.074219 22.355469 138.691406 22.355469 C 137.460938 22.355469 136.625 22.039062 136.1875 21.410156 C 135.746094 20.78125 135.527344 19.960938 135.527344 18.957031 L 135.527344 8.570312 L 133.402344 8.570312 L 133.402344 6.417969 L 135.527344 6.417969 Z M -2.007812 -0.996094 "/>
<path fill-rule="nonzero" fill="rgb(0%, 0%, 0%)" fill-opacity="1" d="M 2.882812 55.15625 L 5.902344 67.519531 L 8.960938 55.15625 L 11.921875 55.15625 L 15 67.445312 L 18.207031 55.15625 L 20.84375 55.15625 L 16.289062 70.84375 L 13.546875 70.84375 L 10.355469 58.699219 L 7.265625 70.84375 L 4.523438 70.84375 L 0 55.15625 Z M 23.332031 55.226562 L 26.011719 55.226562 L 26.011719 70.84375 L 23.332031 70.84375 Z M 23.332031 49.324219 L 26.011719 49.324219 L 26.011719 52.3125 L 23.332031 52.3125 Z M 30.523438 50.773438 L 33.1875 50.773438 L 33.1875 55.15625 L 35.695312 55.15625 L 35.695312 57.308594 L 33.1875 57.308594 L 33.1875 67.546875 C 33.1875 68.09375 33.375 68.460938 33.746094 68.648438 C 33.953125 68.753906 34.292969 68.808594 34.773438 68.808594 C 34.898438 68.808594 35.035156 68.804688 35.179688 68.800781 C 35.328125 68.796875 35.5 68.78125 35.695312 68.765625 L 35.695312 70.84375 C 35.390625 70.929688 35.078125 70.996094 34.75 71.035156 C 34.421875 71.074219 34.070312 71.09375 33.6875 71.09375 C 32.457031 71.09375 31.621094 70.777344 31.183594 70.148438 C 30.742188 69.519531 30.523438 68.699219 30.523438 67.695312 L 30.523438 57.308594 L 28.398438 57.308594 L 28.398438 55.15625 L 30.523438 55.15625 Z M 38.332031 49.25 L 40.96875 49.25 L 40.96875 57.28125 C 41.59375 56.488281 42.15625 55.929688 42.652344 55.609375 C 43.503906 55.054688 44.5625 54.773438 45.832031 54.773438 C 48.109375 54.773438 49.648438 55.570312 50.460938 57.164062 C 50.898438 58.03125 51.121094 59.238281 51.121094 60.78125 L 51.121094 70.84375 L 48.410156 70.84375 L 48.410156 60.957031 C 48.410156 59.804688 48.265625 58.960938 47.96875 58.421875 C 47.492188 57.5625 46.59375 57.132812 45.273438 57.132812 C 44.179688 57.132812 43.191406 57.507812 42.300781 58.261719 C 41.414062 59.011719 40.96875 60.433594 40.96875 62.523438 L 40.96875 70.84375 L 38.332031 70.84375 Z M -0.265625 47.742188 "/>
<path fill-rule="nonzero" fill="rgb(0%, 0%, 0%)" fill-opacity="1" d="M 0 98.066406 L 2.636719 98.066406 L 2.636719 119.585938 L 0 119.585938 Z M 6.589844 103.96875 L 9.269531 103.96875 L 9.269531 119.585938 L 6.589844 119.585938 Z M 6.589844 98.066406 L 9.269531 98.066406 L 9.269531 101.054688 L 6.589844 101.054688 Z M 13.253906 103.898438 L 15.757812 103.898438 L 15.757812 106.125 C 16.5 105.207031 17.289062 104.546875 18.117188 104.148438 C 18.945312 103.746094 19.871094 103.546875 20.886719 103.546875 C 23.113281 103.546875 24.617188 104.320312 25.398438 105.875 C 25.828125 106.726562 26.042969 107.941406 26.042969 109.523438 L 26.042969 119.585938 L 23.359375 119.585938 L 23.359375 109.699219 C 23.359375 108.742188 23.21875 107.96875 22.9375 107.382812 C 22.46875 106.40625 21.617188 105.917969 20.386719 105.917969 C 19.761719 105.917969 19.25 105.984375 18.851562 106.109375 C 18.128906 106.324219 17.492188 106.753906 16.945312 107.398438 C 16.507812 107.914062 16.21875 108.449219 16.089844 109.003906 C 15.957031 109.554688 15.890625 110.34375 15.890625 111.367188 L 15.890625 119.585938 L 13.253906 119.585938 Z M 36.476562 103.546875 C 37.589844 103.546875 38.667969 103.808594 39.710938 104.328125 C 40.757812 104.851562 41.554688 105.527344 42.101562 106.359375 C 42.628906 107.148438 42.976562 108.070312 43.15625 109.125 C 43.3125 109.847656 43.390625 111 43.390625 112.585938 L 31.890625 112.585938 C 31.9375 114.175781 32.3125 115.453125 33.015625 116.414062 C 33.71875 117.375 34.808594 117.859375 36.285156 117.859375 C 37.660156 117.859375 38.757812 117.402344 39.578125 116.496094 C 40.046875 115.96875 40.382812 115.359375 40.578125 114.664062 L 43.167969 114.664062 C 43.101562 115.242188 42.875 115.882812 42.488281 116.589844 C 42.101562 117.296875 41.671875 117.875 41.191406 118.328125 C 40.390625 119.109375 39.398438 119.632812 38.21875 119.90625 C 37.582031 120.0625 36.867188 120.140625 36.0625 120.140625 C 34.109375 120.140625 32.457031 119.433594 31.097656 118.011719 C 29.742188 116.589844 29.0625 114.601562 29.0625 112.042969 C 29.0625 109.523438 29.746094 107.476562 31.113281 105.90625 C 32.480469 104.332031 34.265625 103.546875 36.476562 103.546875 Z M 40.679688 110.488281 C 40.570312 109.347656 40.320312 108.433594 39.929688 107.75 C 39.207031 106.480469 38.003906 105.84375 36.3125 105.84375 C 35.101562 105.84375 34.085938 106.28125 33.265625 107.15625 C 32.445312 108.03125 32.011719 109.140625 31.960938 110.488281 Z M 48.878906 112.640625 C 48.949219 113.863281 49.238281 114.855469 49.746094 115.617188 C 50.710938 117.042969 52.417969 117.753906 54.855469 117.753906 C 55.949219 117.753906 56.949219 117.597656 57.847656 117.285156 C 59.585938 116.679688 60.453125 115.597656 60.453125 114.035156 C 60.453125 112.863281 60.085938 112.027344 59.355469 111.53125 C 58.613281 111.042969 57.449219 110.617188 55.867188 110.253906 L 52.953125 109.59375 C 51.050781 109.164062 49.699219 108.691406 48.910156 108.175781 C 47.542969 107.277344 46.859375 105.933594 46.859375 104.148438 C 46.859375 102.214844 47.527344 100.625 48.867188 99.386719 C 50.203125 98.144531 52.097656 97.523438 54.550781 97.523438 C 56.804688 97.523438 58.722656 98.070312 60.300781 99.160156 C 61.878906 100.25 62.664062 101.988281 62.664062 104.382812 L 59.925781 104.382812 C 59.777344 103.230469 59.464844 102.34375 58.988281 101.730469 C 58.097656 100.605469 56.589844 100.046875 54.460938 100.046875 C 52.742188 100.046875 51.507812 100.40625 50.753906 101.128906 C 50.003906 101.851562 49.628906 102.691406 49.628906 103.648438 C 49.628906 104.703125 50.066406 105.476562 50.945312 105.960938 C 51.523438 106.273438 52.824219 106.664062 54.855469 107.132812 L 57.875 107.824219 C 59.332031 108.15625 60.453125 108.609375 61.246094 109.1875 C 62.613281 110.191406 63.292969 111.652344 63.292969 113.566406 C 63.292969 115.949219 62.429688 117.652344 60.695312 118.679688 C 58.960938 119.703125 56.949219 120.214844 54.652344 120.214844 C 51.976562 120.214844 49.882812 119.53125 48.367188 118.164062 C 46.855469 116.808594 46.113281 114.96875 46.140625 112.640625 Z M 73.257812 117.8125 C 74.488281 117.8125 75.511719 117.296875 76.328125 116.269531 C 77.140625 115.238281 77.550781 113.695312 77.550781 111.648438 C 77.550781 110.398438 77.367188 109.320312 77.007812 108.421875 C 76.324219 106.695312 75.074219 105.832031 73.257812 105.832031 C 71.429688 105.832031 70.179688 106.742188 69.507812 108.570312 C 69.148438 109.546875 68.964844 110.789062 68.964844 112.289062 C 68.964844 113.5 69.148438 114.53125 69.507812 115.382812 C 70.191406 117.003906 71.441406 117.8125 73.257812 117.8125 Z M 66.429688 103.96875 L 68.996094 103.96875 L 68.996094 106.050781 C 69.523438 105.335938 70.097656 104.785156 70.722656 104.394531 C 71.613281 103.808594 72.65625 103.515625 73.859375 103.515625 C 75.636719 103.515625 77.144531 104.199219 78.382812 105.558594 C 79.625 106.921875 80.246094 108.867188 80.246094 111.398438 C 80.246094 114.816406 79.351562 117.257812 77.5625 118.722656 C 76.429688 119.648438 75.113281 120.113281 73.609375 120.113281 C 72.429688 120.113281 71.4375 119.855469 70.636719 119.335938 C 70.167969 119.042969 69.644531 118.539062 69.070312 117.828125 L 69.070312 125.839844 L 66.429688 125.839844 Z M 85.339844 115.410156 C 85.339844 116.171875 85.621094 116.773438 86.175781 117.210938 C 86.734375 117.652344 87.394531 117.871094 88.152344 117.871094 C 89.082031 117.871094 89.980469 117.65625 90.847656 117.226562 C 92.3125 116.515625 93.046875 115.347656 93.046875 113.726562 L 93.046875 111.601562 C 92.722656 111.808594 92.308594 111.976562 91.800781 112.117188 C 91.292969 112.253906 90.796875 112.351562 90.308594 112.40625 L 88.710938 112.613281 C 87.753906 112.742188 87.035156 112.941406 86.558594 113.214844 C 85.746094 113.671875 85.339844 114.40625 85.339844 115.410156 Z M 91.730469 110.078125 C 92.335938 110 92.738281 109.746094 92.945312 109.316406 C 93.0625 109.082031 93.121094 108.746094 93.121094 108.304688 C 93.121094 107.40625 92.800781 106.757812 92.160156 106.351562 C 91.519531 105.945312 90.605469 105.742188 89.414062 105.742188 C 88.035156 105.742188 87.058594 106.113281 86.484375 106.855469 C 86.160156 107.265625 85.953125 107.875 85.855469 108.6875 L 83.394531 108.6875 C 83.441406 106.753906 84.070312 105.410156 85.277344 104.652344 C 86.480469 103.894531 87.878906 103.515625 89.472656 103.515625 C 91.316406 103.515625 92.816406 103.867188 93.96875 104.570312 C 95.113281 105.273438 95.683594 106.367188 95.683594 107.851562 L 95.683594 116.890625 C 95.683594 117.164062 95.738281 117.382812 95.851562 117.550781 C 95.964844 117.714844 96.199219 117.796875 96.5625 117.796875 C 96.679688 117.796875 96.8125 117.792969 96.957031 117.777344 C 97.105469 117.761719 97.261719 117.742188 97.425781 117.710938 L 97.425781 119.660156 C 97.015625 119.777344 96.703125 119.851562 96.488281 119.878906 C 96.273438 119.90625 95.980469 119.921875 95.609375 119.921875 C 94.703125 119.921875 94.042969 119.601562 93.632812 118.957031 C 93.417969 118.613281 93.265625 118.132812 93.179688 117.507812 C 92.640625 118.210938 91.871094 118.820312 90.863281 119.335938 C 89.859375 119.855469 88.75 120.113281 87.539062 120.113281 C 86.082031 120.113281 84.894531 119.671875 83.972656 118.789062 C 83.050781 117.90625 82.589844 116.796875 82.589844 115.46875 C 82.589844 114.015625 83.042969 112.886719 83.949219 112.085938 C 84.859375 111.285156 86.050781 110.792969 87.523438 110.605469 Z M 106.054688 103.445312 C 107.820312 103.445312 109.257812 103.875 110.367188 104.734375 C 111.476562 105.59375 112.140625 107.070312 112.367188 109.171875 L 109.804688 109.171875 C 109.648438 108.203125 109.289062 107.402344 108.734375 106.761719 C 108.179688 106.121094 107.285156 105.800781 106.054688 105.800781 C 104.375 105.800781 103.171875 106.621094 102.449219 108.261719 C 101.980469 109.328125 101.746094 110.640625 101.746094 112.203125 C 101.746094 113.773438 102.078125 115.097656 102.742188 116.171875 C 103.40625 117.246094 104.453125 117.785156 105.878906 117.785156 C 106.972656 117.785156 107.839844 117.449219 108.476562 116.78125 C 109.117188 116.113281 109.558594 115.195312 109.804688 114.035156 L 112.367188 114.035156 C 112.074219 116.113281 111.34375 117.636719 110.171875 118.597656 C 109 119.558594 107.5 120.039062 105.671875 120.039062 C 103.621094 120.039062 101.984375 119.289062 100.765625 117.792969 C 99.546875 116.292969 98.933594 114.421875 98.933594 112.171875 C 98.933594 109.417969 99.601562 107.277344 100.941406 105.742188 C 102.28125 104.210938 103.984375 103.445312 106.054688 103.445312 Z M 115.003906 103.96875 L 117.683594 103.96875 L 117.683594 119.585938 L 115.003906 119.585938 Z M 115.003906 98.066406 L 117.683594 98.066406 L 117.683594 101.054688 L 115.003906 101.054688 Z M 121.667969 103.898438 L 124.171875 103.898438 L 124.171875 106.125 C 124.914062 105.207031 125.703125 104.546875 126.53125 104.148438 C 127.359375 103.746094 128.285156 103.546875 129.300781 103.546875 C 131.527344 103.546875 133.03125 104.320312 133.8125 105.875 C 134.242188 106.726562 134.457031 107.941406 134.457031 109.523438 L 134.457031 119.585938 L 131.773438 119.585938 L 131.773438 109.699219 C 131.773438 108.742188 131.632812 107.96875 131.351562 107.382812 C 130.882812 106.40625 130.03125 105.917969 128.800781 105.917969 C 128.175781 105.917969 127.664062 105.984375 127.265625 106.109375 C 126.542969 106.324219 125.90625 106.753906 125.359375 107.398438 C 124.921875 107.914062 124.632812 108.449219 124.503906 109.003906 C 124.371094 109.554688 124.304688 110.34375 124.304688 111.367188 L 124.304688 119.585938 L 121.667969 119.585938 Z M 143.890625 103.617188 C 145.121094 103.617188 146.195312 103.921875 147.117188 104.527344 C 147.613281 104.867188 148.121094 105.367188 148.640625 106.023438 L 148.640625 104.042969 L 151.070312 104.042969 L 151.070312 118.3125 C 151.070312 120.304688 150.777344 121.875 150.191406 123.027344 C 149.097656 125.15625 147.03125 126.222656 143.996094 126.222656 C 142.304688 126.222656 140.882812 125.84375 139.734375 125.085938 C 138.582031 124.328125 137.9375 123.144531 137.796875 121.535156 L 140.480469 121.535156 C 140.605469 122.238281 140.859375 122.78125 141.242188 123.160156 C 141.835938 123.746094 142.773438 124.039062 144.054688 124.039062 C 146.074219 124.039062 147.398438 123.328125 148.023438 121.898438 C 148.394531 121.058594 148.566406 119.5625 148.535156 117.402344 C 148.007812 118.203125 147.375 118.800781 146.632812 119.191406 C 145.890625 119.582031 144.90625 119.777344 143.6875 119.777344 C 141.988281 119.777344 140.5 119.171875 139.226562 117.96875 C 137.953125 116.761719 137.316406 114.765625 137.316406 111.984375 C 137.316406 109.355469 137.957031 107.304688 139.242188 105.832031 C 140.527344 104.355469 142.078125 103.617188 143.890625 103.617188 Z M 148.640625 111.675781 C 148.640625 109.734375 148.238281 108.292969 147.4375 107.355469 C 146.636719 106.417969 145.617188 105.949219 144.375 105.949219 C 142.519531 105.949219 141.25 106.816406 140.566406 108.554688 C 140.207031 109.484375 140.023438 110.699219 140.023438 112.203125 C 140.023438 113.96875 140.382812 115.316406 141.101562 116.238281 C 141.820312 117.160156 142.785156 117.625 143.996094 117.625 C 145.890625 117.625 147.222656 116.769531 147.992188 115.058594 C 148.421875 114.09375 148.640625 112.964844 148.640625 111.675781 Z M -2.007812 96.484375 "/>
</svg>
