<?xml version="1.0" encoding="UTF-8"?>
<svg xmlns="http://www.w3.org/2000/svg" xmlns:xlink="http://www.w3.org/1999/xlink" width="125" height="77" viewBox="0 0 125 77">
<rect x="-12.5" y="-7.7" width="150" height="92.4" fill="rgb(100%, 100%, 100%)" fill-opacity="1"/>
<path fill-rule="nonzero" fill="rgb(0%, 0%, 0%)" fill-opacity="1" d="M 12.882812 15.90625 L 15.902344 28.269531 L 18.960938 15.90625 L 21.921875 15.90625 L 25 28.195312 L 28.207031 15.90625 L 30.84375 15.90625 L 26.289062 31.59375 L 23.546875 31.59375 L 20.355469 19.449219 L 17.265625 31.59375 L 14.523438 31.59375 L 10 15.90625 Z M 33.332031 15.976562 L 36.011719 15.976562 L 36.011719 31.59375 L 33.332031 31.59375 Z M 33.332031 10.074219 L 36.011719 10.074219 L 36.011719 13.0625 L 33.332031 13.0625 Z M 40.523438 11.523438 L 43.1875 11.523438 L 43.1875 15.90625 L 45.695312 15.90625 L 45.695312 18.058594 L 43.1875 18.058594 L 43.1875 28.296875 C 43.1875 28.84375 43.375 29.210938 43.746094 29.398438 C 43.953125 29.503906 44.292969 29.558594 44.773438 29.558594 C 44.898438 29.558594 45.035156 29.554688 45.179688 29.550781 C 45.328125 29.546875 45.5 29.53125 45.695312 29.515625 L 45.695312 31.59375 C 45.390625 31.679688 45.078125 31.746094 44.75 31.785156 C 44.421875 31.824219 44.070312 31.84375 43.6875 31.84375 C 42.457031 31.84375 41.621094 31.527344 41.183594 30.898438 C 40.742188 30.269531 40.523438 29.449219 40.523438 28.445312 L 40.523438 18.058594 L 38.398438 18.058594 L 38.398438 15.90625 L 40.523438 15.90625 Z M 48.332031 10 L 50.96875 10 L 50.96875 18.03125 C 51.59375 17.238281 52.15625 16.679688 52.652344 16.359375 C 53.503906 15.804688 54.5625 15.523438 55.832031 15.523438 C 58.109375 15.523438 59.648438 16.320312 60.460938 17.914062 C 60.898438 18.78125 61.121094 19.988281 61.121094 21.53125 L 61.121094 31.59375 L 58.410156 31.59375 L 58.410156 21.707031 C 58.410156 20.554688 58.265625 19.710938 57.96875 19.171875 C 57.492188 18.3125 56.59375 17.882812 55.273438 17.882812 C 54.179688 17.882812 53.191406 18.257812 52.300781 19.011719 C 51.414062 19.761719 50.96875 21.183594 50.96875 23.273438 L 50.96875 31.59375 L 48.332031 31.59375 Z M 9.734375 8.492188 "/>
<path fill-rule="nonzero" fill="rgb(0%, 0%, 0%)" fill-opacity="1" d="M 16.828125 58.046875 C 18.058594 58.046875 19.082031 57.53125 19.898438 56.503906 C 20.710938 55.472656 21.121094 53.929688 21.121094 51.882812 C 21.121094 50.632812 20.9375 49.554688 20.578125 48.65625 C 19.894531 46.929688 18.644531 46.066406 16.828125 46.066406 C 15 46.066406 13.75 46.976562 13.078125 48.804688 C 12.71875 49.78125 12.535156 51.023438 12.535156 52.523438 C 12.535156 53.734375 12.71875 54.765625 13.078125 55.617188 C 13.761719 57.238281 15.011719 58.046875 16.828125 58.046875 Z M 10 44.203125 L 12.566406 44.203125 L 12.566406 46.285156 C 13.09375 45.570312 13.667969 45.019531 14.292969 44.628906 C 15.183594 44.042969 16.226562 43.75 17.429688 43.75 C 19.207031 43.75 20.714844 44.433594 21.953125 45.792969 C 23.195312 47.15625 23.816406 49.101562 23.816406 51.632812 C 23.816406 55.050781 22.921875 57.492188 21.132812 58.957031 C 20 59.882812 18.683594 60.347656 17.179688 60.347656 C 16 60.347656 15.007812 60.089844 14.207031 59.570312 C 13.738281 59.277344 13.214844 58.773438 12.640625 58.0625 L 12.640625 66.074219 L 10 66.074219 Z M 28.910156 55.644531 C 28.910156 56.40625 29.191406 57.007812 29.746094 57.445312 C 30.304688 57.886719 30.964844 58.105469 31.722656 58.105469 C 32.652344 58.105469 33.550781 57.890625 34.417969 57.460938 C 35.882812 56.75 36.617188 55.582031 36.617188 53.960938 L 36.617188 51.835938 C 36.292969 52.042969 35.878906 52.210938 35.371094 52.351562 C 34.863281 52.488281 34.367188 52.585938 33.878906 52.640625 L 32.28125 52.847656 C 31.324219 52.976562 30.605469 53.175781 30.128906 53.449219 C 29.316406 53.90625 28.910156 54.640625 28.910156 55.644531 Z M 35.300781 50.3125 C 35.90625 50.234375 36.308594 49.980469 36.515625 49.550781 C 36.632812 49.316406 36.691406 48.980469 36.691406 48.539062 C 36.691406 47.640625 36.371094 46.992188 35.730469 46.585938 C 35.089844 46.179688 34.175781 45.976562 32.984375 45.976562 C 31.605469 45.976562 30.628906 46.347656 30.054688 47.089844 C 29.730469 47.5 29.523438 48.109375 29.425781 48.921875 L 26.964844 48.921875 C 27.011719 46.988281 27.640625 45.644531 28.847656 44.886719 C 30.050781 44.128906 31.449219 43.75 33.042969 43.75 C 34.886719 43.75 36.386719 44.101562 37.539062 44.804688 C 38.683594 45.507812 39.253906 46.601562 39.253906 48.085938 L 39.253906 57.125 C 39.253906 57.398438 39.308594 57.617188 39.421875 57.785156 C 39.535156 57.949219 39.769531 58.03125 40.132812 58.03125 C 40.25 58.03125 40.382812 58.027344 40.527344 58.011719 C 40.675781 57.996094 40.832031 57.976562 40.996094 57.945312 L 40.996094 59.894531 C 40.585938 60.011719 40.273438 60.085938 40.058594 60.113281 C 39.84375 60.140625 39.550781 60.15625 39.179688 60.15625 C 38.273438 60.15625 37.613281 59.835938 37.203125 59.191406 C 36.988281 58.847656 36.835938 58.367188 36.75 57.742188 C 36.210938 58.445312 35.441406 59.054688 34.433594 59.570312 C 33.429688 60.089844 32.320312 60.347656 31.109375 60.347656 C 29.652344 60.347656 28.464844 59.90625 27.542969 59.023438 C 26.621094 58.140625 26.160156 57.03125 26.160156 55.703125 C 26.160156 54.25 26.613281 53.121094 27.519531 52.320312 C 28.429688 51.519531 29.621094 51.027344 31.09375 50.839844 Z M 45.242188 52.160156 C 45.242188 53.839844 45.601562 55.246094 46.3125 56.378906 C 47.027344 57.511719 48.167969 58.078125 49.742188 58.078125 C 50.960938 58.078125 51.964844 57.550781 52.75 56.503906 C 53.539062 55.453125 53.929688 53.945312 53.929688 51.984375 C 53.929688 50 53.523438 48.535156 52.714844 47.582031 C 51.90625 46.628906 50.902344 46.152344 49.710938 46.152344 C 48.382812 46.152344 47.308594 46.660156 46.480469 47.675781 C 45.65625 48.691406 45.242188 50.1875 45.242188 52.160156 Z M 49.214844 43.851562 C 50.414062 43.851562 51.421875 44.109375 52.230469 44.617188 C 52.699219 44.910156 53.234375 45.421875 53.828125 46.152344 L 53.828125 38.226562 L 56.363281 38.226562 L 56.363281 59.820312 L 53.988281 59.820312 L 53.988281 57.636719 C 53.375 58.605469 52.648438 59.304688 51.804688 59.734375 C 50.964844 60.164062 50.003906 60.375 48.921875 60.375 C 47.171875 60.375 45.660156 59.640625 44.378906 58.171875 C 43.101562 56.703125 42.460938 54.746094 42.460938 52.304688 C 42.460938 50.019531 43.042969 48.039062 44.210938 46.367188 C 45.378906 44.691406 47.046875 43.851562 49.214844 43.851562 Z M 61.929688 52.160156 C 61.929688 53.839844 62.289062 55.246094 63 56.378906 C 63.714844 57.511719 64.855469 58.078125 66.429688 58.078125 C 67.648438 58.078125 68.652344 57.550781 69.4375 56.503906 C 70.226562 55.453125 70.617188 53.945312 70.617188 51.984375 C 70.617188 50 70.210938 48.535156 69.402344 47.582031 C 68.59375 46.628906 67.589844 46.152344 66.398438 46.152344 C 65.070312 46.152344 63.996094 46.660156 63.167969 47.675781 C 62.34375 48.691406 61.929688 50.1875 61.929688 52.160156 Z M 65.902344 43.851562 C 67.101562 43.851562 68.109375 44.109375 68.917969 44.617188 C 69.386719 44.910156 69.921875 45.421875 70.515625 46.152344 L 70.515625 38.226562 L 73.050781 38.226562 L 73.050781 59.820312 L 70.675781 59.820312 L 70.675781 57.636719 C 70.0625 58.605469 69.335938 59.304688 68.492188 59.734375 C 67.652344 60.164062 66.691406 60.375 65.609375 60.375 C 63.859375 60.375 62.347656 59.640625 61.066406 58.171875 C 59.789062 56.703125 59.148438 54.746094 59.148438 52.304688 C 59.148438 50.019531 59.730469 48.039062 60.898438 46.367188 C 62.066406 44.691406 63.734375 43.851562 65.902344 43.851562 Z M 76.945312 44.203125 L 79.625 44.203125 L 79.625 59.820312 L 76.945312 59.820312 Z M 76.945312 38.300781 L 79.625 38.300781 L 79.625 41.289062 L 76.945312 41.289062 Z M 83.609375 44.132812 L 86.113281 44.132812 L 86.113281 46.359375 C 86.855469 45.441406 87.644531 44.78125 88.472656 44.382812 C 89.300781 43.980469 90.226562 43.78125 91.242188 43.78125 C 93.46875 43.78125 94.972656 44.554688 95.753906 46.109375 C 96.183594 46.960938 96.398438 48.175781 96.398438 49.757812 L 96.398438 59.820312 L 93.714844 59.820312 L 93.714844 49.933594 C 93.714844 48.976562 93.574219 48.203125 93.292969 47.617188 C 92.824219 46.640625 91.972656 46.152344 90.742188 46.152344 C 90.117188 46.152344 89.605469 46.21875 89.207031 46.34375 C 88.484375 46.558594 87.847656 46.988281 87.300781 47.632812 C 86.863281 48.148438 86.574219 48.683594 86.445312 49.238281 C 86.3125 49.789062 86.246094 50.578125 86.246094 51.601562 L 86.246094 59.820312 L 83.609375 59.820312 Z M 105.828125 43.851562 C 107.058594 43.851562 108.132812 44.15625 109.054688 44.761719 C 109.550781 45.101562 110.058594 45.601562 110.578125 46.257812 L 110.578125 44.277344 L 113.007812 44.277344 L 113.007812 58.546875 C 113.007812 60.539062 112.714844 62.109375 112.128906 63.261719 C 111.035156 65.390625 108.96875 66.457031 105.933594 66.457031 C 104.242188 66.457031 102.820312 66.078125 101.671875 65.320312 C 100.519531 64.5625 99.875 63.378906 99.734375 61.769531 L 102.417969 61.769531 C 102.542969 62.472656 102.796875 63.015625 103.179688 63.394531 C 103.773438 63.980469 104.710938 64.273438 105.992188 64.273438 C 108.011719 64.273438 109.335938 63.5625 109.960938 62.132812 C 110.332031 61.292969 110.503906 59.796875 110.472656 57.636719 C 109.945312 58.4375 109.3125 59.035156 108.570312 59.425781 C 107.828125 59.816406 106.84375 60.011719 105.625 60.011719 C 103.925781 60.011719 102.4375 59.40625 101.164062 58.203125 C 99.890625 56.996094 99.253906 55 99.253906 52.21875 C 99.253906 49.589844 99.894531 47.539062 101.179688 46.066406 C 102.464844 44.589844 104.015625 43.851562 105.828125 43.851562 Z M 110.578125 51.910156 C 110.578125 49.96875 110.175781 48.527344 109.375 47.589844 C 108.574219 46.652344 107.554688 46.183594 106.3125 46.183594 C 104.457031 46.183594 103.1875 47.050781 102.503906 48.789062 C 102.144531 49.71875 101.960938 50.933594 101.960938 52.4375 C 101.960938 54.203125 102.320312 55.550781 103.039062 56.472656 C 103.757812 57.394531 104.722656 57.859375 105.933594 57.859375 C 107.828125 57.859375 109.160156 57.003906 109.929688 55.292969 C 110.359375 54.328125 110.578125 53.199219 110.578125 51.910156 Z M 8.273438 36.71875 "/>
</svg>
