<?xml version="1.0" encoding="UTF-8"?>
<svg xmlns="http://www.w3.org/2000/svg" xmlns:xlink="http://www.w3.org/1999/xlink" width="140pt" height="79pt" viewBox="0 0 140 79" version="1.1">
<g id="surface423">
<rect x="0" y="0" width="140" height="79" style="fill:rgb(100%,100%,100%);fill-opacity:1;stroke:none;"/>
<path style=" stroke:none;fill-rule:nonzero;fill:rgb(0%,0%,0%);fill-opacity:1;" d="M 10.007812 16.386719 L 12.695312 16.386719 L 16.070312 29.183594 L 19.414062 16.386719 L 22.601562 16.386719 L 25.976562 29.183594 L 29.320312 16.386719 L 32.023438 16.386719 L 27.726562 32.792969 L 24.554688 32.792969 L 21.023438 19.339844 L 17.476562 32.792969 L 14.289062 32.792969 Z M 36.105469 16.386719 L 38.792969 16.386719 L 38.792969 32.792969 L 36.105469 32.792969 Z M 36.105469 9.996094 L 38.792969 9.996094 L 38.792969 13.417969 L 36.105469 13.417969 Z M 47.113281 11.730469 L 47.113281 16.386719 L 52.660156 16.386719 L 52.660156 18.480469 L 47.113281 18.480469 L 47.113281 27.386719 C 47.113281 28.722656 47.292969 29.582031 47.660156 29.964844 C 48.023438 30.351562 48.769531 30.542969 49.894531 30.542969 L 52.660156 30.542969 L 52.660156 32.792969 L 49.894531 32.792969 C 47.808594 32.792969 46.371094 32.410156 45.582031 31.636719 C 44.789062 30.855469 44.394531 29.441406 44.394531 27.386719 L 44.394531 18.480469 L 42.425781 18.480469 L 42.425781 16.386719 L 44.394531 16.386719 L 44.394531 11.730469 Z M 69.84375 22.886719 L 69.84375 32.792969 L 67.140625 32.792969 L 67.140625 22.980469 C 67.140625 21.429688 66.835938 20.269531 66.234375 19.496094 C 65.628906 18.726562 64.722656 18.339844 63.515625 18.339844 C 62.054688 18.339844 60.90625 18.804688 60.0625 19.730469 C 59.226562 20.660156 58.8125 21.925781 58.8125 23.527344 L 58.8125 32.792969 L 56.09375 32.792969 L 56.09375 9.996094 L 58.8125 9.996094 L 58.8125 18.933594 C 59.457031 17.945312 60.21875 17.210938 61.09375 16.730469 C 61.96875 16.242188 62.972656 15.996094 64.109375 15.996094 C 65.992188 15.996094 67.421875 16.582031 68.390625 17.746094 C 69.359375 18.914062 69.84375 20.628906 69.84375 22.886719 Z M 8.742188 4.945312 "/>
<path style=" stroke:none;fill-rule:nonzero;fill:rgb(0%,0%,0%);fill-opacity:1;" d="M 12.710938 59.359375 L 12.710938 68.0625 L 9.992188 68.0625 L 9.992188 45.421875 L 12.710938 45.421875 L 12.710938 47.90625 C 13.273438 46.9375 13.984375 46.21875 14.851562 45.75 C 15.714844 45.273438 16.746094 45.03125 17.945312 45.03125 C 19.945312 45.03125 21.5625 45.824219 22.804688 47.40625 C 24.054688 48.980469 24.679688 51.058594 24.679688 53.640625 C 24.679688 56.214844 24.054688 58.292969 22.804688 59.875 C 21.5625 61.460938 19.945312 62.25 17.945312 62.25 C 16.746094 62.25 15.714844 62.015625 14.851562 61.546875 C 13.984375 61.070312 13.273438 60.339844 12.710938 59.359375 Z M 21.882812 53.640625 C 21.882812 51.664062 21.46875 50.109375 20.648438 48.984375 C 19.835938 47.851562 18.714844 47.28125 17.289062 47.28125 C 15.859375 47.28125 14.742188 47.851562 13.929688 48.984375 C 13.117188 50.109375 12.710938 51.664062 12.710938 53.640625 C 12.710938 55.621094 13.117188 57.179688 13.929688 58.3125 C 14.742188 59.4375 15.859375 60 17.289062 60 C 18.714844 60 19.835938 59.4375 20.648438 58.3125 C 21.46875 57.179688 21.882812 55.621094 21.882812 53.640625 Z M 36.597656 53.578125 C 34.417969 53.578125 32.910156 53.828125 32.066406 54.328125 C 31.230469 54.828125 30.816406 55.679688 30.816406 56.875 C 30.816406 57.835938 31.128906 58.59375 31.753906 59.15625 C 32.386719 59.71875 33.246094 60 34.332031 60 C 35.820312 60 37.019531 59.46875 37.925781 58.40625 C 38.832031 57.34375 39.285156 55.9375 39.285156 54.1875 L 39.285156 53.578125 Z M 41.972656 52.46875 L 41.972656 61.828125 L 39.285156 61.828125 L 39.285156 59.34375 C 38.667969 60.335938 37.898438 61.070312 36.972656 61.546875 C 36.054688 62.015625 34.933594 62.25 33.613281 62.25 C 31.933594 62.25 30.597656 61.78125 29.597656 60.84375 C 28.605469 59.898438 28.113281 58.632812 28.113281 57.046875 C 28.113281 55.203125 28.730469 53.8125 29.972656 52.875 C 31.210938 51.9375 33.054688 51.46875 35.503906 51.46875 L 39.285156 51.46875 L 39.285156 51.203125 C 39.285156 49.964844 38.871094 49.007812 38.050781 48.328125 C 37.238281 47.652344 36.097656 47.3125 34.628906 47.3125 C 33.691406 47.3125 32.773438 47.429688 31.878906 47.65625 C 30.992188 47.875 30.136719 48.210938 29.316406 48.65625 L 29.316406 46.171875 C 30.304688 45.789062 31.261719 45.5 32.191406 45.3125 C 33.117188 45.125 34.019531 45.03125 34.894531 45.03125 C 37.269531 45.03125 39.039062 45.648438 40.207031 46.875 C 41.382812 48.105469 41.972656 49.96875 41.972656 52.46875 Z M 58.324219 47.90625 L 58.324219 39.03125 L 61.011719 39.03125 L 61.011719 61.828125 L 58.324219 61.828125 L 58.324219 59.359375 C 57.761719 60.339844 57.046875 61.070312 56.183594 61.546875 C 55.316406 62.015625 54.277344 62.25 53.058594 62.25 C 51.078125 62.25 49.464844 61.460938 48.214844 59.875 C 46.972656 58.292969 46.355469 56.214844 46.355469 53.640625 C 46.355469 51.058594 46.972656 48.980469 48.214844 47.40625 C 49.464844 45.824219 51.078125 45.03125 53.058594 45.03125 C 54.277344 45.03125 55.316406 45.273438 56.183594 45.75 C 57.046875 46.21875 57.761719 46.9375 58.324219 47.90625 Z M 49.136719 53.640625 C 49.136719 55.621094 49.542969 57.179688 50.355469 58.3125 C 51.175781 59.4375 52.300781 60 53.730469 60 C 55.144531 60 56.265625 59.4375 57.089844 58.3125 C 57.910156 57.179688 58.324219 55.621094 58.324219 53.640625 C 58.324219 51.664062 57.910156 50.109375 57.089844 48.984375 C 56.265625 47.851562 55.144531 47.28125 53.730469 47.28125 C 52.300781 47.28125 51.175781 47.851562 50.355469 48.984375 C 49.542969 50.109375 49.136719 51.664062 49.136719 53.640625 Z M 77.367188 47.90625 L 77.367188 39.03125 L 80.054688 39.03125 L 80.054688 61.828125 L 77.367188 61.828125 L 77.367188 59.359375 C 76.804688 60.339844 76.089844 61.070312 75.226562 61.546875 C 74.359375 62.015625 73.320312 62.25 72.101562 62.25 C 70.121094 62.25 68.507812 61.460938 67.257812 59.875 C 66.015625 58.292969 65.398438 56.214844 65.398438 53.640625 C 65.398438 51.058594 66.015625 48.980469 67.257812 47.40625 C 68.507812 45.824219 70.121094 45.03125 72.101562 45.03125 C 73.320312 45.03125 74.359375 45.273438 75.226562 45.75 C 76.089844 46.21875 76.804688 46.9375 77.367188 47.90625 Z M 68.179688 53.640625 C 68.179688 55.621094 68.585938 57.179688 69.398438 58.3125 C 70.21875 59.4375 71.34375 60 72.773438 60 C 74.1875 60 75.308594 59.4375 76.132812 58.3125 C 76.953125 57.179688 77.367188 55.621094 77.367188 53.640625 C 77.367188 51.664062 76.953125 50.109375 76.132812 48.984375 C 75.308594 47.851562 74.1875 47.28125 72.773438 47.28125 C 71.34375 47.28125 70.21875 47.851562 69.398438 48.984375 C 68.585938 50.109375 68.179688 51.664062 68.179688 53.640625 Z M 85.613281 45.421875 L 88.300781 45.421875 L 88.300781 61.828125 L 85.613281 61.828125 Z M 85.613281 39.03125 L 88.300781 39.03125 L 88.300781 42.453125 L 85.613281 42.453125 Z M 107.589844 51.921875 L 107.589844 61.828125 L 104.886719 61.828125 L 104.886719 52.015625 C 104.886719 50.464844 104.582031 49.304688 103.980469 48.53125 C 103.375 47.761719 102.46875 47.375 101.261719 47.375 C 99.800781 47.375 98.652344 47.839844 97.808594 48.765625 C 96.972656 49.695312 96.558594 50.960938 96.558594 52.5625 L 96.558594 61.828125 L 93.839844 61.828125 L 93.839844 45.421875 L 96.558594 45.421875 L 96.558594 47.96875 C 97.203125 46.980469 97.964844 46.246094 98.839844 45.765625 C 99.714844 45.277344 100.71875 45.03125 101.855469 45.03125 C 103.738281 45.03125 105.167969 45.617188 106.136719 46.78125 C 107.105469 47.949219 107.589844 49.664062 107.589844 51.921875 Z M 123.757812 53.4375 C 123.757812 51.480469 123.351562 49.964844 122.539062 48.890625 C 121.734375 47.820312 120.609375 47.28125 119.164062 47.28125 C 117.714844 47.28125 116.585938 47.820312 115.773438 48.890625 C 114.96875 49.964844 114.570312 51.480469 114.570312 53.4375 C 114.570312 55.375 114.96875 56.886719 115.773438 57.96875 C 116.585938 59.042969 117.714844 59.578125 119.164062 59.578125 C 120.609375 59.578125 121.734375 59.042969 122.539062 57.96875 C 123.351562 56.886719 123.757812 55.375 123.757812 53.4375 Z M 126.445312 59.796875 C 126.445312 62.585938 125.824219 64.660156 124.585938 66.015625 C 123.34375 67.378906 121.449219 68.0625 118.898438 68.0625 C 117.949219 68.0625 117.054688 67.988281 116.210938 67.84375 C 115.367188 67.707031 114.554688 67.492188 113.773438 67.203125 L 113.773438 64.578125 C 114.554688 65.015625 115.328125 65.332031 116.101562 65.53125 C 116.882812 65.738281 117.667969 65.84375 118.460938 65.84375 C 120.230469 65.84375 121.554688 65.378906 122.429688 64.453125 C 123.3125 63.535156 123.757812 62.144531 123.757812 60.28125 L 123.757812 58.9375 C 123.195312 59.90625 122.480469 60.632812 121.617188 61.109375 C 120.75 61.589844 119.710938 61.828125 118.492188 61.828125 C 116.480469 61.828125 114.859375 61.0625 113.632812 59.53125 C 112.402344 58 111.789062 55.96875 111.789062 53.4375 C 111.789062 50.898438 112.402344 48.859375 113.632812 47.328125 C 114.859375 45.796875 116.480469 45.03125 118.492188 45.03125 C 119.710938 45.03125 120.75 45.273438 121.617188 45.75 C 122.480469 46.230469 123.195312 46.949219 123.757812 47.90625 L 123.757812 45.421875 L 126.445312 45.421875 Z M 7.273438 33.980469 "/>
</g>
</svg>
