<?xml version="1.0" encoding="UTF-8"?>
<svg xmlns="http://www.w3.org/2000/svg" xmlns:xlink="http://www.w3.org/1999/xlink" width="135pt" height="89pt" viewBox="0 0 135 89" version="1.1">
<g id="surface925">
<rect x="0" y="0" width="135" height="89" style="fill:rgb(100%,100%,100%);fill-opacity:1;stroke:none;"/>
<path style=" stroke:none;fill-rule:nonzero;fill:rgb(0%,0%,0%);fill-opacity:1;" d="M 5.007812 26.386719 L 7.695312 26.386719 L 11.070312 39.183594 L 14.414062 26.386719 L 17.601562 26.386719 L 20.976562 39.183594 L 24.320312 26.386719 L 27.023438 26.386719 L 22.726562 42.792969 L 19.554688 42.792969 L 16.023438 29.339844 L 12.476562 42.792969 L 9.289062 42.792969 Z M 31.105469 26.386719 L 33.792969 26.386719 L 33.792969 42.792969 L 31.105469 42.792969 Z M 31.105469 19.996094 L 33.792969 19.996094 L 33.792969 23.417969 L 31.105469 23.417969 Z M 42.113281 21.730469 L 42.113281 26.386719 L 47.660156 26.386719 L 47.660156 28.480469 L 42.113281 28.480469 L 42.113281 37.386719 C 42.113281 38.722656 42.292969 39.582031 42.660156 39.964844 C 43.023438 40.351562 43.769531 40.542969 44.894531 40.542969 L 47.660156 40.542969 L 47.660156 42.792969 L 44.894531 42.792969 C 42.808594 42.792969 41.371094 42.410156 40.582031 41.636719 C 39.789062 40.855469 39.394531 39.441406 39.394531 37.386719 L 39.394531 28.480469 L 37.425781 28.480469 L 37.425781 26.386719 L 39.394531 26.386719 L 39.394531 21.730469 Z M 64.84375 32.886719 L 64.84375 42.792969 L 62.140625 42.792969 L 62.140625 32.980469 C 62.140625 31.429688 61.835938 30.269531 61.234375 29.496094 C 60.628906 28.726562 59.722656 28.339844 58.515625 28.339844 C 57.054688 28.339844 55.90625 28.804688 55.0625 29.730469 C 54.226562 30.660156 53.8125 31.925781 53.8125 33.527344 L 53.8125 42.792969 L 51.09375 42.792969 L 51.09375 19.996094 L 53.8125 19.996094 L 53.8125 28.933594 C 54.457031 27.945312 55.21875 27.210938 56.09375 26.730469 C 56.96875 26.242188 57.972656 25.996094 59.109375 25.996094 C 60.992188 25.996094 62.421875 26.582031 63.390625 27.746094 C 64.359375 28.914062 64.84375 30.628906 64.84375 32.886719 Z M 3.742188 14.945312 "/>
<path style=" stroke:none;fill-rule:nonzero;fill:rgb(0%,0%,0%);fill-opacity:1;" d="M 7.710938 69.359375 L 7.710938 78.0625 L 4.992188 78.0625 L 4.992188 55.421875 L 7.710938 55.421875 L 7.710938 57.90625 C 8.273438 56.9375 8.984375 56.21875 9.851562 55.75 C 10.714844 55.273438 11.746094 55.03125 12.945312 55.03125 C 14.945312 55.03125 16.5625 55.824219 17.804688 57.40625 C 19.054688 58.980469 19.679688 61.058594 19.679688 63.640625 C 19.679688 66.214844 19.054688 68.292969 17.804688 69.875 C 16.5625 71.460938 14.945312 72.25 12.945312 72.25 C 11.746094 72.25 10.714844 72.015625 9.851562 71.546875 C 8.984375 71.070312 8.273438 70.339844 7.710938 69.359375 Z M 16.882812 63.640625 C 16.882812 61.664062 16.46875 60.109375 15.648438 58.984375 C 14.835938 57.851562 13.714844 57.28125 12.289062 57.28125 C 10.859375 57.28125 9.742188 57.851562 8.929688 58.984375 C 8.117188 60.109375 7.710938 61.664062 7.710938 63.640625 C 7.710938 65.621094 8.117188 67.179688 8.929688 68.3125 C 9.742188 69.4375 10.859375 70 12.289062 70 C 13.714844 70 14.835938 69.4375 15.648438 68.3125 C 16.46875 67.179688 16.882812 65.621094 16.882812 63.640625 Z M 31.597656 63.578125 C 29.417969 63.578125 27.910156 63.828125 27.066406 64.328125 C 26.230469 64.828125 25.816406 65.679688 25.816406 66.875 C 25.816406 67.835938 26.128906 68.59375 26.753906 69.15625 C 27.386719 69.71875 28.246094 70 29.332031 70 C 30.820312 70 32.019531 69.46875 32.925781 68.40625 C 33.832031 67.34375 34.285156 65.9375 34.285156 64.1875 L 34.285156 63.578125 Z M 36.972656 62.46875 L 36.972656 71.828125 L 34.285156 71.828125 L 34.285156 69.34375 C 33.667969 70.335938 32.898438 71.070312 31.972656 71.546875 C 31.054688 72.015625 29.933594 72.25 28.613281 72.25 C 26.933594 72.25 25.597656 71.78125 24.597656 70.84375 C 23.605469 69.898438 23.113281 68.632812 23.113281 67.046875 C 23.113281 65.203125 23.730469 63.8125 24.972656 62.875 C 26.210938 61.9375 28.054688 61.46875 30.503906 61.46875 L 34.285156 61.46875 L 34.285156 61.203125 C 34.285156 59.964844 33.871094 59.007812 33.050781 58.328125 C 32.238281 57.652344 31.097656 57.3125 29.628906 57.3125 C 28.691406 57.3125 27.773438 57.429688 26.878906 57.65625 C 25.992188 57.875 25.136719 58.210938 24.316406 58.65625 L 24.316406 56.171875 C 25.304688 55.789062 26.261719 55.5 27.191406 55.3125 C 28.117188 55.125 29.019531 55.03125 29.894531 55.03125 C 32.269531 55.03125 34.039062 55.648438 35.207031 56.875 C 36.382812 58.105469 36.972656 59.96875 36.972656 62.46875 Z M 53.324219 57.90625 L 53.324219 49.03125 L 56.011719 49.03125 L 56.011719 71.828125 L 53.324219 71.828125 L 53.324219 69.359375 C 52.761719 70.339844 52.046875 71.070312 51.183594 71.546875 C 50.316406 72.015625 49.277344 72.25 48.058594 72.25 C 46.078125 72.25 44.464844 71.460938 43.214844 69.875 C 41.972656 68.292969 41.355469 66.214844 41.355469 63.640625 C 41.355469 61.058594 41.972656 58.980469 43.214844 57.40625 C 44.464844 55.824219 46.078125 55.03125 48.058594 55.03125 C 49.277344 55.03125 50.316406 55.273438 51.183594 55.75 C 52.046875 56.21875 52.761719 56.9375 53.324219 57.90625 Z M 44.136719 63.640625 C 44.136719 65.621094 44.542969 67.179688 45.355469 68.3125 C 46.175781 69.4375 47.300781 70 48.730469 70 C 50.144531 70 51.265625 69.4375 52.089844 68.3125 C 52.910156 67.179688 53.324219 65.621094 53.324219 63.640625 C 53.324219 61.664062 52.910156 60.109375 52.089844 58.984375 C 51.265625 57.851562 50.144531 57.28125 48.730469 57.28125 C 47.300781 57.28125 46.175781 57.851562 45.355469 58.984375 C 44.542969 60.109375 44.136719 61.664062 44.136719 63.640625 Z M 72.367188 57.90625 L 72.367188 49.03125 L 75.054688 49.03125 L 75.054688 71.828125 L 72.367188 71.828125 L 72.367188 69.359375 C 71.804688 70.339844 71.089844 71.070312 70.226562 71.546875 C 69.359375 72.015625 68.320312 72.25 67.101562 72.25 C 65.121094 72.25 63.507812 71.460938 62.257812 69.875 C 61.015625 68.292969 60.398438 66.214844 60.398438 63.640625 C 60.398438 61.058594 61.015625 58.980469 62.257812 57.40625 C 63.507812 55.824219 65.121094 55.03125 67.101562 55.03125 C 68.320312 55.03125 69.359375 55.273438 70.226562 55.75 C 71.089844 56.21875 71.804688 56.9375 72.367188 57.90625 Z M 63.179688 63.640625 C 63.179688 65.621094 63.585938 67.179688 64.398438 68.3125 C 65.21875 69.4375 66.34375 70 67.773438 70 C 69.1875 70 70.308594 69.4375 71.132812 68.3125 C 71.953125 67.179688 72.367188 65.621094 72.367188 63.640625 C 72.367188 61.664062 71.953125 60.109375 71.132812 58.984375 C 70.308594 57.851562 69.1875 57.28125 67.773438 57.28125 C 66.34375 57.28125 65.21875 57.851562 64.398438 58.984375 C 63.585938 60.109375 63.179688 61.664062 63.179688 63.640625 Z M 80.613281 55.421875 L 83.300781 55.421875 L 83.300781 71.828125 L 80.613281 71.828125 Z M 80.613281 49.03125 L 83.300781 49.03125 L 83.300781 52.453125 L 80.613281 52.453125 Z M 102.589844 61.921875 L 102.589844 71.828125 L 99.886719 71.828125 L 99.886719 62.015625 C 99.886719 60.464844 99.582031 59.304688 98.980469 58.53125 C 98.375 57.761719 97.46875 57.375 96.261719 57.375 C 94.800781 57.375 93.652344 57.839844 92.808594 58.765625 C 91.972656 59.695312 91.558594 60.960938 91.558594 62.5625 L 91.558594 71.828125 L 88.839844 71.828125 L 88.839844 55.421875 L 91.558594 55.421875 L 91.558594 57.96875 C 92.203125 56.980469 92.964844 56.246094 93.839844 55.765625 C 94.714844 55.277344 95.71875 55.03125 96.855469 55.03125 C 98.738281 55.03125 100.167969 55.617188 101.136719 56.78125 C 102.105469 57.949219 102.589844 59.664062 102.589844 61.921875 Z M 118.757812 63.4375 C 118.757812 61.480469 118.351562 59.964844 117.539062 58.890625 C 116.734375 57.820312 115.609375 57.28125 114.164062 57.28125 C 112.714844 57.28125 111.585938 57.820312 110.773438 58.890625 C 109.96875 59.964844 109.570312 61.480469 109.570312 63.4375 C 109.570312 65.375 109.96875 66.886719 110.773438 67.96875 C 111.585938 69.042969 112.714844 69.578125 114.164062 69.578125 C 115.609375 69.578125 116.734375 69.042969 117.539062 67.96875 C 118.351562 66.886719 118.757812 65.375 118.757812 63.4375 Z M 121.445312 69.796875 C 121.445312 72.585938 120.824219 74.660156 119.585938 76.015625 C 118.34375 77.378906 116.449219 78.0625 113.898438 78.0625 C 112.949219 78.0625 112.054688 77.988281 111.210938 77.84375 C 110.367188 77.707031 109.554688 77.492188 108.773438 77.203125 L 108.773438 74.578125 C 109.554688 75.015625 110.328125 75.332031 111.101562 75.53125 C 111.882812 75.738281 112.667969 75.84375 113.460938 75.84375 C 115.230469 75.84375 116.554688 75.378906 117.429688 74.453125 C 118.3125 73.535156 118.757812 72.144531 118.757812 70.28125 L 118.757812 68.9375 C 118.195312 69.90625 117.480469 70.632812 116.617188 71.109375 C 115.75 71.589844 114.710938 71.828125 113.492188 71.828125 C 111.480469 71.828125 109.859375 71.0625 108.632812 69.53125 C 107.402344 68 106.789062 65.96875 106.789062 63.4375 C 106.789062 60.898438 107.402344 58.859375 108.632812 57.328125 C 109.859375 55.796875 111.480469 55.03125 113.492188 55.03125 C 114.710938 55.03125 115.75 55.273438 116.617188 55.75 C 117.480469 56.230469 118.195312 56.949219 118.757812 57.90625 L 118.757812 55.421875 L 121.445312 55.421875 Z M 2.273438 43.980469 "/>
</g>
</svg>
