<?xml version="1.0" encoding="UTF-8"?>
<svg xmlns="http://www.w3.org/2000/svg" xmlns:xlink="http://www.w3.org/1999/xlink" width="120" height="87" viewBox="0 0 120 87">
<rect x="-12" y="-8.7" width="144" height="104.4" fill="rgb(100%, 100%, 100%)" fill-opacity="1"/>
<path fill-rule="nonzero" fill="rgb(0%, 0%, 0%)" fill-opacity="1" d="M 7.882812 25.90625 L 10.902344 38.269531 L 13.960938 25.90625 L 16.921875 25.90625 L 20 38.195312 L 23.207031 25.90625 L 25.84375 25.90625 L 21.289062 41.59375 L 18.546875 41.59375 L 15.355469 29.449219 L 12.265625 41.59375 L 9.523438 41.59375 L 5 25.90625 Z M 28.332031 25.976562 L 31.011719 25.976562 L 31.011719 41.59375 L 28.332031 41.59375 Z M 28.332031 20.074219 L 31.011719 20.074219 L 31.011719 23.0625 L 28.332031 23.0625 Z M 35.523438 21.523438 L 38.1875 21.523438 L 38.1875 25.90625 L 40.695312 25.90625 L 40.695312 28.058594 L 38.1875 28.058594 L 38.1875 38.296875 C 38.1875 38.84375 38.375 39.210938 38.746094 39.398438 C 38.953125 39.503906 39.292969 39.558594 39.773438 39.558594 C 39.898438 39.558594 40.035156 39.554688 40.179688 39.550781 C 40.328125 39.546875 40.5 39.53125 40.695312 39.515625 L 40.695312 41.59375 C 40.390625 41.679688 40.078125 41.746094 39.75 41.785156 C 39.421875 41.824219 39.070312 41.84375 38.6875 41.84375 C 37.457031 41.84375 36.621094 41.527344 36.183594 40.898438 C 35.742188 40.269531 35.523438 39.449219 35.523438 38.445312 L 35.523438 28.058594 L 33.398438 28.058594 L 33.398438 25.90625 L 35.523438 25.90625 Z M 43.332031 20 L 45.96875 20 L 45.96875 28.03125 C 46.59375 27.238281 47.15625 26.679688 47.652344 26.359375 C 48.503906 25.804688 49.5625 25.523438 50.832031 25.523438 C 53.109375 25.523438 54.648438 26.320312 55.460938 27.914062 C 55.898438 28.78125 56.121094 29.988281 56.121094 31.53125 L 56.121094 41.59375 L 53.410156 41.59375 L 53.410156 31.707031 C 53.410156 30.554688 53.265625 29.710938 52.96875 29.171875 C 52.492188 28.3125 51.59375 27.882812 50.273438 27.882812 C 49.179688 27.882812 48.191406 28.257812 47.300781 29.011719 C 46.414062 29.761719 45.96875 31.183594 45.96875 33.273438 L 45.96875 41.59375 L 43.332031 41.59375 Z M 4.734375 18.492188 "/>
<path fill-rule="nonzero" fill="rgb(0%, 0%, 0%)" fill-opacity="1" d="M 11.828125 68.046875 C 13.058594 68.046875 14.082031 67.53125 14.898438 66.503906 C 15.710938 65.472656 16.121094 63.929688 16.121094 61.882812 C 16.121094 60.632812 15.9375 59.554688 15.578125 58.65625 C 14.894531 56.929688 13.644531 56.066406 11.828125 56.066406 C 10 56.066406 8.75 56.976562 8.078125 58.804688 C 7.71875 59.78125 7.535156 61.023438 7.535156 62.523438 C 7.535156 63.734375 7.71875 64.765625 8.078125 65.617188 C 8.761719 67.238281 10.011719 68.046875 11.828125 68.046875 Z M 5 54.203125 L 7.566406 54.203125 L 7.566406 56.285156 C 8.09375 55.570312 8.667969 55.019531 9.292969 54.628906 C 10.183594 54.042969 11.226562 53.75 12.429688 53.75 C 14.207031 53.75 15.714844 54.433594 16.953125 55.792969 C 18.195312 57.15625 18.816406 59.101562 18.816406 61.632812 C 18.816406 65.050781 17.921875 67.492188 16.132812 68.957031 C 15 69.882812 13.683594 70.347656 12.179688 70.347656 C 11 70.347656 10.007812 70.089844 9.207031 69.570312 C 8.738281 69.277344 8.214844 68.773438 7.640625 68.0625 L 7.640625 76.074219 L 5 76.074219 Z M 23.910156 65.644531 C 23.910156 66.40625 24.191406 67.007812 24.746094 67.445312 C 25.304688 67.886719 25.964844 68.105469 26.722656 68.105469 C 27.652344 68.105469 28.550781 67.890625 29.417969 67.460938 C 30.882812 66.75 31.617188 65.582031 31.617188 63.960938 L 31.617188 61.835938 C 31.292969 62.042969 30.878906 62.210938 30.371094 62.351562 C 29.863281 62.488281 29.367188 62.585938 28.878906 62.640625 L 27.28125 62.847656 C 26.324219 62.976562 25.605469 63.175781 25.128906 63.449219 C 24.316406 63.90625 23.910156 64.640625 23.910156 65.644531 Z M 30.300781 60.3125 C 30.90625 60.234375 31.308594 59.980469 31.515625 59.550781 C 31.632812 59.316406 31.691406 58.980469 31.691406 58.539062 C 31.691406 57.640625 31.371094 56.992188 30.730469 56.585938 C 30.089844 56.179688 29.175781 55.976562 27.984375 55.976562 C 26.605469 55.976562 25.628906 56.347656 25.054688 57.089844 C 24.730469 57.5 24.523438 58.109375 24.425781 58.921875 L 21.964844 58.921875 C 22.011719 56.988281 22.640625 55.644531 23.847656 54.886719 C 25.050781 54.128906 26.449219 53.75 28.042969 53.75 C 29.886719 53.75 31.386719 54.101562 32.539062 54.804688 C 33.683594 55.507812 34.253906 56.601562 34.253906 58.085938 L 34.253906 67.125 C 34.253906 67.398438 34.308594 67.617188 34.421875 67.785156 C 34.535156 67.949219 34.769531 68.03125 35.132812 68.03125 C 35.25 68.03125 35.382812 68.027344 35.527344 68.011719 C 35.675781 67.996094 35.832031 67.976562 35.996094 67.945312 L 35.996094 69.894531 C 35.585938 70.011719 35.273438 70.085938 35.058594 70.113281 C 34.84375 70.140625 34.550781 70.15625 34.179688 70.15625 C 33.273438 70.15625 32.613281 69.835938 32.203125 69.191406 C 31.988281 68.847656 31.835938 68.367188 31.75 67.742188 C 31.210938 68.445312 30.441406 69.054688 29.433594 69.570312 C 28.429688 70.089844 27.320312 70.347656 26.109375 70.347656 C 24.652344 70.347656 23.464844 69.90625 22.542969 69.023438 C 21.621094 68.140625 21.160156 67.03125 21.160156 65.703125 C 21.160156 64.25 21.613281 63.121094 22.519531 62.320312 C 23.429688 61.519531 24.621094 61.027344 26.09375 60.839844 Z M 40.242188 62.160156 C 40.242188 63.839844 40.601562 65.246094 41.3125 66.378906 C 42.027344 67.511719 43.167969 68.078125 44.742188 68.078125 C 45.960938 68.078125 46.964844 67.550781 47.75 66.503906 C 48.539062 65.453125 48.929688 63.945312 48.929688 61.984375 C 48.929688 60 48.523438 58.535156 47.714844 57.582031 C 46.90625 56.628906 45.902344 56.152344 44.710938 56.152344 C 43.382812 56.152344 42.308594 56.660156 41.480469 57.675781 C 40.65625 58.691406 40.242188 60.1875 40.242188 62.160156 Z M 44.214844 53.851562 C 45.414062 53.851562 46.421875 54.109375 47.230469 54.617188 C 47.699219 54.910156 48.234375 55.421875 48.828125 56.152344 L 48.828125 48.226562 L 51.363281 48.226562 L 51.363281 69.820312 L 48.988281 69.820312 L 48.988281 67.636719 C 48.375 68.605469 47.648438 69.304688 46.804688 69.734375 C 45.964844 70.164062 45.003906 70.375 43.921875 70.375 C 42.171875 70.375 40.660156 69.640625 39.378906 68.171875 C 38.101562 66.703125 37.460938 64.746094 37.460938 62.304688 C 37.460938 60.019531 38.042969 58.039062 39.210938 56.367188 C 40.378906 54.691406 42.046875 53.851562 44.214844 53.851562 Z M 56.929688 62.160156 C 56.929688 63.839844 57.289062 65.246094 58 66.378906 C 58.714844 67.511719 59.855469 68.078125 61.429688 68.078125 C 62.648438 68.078125 63.652344 67.550781 64.4375 66.503906 C 65.226562 65.453125 65.617188 63.945312 65.617188 61.984375 C 65.617188 60 65.210938 58.535156 64.402344 57.582031 C 63.59375 56.628906 62.589844 56.152344 61.398438 56.152344 C 60.070312 56.152344 58.996094 56.660156 58.167969 57.675781 C 57.34375 58.691406 56.929688 60.1875 56.929688 62.160156 Z M 60.902344 53.851562 C 62.101562 53.851562 63.109375 54.109375 63.917969 54.617188 C 64.386719 54.910156 64.921875 55.421875 65.515625 56.152344 L 65.515625 48.226562 L 68.050781 48.226562 L 68.050781 69.820312 L 65.675781 69.820312 L 65.675781 67.636719 C 65.0625 68.605469 64.335938 69.304688 63.492188 69.734375 C 62.652344 70.164062 61.691406 70.375 60.609375 70.375 C 58.859375 70.375 57.347656 69.640625 56.066406 68.171875 C 54.789062 66.703125 54.148438 64.746094 54.148438 62.304688 C 54.148438 60.019531 54.730469 58.039062 55.898438 56.367188 C 57.066406 54.691406 58.734375 53.851562 60.902344 53.851562 Z M 71.945312 54.203125 L 74.625 54.203125 L 74.625 69.820312 L 71.945312 69.820312 Z M 71.945312 48.300781 L 74.625 48.300781 L 74.625 51.289062 L 71.945312 51.289062 Z M 78.609375 54.132812 L 81.113281 54.132812 L 81.113281 56.359375 C 81.855469 55.441406 82.644531 54.78125 83.472656 54.382812 C 84.300781 53.980469 85.226562 53.78125 86.242188 53.78125 C 88.46875 53.78125 89.972656 54.554688 90.753906 56.109375 C 91.183594 56.960938 91.398438 58.175781 91.398438 59.757812 L 91.398438 69.820312 L 88.714844 69.820312 L 88.714844 59.933594 C 88.714844 58.976562 88.574219 58.203125 88.292969 57.617188 C 87.824219 56.640625 86.972656 56.152344 85.742188 56.152344 C 85.117188 56.152344 84.605469 56.21875 84.207031 56.34375 C 83.484375 56.558594 82.847656 56.988281 82.300781 57.632812 C 81.863281 58.148438 81.574219 58.683594 81.445312 59.238281 C 81.3125 59.789062 81.246094 60.578125 81.246094 61.601562 L 81.246094 69.820312 L 78.609375 69.820312 Z M 100.828125 53.851562 C 102.058594 53.851562 103.132812 54.15625 104.054688 54.761719 C 104.550781 55.101562 105.058594 55.601562 105.578125 56.257812 L 105.578125 54.277344 L 108.007812 54.277344 L 108.007812 68.546875 C 108.007812 70.539062 107.714844 72.109375 107.128906 73.261719 C 106.035156 75.390625 103.96875 76.457031 100.933594 76.457031 C 99.242188 76.457031 97.820312 76.078125 96.671875 75.320312 C 95.519531 74.5625 94.875 73.378906 94.734375 71.769531 L 97.417969 71.769531 C 97.542969 72.472656 97.796875 73.015625 98.179688 73.394531 C 98.773438 73.980469 99.710938 74.273438 100.992188 74.273438 C 103.011719 74.273438 104.335938 73.5625 104.960938 72.132812 C 105.332031 71.292969 105.503906 69.796875 105.472656 67.636719 C 104.945312 68.4375 104.3125 69.035156 103.570312 69.425781 C 102.828125 69.816406 101.84375 70.011719 100.625 70.011719 C 98.925781 70.011719 97.4375 69.40625 96.164062 68.203125 C 94.890625 66.996094 94.253906 65 94.253906 62.21875 C 94.253906 59.589844 94.894531 57.539062 96.179688 56.066406 C 97.464844 54.589844 99.015625 53.851562 100.828125 53.851562 Z M 105.578125 61.910156 C 105.578125 59.96875 105.175781 58.527344 104.375 57.589844 C 103.574219 56.652344 102.554688 56.183594 101.3125 56.183594 C 99.457031 56.183594 98.1875 57.050781 97.503906 58.789062 C 97.144531 59.71875 96.960938 60.933594 96.960938 62.4375 C 96.960938 64.203125 97.320312 65.550781 98.039062 66.472656 C 98.757812 67.394531 99.722656 67.859375 100.933594 67.859375 C 102.828125 67.859375 104.160156 67.003906 104.929688 65.292969 C 105.359375 64.328125 105.578125 63.199219 105.578125 61.910156 Z M 3.273438 46.71875 "/>
</svg>
