<?xml version="1.0" encoding="UTF-8"?>
<svg xmlns="http://www.w3.org/2000/svg" xmlns:xlink="http://www.w3.org/1999/xlink" width="107" height="65" viewBox="0 0 107 65">
<defs>
<filter id="filter-remove-color-and-invert-alpha" x="0%" y="0%" width="100%" height="100%">
<feColorMatrix color-interpolation-filters="sRGB" values="0 0 0 0 1 0 0 0 0 1 0 0 0 0 1 0 0 0 -1 1"/>
</filter>
<filter id="filter-0" x="0%" y="0%" width="100%" height="100%">
<feImage xlink:href="#compositing-group-1" result="source" x="0" y="0" width="128.4" height="78"/>
<feImage xlink:href="#compositing-group-2" result="destination" x="0" y="0" width="128.4" height="78"/>
<feComposite in="source" in2="destination" operator="arithmetic" k1="0" k2="1" k3="1" k4="0" color-interpolation-filters="sRGB"/>
</filter>
<g id="compositing-group-0" transform="translate(10.7, 6.5)">
<rect x="-10.7" y="-6.5" width="128.4" height="78" fill="rgb(0%, 0%, 0%)" fill-opacity="0"/>
<path fill-rule="nonzero" fill="rgb(100%, 100%, 100%)" fill-opacity="1" d="M 10 10 L 97 10 L 97 55 L 10 55 Z M 10 10 "/>
</g>
<mask id="mask-0">
<use xlink:href="#compositing-group-0"/>
</mask>
<mask id="mask-1">
<use xlink:href="#compositing-group-0" filter="url(#filter-remove-color-and-invert-alpha)"/>
</mask>
<g id="compositing-group-1" mask="url(#mask-0)">
<g transform="translate(10.7, 6.5)">
</g>
</g>
<g id="compositing-group-2" mask="url(#mask-1)">
<g transform="translate(10.7, 6.5)">
<rect x="-10.7" y="-6.5" width="128.4" height="78" fill="rgb(0%, 50.196078%, 0%)" fill-opacity="1"/>
</g>
</g>
</defs>
<g filter="url(#filter-0)" transform="translate(-10.7, -6.5)">
<rect x="0" y="0" width="128.4" height="78" fill="rgb(0%, 0%, 0%)" fill-opacity="1"/>
</g>
<path fill-rule="nonzero" fill="rgb(0%, 0%, 0%)" fill-opacity="1" d="M 12.882812 15.90625 L 15.902344 28.269531 L 18.960938 15.90625 L 21.921875 15.90625 L 25 28.195312 L 28.207031 15.90625 L 30.84375 15.90625 L 26.289062 31.59375 L 23.546875 31.59375 L 20.355469 19.449219 L 17.265625 31.59375 L 14.523438 31.59375 L 10 15.90625 Z M 33.332031 15.976562 L 36.011719 15.976562 L 36.011719 31.59375 L 33.332031 31.59375 Z M 33.332031 10.074219 L 36.011719 10.074219 L 36.011719 13.0625 L 33.332031 13.0625 Z M 40.523438 11.523438 L 43.1875 11.523438 L 43.1875 15.90625 L 45.695312 15.90625 L 45.695312 18.058594 L 43.1875 18.058594 L 43.1875 28.296875 C 43.1875 28.84375 43.375 29.210938 43.746094 29.398438 C 43.953125 29.503906 44.292969 29.558594 44.773438 29.558594 C 44.898438 29.558594 45.035156 29.554688 45.179688 29.550781 C 45.328125 29.546875 45.5 29.53125 45.695312 29.515625 L 45.695312 31.59375 C 45.390625 31.679688 45.078125 31.746094 44.75 31.785156 C 44.421875 31.824219 44.070312 31.84375 43.6875 31.84375 C 42.457031 31.84375 41.621094 31.527344 41.183594 30.898438 C 40.742188 30.269531 40.523438 29.449219 40.523438 28.445312 L 40.523438 18.058594 L 38.398438 18.058594 L 38.398438 15.90625 L 40.523438 15.90625 Z M 48.332031 10 L 50.96875 10 L 50.96875 18.03125 C 51.59375 17.238281 52.15625 16.679688 52.652344 16.359375 C 53.503906 15.804688 54.5625 15.523438 55.832031 15.523438 C 58.109375 15.523438 59.648438 16.320312 60.460938 17.914062 C 60.898438 18.78125 61.121094 19.988281 61.121094 21.53125 L 61.121094 31.59375 L 58.410156 31.59375 L 58.410156 21.707031 C 58.410156 20.554688 58.265625 19.710938 57.96875 19.171875 C 57.492188 18.3125 56.59375 17.882812 55.273438 17.882812 C 54.179688 17.882812 53.191406 18.257812 52.300781 19.011719 C 51.414062 19.761719 50.96875 21.183594 50.96875 23.273438 L 50.96875 31.59375 L 48.332031 31.59375 Z M 9.734375 8.492188 "/>
<path fill-rule="nonzero" fill="rgb(0%, 0%, 0%)" fill-opacity="1" d="M 10 32.164062 L 12.566406 32.164062 L 12.566406 39.972656 C 13.140625 39.222656 13.828125 38.648438 14.632812 38.253906 C 15.433594 37.859375 16.300781 37.660156 17.238281 37.660156 C 19.191406 37.660156 20.777344 38.332031 21.992188 39.671875 C 23.207031 41.015625 23.816406 42.996094 23.816406 45.613281 C 23.816406 48.09375 23.214844 50.15625 22.015625 51.796875 C 20.8125 53.4375 19.148438 54.257812 17.019531 54.257812 C 15.828125 54.257812 14.820312 53.96875 14 53.390625 C 13.511719 53.050781 12.992188 52.503906 12.433594 51.75 L 12.433594 53.757812 L 10 53.757812 Z M 16.859375 51.925781 C 18.285156 51.925781 19.351562 51.359375 20.058594 50.226562 C 20.765625 49.09375 21.121094 47.601562 21.121094 45.746094 C 21.121094 44.09375 20.765625 42.726562 20.058594 41.644531 C 19.351562 40.558594 18.308594 40.015625 16.929688 40.015625 C 15.730469 40.015625 14.675781 40.460938 13.773438 41.351562 C 12.871094 42.238281 12.417969 43.703125 12.417969 45.746094 C 12.417969 47.21875 12.605469 48.414062 12.976562 49.335938 C 13.667969 51.0625 14.960938 51.925781 16.859375 51.925781 Z M 33.117188 52.058594 C 34.863281 52.058594 36.0625 51.398438 36.710938 50.074219 C 37.363281 48.75 37.6875 47.277344 37.6875 45.65625 C 37.6875 44.191406 37.453125 43 36.984375 42.082031 C 36.242188 40.636719 34.960938 39.914062 33.144531 39.914062 C 31.535156 39.914062 30.363281 40.53125 29.628906 41.761719 C 28.898438 42.992188 28.53125 44.476562 28.53125 46.214844 C 28.53125 47.882812 28.898438 49.273438 29.628906 50.390625 C 30.363281 51.503906 31.523438 52.058594 33.117188 52.058594 Z M 33.21875 37.617188 C 35.238281 37.617188 36.949219 38.289062 38.347656 39.636719 C 39.742188 40.984375 40.441406 42.96875 40.441406 45.585938 C 40.441406 48.113281 39.824219 50.203125 38.59375 51.851562 C 37.363281 53.503906 35.457031 54.328125 32.867188 54.328125 C 30.707031 54.328125 28.996094 53.597656 27.726562 52.140625 C 26.457031 50.679688 25.820312 48.71875 25.820312 46.257812 C 25.820312 43.621094 26.488281 41.523438 27.828125 39.960938 C 29.167969 38.398438 30.964844 37.617188 33.21875 37.617188 Z M 43.648438 38.070312 L 46.152344 38.070312 L 46.152344 40.78125 C 46.359375 40.253906 46.859375 39.609375 47.660156 38.851562 C 48.460938 38.09375 49.382812 37.71875 50.429688 37.71875 C 50.476562 37.71875 50.5625 37.722656 50.679688 37.734375 C 50.796875 37.742188 50.996094 37.761719 51.28125 37.789062 L 51.28125 40.574219 C 51.125 40.546875 50.980469 40.523438 50.847656 40.515625 C 50.714844 40.507812 50.570312 40.5 50.414062 40.5 C 49.085938 40.5 48.066406 40.929688 47.351562 41.78125 C 46.640625 42.636719 46.285156 43.621094 46.285156 44.734375 L 46.285156 53.757812 L 43.648438 53.757812 Z M 55.234375 46.097656 C 55.234375 47.777344 55.59375 49.183594 56.304688 50.316406 C 57.019531 51.449219 58.160156 52.015625 59.734375 52.015625 C 60.953125 52.015625 61.957031 51.488281 62.742188 50.441406 C 63.53125 49.390625 63.921875 47.882812 63.921875 45.921875 C 63.921875 43.9375 63.515625 42.472656 62.707031 41.519531 C 61.898438 40.566406 60.894531 40.089844 59.703125 40.089844 C 58.375 40.089844 57.300781 40.597656 56.472656 41.613281 C 55.648438 42.628906 55.234375 44.125 55.234375 46.097656 Z M 59.207031 37.789062 C 60.40625 37.789062 61.414062 38.046875 62.222656 38.554688 C 62.691406 38.847656 63.226562 39.359375 63.820312 40.089844 L 63.820312 32.164062 L 66.355469 32.164062 L 66.355469 53.757812 L 63.980469 53.757812 L 63.980469 51.574219 C 63.367188 52.542969 62.640625 53.242188 61.796875 53.671875 C 60.957031 54.101562 59.996094 54.3125 58.914062 54.3125 C 57.164062 54.3125 55.652344 53.578125 54.371094 52.109375 C 53.09375 50.640625 52.453125 48.683594 52.453125 46.242188 C 52.453125 43.957031 53.035156 41.976562 54.203125 40.304688 C 55.371094 38.628906 57.039062 37.789062 59.207031 37.789062 Z M 76.785156 37.71875 C 77.898438 37.71875 78.976562 37.980469 80.019531 38.5 C 81.066406 39.023438 81.863281 39.699219 82.410156 40.53125 C 82.9375 41.320312 83.285156 42.242188 83.464844 43.296875 C 83.621094 44.019531 83.699219 45.171875 83.699219 46.757812 L 72.199219 46.757812 C 72.246094 48.347656 72.621094 49.625 73.324219 50.585938 C 74.027344 51.546875 75.117188 52.03125 76.59375 52.03125 C 77.96875 52.03125 79.066406 51.574219 79.886719 50.667969 C 80.355469 50.140625 80.691406 49.53125 80.886719 48.835938 L 83.476562 48.835938 C 83.410156 49.414062 83.183594 50.054688 82.796875 50.761719 C 82.410156 51.46875 81.980469 52.046875 81.5 52.5 C 80.699219 53.28125 79.707031 53.804688 78.527344 54.078125 C 77.890625 54.234375 77.175781 54.3125 76.371094 54.3125 C 74.417969 54.3125 72.765625 53.605469 71.40625 52.183594 C 70.050781 50.761719 69.371094 48.773438 69.371094 46.214844 C 69.371094 43.695312 70.054688 41.648438 71.421875 40.078125 C 72.789062 38.503906 74.574219 37.71875 76.785156 37.71875 Z M 80.988281 44.660156 C 80.878906 43.519531 80.628906 42.605469 80.238281 41.921875 C 79.515625 40.652344 78.3125 40.015625 76.621094 40.015625 C 75.410156 40.015625 74.394531 40.453125 73.574219 41.328125 C 72.753906 42.203125 72.320312 43.3125 72.269531 44.660156 Z M 87.007812 38.070312 L 89.511719 38.070312 L 89.511719 40.78125 C 89.71875 40.253906 90.21875 39.609375 91.019531 38.851562 C 91.820312 38.09375 92.742188 37.71875 93.789062 37.71875 C 93.835938 37.71875 93.921875 37.722656 94.039062 37.734375 C 94.15625 37.742188 94.355469 37.761719 94.640625 37.789062 L 94.640625 40.574219 C 94.484375 40.546875 94.339844 40.523438 94.207031 40.515625 C 94.074219 40.507812 93.929688 40.5 93.773438 40.5 C 92.445312 40.5 91.425781 40.929688 90.710938 41.78125 C 90 42.636719 89.644531 43.621094 89.644531 44.734375 L 89.644531 53.757812 L 87.007812 53.757812 Z M 8.273438 30.65625 "/>
</svg>
