<?xml version="1.0" encoding="UTF-8"?>
<svg xmlns="http://www.w3.org/2000/svg" xmlns:xlink="http://www.w3.org/1999/xlink" width="276pt" height="104pt" viewBox="0 0 276 104" version="1.1">
<g id="surface575">
<rect x="0" y="0" width="276" height="104" style="fill:rgb(0%,50.196078%,0%);fill-opacity:1;stroke:none;"/>
<path style=" stroke:none;fill-rule:nonzero;fill:rgb(100%,100%,100%);fill-opacity:1;" d="M 50 20 L 266 20 L 266 94 L 50 94 Z M 50 20 "/>
<path style=" stroke:none;fill-rule:nonzero;fill:rgb(0%,0%,0%);fill-opacity:1;" d="M 71.882812 44.605469 C 71.882812 42.628906 71.46875 41.074219 70.648438 39.949219 C 69.835938 38.816406 68.714844 38.246094 67.289062 38.246094 C 65.859375 38.246094 64.742188 38.816406 63.929688 39.949219 C 63.117188 41.074219 62.710938 42.628906 62.710938 44.605469 C 62.710938 46.585938 63.117188 48.144531 63.929688 49.277344 C 64.742188 50.402344 65.859375 50.964844 67.289062 50.964844 C 68.714844 50.964844 69.835938 50.402344 70.648438 49.277344 C 71.46875 48.144531 71.882812 46.585938 71.882812 44.605469 Z M 62.710938 38.871094 C 63.273438 37.902344 63.984375 37.183594 64.851562 36.714844 C 65.714844 36.238281 66.746094 35.996094 67.945312 35.996094 C 69.945312 35.996094 71.5625 36.789062 72.804688 38.371094 C 74.054688 39.945312 74.679688 42.023438 74.679688 44.605469 C 74.679688 47.179688 74.054688 49.257812 72.804688 50.839844 C 71.5625 52.425781 69.945312 53.214844 67.945312 53.214844 C 66.746094 53.214844 65.714844 52.980469 64.851562 52.511719 C 63.984375 52.035156 63.273438 51.304688 62.710938 50.324219 L 62.710938 52.792969 L 59.992188 52.792969 L 59.992188 29.996094 L 62.710938 29.996094 Z M 85.503906 38.277344 C 84.054688 38.277344 82.910156 38.839844 82.066406 39.964844 C 81.230469 41.089844 80.816406 42.636719 80.816406 44.605469 C 80.816406 46.566406 81.230469 48.113281 82.066406 49.246094 C 82.898438 50.371094 84.042969 50.933594 85.503906 50.933594 C 86.941406 50.933594 88.074219 50.367188 88.910156 49.230469 C 89.753906 48.097656 90.175781 46.554688 90.175781 44.605469 C 90.175781 42.660156 89.753906 41.117188 88.910156 39.980469 C 88.074219 38.847656 86.941406 38.277344 85.503906 38.277344 Z M 85.503906 35.996094 C 87.847656 35.996094 89.683594 36.757812 91.019531 38.277344 C 92.363281 39.800781 93.035156 41.910156 93.035156 44.605469 C 93.035156 47.292969 92.363281 49.402344 91.019531 50.933594 C 89.683594 52.457031 87.847656 53.214844 85.503906 53.214844 C 83.148438 53.214844 81.304688 52.457031 79.972656 50.933594 C 78.636719 49.402344 77.972656 47.292969 77.972656 44.605469 C 77.972656 41.910156 78.636719 39.800781 79.972656 38.277344 C 81.304688 36.757812 83.148438 35.996094 85.503906 35.996094 Z M 107 38.902344 C 106.695312 38.726562 106.367188 38.597656 106.015625 38.511719 C 105.660156 38.429688 105.269531 38.386719 104.84375 38.386719 C 103.3125 38.386719 102.140625 38.886719 101.328125 39.886719 C 100.515625 40.878906 100.109375 42.300781 100.109375 44.152344 L 100.109375 52.792969 L 97.390625 52.792969 L 97.390625 36.386719 L 100.109375 36.386719 L 100.109375 38.933594 C 100.671875 37.933594 101.40625 37.195312 102.3125 36.714844 C 103.226562 36.238281 104.332031 35.996094 105.625 35.996094 C 105.8125 35.996094 106.015625 36.007812 106.234375 36.027344 C 106.460938 36.050781 106.710938 36.085938 106.984375 36.136719 Z M 120.101562 38.871094 L 120.101562 29.996094 L 122.789062 29.996094 L 122.789062 52.792969 L 120.101562 52.792969 L 120.101562 50.324219 C 119.539062 51.304688 118.824219 52.035156 117.960938 52.511719 C 117.09375 52.980469 116.054688 53.214844 114.835938 53.214844 C 112.855469 53.214844 111.242188 52.425781 109.992188 50.839844 C 108.75 49.257812 108.132812 47.179688 108.132812 44.605469 C 108.132812 42.023438 108.75 39.945312 109.992188 38.371094 C 111.242188 36.789062 112.855469 35.996094 114.835938 35.996094 C 116.054688 35.996094 117.09375 36.238281 117.960938 36.714844 C 118.824219 37.183594 119.539062 37.902344 120.101562 38.871094 Z M 110.914062 44.605469 C 110.914062 46.585938 111.320312 48.144531 112.132812 49.277344 C 112.953125 50.402344 114.078125 50.964844 115.507812 50.964844 C 116.921875 50.964844 118.042969 50.402344 118.867188 49.277344 C 119.6875 48.144531 120.101562 46.585938 120.101562 44.605469 C 120.101562 42.628906 119.6875 41.074219 118.867188 39.949219 C 118.042969 38.816406 116.921875 38.246094 115.507812 38.246094 C 114.078125 38.246094 112.953125 38.816406 112.132812 39.949219 C 111.320312 41.074219 110.914062 42.628906 110.914062 44.605469 Z M 142.378906 43.917969 L 142.378906 45.230469 L 129.988281 45.230469 C 130.101562 47.085938 130.660156 48.503906 131.660156 49.480469 C 132.660156 50.449219 134.054688 50.933594 135.847656 50.933594 C 136.878906 50.933594 137.878906 50.808594 138.847656 50.558594 C 139.824219 50.300781 140.792969 49.914062 141.753906 49.402344 L 141.753906 51.964844 C 140.785156 52.371094 139.789062 52.679688 138.769531 52.886719 C 137.757812 53.105469 136.730469 53.214844 135.691406 53.214844 C 133.066406 53.214844 130.988281 52.457031 129.457031 50.933594 C 127.933594 49.414062 127.175781 47.351562 127.175781 44.746094 C 127.175781 42.058594 127.898438 39.929688 129.347656 38.355469 C 130.792969 36.785156 132.753906 35.996094 135.222656 35.996094 C 137.429688 35.996094 139.175781 36.707031 140.457031 38.121094 C 141.738281 39.539062 142.378906 41.472656 142.378906 43.917969 Z M 139.691406 43.121094 C 139.667969 41.652344 139.253906 40.480469 138.441406 39.605469 C 137.636719 38.722656 136.574219 38.277344 135.253906 38.277344 C 133.742188 38.277344 132.535156 38.707031 131.628906 39.558594 C 130.730469 40.402344 130.214844 41.597656 130.082031 43.136719 Z M 156.304688 38.902344 C 156 38.726562 155.671875 38.597656 155.320312 38.511719 C 154.964844 38.429688 154.574219 38.386719 154.148438 38.386719 C 152.617188 38.386719 151.445312 38.886719 150.632812 39.886719 C 149.820312 40.878906 149.414062 42.300781 149.414062 44.152344 L 149.414062 52.792969 L 146.695312 52.792969 L 146.695312 36.386719 L 149.414062 36.386719 L 149.414062 38.933594 C 149.976562 37.933594 150.710938 37.195312 151.617188 36.714844 C 152.53125 36.238281 153.636719 35.996094 154.929688 35.996094 C 155.117188 35.996094 155.320312 36.007812 155.539062 36.027344 C 155.765625 36.050781 156.015625 36.085938 156.289062 36.136719 Z M 57.273438 24.945312 "/>
<path style=" stroke:none;fill-rule:nonzero;fill:rgb(0%,0%,0%);fill-opacity:1;" d="M 68.480469 73.578125 C 66.300781 73.578125 64.792969 73.828125 63.949219 74.328125 C 63.113281 74.828125 62.699219 75.679688 62.699219 76.875 C 62.699219 77.835938 63.011719 78.59375 63.636719 79.15625 C 64.269531 79.71875 65.128906 80 66.214844 80 C 67.703125 80 68.902344 79.46875 69.808594 78.40625 C 70.714844 77.34375 71.167969 75.9375 71.167969 74.1875 L 71.167969 73.578125 Z M 73.855469 72.46875 L 73.855469 81.828125 L 71.167969 81.828125 L 71.167969 79.34375 C 70.550781 80.335938 69.78125 81.070312 68.855469 81.546875 C 67.9375 82.015625 66.816406 82.25 65.496094 82.25 C 63.816406 82.25 62.480469 81.78125 61.480469 80.84375 C 60.488281 79.898438 59.996094 78.632812 59.996094 77.046875 C 59.996094 75.203125 60.613281 73.8125 61.855469 72.875 C 63.09375 71.9375 64.9375 71.46875 67.386719 71.46875 L 71.167969 71.46875 L 71.167969 71.203125 C 71.167969 69.964844 70.753906 69.007812 69.933594 68.328125 C 69.121094 67.652344 67.980469 67.3125 66.511719 67.3125 C 65.574219 67.3125 64.65625 67.429688 63.761719 67.65625 C 62.875 67.875 62.019531 68.210938 61.199219 68.65625 L 61.199219 66.171875 C 62.1875 65.789062 63.144531 65.5 64.074219 65.3125 C 65 65.125 65.902344 65.03125 66.777344 65.03125 C 69.152344 65.03125 70.921875 65.648438 72.089844 66.875 C 73.265625 68.105469 73.855469 69.96875 73.855469 72.46875 Z M 93.050781 71.921875 L 93.050781 81.828125 L 90.347656 81.828125 L 90.347656 72.015625 C 90.347656 70.464844 90.042969 69.304688 89.441406 68.53125 C 88.835938 67.761719 87.929688 67.375 86.722656 67.375 C 85.261719 67.375 84.113281 67.839844 83.269531 68.765625 C 82.433594 69.695312 82.019531 70.960938 82.019531 72.5625 L 82.019531 81.828125 L 79.300781 81.828125 L 79.300781 65.421875 L 82.019531 65.421875 L 82.019531 67.96875 C 82.664062 66.980469 83.425781 66.246094 84.300781 65.765625 C 85.175781 65.277344 86.179688 65.03125 87.316406 65.03125 C 89.199219 65.03125 90.628906 65.617188 91.597656 66.78125 C 92.566406 67.949219 93.050781 69.664062 93.050781 71.921875 Z M 109.222656 67.90625 L 109.222656 59.03125 L 111.910156 59.03125 L 111.910156 81.828125 L 109.222656 81.828125 L 109.222656 79.359375 C 108.660156 80.339844 107.945312 81.070312 107.082031 81.546875 C 106.214844 82.015625 105.175781 82.25 103.957031 82.25 C 101.976562 82.25 100.363281 81.460938 99.113281 79.875 C 97.871094 78.292969 97.253906 76.214844 97.253906 73.640625 C 97.253906 71.058594 97.871094 68.980469 99.113281 67.40625 C 100.363281 65.824219 101.976562 65.03125 103.957031 65.03125 C 105.175781 65.03125 106.214844 65.273438 107.082031 65.75 C 107.945312 66.21875 108.660156 66.9375 109.222656 67.90625 Z M 100.035156 73.640625 C 100.035156 75.621094 100.441406 77.179688 101.253906 78.3125 C 102.074219 79.4375 103.199219 80 104.628906 80 C 106.042969 80 107.164062 79.4375 107.988281 78.3125 C 108.808594 77.179688 109.222656 75.621094 109.222656 73.640625 C 109.222656 71.664062 108.808594 70.109375 107.988281 68.984375 C 107.164062 67.851562 106.042969 67.28125 104.628906 67.28125 C 103.199219 67.28125 102.074219 67.851562 101.253906 68.984375 C 100.441406 70.109375 100.035156 71.664062 100.035156 73.640625 Z M 129.613281 79.359375 L 129.613281 88.0625 L 126.894531 88.0625 L 126.894531 65.421875 L 129.613281 65.421875 L 129.613281 67.90625 C 130.175781 66.9375 130.886719 66.21875 131.753906 65.75 C 132.617188 65.273438 133.648438 65.03125 134.847656 65.03125 C 136.847656 65.03125 138.464844 65.824219 139.707031 67.40625 C 140.957031 68.980469 141.582031 71.058594 141.582031 73.640625 C 141.582031 76.214844 140.957031 78.292969 139.707031 79.875 C 138.464844 81.460938 136.847656 82.25 134.847656 82.25 C 133.648438 82.25 132.617188 82.015625 131.753906 81.546875 C 130.886719 81.070312 130.175781 80.339844 129.613281 79.359375 Z M 138.785156 73.640625 C 138.785156 71.664062 138.371094 70.109375 137.550781 68.984375 C 136.738281 67.851562 135.617188 67.28125 134.191406 67.28125 C 132.761719 67.28125 131.644531 67.851562 130.832031 68.984375 C 130.019531 70.109375 129.613281 71.664062 129.613281 73.640625 C 129.613281 75.621094 130.019531 77.179688 130.832031 78.3125 C 131.644531 79.4375 132.761719 80 134.191406 80 C 135.617188 80 136.738281 79.4375 137.550781 78.3125 C 138.371094 77.179688 138.785156 75.621094 138.785156 73.640625 Z M 153.5 73.578125 C 151.320312 73.578125 149.8125 73.828125 148.96875 74.328125 C 148.132812 74.828125 147.71875 75.679688 147.71875 76.875 C 147.71875 77.835938 148.03125 78.59375 148.65625 79.15625 C 149.289062 79.71875 150.148438 80 151.234375 80 C 152.722656 80 153.921875 79.46875 154.828125 78.40625 C 155.734375 77.34375 156.1875 75.9375 156.1875 74.1875 L 156.1875 73.578125 Z M 158.875 72.46875 L 158.875 81.828125 L 156.1875 81.828125 L 156.1875 79.34375 C 155.570312 80.335938 154.800781 81.070312 153.875 81.546875 C 152.957031 82.015625 151.835938 82.25 150.515625 82.25 C 148.835938 82.25 147.5 81.78125 146.5 80.84375 C 145.507812 79.898438 145.015625 78.632812 145.015625 77.046875 C 145.015625 75.203125 145.632812 73.8125 146.875 72.875 C 148.113281 71.9375 149.957031 71.46875 152.40625 71.46875 L 156.1875 71.46875 L 156.1875 71.203125 C 156.1875 69.964844 155.773438 69.007812 154.953125 68.328125 C 154.140625 67.652344 153 67.3125 151.53125 67.3125 C 150.59375 67.3125 149.675781 67.429688 148.78125 67.65625 C 147.894531 67.875 147.039062 68.210938 146.21875 68.65625 L 146.21875 66.171875 C 147.207031 65.789062 148.164062 65.5 149.09375 65.3125 C 150.019531 65.125 150.921875 65.03125 151.796875 65.03125 C 154.171875 65.03125 155.941406 65.648438 157.109375 66.875 C 158.285156 68.105469 158.875 69.96875 158.875 72.46875 Z M 175.226562 67.90625 L 175.226562 59.03125 L 177.914062 59.03125 L 177.914062 81.828125 L 175.226562 81.828125 L 175.226562 79.359375 C 174.664062 80.339844 173.949219 81.070312 173.085938 81.546875 C 172.21875 82.015625 171.179688 82.25 169.960938 82.25 C 167.980469 82.25 166.367188 81.460938 165.117188 79.875 C 163.875 78.292969 163.257812 76.214844 163.257812 73.640625 C 163.257812 71.058594 163.875 68.980469 165.117188 67.40625 C 166.367188 65.824219 167.980469 65.03125 169.960938 65.03125 C 171.179688 65.03125 172.21875 65.273438 173.085938 65.75 C 173.949219 66.21875 174.664062 66.9375 175.226562 67.90625 Z M 166.039062 73.640625 C 166.039062 75.621094 166.445312 77.179688 167.257812 78.3125 C 168.078125 79.4375 169.203125 80 170.632812 80 C 172.046875 80 173.167969 79.4375 173.992188 78.3125 C 174.8125 77.179688 175.226562 75.621094 175.226562 73.640625 C 175.226562 71.664062 174.8125 70.109375 173.992188 68.984375 C 173.167969 67.851562 172.046875 67.28125 170.632812 67.28125 C 169.203125 67.28125 168.078125 67.851562 167.257812 68.984375 C 166.445312 70.109375 166.039062 71.664062 166.039062 73.640625 Z M 194.269531 67.90625 L 194.269531 59.03125 L 196.957031 59.03125 L 196.957031 81.828125 L 194.269531 81.828125 L 194.269531 79.359375 C 193.707031 80.339844 192.992188 81.070312 192.128906 81.546875 C 191.261719 82.015625 190.222656 82.25 189.003906 82.25 C 187.023438 82.25 185.410156 81.460938 184.160156 79.875 C 182.917969 78.292969 182.300781 76.214844 182.300781 73.640625 C 182.300781 71.058594 182.917969 68.980469 184.160156 67.40625 C 185.410156 65.824219 187.023438 65.03125 189.003906 65.03125 C 190.222656 65.03125 191.261719 65.273438 192.128906 65.75 C 192.992188 66.21875 193.707031 66.9375 194.269531 67.90625 Z M 185.082031 73.640625 C 185.082031 75.621094 185.488281 77.179688 186.300781 78.3125 C 187.121094 79.4375 188.246094 80 189.675781 80 C 191.089844 80 192.210938 79.4375 193.035156 78.3125 C 193.855469 77.179688 194.269531 75.621094 194.269531 73.640625 C 194.269531 71.664062 193.855469 70.109375 193.035156 68.984375 C 192.210938 67.851562 191.089844 67.28125 189.675781 67.28125 C 188.246094 67.28125 187.121094 67.851562 186.300781 68.984375 C 185.488281 70.109375 185.082031 71.664062 185.082031 73.640625 Z M 202.515625 65.421875 L 205.203125 65.421875 L 205.203125 81.828125 L 202.515625 81.828125 Z M 202.515625 59.03125 L 205.203125 59.03125 L 205.203125 62.453125 L 202.515625 62.453125 Z M 224.492188 71.921875 L 224.492188 81.828125 L 221.789062 81.828125 L 221.789062 72.015625 C 221.789062 70.464844 221.484375 69.304688 220.882812 68.53125 C 220.277344 67.761719 219.371094 67.375 218.164062 67.375 C 216.703125 67.375 215.554688 67.839844 214.710938 68.765625 C 213.875 69.695312 213.460938 70.960938 213.460938 72.5625 L 213.460938 81.828125 L 210.742188 81.828125 L 210.742188 65.421875 L 213.460938 65.421875 L 213.460938 67.96875 C 214.105469 66.980469 214.867188 66.246094 215.742188 65.765625 C 216.617188 65.277344 217.621094 65.03125 218.757812 65.03125 C 220.640625 65.03125 222.070312 65.617188 223.039062 66.78125 C 224.007812 67.949219 224.492188 69.664062 224.492188 71.921875 Z M 240.664062 73.4375 C 240.664062 71.480469 240.257812 69.964844 239.445312 68.890625 C 238.640625 67.820312 237.515625 67.28125 236.070312 67.28125 C 234.621094 67.28125 233.492188 67.820312 232.679688 68.890625 C 231.875 69.964844 231.476562 71.480469 231.476562 73.4375 C 231.476562 75.375 231.875 76.886719 232.679688 77.96875 C 233.492188 79.042969 234.621094 79.578125 236.070312 79.578125 C 237.515625 79.578125 238.640625 79.042969 239.445312 77.96875 C 240.257812 76.886719 240.664062 75.375 240.664062 73.4375 Z M 243.351562 79.796875 C 243.351562 82.585938 242.730469 84.660156 241.492188 86.015625 C 240.25 87.378906 238.355469 88.0625 235.804688 88.0625 C 234.855469 88.0625 233.960938 87.988281 233.117188 87.84375 C 232.273438 87.707031 231.460938 87.492188 230.679688 87.203125 L 230.679688 84.578125 C 231.460938 85.015625 232.234375 85.332031 233.007812 85.53125 C 233.789062 85.738281 234.574219 85.84375 235.367188 85.84375 C 237.136719 85.84375 238.460938 85.378906 239.335938 84.453125 C 240.21875 83.535156 240.664062 82.144531 240.664062 80.28125 L 240.664062 78.9375 C 240.101562 79.90625 239.386719 80.632812 238.523438 81.109375 C 237.65625 81.589844 236.617188 81.828125 235.398438 81.828125 C 233.386719 81.828125 231.765625 81.0625 230.539062 79.53125 C 229.308594 78 228.695312 75.96875 228.695312 73.4375 C 228.695312 70.898438 229.308594 68.859375 230.539062 67.328125 C 231.765625 65.796875 233.386719 65.03125 235.398438 65.03125 C 236.617188 65.03125 237.65625 65.273438 238.523438 65.75 C 239.386719 66.230469 240.101562 66.949219 240.664062 67.90625 L 240.664062 65.421875 L 243.351562 65.421875 Z M 58.199219 53.980469 "/>
</g>
</svg>
