<?xml version="1.0" encoding="UTF-8"?>
<svg xmlns="http://www.w3.org/2000/svg" xmlns:xlink="http://www.w3.org/1999/xlink" width="132pt" height="59pt" viewBox="0 0 132 59" version="1.1">
<g id="surface775">
<path style=" stroke:none;fill-rule:nonzero;fill:rgb(0%,0%,0%);fill-opacity:1;" d="M 3.304688 1.730469 L 3.304688 6.386719 L 8.851562 6.386719 L 8.851562 8.480469 L 3.304688 8.480469 L 3.304688 17.386719 C 3.304688 18.722656 3.484375 19.582031 3.851562 19.964844 C 4.214844 20.351562 4.960938 20.542969 6.085938 20.542969 L 8.851562 20.542969 L 8.851562 22.792969 L 6.085938 22.792969 C 4 22.792969 2.5625 22.410156 1.773438 21.636719 C 0.980469 20.855469 0.585938 19.441406 0.585938 17.386719 L 0.585938 8.480469 L -1.382812 8.480469 L -1.382812 6.386719 L 0.585938 6.386719 L 0.585938 1.730469 Z M 26.425781 13.917969 L 26.425781 15.230469 L 14.035156 15.230469 C 14.148438 17.085938 14.707031 18.503906 15.707031 19.480469 C 16.707031 20.449219 18.101562 20.933594 19.894531 20.933594 C 20.925781 20.933594 21.925781 20.808594 22.894531 20.558594 C 23.871094 20.300781 24.839844 19.914062 25.800781 19.402344 L 25.800781 21.964844 C 24.832031 22.371094 23.835938 22.679688 22.816406 22.886719 C 21.804688 23.105469 20.777344 23.214844 19.738281 23.214844 C 17.113281 23.214844 15.035156 22.457031 13.503906 20.933594 C 11.980469 19.414062 11.222656 17.351562 11.222656 14.746094 C 11.222656 12.058594 11.945312 9.929688 13.394531 8.355469 C 14.839844 6.785156 16.800781 5.996094 19.269531 5.996094 C 21.476562 5.996094 23.222656 6.707031 24.503906 8.121094 C 25.785156 9.539062 26.425781 11.472656 26.425781 13.917969 Z M 23.738281 13.121094 C 23.714844 11.652344 23.300781 10.480469 22.488281 9.605469 C 21.683594 8.722656 20.621094 8.277344 19.300781 8.277344 C 17.789062 8.277344 16.582031 8.707031 15.675781 9.558594 C 14.777344 10.402344 14.261719 11.597656 14.128906 13.136719 Z M 43.964844 6.386719 L 38.027344 14.371094 L 44.261719 22.792969 L 41.089844 22.792969 L 36.308594 16.339844 L 31.542969 22.792969 L 28.355469 22.792969 L 34.730469 14.214844 L 28.902344 6.386719 L 32.074219 6.386719 L 36.433594 12.230469 L 40.777344 6.386719 Z M 50.75 1.730469 L 50.75 6.386719 L 56.296875 6.386719 L 56.296875 8.480469 L 50.75 8.480469 L 50.75 17.386719 C 50.75 18.722656 50.929688 19.582031 51.296875 19.964844 C 51.660156 20.351562 52.40625 20.542969 53.53125 20.542969 L 56.296875 20.542969 L 56.296875 22.792969 L 53.53125 22.792969 C 51.445312 22.792969 50.007812 22.410156 49.21875 21.636719 C 48.425781 20.855469 48.03125 19.441406 48.03125 17.386719 L 48.03125 8.480469 L 46.0625 8.480469 L 46.0625 6.386719 L 48.03125 6.386719 L 48.03125 1.730469 Z M 67.265625 3.839844 L 63.25 14.714844 L 71.296875 14.714844 Z M 65.59375 0.917969 L 68.953125 0.917969 L 77.296875 22.792969 L 74.21875 22.792969 L 72.21875 17.183594 L 62.359375 17.183594 L 60.375 22.792969 L 57.25 22.792969 Z M 80.363281 -0.00390625 L 83.050781 -0.00390625 L 83.050781 22.792969 L 80.363281 22.792969 Z M 88.699219 6.386719 L 91.386719 6.386719 L 91.386719 22.792969 L 88.699219 22.792969 Z M 88.699219 -0.00390625 L 91.386719 -0.00390625 L 91.386719 3.417969 L 88.699219 3.417969 Z M 107.832031 14.402344 C 107.832031 12.445312 107.425781 10.929688 106.613281 9.855469 C 105.808594 8.785156 104.683594 8.246094 103.238281 8.246094 C 101.789062 8.246094 100.660156 8.785156 99.847656 9.855469 C 99.042969 10.929688 98.644531 12.445312 98.644531 14.402344 C 98.644531 16.339844 99.042969 17.851562 99.847656 18.933594 C 100.660156 20.007812 101.789062 20.542969 103.238281 20.542969 C 104.683594 20.542969 105.808594 20.007812 106.613281 18.933594 C 107.425781 17.851562 107.832031 16.339844 107.832031 14.402344 Z M 110.519531 20.761719 C 110.519531 23.550781 109.898438 25.625 108.660156 26.980469 C 107.417969 28.34375 105.523438 29.027344 102.972656 29.027344 C 102.023438 29.027344 101.128906 28.953125 100.285156 28.808594 C 99.441406 28.671875 98.628906 28.457031 97.847656 28.167969 L 97.847656 25.542969 C 98.628906 25.980469 99.402344 26.296875 100.175781 26.496094 C 100.957031 26.703125 101.742188 26.808594 102.535156 26.808594 C 104.304688 26.808594 105.628906 26.34375 106.503906 25.417969 C 107.386719 24.5 107.832031 23.109375 107.832031 21.246094 L 107.832031 19.902344 C 107.269531 20.871094 106.554688 21.597656 105.691406 22.074219 C 104.824219 22.554688 103.785156 22.792969 102.566406 22.792969 C 100.554688 22.792969 98.933594 22.027344 97.707031 20.496094 C 96.476562 18.964844 95.863281 16.933594 95.863281 14.402344 C 95.863281 11.863281 96.476562 9.824219 97.707031 8.292969 C 98.933594 6.761719 100.554688 5.996094 102.566406 5.996094 C 103.785156 5.996094 104.824219 6.238281 105.691406 6.714844 C 106.554688 7.195312 107.269531 7.914062 107.832031 8.871094 L 107.832031 6.386719 L 110.519531 6.386719 Z M 129.71875 12.886719 L 129.71875 22.792969 L 127.015625 22.792969 L 127.015625 12.980469 C 127.015625 11.429688 126.710938 10.269531 126.109375 9.496094 C 125.503906 8.726562 124.597656 8.339844 123.390625 8.339844 C 121.929688 8.339844 120.78125 8.804688 119.9375 9.730469 C 119.101562 10.660156 118.6875 11.925781 118.6875 13.527344 L 118.6875 22.792969 L 115.96875 22.792969 L 115.96875 6.386719 L 118.6875 6.386719 L 118.6875 8.933594 C 119.332031 7.945312 120.09375 7.210938 120.96875 6.730469 C 121.84375 6.242188 122.847656 5.996094 123.984375 5.996094 C 125.867188 5.996094 127.296875 6.582031 128.265625 7.746094 C 129.234375 8.914062 129.71875 10.628906 129.71875 12.886719 Z M -2.195312 -5.054688 "/>
<path style=" stroke:none;fill-rule:nonzero;fill:rgb(0%,0%,0%);fill-opacity:1;" d="M 76.054688 37.9375 C 75.75 37.761719 75.421875 37.632812 75.070312 37.546875 C 74.714844 37.464844 74.324219 37.421875 73.898438 37.421875 C 72.367188 37.421875 71.195312 37.921875 70.382812 38.921875 C 69.570312 39.914062 69.164062 41.335938 69.164062 43.1875 L 69.164062 51.828125 L 66.445312 51.828125 L 66.445312 35.421875 L 69.164062 35.421875 L 69.164062 37.96875 C 69.726562 36.96875 70.460938 36.230469 71.367188 35.75 C 72.28125 35.273438 73.386719 35.03125 74.679688 35.03125 C 74.867188 35.03125 75.070312 35.042969 75.289062 35.0625 C 75.515625 35.085938 75.765625 35.121094 76.039062 35.171875 Z M 78.890625 35.421875 L 81.578125 35.421875 L 81.578125 51.828125 L 78.890625 51.828125 Z M 78.890625 29.03125 L 81.578125 29.03125 L 81.578125 32.453125 L 78.890625 32.453125 Z M 98.019531 43.4375 C 98.019531 41.480469 97.613281 39.964844 96.800781 38.890625 C 95.996094 37.820312 94.871094 37.28125 93.425781 37.28125 C 91.976562 37.28125 90.847656 37.820312 90.035156 38.890625 C 89.230469 39.964844 88.832031 41.480469 88.832031 43.4375 C 88.832031 45.375 89.230469 46.886719 90.035156 47.96875 C 90.847656 49.042969 91.976562 49.578125 93.425781 49.578125 C 94.871094 49.578125 95.996094 49.042969 96.800781 47.96875 C 97.613281 46.886719 98.019531 45.375 98.019531 43.4375 Z M 100.707031 49.796875 C 100.707031 52.585938 100.085938 54.660156 98.847656 56.015625 C 97.605469 57.378906 95.710938 58.0625 93.160156 58.0625 C 92.210938 58.0625 91.316406 57.988281 90.472656 57.84375 C 89.628906 57.707031 88.816406 57.492188 88.035156 57.203125 L 88.035156 54.578125 C 88.816406 55.015625 89.589844 55.332031 90.363281 55.53125 C 91.144531 55.738281 91.929688 55.84375 92.722656 55.84375 C 94.492188 55.84375 95.816406 55.378906 96.691406 54.453125 C 97.574219 53.535156 98.019531 52.144531 98.019531 50.28125 L 98.019531 48.9375 C 97.457031 49.90625 96.742188 50.632812 95.878906 51.109375 C 95.011719 51.589844 93.972656 51.828125 92.753906 51.828125 C 90.742188 51.828125 89.121094 51.0625 87.894531 49.53125 C 86.664062 48 86.050781 45.96875 86.050781 43.4375 C 86.050781 40.898438 86.664062 38.859375 87.894531 37.328125 C 89.121094 35.796875 90.742188 35.03125 92.753906 35.03125 C 93.972656 35.03125 95.011719 35.273438 95.878906 35.75 C 96.742188 36.230469 97.457031 36.949219 98.019531 37.90625 L 98.019531 35.421875 L 100.707031 35.421875 Z M 119.90625 41.921875 L 119.90625 51.828125 L 117.203125 51.828125 L 117.203125 42.015625 C 117.203125 40.464844 116.898438 39.304688 116.296875 38.53125 C 115.691406 37.761719 114.785156 37.375 113.578125 37.375 C 112.117188 37.375 110.96875 37.839844 110.125 38.765625 C 109.289062 39.695312 108.875 40.960938 108.875 42.5625 L 108.875 51.828125 L 106.15625 51.828125 L 106.15625 29.03125 L 108.875 29.03125 L 108.875 37.96875 C 109.519531 36.980469 110.28125 36.246094 111.15625 35.765625 C 112.03125 35.277344 113.035156 35.03125 114.171875 35.03125 C 116.054688 35.03125 117.484375 35.617188 118.453125 36.78125 C 119.421875 37.949219 119.90625 39.664062 119.90625 41.921875 Z M 127.953125 30.765625 L 127.953125 35.421875 L 133.5 35.421875 L 133.5 37.515625 L 127.953125 37.515625 L 127.953125 46.421875 C 127.953125 47.757812 128.132812 48.617188 128.5 49 C 128.863281 49.386719 129.609375 49.578125 130.734375 49.578125 L 133.5 49.578125 L 133.5 51.828125 L 130.734375 51.828125 C 128.648438 51.828125 127.210938 51.445312 126.421875 50.671875 C 125.628906 49.890625 125.234375 48.476562 125.234375 46.421875 L 125.234375 37.515625 L 123.265625 37.515625 L 123.265625 35.421875 L 125.234375 35.421875 L 125.234375 30.765625 Z M 63.726562 23.980469 "/>
</g>
</svg>
