<?xml version="1.0" encoding="UTF-8"?>
<svg xmlns="http://www.w3.org/2000/svg" xmlns:xlink="http://www.w3.org/1999/xlink" width="132pt" height="53pt" viewBox="0 0 132 53" version="1.1">
<g id="surface725">
<path style=" stroke:none;fill-rule:nonzero;fill:rgb(0%,0%,0%);fill-opacity:1;" d="M 4.453125 1.730469 L 4.453125 6.386719 L 10 6.386719 L 10 8.480469 L 4.453125 8.480469 L 4.453125 17.386719 C 4.453125 18.722656 4.632812 19.582031 5 19.964844 C 5.363281 20.351562 6.109375 20.542969 7.234375 20.542969 L 10 20.542969 L 10 22.792969 L 7.234375 22.792969 C 5.148438 22.792969 3.710938 22.410156 2.921875 21.636719 C 2.128906 20.855469 1.734375 19.441406 1.734375 17.386719 L 1.734375 8.480469 L -0.234375 8.480469 L -0.234375 6.386719 L 1.734375 6.386719 L 1.734375 1.730469 Z M 27.574219 13.917969 L 27.574219 15.230469 L 15.183594 15.230469 C 15.296875 17.085938 15.855469 18.503906 16.855469 19.480469 C 17.855469 20.449219 19.25 20.933594 21.042969 20.933594 C 22.074219 20.933594 23.074219 20.808594 24.042969 20.558594 C 25.019531 20.300781 25.988281 19.914062 26.949219 19.402344 L 26.949219 21.964844 C 25.980469 22.371094 24.984375 22.679688 23.964844 22.886719 C 22.953125 23.105469 21.925781 23.214844 20.886719 23.214844 C 18.261719 23.214844 16.183594 22.457031 14.652344 20.933594 C 13.128906 19.414062 12.371094 17.351562 12.371094 14.746094 C 12.371094 12.058594 13.09375 9.929688 14.542969 8.355469 C 15.988281 6.785156 17.949219 5.996094 20.417969 5.996094 C 22.625 5.996094 24.371094 6.707031 25.652344 8.121094 C 26.933594 9.539062 27.574219 11.472656 27.574219 13.917969 Z M 24.886719 13.121094 C 24.863281 11.652344 24.449219 10.480469 23.636719 9.605469 C 22.832031 8.722656 21.769531 8.277344 20.449219 8.277344 C 18.9375 8.277344 17.730469 8.707031 16.824219 9.558594 C 15.925781 10.402344 15.410156 11.597656 15.277344 13.136719 Z M 45.113281 6.386719 L 39.175781 14.371094 L 45.410156 22.792969 L 42.238281 22.792969 L 37.457031 16.339844 L 32.691406 22.792969 L 29.503906 22.792969 L 35.878906 14.214844 L 30.050781 6.386719 L 33.222656 6.386719 L 37.582031 12.230469 L 41.925781 6.386719 Z M 51.898438 1.730469 L 51.898438 6.386719 L 57.445312 6.386719 L 57.445312 8.480469 L 51.898438 8.480469 L 51.898438 17.386719 C 51.898438 18.722656 52.078125 19.582031 52.445312 19.964844 C 52.808594 20.351562 53.554688 20.542969 54.679688 20.542969 L 57.445312 20.542969 L 57.445312 22.792969 L 54.679688 22.792969 C 52.59375 22.792969 51.15625 22.410156 50.367188 21.636719 C 49.574219 20.855469 49.179688 19.441406 49.179688 17.386719 L 49.179688 8.480469 L 47.210938 8.480469 L 47.210938 6.386719 L 49.179688 6.386719 L 49.179688 1.730469 Z M 68.414062 3.839844 L 64.398438 14.714844 L 72.445312 14.714844 Z M 66.742188 0.917969 L 70.101562 0.917969 L 78.445312 22.792969 L 75.367188 22.792969 L 73.367188 17.183594 L 63.507812 17.183594 L 61.523438 22.792969 L 58.398438 22.792969 Z M 81.511719 -0.00390625 L 84.199219 -0.00390625 L 84.199219 22.792969 L 81.511719 22.792969 Z M 89.847656 6.386719 L 92.535156 6.386719 L 92.535156 22.792969 L 89.847656 22.792969 Z M 89.847656 -0.00390625 L 92.535156 -0.00390625 L 92.535156 3.417969 L 89.847656 3.417969 Z M 108.980469 14.402344 C 108.980469 12.445312 108.574219 10.929688 107.761719 9.855469 C 106.957031 8.785156 105.832031 8.246094 104.386719 8.246094 C 102.9375 8.246094 101.808594 8.785156 100.996094 9.855469 C 100.191406 10.929688 99.792969 12.445312 99.792969 14.402344 C 99.792969 16.339844 100.191406 17.851562 100.996094 18.933594 C 101.808594 20.007812 102.9375 20.542969 104.386719 20.542969 C 105.832031 20.542969 106.957031 20.007812 107.761719 18.933594 C 108.574219 17.851562 108.980469 16.339844 108.980469 14.402344 Z M 111.667969 20.761719 C 111.667969 23.550781 111.046875 25.625 109.808594 26.980469 C 108.566406 28.34375 106.671875 29.027344 104.121094 29.027344 C 103.171875 29.027344 102.277344 28.953125 101.433594 28.808594 C 100.589844 28.671875 99.777344 28.457031 98.996094 28.167969 L 98.996094 25.542969 C 99.777344 25.980469 100.550781 26.296875 101.324219 26.496094 C 102.105469 26.703125 102.890625 26.808594 103.683594 26.808594 C 105.453125 26.808594 106.777344 26.34375 107.652344 25.417969 C 108.535156 24.5 108.980469 23.109375 108.980469 21.246094 L 108.980469 19.902344 C 108.417969 20.871094 107.703125 21.597656 106.839844 22.074219 C 105.972656 22.554688 104.933594 22.792969 103.714844 22.792969 C 101.703125 22.792969 100.082031 22.027344 98.855469 20.496094 C 97.625 18.964844 97.011719 16.933594 97.011719 14.402344 C 97.011719 11.863281 97.625 9.824219 98.855469 8.292969 C 100.082031 6.761719 101.703125 5.996094 103.714844 5.996094 C 104.933594 5.996094 105.972656 6.238281 106.839844 6.714844 C 107.703125 7.195312 108.417969 7.914062 108.980469 8.871094 L 108.980469 6.386719 L 111.667969 6.386719 Z M 130.867188 12.886719 L 130.867188 22.792969 L 128.164062 22.792969 L 128.164062 12.980469 C 128.164062 11.429688 127.859375 10.269531 127.257812 9.496094 C 126.652344 8.726562 125.746094 8.339844 124.539062 8.339844 C 123.078125 8.339844 121.929688 8.804688 121.085938 9.730469 C 120.25 10.660156 119.835938 11.925781 119.835938 13.527344 L 119.835938 22.792969 L 117.117188 22.792969 L 117.117188 6.386719 L 119.835938 6.386719 L 119.835938 8.933594 C 120.480469 7.945312 121.242188 7.210938 122.117188 6.730469 C 122.992188 6.242188 123.996094 5.996094 125.132812 5.996094 C 127.015625 5.996094 128.445312 6.582031 129.414062 7.746094 C 130.382812 8.914062 130.867188 10.628906 130.867188 12.886719 Z M -1.046875 -5.054688 "/>
<path style=" stroke:none;fill-rule:nonzero;fill:rgb(0%,0%,0%);fill-opacity:1;" d="M 32.59375 36.046875 L 32.59375 38.578125 C 31.820312 38.152344 31.050781 37.835938 30.28125 37.625 C 29.519531 37.417969 28.75 37.3125 27.96875 37.3125 C 26.21875 37.3125 24.859375 37.871094 23.890625 38.984375 C 22.929688 40.089844 22.453125 41.640625 22.453125 43.640625 C 22.453125 45.640625 22.929688 47.199219 23.890625 48.3125 C 24.859375 49.417969 26.21875 49.96875 27.96875 49.96875 C 28.75 49.96875 29.519531 49.867188 30.28125 49.65625 C 31.050781 49.449219 31.820312 49.132812 32.59375 48.703125 L 32.59375 51.203125 C 31.832031 51.546875 31.050781 51.808594 30.25 51.984375 C 29.445312 52.160156 28.59375 52.25 27.6875 52.25 C 25.207031 52.25 23.238281 51.476562 21.78125 49.921875 C 20.332031 48.371094 19.609375 46.277344 19.609375 43.640625 C 19.609375 40.964844 20.34375 38.859375 21.8125 37.328125 C 23.28125 35.796875 25.296875 35.03125 27.859375 35.03125 C 28.679688 35.03125 29.488281 35.117188 30.28125 35.28125 C 31.070312 35.449219 31.84375 35.703125 32.59375 36.046875 Z M 51.304688 42.953125 L 51.304688 44.265625 L 38.914062 44.265625 C 39.027344 46.121094 39.585938 47.539062 40.585938 48.515625 C 41.585938 49.484375 42.980469 49.96875 44.773438 49.96875 C 45.804688 49.96875 46.804688 49.84375 47.773438 49.59375 C 48.75 49.335938 49.71875 48.949219 50.679688 48.4375 L 50.679688 51 C 49.710938 51.40625 48.714844 51.714844 47.695312 51.921875 C 46.683594 52.140625 45.65625 52.25 44.617188 52.25 C 41.992188 52.25 39.914062 51.492188 38.382812 49.96875 C 36.859375 48.449219 36.101562 46.386719 36.101562 43.78125 C 36.101562 41.09375 36.824219 38.964844 38.273438 37.390625 C 39.71875 35.820312 41.679688 35.03125 44.148438 35.03125 C 46.355469 35.03125 48.101562 35.742188 49.382812 37.15625 C 50.664062 38.574219 51.304688 40.507812 51.304688 42.953125 Z M 48.617188 42.15625 C 48.59375 40.6875 48.179688 39.515625 47.367188 38.640625 C 46.5625 37.757812 45.5 37.3125 44.179688 37.3125 C 42.667969 37.3125 41.460938 37.742188 40.554688 38.59375 C 39.65625 39.4375 39.140625 40.632812 39.007812 42.171875 Z M 69.375 41.921875 L 69.375 51.828125 L 66.671875 51.828125 L 66.671875 42.015625 C 66.671875 40.464844 66.367188 39.304688 65.765625 38.53125 C 65.160156 37.761719 64.253906 37.375 63.046875 37.375 C 61.585938 37.375 60.4375 37.839844 59.59375 38.765625 C 58.757812 39.695312 58.34375 40.960938 58.34375 42.5625 L 58.34375 51.828125 L 55.625 51.828125 L 55.625 35.421875 L 58.34375 35.421875 L 58.34375 37.96875 C 58.988281 36.980469 59.75 36.246094 60.625 35.765625 C 61.5 35.277344 62.503906 35.03125 63.640625 35.03125 C 65.523438 35.03125 66.953125 35.617188 67.921875 36.78125 C 68.890625 37.949219 69.375 39.664062 69.375 41.921875 Z M 77.417969 30.765625 L 77.417969 35.421875 L 82.964844 35.421875 L 82.964844 37.515625 L 77.417969 37.515625 L 77.417969 46.421875 C 77.417969 47.757812 77.597656 48.617188 77.964844 49 C 78.328125 49.386719 79.074219 49.578125 80.199219 49.578125 L 82.964844 49.578125 L 82.964844 51.828125 L 80.199219 51.828125 C 78.113281 51.828125 76.675781 51.445312 75.886719 50.671875 C 75.09375 49.890625 74.699219 48.476562 74.699219 46.421875 L 74.699219 37.515625 L 72.730469 37.515625 L 72.730469 35.421875 L 74.699219 35.421875 L 74.699219 30.765625 Z M 100.539062 42.953125 L 100.539062 44.265625 L 88.148438 44.265625 C 88.261719 46.121094 88.820312 47.539062 89.820312 48.515625 C 90.820312 49.484375 92.214844 49.96875 94.007812 49.96875 C 95.039062 49.96875 96.039062 49.84375 97.007812 49.59375 C 97.984375 49.335938 98.953125 48.949219 99.914062 48.4375 L 99.914062 51 C 98.945312 51.40625 97.949219 51.714844 96.929688 51.921875 C 95.917969 52.140625 94.890625 52.25 93.851562 52.25 C 91.226562 52.25 89.148438 51.492188 87.617188 49.96875 C 86.09375 48.449219 85.335938 46.386719 85.335938 43.78125 C 85.335938 41.09375 86.058594 38.964844 87.507812 37.390625 C 88.953125 35.820312 90.914062 35.03125 93.382812 35.03125 C 95.589844 35.03125 97.335938 35.742188 98.617188 37.15625 C 99.898438 38.574219 100.539062 40.507812 100.539062 42.953125 Z M 97.851562 42.15625 C 97.828125 40.6875 97.414062 39.515625 96.601562 38.640625 C 95.796875 37.757812 94.734375 37.3125 93.414062 37.3125 C 91.902344 37.3125 90.695312 37.742188 89.789062 38.59375 C 88.890625 39.4375 88.375 40.632812 88.242188 42.171875 Z M 114.464844 37.9375 C 114.160156 37.761719 113.832031 37.632812 113.480469 37.546875 C 113.125 37.464844 112.734375 37.421875 112.308594 37.421875 C 110.777344 37.421875 109.605469 37.921875 108.792969 38.921875 C 107.980469 39.914062 107.574219 41.335938 107.574219 43.1875 L 107.574219 51.828125 L 104.855469 51.828125 L 104.855469 35.421875 L 107.574219 35.421875 L 107.574219 37.96875 C 108.136719 36.96875 108.871094 36.230469 109.777344 35.75 C 110.691406 35.273438 111.796875 35.03125 113.089844 35.03125 C 113.277344 35.03125 113.480469 35.042969 113.699219 35.0625 C 113.925781 35.085938 114.175781 35.121094 114.449219 35.171875 Z M 17.953125 23.980469 "/>
</g>
</svg>
