<?xml version="1.0" encoding="UTF-8"?>
<svg xmlns="http://www.w3.org/2000/svg" xmlns:xlink="http://www.w3.org/1999/xlink" width="234pt" height="173pt" viewBox="0 0 234 173" version="1.1">
<g id="surface825">
<rect x="0" y="0" width="234" height="173" style="fill:rgb(0%,50.196078%,0%);fill-opacity:1;stroke:none;"/>
<path style=" stroke:none;fill-rule:nonzero;fill:rgb(100%,100%,100%);fill-opacity:1;" d="M 50 20 L 224 20 L 224 163 L 50 163 Z M 50 20 "/>
<path style=" stroke:none;fill-rule:nonzero;fill:rgb(0%,0%,0%);fill-opacity:1;" d="M 75.304688 31.730469 L 75.304688 36.386719 L 80.851562 36.386719 L 80.851562 38.480469 L 75.304688 38.480469 L 75.304688 47.386719 C 75.304688 48.722656 75.484375 49.582031 75.851562 49.964844 C 76.214844 50.351562 76.960938 50.542969 78.085938 50.542969 L 80.851562 50.542969 L 80.851562 52.792969 L 78.085938 52.792969 C 76 52.792969 74.5625 52.410156 73.773438 51.636719 C 72.980469 50.855469 72.585938 49.441406 72.585938 47.386719 L 72.585938 38.480469 L 70.617188 38.480469 L 70.617188 36.386719 L 72.585938 36.386719 L 72.585938 31.730469 Z M 98.425781 43.917969 L 98.425781 45.230469 L 86.035156 45.230469 C 86.148438 47.085938 86.707031 48.503906 87.707031 49.480469 C 88.707031 50.449219 90.101562 50.933594 91.894531 50.933594 C 92.925781 50.933594 93.925781 50.808594 94.894531 50.558594 C 95.871094 50.300781 96.839844 49.914062 97.800781 49.402344 L 97.800781 51.964844 C 96.832031 52.371094 95.835938 52.679688 94.816406 52.886719 C 93.804688 53.105469 92.777344 53.214844 91.738281 53.214844 C 89.113281 53.214844 87.035156 52.457031 85.503906 50.933594 C 83.980469 49.414062 83.222656 47.351562 83.222656 44.746094 C 83.222656 42.058594 83.945312 39.929688 85.394531 38.355469 C 86.839844 36.785156 88.800781 35.996094 91.269531 35.996094 C 93.476562 35.996094 95.222656 36.707031 96.503906 38.121094 C 97.785156 39.539062 98.425781 41.472656 98.425781 43.917969 Z M 95.738281 43.121094 C 95.714844 41.652344 95.300781 40.480469 94.488281 39.605469 C 93.683594 38.722656 92.621094 38.277344 91.300781 38.277344 C 89.789062 38.277344 88.582031 38.707031 87.675781 39.558594 C 86.777344 40.402344 86.261719 41.597656 86.128906 43.136719 Z M 115.964844 36.386719 L 110.027344 44.371094 L 116.261719 52.792969 L 113.089844 52.792969 L 108.308594 46.339844 L 103.542969 52.792969 L 100.355469 52.792969 L 106.730469 44.214844 L 100.902344 36.386719 L 104.074219 36.386719 L 108.433594 42.230469 L 112.777344 36.386719 Z M 122.75 31.730469 L 122.75 36.386719 L 128.296875 36.386719 L 128.296875 38.480469 L 122.75 38.480469 L 122.75 47.386719 C 122.75 48.722656 122.929688 49.582031 123.296875 49.964844 C 123.660156 50.351562 124.40625 50.542969 125.53125 50.542969 L 128.296875 50.542969 L 128.296875 52.792969 L 125.53125 52.792969 C 123.445312 52.792969 122.007812 52.410156 121.21875 51.636719 C 120.425781 50.855469 120.03125 49.441406 120.03125 47.386719 L 120.03125 38.480469 L 118.0625 38.480469 L 118.0625 36.386719 L 120.03125 36.386719 L 120.03125 31.730469 Z M 139.265625 33.839844 L 135.25 44.714844 L 143.296875 44.714844 Z M 137.59375 30.917969 L 140.953125 30.917969 L 149.296875 52.792969 L 146.21875 52.792969 L 144.21875 47.183594 L 134.359375 47.183594 L 132.375 52.792969 L 129.25 52.792969 Z M 152.363281 29.996094 L 155.050781 29.996094 L 155.050781 52.792969 L 152.363281 52.792969 Z M 160.699219 36.386719 L 163.386719 36.386719 L 163.386719 52.792969 L 160.699219 52.792969 Z M 160.699219 29.996094 L 163.386719 29.996094 L 163.386719 33.417969 L 160.699219 33.417969 Z M 179.832031 44.402344 C 179.832031 42.445312 179.425781 40.929688 178.613281 39.855469 C 177.808594 38.785156 176.683594 38.246094 175.238281 38.246094 C 173.789062 38.246094 172.660156 38.785156 171.847656 39.855469 C 171.042969 40.929688 170.644531 42.445312 170.644531 44.402344 C 170.644531 46.339844 171.042969 47.851562 171.847656 48.933594 C 172.660156 50.007812 173.789062 50.542969 175.238281 50.542969 C 176.683594 50.542969 177.808594 50.007812 178.613281 48.933594 C 179.425781 47.851562 179.832031 46.339844 179.832031 44.402344 Z M 182.519531 50.761719 C 182.519531 53.550781 181.898438 55.625 180.660156 56.980469 C 179.417969 58.34375 177.523438 59.027344 174.972656 59.027344 C 174.023438 59.027344 173.128906 58.953125 172.285156 58.808594 C 171.441406 58.671875 170.628906 58.457031 169.847656 58.167969 L 169.847656 55.542969 C 170.628906 55.980469 171.402344 56.296875 172.175781 56.496094 C 172.957031 56.703125 173.742188 56.808594 174.535156 56.808594 C 176.304688 56.808594 177.628906 56.34375 178.503906 55.417969 C 179.386719 54.5 179.832031 53.109375 179.832031 51.246094 L 179.832031 49.902344 C 179.269531 50.871094 178.554688 51.597656 177.691406 52.074219 C 176.824219 52.554688 175.785156 52.792969 174.566406 52.792969 C 172.554688 52.792969 170.933594 52.027344 169.707031 50.496094 C 168.476562 48.964844 167.863281 46.933594 167.863281 44.402344 C 167.863281 41.863281 168.476562 39.824219 169.707031 38.292969 C 170.933594 36.761719 172.554688 35.996094 174.566406 35.996094 C 175.785156 35.996094 176.824219 36.238281 177.691406 36.714844 C 178.554688 37.195312 179.269531 37.914062 179.832031 38.871094 L 179.832031 36.386719 L 182.519531 36.386719 Z M 201.71875 42.886719 L 201.71875 52.792969 L 199.015625 52.792969 L 199.015625 42.980469 C 199.015625 41.429688 198.710938 40.269531 198.109375 39.496094 C 197.503906 38.726562 196.597656 38.339844 195.390625 38.339844 C 193.929688 38.339844 192.78125 38.804688 191.9375 39.730469 C 191.101562 40.660156 190.6875 41.925781 190.6875 43.527344 L 190.6875 52.792969 L 187.96875 52.792969 L 187.96875 36.386719 L 190.6875 36.386719 L 190.6875 38.933594 C 191.332031 37.945312 192.09375 37.210938 192.96875 36.730469 C 193.84375 36.242188 194.847656 35.996094 195.984375 35.996094 C 197.867188 35.996094 199.296875 36.582031 200.265625 37.746094 C 201.234375 38.914062 201.71875 40.628906 201.71875 42.886719 Z M 69.804688 24.945312 "/>
<path style=" stroke:none;fill-rule:nonzero;fill:rgb(0%,0%,0%);fill-opacity:1;" d="M 148.054688 87.9375 C 147.75 87.761719 147.421875 87.632812 147.070312 87.546875 C 146.714844 87.464844 146.324219 87.421875 145.898438 87.421875 C 144.367188 87.421875 143.195312 87.921875 142.382812 88.921875 C 141.570312 89.914062 141.164062 91.335938 141.164062 93.1875 L 141.164062 101.828125 L 138.445312 101.828125 L 138.445312 85.421875 L 141.164062 85.421875 L 141.164062 87.96875 C 141.726562 86.96875 142.460938 86.230469 143.367188 85.75 C 144.28125 85.273438 145.386719 85.03125 146.679688 85.03125 C 146.867188 85.03125 147.070312 85.042969 147.289062 85.0625 C 147.515625 85.085938 147.765625 85.121094 148.039062 85.171875 Z M 150.890625 85.421875 L 153.578125 85.421875 L 153.578125 101.828125 L 150.890625 101.828125 Z M 150.890625 79.03125 L 153.578125 79.03125 L 153.578125 82.453125 L 150.890625 82.453125 Z M 170.019531 93.4375 C 170.019531 91.480469 169.613281 89.964844 168.800781 88.890625 C 167.996094 87.820312 166.871094 87.28125 165.425781 87.28125 C 163.976562 87.28125 162.847656 87.820312 162.035156 88.890625 C 161.230469 89.964844 160.832031 91.480469 160.832031 93.4375 C 160.832031 95.375 161.230469 96.886719 162.035156 97.96875 C 162.847656 99.042969 163.976562 99.578125 165.425781 99.578125 C 166.871094 99.578125 167.996094 99.042969 168.800781 97.96875 C 169.613281 96.886719 170.019531 95.375 170.019531 93.4375 Z M 172.707031 99.796875 C 172.707031 102.585938 172.085938 104.660156 170.847656 106.015625 C 169.605469 107.378906 167.710938 108.0625 165.160156 108.0625 C 164.210938 108.0625 163.316406 107.988281 162.472656 107.84375 C 161.628906 107.707031 160.816406 107.492188 160.035156 107.203125 L 160.035156 104.578125 C 160.816406 105.015625 161.589844 105.332031 162.363281 105.53125 C 163.144531 105.738281 163.929688 105.84375 164.722656 105.84375 C 166.492188 105.84375 167.816406 105.378906 168.691406 104.453125 C 169.574219 103.535156 170.019531 102.144531 170.019531 100.28125 L 170.019531 98.9375 C 169.457031 99.90625 168.742188 100.632812 167.878906 101.109375 C 167.011719 101.589844 165.972656 101.828125 164.753906 101.828125 C 162.742188 101.828125 161.121094 101.0625 159.894531 99.53125 C 158.664062 98 158.050781 95.96875 158.050781 93.4375 C 158.050781 90.898438 158.664062 88.859375 159.894531 87.328125 C 161.121094 85.796875 162.742188 85.03125 164.753906 85.03125 C 165.972656 85.03125 167.011719 85.273438 167.878906 85.75 C 168.742188 86.230469 169.457031 86.949219 170.019531 87.90625 L 170.019531 85.421875 L 172.707031 85.421875 Z M 191.90625 91.921875 L 191.90625 101.828125 L 189.203125 101.828125 L 189.203125 92.015625 C 189.203125 90.464844 188.898438 89.304688 188.296875 88.53125 C 187.691406 87.761719 186.785156 87.375 185.578125 87.375 C 184.117188 87.375 182.96875 87.839844 182.125 88.765625 C 181.289062 89.695312 180.875 90.960938 180.875 92.5625 L 180.875 101.828125 L 178.15625 101.828125 L 178.15625 79.03125 L 180.875 79.03125 L 180.875 87.96875 C 181.519531 86.980469 182.28125 86.246094 183.15625 85.765625 C 184.03125 85.277344 185.035156 85.03125 186.171875 85.03125 C 188.054688 85.03125 189.484375 85.617188 190.453125 86.78125 C 191.421875 87.949219 191.90625 89.664062 191.90625 91.921875 Z M 199.953125 80.765625 L 199.953125 85.421875 L 205.5 85.421875 L 205.5 87.515625 L 199.953125 87.515625 L 199.953125 96.421875 C 199.953125 97.757812 200.132812 98.617188 200.5 99 C 200.863281 99.386719 201.609375 99.578125 202.734375 99.578125 L 205.5 99.578125 L 205.5 101.828125 L 202.734375 101.828125 C 200.648438 101.828125 199.210938 101.445312 198.421875 100.671875 C 197.628906 99.890625 197.234375 98.476562 197.234375 96.421875 L 197.234375 87.515625 L 195.265625 87.515625 L 195.265625 85.421875 L 197.234375 85.421875 L 197.234375 80.765625 Z M 135.726562 73.980469 "/>
<path style=" stroke:none;fill-rule:nonzero;fill:rgb(0%,0%,0%);fill-opacity:1;" d="M 60.523438 134.453125 L 63.210938 134.453125 L 66.585938 147.25 L 69.929688 134.453125 L 73.117188 134.453125 L 76.492188 147.25 L 79.835938 134.453125 L 82.539062 134.453125 L 78.242188 150.859375 L 75.070312 150.859375 L 71.539062 137.40625 L 67.992188 150.859375 L 64.804688 150.859375 Z M 86.621094 134.453125 L 89.308594 134.453125 L 89.308594 150.859375 L 86.621094 150.859375 Z M 86.621094 128.0625 L 89.308594 128.0625 L 89.308594 131.484375 L 86.621094 131.484375 Z M 97.628906 129.796875 L 97.628906 134.453125 L 103.175781 134.453125 L 103.175781 136.546875 L 97.628906 136.546875 L 97.628906 145.453125 C 97.628906 146.789062 97.808594 147.648438 98.175781 148.03125 C 98.539062 148.417969 99.285156 148.609375 100.410156 148.609375 L 103.175781 148.609375 L 103.175781 150.859375 L 100.410156 150.859375 C 98.324219 150.859375 96.886719 150.476562 96.097656 149.703125 C 95.304688 148.921875 94.910156 147.507812 94.910156 145.453125 L 94.910156 136.546875 L 92.941406 136.546875 L 92.941406 134.453125 L 94.910156 134.453125 L 94.910156 129.796875 Z M 120.359375 140.953125 L 120.359375 150.859375 L 117.65625 150.859375 L 117.65625 141.046875 C 117.65625 139.496094 117.351562 138.335938 116.75 137.5625 C 116.144531 136.792969 115.238281 136.40625 114.03125 136.40625 C 112.570312 136.40625 111.421875 136.871094 110.578125 137.796875 C 109.742188 138.726562 109.328125 139.992188 109.328125 141.59375 L 109.328125 150.859375 L 106.609375 150.859375 L 106.609375 128.0625 L 109.328125 128.0625 L 109.328125 137 C 109.972656 136.011719 110.734375 135.277344 111.609375 134.796875 C 112.484375 134.308594 113.488281 134.0625 114.625 134.0625 C 116.507812 134.0625 117.9375 134.648438 118.90625 135.8125 C 119.875 136.980469 120.359375 138.695312 120.359375 140.953125 Z M 145.722656 134.9375 L 145.722656 137.484375 C 144.960938 137.101562 144.167969 136.808594 143.347656 136.609375 C 142.535156 136.414062 141.683594 136.3125 140.800781 136.3125 C 139.464844 136.3125 138.460938 136.523438 137.785156 136.9375 C 137.117188 137.34375 136.785156 137.960938 136.785156 138.78125 C 136.785156 139.40625 137.023438 139.898438 137.503906 140.25 C 137.980469 140.605469 138.945312 140.945312 140.394531 141.265625 L 141.316406 141.46875 C 143.230469 141.875 144.589844 142.453125 145.394531 143.203125 C 146.207031 143.953125 146.613281 144.996094 146.613281 146.328125 C 146.613281 147.859375 146.007812 149.070312 144.800781 149.953125 C 143.589844 150.839844 141.933594 151.28125 139.832031 151.28125 C 138.945312 151.28125 138.023438 151.191406 137.066406 151.015625 C 136.117188 150.851562 135.117188 150.601562 134.066406 150.265625 L 134.066406 147.46875 C 135.066406 147.992188 136.042969 148.382812 137.003906 148.640625 C 137.972656 148.902344 138.929688 149.03125 139.878906 149.03125 C 141.148438 149.03125 142.121094 148.8125 142.800781 148.375 C 143.488281 147.9375 143.832031 147.324219 143.832031 146.53125 C 143.832031 145.804688 143.585938 145.246094 143.097656 144.859375 C 142.605469 144.464844 141.523438 144.085938 139.847656 143.71875 L 138.910156 143.5 C 137.242188 143.15625 136.039062 142.621094 135.300781 141.890625 C 134.558594 141.164062 134.191406 140.164062 134.191406 138.890625 C 134.191406 137.351562 134.738281 136.164062 135.832031 135.328125 C 136.925781 134.484375 138.476562 134.0625 140.488281 134.0625 C 141.476562 134.0625 142.410156 134.136719 143.285156 134.28125 C 144.167969 134.429688 144.980469 134.648438 145.722656 134.9375 Z M 153.570312 129.796875 L 153.570312 134.453125 L 159.117188 134.453125 L 159.117188 136.546875 L 153.570312 136.546875 L 153.570312 145.453125 C 153.570312 146.789062 153.75 147.648438 154.117188 148.03125 C 154.480469 148.417969 155.226562 148.609375 156.351562 148.609375 L 159.117188 148.609375 L 159.117188 150.859375 L 156.351562 150.859375 C 154.265625 150.859375 152.828125 150.476562 152.039062 149.703125 C 151.246094 148.921875 150.851562 147.507812 150.851562 145.453125 L 150.851562 136.546875 L 148.882812 136.546875 L 148.882812 134.453125 L 150.851562 134.453125 L 150.851562 129.796875 Z M 169.492188 152.390625 C 168.730469 154.335938 167.984375 155.609375 167.257812 156.203125 C 166.539062 156.796875 165.574219 157.09375 164.367188 157.09375 L 162.210938 157.09375 L 162.210938 154.84375 L 163.789062 154.84375 C 164.527344 154.84375 165.101562 154.664062 165.507812 154.3125 C 165.921875 153.96875 166.382812 153.140625 166.882812 151.828125 L 167.367188 150.59375 L 160.726562 134.453125 L 163.585938 134.453125 L 168.710938 147.28125 L 173.835938 134.453125 L 176.695312 134.453125 Z M 180.414062 128.0625 L 183.101562 128.0625 L 183.101562 150.859375 L 180.414062 150.859375 Z M 202.78125 141.984375 L 202.78125 143.296875 L 190.390625 143.296875 C 190.503906 145.152344 191.0625 146.570312 192.0625 147.546875 C 193.0625 148.515625 194.457031 149 196.25 149 C 197.28125 149 198.28125 148.875 199.25 148.625 C 200.226562 148.367188 201.195312 147.980469 202.15625 147.46875 L 202.15625 150.03125 C 201.1875 150.4375 200.191406 150.746094 199.171875 150.953125 C 198.160156 151.171875 197.132812 151.28125 196.09375 151.28125 C 193.46875 151.28125 191.390625 150.523438 189.859375 149 C 188.335938 147.480469 187.578125 145.417969 187.578125 142.8125 C 187.578125 140.125 188.300781 137.996094 189.75 136.421875 C 191.195312 134.851562 193.15625 134.0625 195.625 134.0625 C 197.832031 134.0625 199.578125 134.773438 200.859375 136.1875 C 202.140625 137.605469 202.78125 139.539062 202.78125 141.984375 Z M 200.09375 141.1875 C 200.070312 139.71875 199.65625 138.546875 198.84375 137.671875 C 198.039062 136.789062 196.976562 136.34375 195.65625 136.34375 C 194.144531 136.34375 192.9375 136.773438 192.03125 137.625 C 191.132812 138.46875 190.617188 139.664062 190.484375 141.203125 Z M 59.257812 123.011719 "/>
</g>
</svg>
