<?xml version="1.0" encoding="UTF-8"?>
<svg xmlns="http://www.w3.org/2000/svg" xmlns:xlink="http://www.w3.org/1999/xlink" width="234pt" height="173pt" viewBox="0 0 234 173" version="1.1">
<g id="surface323">
<rect x="0" y="0" width="234" height="173" style="fill:rgb(0%,50.196078%,0%);fill-opacity:1;stroke:none;"/>
<path style=" stroke:none;fill-rule:nonzero;fill:rgb(100%,100%,100%);fill-opacity:1;" d="M 50 20 L 224 20 L 224 163 L 50 163 Z M 50 20 "/>
<path style=" stroke:none;fill-rule:nonzero;fill:rgb(0%,0%,0%);fill-opacity:1;" d="M 70.261719 31.730469 L 70.261719 36.386719 L 75.808594 36.386719 L 75.808594 38.480469 L 70.261719 38.480469 L 70.261719 47.386719 C 70.261719 48.722656 70.441406 49.582031 70.808594 49.964844 C 71.171875 50.351562 71.917969 50.542969 73.042969 50.542969 L 75.808594 50.542969 L 75.808594 52.792969 L 73.042969 52.792969 C 70.957031 52.792969 69.519531 52.410156 68.730469 51.636719 C 67.9375 50.855469 67.542969 49.441406 67.542969 47.386719 L 67.542969 38.480469 L 65.574219 38.480469 L 65.574219 36.386719 L 67.542969 36.386719 L 67.542969 31.730469 Z M 93.382812 43.917969 L 93.382812 45.230469 L 80.992188 45.230469 C 81.105469 47.085938 81.664062 48.503906 82.664062 49.480469 C 83.664062 50.449219 85.058594 50.933594 86.851562 50.933594 C 87.882812 50.933594 88.882812 50.808594 89.851562 50.558594 C 90.828125 50.300781 91.796875 49.914062 92.757812 49.402344 L 92.757812 51.964844 C 91.789062 52.371094 90.792969 52.679688 89.773438 52.886719 C 88.761719 53.105469 87.734375 53.214844 86.695312 53.214844 C 84.070312 53.214844 81.992188 52.457031 80.460938 50.933594 C 78.9375 49.414062 78.179688 47.351562 78.179688 44.746094 C 78.179688 42.058594 78.902344 39.929688 80.351562 38.355469 C 81.796875 36.785156 83.757812 35.996094 86.226562 35.996094 C 88.433594 35.996094 90.179688 36.707031 91.460938 38.121094 C 92.742188 39.539062 93.382812 41.472656 93.382812 43.917969 Z M 90.695312 43.121094 C 90.671875 41.652344 90.257812 40.480469 89.445312 39.605469 C 88.640625 38.722656 87.578125 38.277344 86.257812 38.277344 C 84.746094 38.277344 83.539062 38.707031 82.632812 39.558594 C 81.734375 40.402344 81.21875 41.597656 81.085938 43.136719 Z M 110.921875 36.386719 L 104.984375 44.371094 L 111.21875 52.792969 L 108.046875 52.792969 L 103.265625 46.339844 L 98.5 52.792969 L 95.3125 52.792969 L 101.6875 44.214844 L 95.859375 36.386719 L 99.03125 36.386719 L 103.390625 42.230469 L 107.734375 36.386719 Z M 117.707031 31.730469 L 117.707031 36.386719 L 123.253906 36.386719 L 123.253906 38.480469 L 117.707031 38.480469 L 117.707031 47.386719 C 117.707031 48.722656 117.886719 49.582031 118.253906 49.964844 C 118.617188 50.351562 119.363281 50.542969 120.488281 50.542969 L 123.253906 50.542969 L 123.253906 52.792969 L 120.488281 52.792969 C 118.402344 52.792969 116.964844 52.410156 116.175781 51.636719 C 115.382812 50.855469 114.988281 49.441406 114.988281 47.386719 L 114.988281 38.480469 L 113.019531 38.480469 L 113.019531 36.386719 L 114.988281 36.386719 L 114.988281 31.730469 Z M 134.21875 33.839844 L 130.203125 44.714844 L 138.25 44.714844 Z M 132.546875 30.917969 L 135.90625 30.917969 L 144.25 52.792969 L 141.171875 52.792969 L 139.171875 47.183594 L 129.3125 47.183594 L 127.328125 52.792969 L 124.203125 52.792969 Z M 147.320312 29.996094 L 150.007812 29.996094 L 150.007812 52.792969 L 147.320312 52.792969 Z M 155.65625 36.386719 L 158.34375 36.386719 L 158.34375 52.792969 L 155.65625 52.792969 Z M 155.65625 29.996094 L 158.34375 29.996094 L 158.34375 33.417969 L 155.65625 33.417969 Z M 174.789062 44.402344 C 174.789062 42.445312 174.382812 40.929688 173.570312 39.855469 C 172.765625 38.785156 171.640625 38.246094 170.195312 38.246094 C 168.746094 38.246094 167.617188 38.785156 166.804688 39.855469 C 166 40.929688 165.601562 42.445312 165.601562 44.402344 C 165.601562 46.339844 166 47.851562 166.804688 48.933594 C 167.617188 50.007812 168.746094 50.542969 170.195312 50.542969 C 171.640625 50.542969 172.765625 50.007812 173.570312 48.933594 C 174.382812 47.851562 174.789062 46.339844 174.789062 44.402344 Z M 177.476562 50.761719 C 177.476562 53.550781 176.855469 55.625 175.617188 56.980469 C 174.375 58.34375 172.480469 59.027344 169.929688 59.027344 C 168.980469 59.027344 168.085938 58.953125 167.242188 58.808594 C 166.398438 58.671875 165.585938 58.457031 164.804688 58.167969 L 164.804688 55.542969 C 165.585938 55.980469 166.359375 56.296875 167.132812 56.496094 C 167.914062 56.703125 168.699219 56.808594 169.492188 56.808594 C 171.261719 56.808594 172.585938 56.34375 173.460938 55.417969 C 174.34375 54.5 174.789062 53.109375 174.789062 51.246094 L 174.789062 49.902344 C 174.226562 50.871094 173.511719 51.597656 172.648438 52.074219 C 171.78125 52.554688 170.742188 52.792969 169.523438 52.792969 C 167.511719 52.792969 165.890625 52.027344 164.664062 50.496094 C 163.433594 48.964844 162.820312 46.933594 162.820312 44.402344 C 162.820312 41.863281 163.433594 39.824219 164.664062 38.292969 C 165.890625 36.761719 167.511719 35.996094 169.523438 35.996094 C 170.742188 35.996094 171.78125 36.238281 172.648438 36.714844 C 173.511719 37.195312 174.226562 37.914062 174.789062 38.871094 L 174.789062 36.386719 L 177.476562 36.386719 Z M 196.675781 42.886719 L 196.675781 52.792969 L 193.972656 52.792969 L 193.972656 42.980469 C 193.972656 41.429688 193.667969 40.269531 193.066406 39.496094 C 192.460938 38.726562 191.554688 38.339844 190.347656 38.339844 C 188.886719 38.339844 187.738281 38.804688 186.894531 39.730469 C 186.058594 40.660156 185.644531 41.925781 185.644531 43.527344 L 185.644531 52.792969 L 182.925781 52.792969 L 182.925781 36.386719 L 185.644531 36.386719 L 185.644531 38.933594 C 186.289062 37.945312 187.050781 37.210938 187.925781 36.730469 C 188.800781 36.242188 189.804688 35.996094 190.941406 35.996094 C 192.824219 35.996094 194.253906 36.582031 195.222656 37.746094 C 196.191406 38.914062 196.675781 40.628906 196.675781 42.886719 Z M 64.761719 24.945312 "/>
<path style=" stroke:none;fill-rule:nonzero;fill:rgb(0%,0%,0%);fill-opacity:1;" d="M 98.402344 86.046875 L 98.402344 88.578125 C 97.628906 88.152344 96.859375 87.835938 96.089844 87.625 C 95.328125 87.417969 94.558594 87.3125 93.777344 87.3125 C 92.027344 87.3125 90.667969 87.871094 89.699219 88.984375 C 88.738281 90.089844 88.261719 91.640625 88.261719 93.640625 C 88.261719 95.640625 88.738281 97.199219 89.699219 98.3125 C 90.667969 99.417969 92.027344 99.96875 93.777344 99.96875 C 94.558594 99.96875 95.328125 99.867188 96.089844 99.65625 C 96.859375 99.449219 97.628906 99.132812 98.402344 98.703125 L 98.402344 101.203125 C 97.640625 101.546875 96.859375 101.808594 96.058594 101.984375 C 95.253906 102.160156 94.402344 102.25 93.496094 102.25 C 91.015625 102.25 89.046875 101.476562 87.589844 99.921875 C 86.140625 98.371094 85.417969 96.277344 85.417969 93.640625 C 85.417969 90.964844 86.152344 88.859375 87.621094 87.328125 C 89.089844 85.796875 91.105469 85.03125 93.667969 85.03125 C 94.488281 85.03125 95.296875 85.117188 96.089844 85.28125 C 96.878906 85.449219 97.652344 85.703125 98.402344 86.046875 Z M 117.117188 92.953125 L 117.117188 94.265625 L 104.726562 94.265625 C 104.839844 96.121094 105.398438 97.539062 106.398438 98.515625 C 107.398438 99.484375 108.792969 99.96875 110.585938 99.96875 C 111.617188 99.96875 112.617188 99.84375 113.585938 99.59375 C 114.5625 99.335938 115.53125 98.949219 116.492188 98.4375 L 116.492188 101 C 115.523438 101.40625 114.527344 101.714844 113.507812 101.921875 C 112.496094 102.140625 111.46875 102.25 110.429688 102.25 C 107.804688 102.25 105.726562 101.492188 104.195312 99.96875 C 102.671875 98.449219 101.914062 96.386719 101.914062 93.78125 C 101.914062 91.09375 102.636719 88.964844 104.085938 87.390625 C 105.53125 85.820312 107.492188 85.03125 109.960938 85.03125 C 112.167969 85.03125 113.914062 85.742188 115.195312 87.15625 C 116.476562 88.574219 117.117188 90.507812 117.117188 92.953125 Z M 114.429688 92.15625 C 114.40625 90.6875 113.992188 89.515625 113.179688 88.640625 C 112.375 87.757812 111.3125 87.3125 109.992188 87.3125 C 108.480469 87.3125 107.273438 87.742188 106.367188 88.59375 C 105.46875 89.4375 104.953125 90.632812 104.820312 92.171875 Z M 135.179688 91.921875 L 135.179688 101.828125 L 132.476562 101.828125 L 132.476562 92.015625 C 132.476562 90.464844 132.171875 89.304688 131.570312 88.53125 C 130.964844 87.761719 130.058594 87.375 128.851562 87.375 C 127.390625 87.375 126.242188 87.839844 125.398438 88.765625 C 124.5625 89.695312 124.148438 90.960938 124.148438 92.5625 L 124.148438 101.828125 L 121.429688 101.828125 L 121.429688 85.421875 L 124.148438 85.421875 L 124.148438 87.96875 C 124.792969 86.980469 125.554688 86.246094 126.429688 85.765625 C 127.304688 85.277344 128.308594 85.03125 129.445312 85.03125 C 131.328125 85.03125 132.757812 85.617188 133.726562 86.78125 C 134.695312 87.949219 135.179688 89.664062 135.179688 91.921875 Z M 143.226562 80.765625 L 143.226562 85.421875 L 148.773438 85.421875 L 148.773438 87.515625 L 143.226562 87.515625 L 143.226562 96.421875 C 143.226562 97.757812 143.40625 98.617188 143.773438 99 C 144.136719 99.386719 144.882812 99.578125 146.007812 99.578125 L 148.773438 99.578125 L 148.773438 101.828125 L 146.007812 101.828125 C 143.921875 101.828125 142.484375 101.445312 141.695312 100.671875 C 140.902344 99.890625 140.507812 98.476562 140.507812 96.421875 L 140.507812 87.515625 L 138.539062 87.515625 L 138.539062 85.421875 L 140.507812 85.421875 L 140.507812 80.765625 Z M 166.347656 92.953125 L 166.347656 94.265625 L 153.957031 94.265625 C 154.070312 96.121094 154.628906 97.539062 155.628906 98.515625 C 156.628906 99.484375 158.023438 99.96875 159.816406 99.96875 C 160.847656 99.96875 161.847656 99.84375 162.816406 99.59375 C 163.792969 99.335938 164.761719 98.949219 165.722656 98.4375 L 165.722656 101 C 164.753906 101.40625 163.757812 101.714844 162.738281 101.921875 C 161.726562 102.140625 160.699219 102.25 159.660156 102.25 C 157.035156 102.25 154.957031 101.492188 153.425781 99.96875 C 151.902344 98.449219 151.144531 96.386719 151.144531 93.78125 C 151.144531 91.09375 151.867188 88.964844 153.316406 87.390625 C 154.761719 85.820312 156.722656 85.03125 159.191406 85.03125 C 161.398438 85.03125 163.144531 85.742188 164.425781 87.15625 C 165.707031 88.574219 166.347656 90.507812 166.347656 92.953125 Z M 163.660156 92.15625 C 163.636719 90.6875 163.222656 89.515625 162.410156 88.640625 C 161.605469 87.757812 160.542969 87.3125 159.222656 87.3125 C 157.710938 87.3125 156.503906 87.742188 155.597656 88.59375 C 154.699219 89.4375 154.183594 90.632812 154.050781 92.171875 Z M 180.273438 87.9375 C 179.96875 87.761719 179.640625 87.632812 179.289062 87.546875 C 178.933594 87.464844 178.542969 87.421875 178.117188 87.421875 C 176.585938 87.421875 175.414062 87.921875 174.601562 88.921875 C 173.789062 89.914062 173.382812 91.335938 173.382812 93.1875 L 173.382812 101.828125 L 170.664062 101.828125 L 170.664062 85.421875 L 173.382812 85.421875 L 173.382812 87.96875 C 173.945312 86.96875 174.679688 86.230469 175.585938 85.75 C 176.5 85.273438 177.605469 85.03125 178.898438 85.03125 C 179.085938 85.03125 179.289062 85.042969 179.507812 85.0625 C 179.734375 85.085938 179.984375 85.121094 180.257812 85.171875 Z M 83.761719 73.980469 "/>
<path style=" stroke:none;fill-rule:nonzero;fill:rgb(0%,0%,0%);fill-opacity:1;" d="M 60.027344 134.453125 L 62.714844 134.453125 L 66.089844 147.25 L 69.433594 134.453125 L 72.621094 134.453125 L 75.996094 147.25 L 79.339844 134.453125 L 82.042969 134.453125 L 77.746094 150.859375 L 74.574219 150.859375 L 71.042969 137.40625 L 67.496094 150.859375 L 64.308594 150.859375 Z M 86.125 134.453125 L 88.8125 134.453125 L 88.8125 150.859375 L 86.125 150.859375 Z M 86.125 128.0625 L 88.8125 128.0625 L 88.8125 131.484375 L 86.125 131.484375 Z M 97.132812 129.796875 L 97.132812 134.453125 L 102.679688 134.453125 L 102.679688 136.546875 L 97.132812 136.546875 L 97.132812 145.453125 C 97.132812 146.789062 97.3125 147.648438 97.679688 148.03125 C 98.042969 148.417969 98.789062 148.609375 99.914062 148.609375 L 102.679688 148.609375 L 102.679688 150.859375 L 99.914062 150.859375 C 97.828125 150.859375 96.390625 150.476562 95.601562 149.703125 C 94.808594 148.921875 94.414062 147.507812 94.414062 145.453125 L 94.414062 136.546875 L 92.445312 136.546875 L 92.445312 134.453125 L 94.414062 134.453125 L 94.414062 129.796875 Z M 119.863281 140.953125 L 119.863281 150.859375 L 117.160156 150.859375 L 117.160156 141.046875 C 117.160156 139.496094 116.855469 138.335938 116.253906 137.5625 C 115.648438 136.792969 114.742188 136.40625 113.535156 136.40625 C 112.074219 136.40625 110.925781 136.871094 110.082031 137.796875 C 109.246094 138.726562 108.832031 139.992188 108.832031 141.59375 L 108.832031 150.859375 L 106.113281 150.859375 L 106.113281 128.0625 L 108.832031 128.0625 L 108.832031 137 C 109.476562 136.011719 110.238281 135.277344 111.113281 134.796875 C 111.988281 134.308594 112.992188 134.0625 114.128906 134.0625 C 116.011719 134.0625 117.441406 134.648438 118.410156 135.8125 C 119.378906 136.980469 119.863281 138.695312 119.863281 140.953125 Z M 145.226562 134.9375 L 145.226562 137.484375 C 144.464844 137.101562 143.671875 136.808594 142.851562 136.609375 C 142.039062 136.414062 141.1875 136.3125 140.304688 136.3125 C 138.96875 136.3125 137.964844 136.523438 137.289062 136.9375 C 136.621094 137.34375 136.289062 137.960938 136.289062 138.78125 C 136.289062 139.40625 136.527344 139.898438 137.007812 140.25 C 137.484375 140.605469 138.449219 140.945312 139.898438 141.265625 L 140.820312 141.46875 C 142.734375 141.875 144.09375 142.453125 144.898438 143.203125 C 145.710938 143.953125 146.117188 144.996094 146.117188 146.328125 C 146.117188 147.859375 145.511719 149.070312 144.304688 149.953125 C 143.09375 150.839844 141.4375 151.28125 139.335938 151.28125 C 138.449219 151.28125 137.527344 151.191406 136.570312 151.015625 C 135.621094 150.851562 134.621094 150.601562 133.570312 150.265625 L 133.570312 147.46875 C 134.570312 147.992188 135.546875 148.382812 136.507812 148.640625 C 137.476562 148.902344 138.433594 149.03125 139.382812 149.03125 C 140.652344 149.03125 141.625 148.8125 142.304688 148.375 C 142.992188 147.9375 143.335938 147.324219 143.335938 146.53125 C 143.335938 145.804688 143.089844 145.246094 142.601562 144.859375 C 142.109375 144.464844 141.027344 144.085938 139.351562 143.71875 L 138.414062 143.5 C 136.746094 143.15625 135.542969 142.621094 134.804688 141.890625 C 134.0625 141.164062 133.695312 140.164062 133.695312 138.890625 C 133.695312 137.351562 134.242188 136.164062 135.335938 135.328125 C 136.429688 134.484375 137.980469 134.0625 139.992188 134.0625 C 140.980469 134.0625 141.914062 134.136719 142.789062 134.28125 C 143.671875 134.429688 144.484375 134.648438 145.226562 134.9375 Z M 153.074219 129.796875 L 153.074219 134.453125 L 158.621094 134.453125 L 158.621094 136.546875 L 153.074219 136.546875 L 153.074219 145.453125 C 153.074219 146.789062 153.253906 147.648438 153.621094 148.03125 C 153.984375 148.417969 154.730469 148.609375 155.855469 148.609375 L 158.621094 148.609375 L 158.621094 150.859375 L 155.855469 150.859375 C 153.769531 150.859375 152.332031 150.476562 151.542969 149.703125 C 150.75 148.921875 150.355469 147.507812 150.355469 145.453125 L 150.355469 136.546875 L 148.386719 136.546875 L 148.386719 134.453125 L 150.355469 134.453125 L 150.355469 129.796875 Z M 168.992188 152.390625 C 168.230469 154.335938 167.484375 155.609375 166.757812 156.203125 C 166.039062 156.796875 165.074219 157.09375 163.867188 157.09375 L 161.710938 157.09375 L 161.710938 154.84375 L 163.289062 154.84375 C 164.027344 154.84375 164.601562 154.664062 165.007812 154.3125 C 165.421875 153.96875 165.882812 153.140625 166.382812 151.828125 L 166.867188 150.59375 L 160.226562 134.453125 L 163.085938 134.453125 L 168.210938 147.28125 L 173.335938 134.453125 L 176.195312 134.453125 Z M 179.921875 128.0625 L 182.609375 128.0625 L 182.609375 150.859375 L 179.921875 150.859375 Z M 202.285156 141.984375 L 202.285156 143.296875 L 189.894531 143.296875 C 190.007812 145.152344 190.566406 146.570312 191.566406 147.546875 C 192.566406 148.515625 193.960938 149 195.753906 149 C 196.785156 149 197.785156 148.875 198.753906 148.625 C 199.730469 148.367188 200.699219 147.980469 201.660156 147.46875 L 201.660156 150.03125 C 200.691406 150.4375 199.695312 150.746094 198.675781 150.953125 C 197.664062 151.171875 196.636719 151.28125 195.597656 151.28125 C 192.972656 151.28125 190.894531 150.523438 189.363281 149 C 187.839844 147.480469 187.082031 145.417969 187.082031 142.8125 C 187.082031 140.125 187.804688 137.996094 189.253906 136.421875 C 190.699219 134.851562 192.660156 134.0625 195.128906 134.0625 C 197.335938 134.0625 199.082031 134.773438 200.363281 136.1875 C 201.644531 137.605469 202.285156 139.539062 202.285156 141.984375 Z M 199.597656 141.1875 C 199.574219 139.71875 199.160156 138.546875 198.347656 137.671875 C 197.542969 136.789062 196.480469 136.34375 195.160156 136.34375 C 193.648438 136.34375 192.441406 136.773438 191.535156 137.625 C 190.636719 138.46875 190.121094 139.664062 189.988281 141.203125 Z M 58.761719 123.011719 "/>
</g>
</svg>
