<?xml version="1.0" encoding="UTF-8"?>
<svg xmlns="http://www.w3.org/2000/svg" xmlns:xlink="http://www.w3.org/1999/xlink" width="276pt" height="80pt" viewBox="0 0 276 80" version="1.1">
<g id="surface171">
<path style=" stroke:none;fill-rule:nonzero;fill:rgb(0%,0%,0%);fill-opacity:1;" d="M 4.273438 30.195312 C 3 30.195312 1.96875 29.800781 1.179688 29.007812 C 0.398438 28.207031 0.0078125 27.003906 0.0078125 25.398438 C 0.0078125 24.734375 0.113281 23.867188 0.320312 22.804688 L 3.039062 9.960938 L 8.804688 9.960938 L 5.914062 23.554688 C 5.839844 23.960938 5.804688 24.335938 5.804688 24.679688 C 5.804688 25.773438 6.203125 26.320312 7.007812 26.320312 C 7.746094 26.320312 8.382812 26.007812 8.914062 25.382812 C 9.453125 24.757812 9.882812 23.898438 10.195312 22.804688 L 12.914062 9.960938 L 18.679688 9.960938 L 15.804688 23.554688 C 15.6875 23.960938 15.632812 24.390625 15.632812 24.835938 C 15.632812 25.378906 15.757812 25.765625 16.007812 25.992188 C 16.265625 26.210938 16.6875 26.320312 17.273438 26.320312 C 18.023438 26.320312 18.667969 26.003906 19.210938 25.367188 C 19.761719 24.722656 20.199219 23.867188 20.523438 22.804688 L 22.195312 22.804688 C 21.214844 25.679688 19.996094 27.632812 18.539062 28.664062 C 17.089844 29.6875 15.632812 30.195312 14.164062 30.195312 C 13.015625 30.195312 12.101562 29.878906 11.414062 29.242188 C 10.734375 28.597656 10.328125 27.648438 10.195312 26.398438 C 9.289062 27.867188 8.335938 28.867188 7.335938 29.398438 C 6.335938 29.929688 5.3125 30.195312 4.273438 30.195312 Z M 25.082031 30.195312 C 23.800781 30.195312 22.714844 29.953125 21.832031 29.460938 C 20.957031 28.972656 20.308594 28.335938 19.878906 27.554688 C 19.453125 26.765625 19.238281 25.941406 19.238281 25.085938 C 19.238281 24.203125 19.449219 23.4375 19.863281 22.789062 C 20.269531 22.132812 20.769531 21.660156 21.363281 21.367188 C 22.402344 19.492188 23.308594 17.601562 24.082031 15.695312 C 24.851562 13.789062 25.585938 11.734375 26.285156 9.523438 L 32.207031 8.726562 C 32.332031 12.132812 32.554688 15.828125 32.878906 19.804688 C 33.011719 21.398438 33.082031 22.554688 33.082031 23.273438 C 33.082031 23.890625 33.027344 24.398438 32.925781 24.804688 C 34.175781 24.085938 35.132812 23.421875 35.800781 22.804688 L 37.472656 22.804688 C 35.773438 24.773438 33.738281 26.441406 31.363281 27.804688 C 30.589844 28.628906 29.636719 29.234375 28.503906 29.617188 C 27.367188 30 26.226562 30.195312 25.082031 30.195312 Z M 23.800781 27.039062 C 24.789062 27.039062 25.617188 26.75 26.285156 26.164062 C 26.949219 25.570312 27.285156 24.625 27.285156 23.320312 C 27.285156 22.519531 27.199219 21.398438 27.035156 19.960938 C 26.773438 16.921875 26.601562 14.878906 26.519531 13.835938 C 25.882812 15.953125 24.804688 18.472656 23.285156 21.398438 C 23.898438 21.722656 24.207031 22.191406 24.207031 22.804688 C 24.207031 23.304688 24.039062 23.757812 23.707031 24.164062 C 23.371094 24.5625 22.949219 24.757812 22.441406 24.757812 C 21.878906 24.757812 21.519531 24.585938 21.363281 24.242188 C 21.363281 25.203125 21.554688 25.910156 21.941406 26.367188 C 22.324219 26.816406 22.945312 27.039062 23.800781 27.039062 Z M 41.4375 30.195312 C 39.488281 30.195312 37.96875 29.6875 36.875 28.664062 C 35.78125 27.632812 35.234375 26.023438 35.234375 23.835938 C 35.234375 22.003906 35.59375 19.984375 36.3125 17.773438 C 37.03125 15.554688 38.203125 13.640625 39.828125 12.023438 C 41.460938 10.410156 43.53125 9.601562 46.03125 9.601562 C 48.96875 9.601562 50.4375 10.882812 50.4375 13.445312 C 50.4375 14.9375 50.007812 16.3125 49.15625 17.570312 C 48.300781 18.820312 47.164062 19.828125 45.75 20.585938 C 44.34375 21.347656 42.835938 21.78125 41.234375 21.882812 C 41.179688 22.46875 41.15625 22.867188 41.15625 23.085938 C 41.15625 25.296875 41.984375 26.398438 43.640625 26.398438 C 44.378906 26.398438 45.175781 26.203125 46.03125 25.804688 C 46.882812 25.398438 47.660156 24.890625 48.359375 24.273438 C 47.640625 28.222656 45.332031 30.195312 41.4375 30.195312 Z M 41.515625 19.960938 C 42.523438 19.929688 43.476562 19.597656 44.375 18.960938 C 45.269531 18.328125 45.988281 17.507812 46.53125 16.507812 C 47.082031 15.507812 47.359375 14.460938 47.359375 13.367188 C 47.359375 12.273438 47.023438 11.726562 46.359375 11.726562 C 45.421875 11.726562 44.492188 12.578125 43.578125 14.273438 C 42.660156 15.960938 41.972656 17.859375 41.515625 19.960938 Z M 64.835938 30.195312 C 62.867188 30.195312 61.335938 29.6875 60.242188 28.664062 C 59.148438 27.632812 58.601562 26.023438 58.601562 23.835938 C 58.601562 22.003906 58.96875 19.984375 59.695312 17.773438 C 60.433594 15.554688 61.605469 13.640625 63.210938 12.023438 C 64.824219 10.410156 66.871094 9.601562 69.351562 9.601562 C 70.953125 9.601562 72.09375 9.953125 72.773438 10.648438 C 73.460938 11.335938 73.804688 12.210938 73.804688 13.273438 C 73.804688 14.210938 73.601562 14.9375 73.195312 15.445312 C 72.796875 15.945312 72.292969 16.195312 71.679688 16.195312 C 71.21875 16.195312 70.75 16.039062 70.273438 15.726562 C 70.59375 14.84375 70.757812 14.054688 70.757812 13.367188 C 70.757812 12.859375 70.664062 12.457031 70.476562 12.164062 C 70.289062 11.875 70.007812 11.726562 69.632812 11.726562 C 68.828125 11.726562 68.027344 12.382812 67.226562 13.695312 C 66.433594 15 65.78125 16.582031 65.273438 18.445312 C 64.773438 20.3125 64.523438 21.988281 64.523438 23.476562 C 64.523438 24.789062 64.746094 25.679688 65.195312 26.148438 C 65.652344 26.609375 66.386719 26.835938 67.398438 26.835938 C 68.835938 26.835938 70.0625 26.503906 71.085938 25.835938 C 72.117188 25.171875 73.246094 24.160156 74.476562 22.804688 L 75.835938 22.804688 C 72.875 27.734375 69.210938 30.195312 64.835938 30.195312 Z M 96.164062 30.195312 C 94.027344 30.195312 92.5625 29.691406 91.773438 28.679688 C 90.992188 27.671875 90.601562 26.40625 90.601562 24.882812 C 90.601562 23.757812 90.890625 22.847656 91.476562 22.148438 C 92.058594 21.441406 92.726562 21.085938 93.476562 21.085938 C 94.859375 21.085938 95.554688 21.644531 95.554688 22.757812 C 95.554688 23.238281 95.367188 23.660156 94.992188 24.023438 C 94.617188 24.378906 94.164062 24.554688 93.632812 24.554688 C 93.070312 24.554688 92.710938 24.382812 92.554688 24.039062 C 92.554688 25 92.746094 25.738281 93.132812 26.257812 C 93.515625 26.78125 94.101562 27.039062 94.882812 27.039062 C 95.789062 27.039062 96.433594 26.769531 96.820312 26.226562 C 97.203125 25.675781 97.398438 24.707031 97.398438 23.320312 C 97.398438 22.519531 97.320312 21.503906 97.164062 20.273438 C 96.890625 17.722656 96.679688 15.113281 96.523438 12.445312 C 94.625 15.351562 92.382812 17.191406 89.789062 17.960938 C 89.632812 20.421875 89.109375 22.570312 88.226562 24.414062 C 87.351562 26.25 86.226562 27.660156 84.851562 28.648438 C 83.476562 29.628906 81.964844 30.117188 80.320312 30.117188 C 78.339844 30.117188 76.777344 29.613281 75.632812 28.601562 C 74.484375 27.59375 73.914062 25.992188 73.914062 23.804688 C 73.914062 21.960938 74.273438 19.941406 74.992188 17.742188 C 75.710938 15.546875 76.882812 13.640625 78.507812 12.023438 C 80.140625 10.410156 82.226562 9.601562 84.757812 9.601562 C 88.140625 9.601562 89.851562 11.695312 89.882812 15.882812 C 91.851562 15.78125 94.023438 13.660156 96.398438 9.523438 L 102.320312 8.726562 C 102.453125 12.132812 102.679688 15.828125 102.992188 19.804688 C 103.125 21.398438 103.195312 22.554688 103.195312 23.273438 C 103.195312 23.816406 103.152344 24.3125 103.070312 24.757812 C 103.871094 24.3125 104.820312 23.660156 105.914062 22.804688 L 107.601562 22.804688 C 106.132812 24.515625 104.277344 26.070312 102.039062 27.476562 C 101.371094 28.4375 100.523438 29.128906 99.492188 29.554688 C 98.46875 29.980469 97.359375 30.195312 96.164062 30.195312 Z M 81.914062 26.523438 C 82.902344 26.523438 83.824219 25.734375 84.679688 24.148438 C 85.53125 22.554688 86.117188 20.585938 86.429688 18.242188 C 85.792969 18.003906 85.476562 17.40625 85.476562 16.445312 C 85.476562 15.40625 85.851562 14.710938 86.601562 14.367188 C 86.546875 13.515625 86.40625 12.914062 86.179688 12.570312 C 85.949219 12.21875 85.578125 12.039062 85.070312 12.039062 C 84.195312 12.039062 83.355469 12.675781 82.554688 13.945312 C 81.75 15.207031 81.105469 16.738281 80.617188 18.539062 C 80.125 20.34375 79.882812 21.921875 79.882812 23.273438 C 79.882812 24.554688 80.027344 25.421875 80.320312 25.867188 C 80.609375 26.304688 81.140625 26.523438 81.914062 26.523438 Z M 109.871094 30.195312 C 108.597656 30.195312 107.566406 29.800781 106.777344 29.007812 C 105.996094 28.207031 105.605469 27.003906 105.605469 25.398438 C 105.605469 24.734375 105.710938 23.867188 105.917969 22.804688 L 108.324219 11.554688 L 106.996094 11.554688 L 107.324219 9.960938 L 108.636719 9.960938 L 109.839844 4.445312 L 115.761719 3.648438 L 114.402344 9.960938 L 116.792969 9.960938 L 116.480469 11.554688 L 114.074219 11.554688 L 111.511719 23.554688 C 111.40625 23.960938 111.355469 24.390625 111.355469 24.835938 C 111.355469 25.378906 111.480469 25.765625 111.730469 25.992188 C 111.988281 26.210938 112.410156 26.320312 112.996094 26.320312 C 113.765625 26.320312 114.484375 26 115.152344 25.351562 C 115.816406 24.695312 116.300781 23.847656 116.605469 22.804688 L 118.277344 22.804688 C 117.285156 25.679688 116.015625 27.632812 114.464844 28.664062 C 112.921875 29.6875 111.390625 30.195312 109.871094 30.195312 Z M 122.441406 30.117188 C 120.460938 30.117188 118.898438 29.613281 117.753906 28.601562 C 116.605469 27.59375 116.035156 25.992188 116.035156 23.804688 C 116.035156 21.992188 116.410156 19.984375 117.160156 17.773438 C 117.910156 15.554688 119.105469 13.640625 120.753906 12.023438 C 122.410156 10.410156 124.492188 9.601562 127.003906 9.601562 C 130.410156 9.601562 132.113281 11.738281 132.113281 16.007812 L 132.113281 16.039062 C 132.195312 16.070312 132.339844 16.085938 132.550781 16.085938 C 133.433594 16.085938 134.449219 15.851562 135.597656 15.382812 C 136.742188 14.914062 137.785156 14.347656 138.722656 13.679688 L 139.082031 14.757812 C 138.300781 15.59375 137.289062 16.296875 136.050781 16.867188 C 134.808594 17.441406 133.460938 17.847656 132.003906 18.085938 C 131.785156 20.515625 131.230469 22.632812 130.347656 24.445312 C 129.472656 26.257812 128.339844 27.660156 126.957031 28.648438 C 125.570312 29.628906 124.066406 30.117188 122.441406 30.117188 Z M 124.035156 26.523438 C 124.679688 26.523438 125.320312 26.160156 125.957031 25.429688 C 126.589844 24.691406 127.148438 23.691406 127.628906 22.429688 C 128.117188 21.160156 128.464844 19.75 128.675781 18.195312 C 127.957031 18.039062 127.597656 17.484375 127.597656 16.523438 C 127.597656 15.429688 128.007812 14.710938 128.832031 14.367188 C 128.777344 13.484375 128.644531 12.875 128.425781 12.539062 C 128.214844 12.207031 127.847656 12.039062 127.316406 12.039062 C 126.441406 12.039062 125.585938 12.679688 124.753906 13.960938 C 123.929688 15.242188 123.261719 16.78125 122.753906 18.570312 C 122.253906 20.351562 122.003906 21.921875 122.003906 23.273438 C 122.003906 24.554688 122.148438 25.421875 122.441406 25.867188 C 122.730469 26.304688 123.261719 26.523438 124.035156 26.523438 Z M 157.796875 30.195312 C 156.378906 30.195312 155.347656 29.773438 154.703125 28.929688 C 154.066406 28.078125 153.75 26.992188 153.75 25.679688 C 153.75 25.117188 153.816406 24.488281 153.953125 23.789062 C 154.085938 23.082031 154.226562 22.394531 154.375 21.726562 C 154.519531 21.0625 154.617188 20.632812 154.671875 20.445312 C 154.890625 19.507812 155.09375 18.585938 155.28125 17.679688 C 155.46875 16.773438 155.5625 16.039062 155.5625 15.476562 C 155.5625 14.125 155.078125 13.445312 154.109375 13.445312 C 153.421875 13.445312 152.804688 13.785156 152.265625 14.460938 C 151.734375 15.140625 151.3125 16.023438 151 17.117188 L 148.28125 29.960938 L 142.515625 29.960938 L 145.4375 16.164062 C 145.519531 15.84375 145.5625 15.507812 145.5625 15.164062 C 145.5625 13.988281 145.160156 13.398438 144.359375 13.398438 C 143.609375 13.398438 142.957031 13.742188 142.40625 14.429688 C 141.863281 15.109375 141.429688 16.003906 141.109375 17.117188 L 138.390625 29.960938 L 132.640625 29.960938 L 136.875 9.960938 L 142.640625 9.960938 L 142.203125 12.039062 C 143.554688 10.519531 145.179688 9.757812 147.078125 9.757812 C 149.421875 9.757812 150.796875 10.90625 151.203125 13.195312 C 152.660156 10.9375 154.507812 9.804688 156.75 9.804688 C 158.113281 9.804688 159.195312 10.179688 160 10.929688 C 160.800781 11.671875 161.203125 12.800781 161.203125 14.320312 C 161.203125 15.09375 161.109375 15.953125 160.921875 16.898438 C 160.734375 17.847656 160.460938 19.003906 160.109375 20.367188 C 159.898438 21.191406 159.707031 22 159.53125 22.789062 C 159.363281 23.570312 159.28125 24.191406 159.28125 24.648438 C 159.28125 25.179688 159.398438 25.59375 159.640625 25.882812 C 159.878906 26.175781 160.289062 26.320312 160.875 26.320312 C 161.519531 26.320312 161.960938 26.242188 162.203125 26.085938 C 162.035156 27.441406 161.546875 28.46875 160.734375 29.164062 C 159.921875 29.851562 158.941406 30.195312 157.796875 30.195312 Z M 167.28125 39.960938 C 166.023438 39.960938 164.921875 39.554688 163.984375 38.742188 C 163.039062 37.929688 162.5625 36.898438 162.5625 35.648438 C 162.5625 34.492188 162.855469 33.539062 163.4375 32.789062 C 164.023438 32.046875 164.78125 31.460938 165.71875 31.023438 C 166.648438 30.585938 167.886719 30.125 169.4375 29.648438 L 174.28125 6.804688 C 174.8125 4.242188 175.75 2.472656 177.09375 1.492188 C 178.4375 0.503906 179.925781 0.0078125 181.5625 0.0078125 C 182.8125 0.0078125 183.910156 0.414062 184.859375 1.226562 C 185.804688 2.039062 186.28125 3.070312 186.28125 4.320312 C 186.28125 4.9375 186.238281 5.484375 186.15625 5.960938 L 184.28125 5.960938 C 184.332031 5.378906 184.359375 5.019531 184.359375 4.882812 C 184.359375 4.457031 184.207031 4.125 183.90625 3.882812 C 183.613281 3.644531 183.253906 3.523438 182.828125 3.523438 C 182.273438 3.523438 181.726562 3.773438 181.1875 4.273438 C 180.65625 4.765625 180.269531 5.609375 180.03125 6.804688 L 179.359375 9.960938 L 182.28125 9.960938 L 182 11.554688 L 179.03125 11.554688 L 174.4375 33.164062 C 173.90625 35.746094 172.984375 37.523438 171.671875 38.492188 C 170.371094 39.46875 168.90625 39.960938 167.28125 39.960938 Z M 166.359375 36.398438 C 167.421875 36.398438 168.183594 35.355469 168.640625 33.273438 L 169.15625 30.960938 C 167.742188 31.4375 166.652344 31.992188 165.890625 32.617188 C 165.132812 33.242188 164.75 34.0625 164.75 35.085938 C 164.75 35.398438 164.914062 35.695312 165.234375 35.976562 C 165.558594 36.257812 165.933594 36.398438 166.359375 36.398438 Z M 187.398438 30.117188 C 185.417969 30.117188 183.855469 29.613281 182.710938 28.601562 C 181.5625 27.59375 180.992188 25.992188 180.992188 23.804688 C 180.992188 21.992188 181.367188 19.984375 182.117188 17.773438 C 182.867188 15.554688 184.0625 13.640625 185.710938 12.023438 C 187.367188 10.410156 189.449219 9.601562 191.960938 9.601562 C 195.367188 9.601562 197.070312 11.738281 197.070312 16.007812 L 197.070312 16.039062 C 197.152344 16.070312 197.296875 16.085938 197.507812 16.085938 C 198.390625 16.085938 199.40625 15.851562 200.554688 15.382812 C 201.699219 14.914062 202.742188 14.347656 203.679688 13.679688 L 204.039062 14.757812 C 203.257812 15.59375 202.246094 16.296875 201.007812 16.867188 C 199.765625 17.441406 198.417969 17.847656 196.960938 18.085938 C 196.742188 20.515625 196.1875 22.632812 195.304688 24.445312 C 194.429688 26.257812 193.296875 27.660156 191.914062 28.648438 C 190.527344 29.628906 189.023438 30.117188 187.398438 30.117188 Z M 188.992188 26.523438 C 189.636719 26.523438 190.277344 26.160156 190.914062 25.429688 C 191.546875 24.691406 192.105469 23.691406 192.585938 22.429688 C 193.074219 21.160156 193.421875 19.75 193.632812 18.195312 C 192.914062 18.039062 192.554688 17.484375 192.554688 16.523438 C 192.554688 15.429688 192.964844 14.710938 193.789062 14.367188 C 193.734375 13.484375 193.601562 12.875 193.382812 12.539062 C 193.171875 12.207031 192.804688 12.039062 192.273438 12.039062 C 191.398438 12.039062 190.542969 12.679688 189.710938 13.960938 C 188.886719 15.242188 188.21875 16.78125 187.710938 18.570312 C 187.210938 20.351562 186.960938 21.921875 186.960938 23.273438 C 186.960938 24.554688 187.105469 25.421875 187.398438 25.867188 C 187.6875 26.304688 188.21875 26.523438 188.992188 26.523438 Z M 213.550781 30.195312 C 211.925781 30.195312 210.730469 29.765625 209.972656 28.898438 C 209.210938 28.035156 208.832031 26.960938 208.832031 25.679688 C 208.832031 25.117188 208.898438 24.488281 209.035156 23.789062 C 209.167969 23.082031 209.308594 22.394531 209.457031 21.726562 C 209.601562 21.0625 209.699219 20.632812 209.753906 20.445312 C 209.960938 19.507812 210.160156 18.585938 210.347656 17.679688 C 210.535156 16.773438 210.628906 16.039062 210.628906 15.476562 C 210.628906 14.125 210.148438 13.445312 209.191406 13.445312 C 208.503906 13.445312 207.886719 13.785156 207.347656 14.460938 C 206.816406 15.140625 206.386719 16.023438 206.066406 17.117188 L 203.347656 29.960938 L 197.597656 29.960938 L 201.832031 9.960938 L 207.597656 9.960938 L 207.160156 12.039062 C 208.492188 10.550781 210.050781 9.804688 211.832031 9.804688 C 213.195312 9.804688 214.273438 10.179688 215.066406 10.929688 C 215.867188 11.671875 216.269531 12.800781 216.269531 14.320312 C 216.269531 15.09375 216.175781 15.953125 215.988281 16.898438 C 215.800781 17.847656 215.535156 19.003906 215.191406 20.367188 C 214.980469 21.191406 214.789062 22 214.613281 22.789062 C 214.433594 23.570312 214.347656 24.191406 214.347656 24.648438 C 214.347656 25.179688 214.464844 25.59375 214.707031 25.882812 C 214.945312 26.175781 215.363281 26.320312 215.957031 26.320312 C 216.757812 26.320312 217.398438 26.035156 217.878906 25.460938 C 218.355469 24.890625 218.835938 24.003906 219.316406 22.804688 L 220.988281 22.804688 C 220.007812 25.734375 218.867188 27.695312 217.566406 28.695312 C 216.273438 29.695312 214.933594 30.195312 213.550781 30.195312 Z M 223.078125 30.195312 C 221.710938 30.195312 220.703125 29.785156 220.046875 28.960938 C 219.398438 28.140625 219.078125 27.046875 219.078125 25.679688 C 219.078125 24.992188 219.15625 24.285156 219.3125 23.554688 L 221.875 11.554688 L 220.546875 11.554688 L 220.875 9.960938 L 222.1875 9.960938 L 223.390625 4.445312 L 229.3125 3.648438 C 229.070312 4.660156 228.9375 5.257812 228.90625 5.445312 C 228.71875 6.1875 228.398438 7.691406 227.953125 9.960938 L 230.359375 9.960938 L 230.03125 11.554688 L 227.625 11.554688 L 225.078125 23.554688 C 224.941406 24.148438 224.875 24.617188 224.875 24.960938 C 224.875 25.921875 225.335938 26.398438 226.265625 26.398438 C 226.753906 26.398438 227.101562 26.359375 227.3125 26.273438 C 226.78125 27.828125 226.15625 28.867188 225.4375 29.398438 C 224.71875 29.929688 223.929688 30.195312 223.078125 30.195312 Z M 0.320312 -10.039062 "/>
<path style=" stroke:none;fill-rule:nonzero;fill:rgb(0%,0%,0%);fill-opacity:1;" d="M 4.273438 70.15625 C 3 70.15625 1.96875 69.761719 1.179688 68.96875 C 0.398438 68.167969 0.0078125 66.964844 0.0078125 65.359375 C 0.0078125 64.695312 0.113281 63.828125 0.320312 62.765625 L 3.039062 49.921875 L 8.804688 49.921875 L 5.914062 63.515625 C 5.839844 63.839844 5.804688 64.171875 5.804688 64.515625 C 5.804688 65.695312 6.203125 66.28125 7.007812 66.28125 C 7.746094 66.28125 8.382812 65.96875 8.914062 65.34375 C 9.453125 64.71875 9.882812 63.859375 10.195312 62.765625 L 12.914062 49.921875 L 18.679688 49.921875 L 15.804688 63.515625 C 15.667969 64.183594 15.601562 64.667969 15.601562 64.96875 C 15.601562 65.84375 16.054688 66.28125 16.960938 66.28125 C 18.1875 66.28125 19.328125 65.511719 20.382812 63.96875 C 21.433594 62.417969 22.277344 60.574219 22.914062 58.4375 C 23.558594 56.304688 23.882812 54.464844 23.882812 52.921875 C 23.828125 53.058594 23.652344 53.164062 23.351562 53.234375 C 23.058594 53.296875 22.808594 53.328125 22.601562 53.328125 C 22.140625 53.328125 21.789062 53.117188 21.539062 52.6875 C 21.289062 52.261719 21.164062 51.792969 21.164062 51.28125 C 21.164062 50.648438 21.367188 50.132812 21.773438 49.734375 C 22.1875 49.328125 22.808594 49.125 23.632812 49.125 C 24.515625 49.125 25.15625 49.453125 25.554688 50.109375 C 25.960938 50.757812 26.164062 51.589844 26.164062 52.609375 C 26.164062 55.007812 25.746094 57.574219 24.914062 60.3125 C 24.089844 63.042969 22.824219 65.367188 21.117188 67.28125 C 19.40625 69.199219 17.289062 70.15625 14.757812 70.15625 C 13.453125 70.15625 12.386719 69.882812 11.554688 69.328125 C 10.730469 68.765625 10.199219 67.921875 9.960938 66.796875 C 8.46875 69.039062 6.574219 70.15625 4.273438 70.15625 Z M 33.445312 47.765625 C 32.558594 47.765625 31.808594 47.460938 31.195312 46.84375 C 30.578125 46.230469 30.273438 45.484375 30.273438 44.609375 C 30.273438 43.726562 30.578125 42.96875 31.195312 42.34375 C 31.808594 41.71875 32.558594 41.40625 33.445312 41.40625 C 34.320312 41.40625 35.070312 41.71875 35.695312 42.34375 C 36.320312 42.96875 36.632812 43.726562 36.632812 44.609375 C 36.632812 45.484375 36.320312 46.230469 35.695312 46.84375 C 35.070312 47.460938 34.320312 47.765625 33.445312 47.765625 Z M 30.710938 70.15625 C 29.4375 70.15625 28.40625 69.761719 27.617188 68.96875 C 26.835938 68.167969 26.445312 66.964844 26.445312 65.359375 C 26.445312 64.695312 26.550781 63.828125 26.757812 62.765625 L 29.476562 49.921875 L 35.242188 49.921875 L 32.351562 63.515625 C 32.246094 63.921875 32.195312 64.351562 32.195312 64.796875 C 32.195312 65.339844 32.320312 65.726562 32.570312 65.953125 C 32.828125 66.171875 33.25 66.28125 33.835938 66.28125 C 34.605469 66.28125 35.324219 65.960938 35.992188 65.3125 C 36.65625 64.65625 37.140625 63.808594 37.445312 62.765625 L 39.117188 62.765625 C 38.125 65.640625 36.855469 67.59375 35.304688 68.625 C 33.761719 69.648438 32.230469 70.15625 30.710938 70.15625 Z M 41.390625 70.15625 C 40.117188 70.15625 39.085938 69.761719 38.296875 68.96875 C 37.515625 68.167969 37.125 66.964844 37.125 65.359375 C 37.125 64.695312 37.230469 63.828125 37.4375 62.765625 L 39.84375 51.515625 L 38.515625 51.515625 L 38.84375 49.921875 L 40.15625 49.921875 L 41.359375 44.40625 L 47.28125 43.609375 L 45.921875 49.921875 L 48.3125 49.921875 L 48 51.515625 L 45.59375 51.515625 L 43.03125 63.515625 C 42.925781 63.921875 42.875 64.351562 42.875 64.796875 C 42.875 65.339844 43 65.726562 43.25 65.953125 C 43.507812 66.171875 43.929688 66.28125 44.515625 66.28125 C 45.285156 66.28125 46.003906 65.960938 46.671875 65.3125 C 47.335938 64.65625 47.820312 63.808594 48.125 62.765625 L 49.796875 62.765625 C 48.804688 65.640625 47.535156 67.59375 45.984375 68.625 C 44.441406 69.648438 42.910156 70.15625 41.390625 70.15625 Z M 62.554688 70.15625 C 60.929688 70.15625 59.734375 69.726562 58.976562 68.859375 C 58.214844 67.996094 57.835938 66.921875 57.835938 65.640625 C 57.835938 65.078125 57.902344 64.449219 58.039062 63.75 C 58.171875 63.042969 58.3125 62.355469 58.460938 61.6875 C 58.605469 61.023438 58.703125 60.59375 58.757812 60.40625 C 58.964844 59.46875 59.164062 58.546875 59.351562 57.640625 C 59.539062 56.734375 59.632812 56 59.632812 55.4375 C 59.632812 54.085938 59.152344 53.40625 58.195312 53.40625 C 57.507812 53.40625 56.890625 53.746094 56.351562 54.421875 C 55.820312 55.101562 55.390625 55.984375 55.070312 57.078125 L 52.351562 69.921875 L 46.601562 69.921875 L 52.398438 42.71875 L 58.320312 41.921875 L 56.164062 52 C 57.496094 50.511719 59.054688 49.765625 60.835938 49.765625 C 62.199219 49.765625 63.277344 50.140625 64.070312 50.890625 C 64.871094 51.632812 65.273438 52.761719 65.273438 54.28125 C 65.273438 55.054688 65.179688 55.914062 64.992188 56.859375 C 64.804688 57.808594 64.539062 58.964844 64.195312 60.328125 C 63.984375 61.152344 63.792969 61.960938 63.617188 62.75 C 63.4375 63.53125 63.351562 64.152344 63.351562 64.609375 C 63.351562 65.140625 63.46875 65.554688 63.710938 65.84375 C 63.949219 66.136719 64.367188 66.28125 64.960938 66.28125 C 65.761719 66.28125 66.402344 65.996094 66.882812 65.421875 C 67.359375 64.851562 67.839844 63.964844 68.320312 62.765625 L 69.992188 62.765625 C 69.011719 65.695312 67.871094 67.65625 66.570312 68.65625 C 65.277344 69.65625 63.9375 70.15625 62.554688 70.15625 Z M 74.164062 70.078125 C 72.183594 70.078125 70.621094 69.574219 69.476562 68.5625 C 68.328125 67.554688 67.757812 65.953125 67.757812 63.765625 C 67.757812 61.953125 68.132812 59.945312 68.882812 57.734375 C 69.632812 55.515625 70.828125 53.601562 72.476562 51.984375 C 74.132812 50.371094 76.214844 49.5625 78.726562 49.5625 C 82.132812 49.5625 83.835938 51.699219 83.835938 55.96875 L 83.835938 56 C 83.917969 56.03125 84.0625 56.046875 84.273438 56.046875 C 85.15625 56.046875 86.171875 55.8125 87.320312 55.34375 C 88.464844 54.875 89.507812 54.308594 90.445312 53.640625 L 90.804688 54.71875 C 90.023438 55.554688 89.011719 56.257812 87.773438 56.828125 C 86.53125 57.402344 85.183594 57.808594 83.726562 58.046875 C 83.507812 60.476562 82.953125 62.59375 82.070312 64.40625 C 81.195312 66.21875 80.0625 67.621094 78.679688 68.609375 C 77.292969 69.589844 75.789062 70.078125 74.164062 70.078125 Z M 75.757812 66.484375 C 76.402344 66.484375 77.042969 66.121094 77.679688 65.390625 C 78.3125 64.652344 78.871094 63.652344 79.351562 62.390625 C 79.839844 61.121094 80.1875 59.710938 80.398438 58.15625 C 79.679688 58 79.320312 57.445312 79.320312 56.484375 C 79.320312 55.390625 79.730469 54.671875 80.554688 54.328125 C 80.5 53.445312 80.367188 52.835938 80.148438 52.5 C 79.9375 52.167969 79.570312 52 79.039062 52 C 78.164062 52 77.308594 52.640625 76.476562 53.921875 C 75.652344 55.203125 74.984375 56.742188 74.476562 58.53125 C 73.976562 60.3125 73.726562 61.882812 73.726562 63.234375 C 73.726562 64.515625 73.871094 65.382812 74.164062 65.828125 C 74.453125 66.265625 74.984375 66.484375 75.757812 66.484375 Z M 89.832031 70.15625 C 88.558594 70.15625 87.527344 69.761719 86.738281 68.96875 C 85.957031 68.167969 85.566406 66.964844 85.566406 65.359375 C 85.566406 64.695312 85.671875 63.828125 85.878906 62.765625 L 88.597656 49.921875 L 94.363281 49.921875 L 91.472656 63.515625 C 91.398438 63.921875 91.363281 64.296875 91.363281 64.640625 C 91.363281 65.734375 91.761719 66.28125 92.566406 66.28125 C 93.304688 66.28125 93.941406 65.96875 94.472656 65.34375 C 95.011719 64.71875 95.441406 63.859375 95.753906 62.765625 L 98.472656 49.921875 L 104.238281 49.921875 L 101.363281 63.515625 C 101.246094 63.921875 101.191406 64.351562 101.191406 64.796875 C 101.191406 65.339844 101.316406 65.726562 101.566406 65.953125 C 101.824219 66.171875 102.246094 66.28125 102.832031 66.28125 C 103.582031 66.28125 104.226562 65.964844 104.769531 65.328125 C 105.320312 64.683594 105.757812 63.828125 106.082031 62.765625 L 107.753906 62.765625 C 106.773438 65.640625 105.554688 67.59375 104.097656 68.625 C 102.648438 69.648438 101.191406 70.15625 99.722656 70.15625 C 98.574219 70.15625 97.660156 69.839844 96.972656 69.203125 C 96.292969 68.558594 95.886719 67.609375 95.753906 66.359375 C 94.847656 67.828125 93.894531 68.828125 92.894531 69.359375 C 91.894531 69.890625 90.871094 70.15625 89.832031 70.15625 Z M 109.84375 70.15625 C 108.476562 70.15625 107.46875 69.746094 106.8125 68.921875 C 106.164062 68.101562 105.84375 67.007812 105.84375 65.640625 C 105.84375 64.953125 105.921875 64.246094 106.078125 63.515625 L 108.640625 51.515625 L 107.3125 51.515625 L 107.640625 49.921875 L 108.953125 49.921875 L 110.15625 44.40625 L 116.078125 43.609375 C 115.835938 44.621094 115.703125 45.21875 115.671875 45.40625 C 115.484375 46.148438 115.164062 47.652344 114.71875 49.921875 L 117.125 49.921875 L 116.796875 51.515625 L 114.390625 51.515625 L 111.84375 63.515625 C 111.707031 64.109375 111.640625 64.578125 111.640625 64.921875 C 111.640625 65.882812 112.101562 66.359375 113.03125 66.359375 C 113.519531 66.359375 113.867188 66.320312 114.078125 66.234375 C 113.546875 67.789062 112.921875 68.828125 112.203125 69.359375 C 111.484375 69.890625 110.695312 70.15625 109.84375 70.15625 Z M 132.484375 47.765625 C 131.597656 47.765625 130.847656 47.460938 130.234375 46.84375 C 129.617188 46.230469 129.3125 45.484375 129.3125 44.609375 C 129.3125 43.726562 129.617188 42.96875 130.234375 42.34375 C 130.847656 41.71875 131.597656 41.40625 132.484375 41.40625 C 133.359375 41.40625 134.109375 41.71875 134.734375 42.34375 C 135.359375 42.96875 135.671875 43.726562 135.671875 44.609375 C 135.671875 45.484375 135.359375 46.230469 134.734375 46.84375 C 134.109375 47.460938 133.359375 47.765625 132.484375 47.765625 Z M 129.75 70.15625 C 128.476562 70.15625 127.445312 69.761719 126.65625 68.96875 C 125.875 68.167969 125.484375 66.964844 125.484375 65.359375 C 125.484375 64.695312 125.589844 63.828125 125.796875 62.765625 L 128.515625 49.921875 L 134.28125 49.921875 L 131.390625 63.515625 C 131.285156 63.921875 131.234375 64.351562 131.234375 64.796875 C 131.234375 65.339844 131.359375 65.726562 131.609375 65.953125 C 131.867188 66.171875 132.289062 66.28125 132.875 66.28125 C 133.644531 66.28125 134.363281 65.960938 135.03125 65.3125 C 135.695312 64.65625 136.179688 63.808594 136.484375 62.765625 L 138.15625 62.765625 C 137.164062 65.640625 135.894531 67.59375 134.34375 68.625 C 132.800781 69.648438 131.269531 70.15625 129.75 70.15625 Z M 150.914062 70.15625 C 149.289062 70.15625 148.09375 69.726562 147.335938 68.859375 C 146.574219 67.996094 146.195312 66.921875 146.195312 65.640625 C 146.195312 65.078125 146.261719 64.449219 146.398438 63.75 C 146.53125 63.042969 146.671875 62.355469 146.820312 61.6875 C 146.964844 61.023438 147.0625 60.59375 147.117188 60.40625 C 147.324219 59.46875 147.523438 58.546875 147.710938 57.640625 C 147.898438 56.734375 147.992188 56 147.992188 55.4375 C 147.992188 54.085938 147.511719 53.40625 146.554688 53.40625 C 145.867188 53.40625 145.25 53.746094 144.710938 54.421875 C 144.179688 55.101562 143.75 55.984375 143.429688 57.078125 L 140.710938 69.921875 L 134.960938 69.921875 L 139.195312 49.921875 L 144.960938 49.921875 L 144.523438 52 C 145.855469 50.511719 147.414062 49.765625 149.195312 49.765625 C 150.558594 49.765625 151.636719 50.140625 152.429688 50.890625 C 153.230469 51.632812 153.632812 52.761719 153.632812 54.28125 C 153.632812 55.054688 153.539062 55.914062 153.351562 56.859375 C 153.164062 57.808594 152.898438 58.964844 152.554688 60.328125 C 152.34375 61.152344 152.152344 61.960938 151.976562 62.75 C 151.796875 63.53125 151.710938 64.152344 151.710938 64.609375 C 151.710938 65.140625 151.828125 65.554688 152.070312 65.84375 C 152.308594 66.136719 152.726562 66.28125 153.320312 66.28125 C 154.121094 66.28125 154.761719 65.996094 155.242188 65.421875 C 155.71875 64.851562 156.199219 63.964844 156.679688 62.765625 L 158.351562 62.765625 C 157.371094 65.695312 156.230469 67.65625 154.929688 68.65625 C 153.636719 69.65625 152.296875 70.15625 150.914062 70.15625 Z M 161.238281 70.15625 C 159.957031 70.15625 158.871094 69.914062 157.988281 69.421875 C 157.113281 68.933594 156.464844 68.296875 156.035156 67.515625 C 155.609375 66.726562 155.394531 65.902344 155.394531 65.046875 C 155.394531 64.164062 155.605469 63.398438 156.019531 62.75 C 156.425781 62.09375 156.925781 61.621094 157.519531 61.328125 C 158.558594 59.453125 159.464844 57.5625 160.238281 55.65625 C 161.007812 53.75 161.742188 51.695312 162.441406 49.484375 L 168.363281 48.6875 C 168.488281 52.09375 168.710938 55.789062 169.035156 59.765625 C 169.167969 61.359375 169.238281 62.515625 169.238281 63.234375 C 169.238281 63.851562 169.183594 64.359375 169.082031 64.765625 C 170.332031 64.046875 171.289062 63.382812 171.957031 62.765625 L 173.628906 62.765625 C 171.929688 64.734375 169.894531 66.402344 167.519531 67.765625 C 166.746094 68.589844 165.792969 69.195312 164.660156 69.578125 C 163.523438 69.960938 162.382812 70.15625 161.238281 70.15625 Z M 159.957031 67 C 160.945312 67 161.773438 66.710938 162.441406 66.125 C 163.105469 65.53125 163.441406 64.585938 163.441406 63.28125 C 163.441406 62.480469 163.355469 61.359375 163.191406 59.921875 C 162.929688 56.882812 162.757812 54.839844 162.675781 53.796875 C 162.039062 55.914062 160.960938 58.433594 159.441406 61.359375 C 160.054688 61.683594 160.363281 62.152344 160.363281 62.765625 C 160.363281 63.265625 160.195312 63.71875 159.863281 64.125 C 159.527344 64.523438 159.105469 64.71875 158.597656 64.71875 C 158.035156 64.71875 157.675781 64.546875 157.519531 64.203125 C 157.519531 65.164062 157.710938 65.871094 158.097656 66.328125 C 158.480469 66.777344 159.101562 67 159.957031 67 Z M 175.90625 70.15625 C 174.632812 70.15625 173.601562 69.761719 172.8125 68.96875 C 172.03125 68.167969 171.640625 66.964844 171.640625 65.359375 C 171.640625 64.695312 171.746094 63.828125 171.953125 62.765625 L 174.359375 51.515625 L 173.03125 51.515625 L 173.359375 49.921875 L 174.671875 49.921875 L 175.875 44.40625 L 181.796875 43.609375 L 180.4375 49.921875 L 182.828125 49.921875 L 182.515625 51.515625 L 180.109375 51.515625 L 177.546875 63.515625 C 177.441406 63.921875 177.390625 64.351562 177.390625 64.796875 C 177.390625 65.339844 177.515625 65.726562 177.765625 65.953125 C 178.023438 66.171875 178.445312 66.28125 179.03125 66.28125 C 179.800781 66.28125 180.519531 65.960938 181.1875 65.3125 C 181.851562 64.65625 182.335938 63.808594 182.640625 62.765625 L 184.3125 62.765625 C 183.320312 65.640625 182.050781 67.59375 180.5 68.625 C 178.957031 69.648438 177.425781 70.15625 175.90625 70.15625 Z M 187.429688 70.15625 C 185.90625 70.15625 184.640625 69.640625 183.632812 68.609375 C 182.625 67.570312 182.117188 65.9375 182.117188 63.71875 C 182.117188 61.75 182.507812 59.679688 183.289062 57.5 C 184.078125 55.324219 185.25 53.484375 186.804688 51.984375 C 188.367188 50.476562 190.230469 49.71875 192.398438 49.71875 C 193.492188 49.71875 194.304688 49.90625 194.835938 50.28125 C 195.367188 50.65625 195.632812 51.152344 195.632812 51.765625 L 195.632812 52.046875 L 196.070312 49.921875 L 201.835938 49.921875 L 198.945312 63.515625 C 198.839844 63.921875 198.789062 64.351562 198.789062 64.796875 C 198.789062 65.945312 199.335938 66.515625 200.429688 66.515625 C 201.179688 66.515625 201.824219 66.171875 202.367188 65.484375 C 202.917969 64.789062 203.355469 63.882812 203.679688 62.765625 L 205.351562 62.765625 C 204.359375 65.640625 203.136719 67.59375 201.679688 68.625 C 200.230469 69.648438 198.777344 70.15625 197.320312 70.15625 C 196.195312 70.15625 195.289062 69.84375 194.601562 69.21875 C 193.921875 68.59375 193.523438 67.683594 193.398438 66.484375 C 192.617188 67.578125 191.75 68.464844 190.804688 69.140625 C 189.867188 69.820312 188.742188 70.15625 187.429688 70.15625 Z M 190.039062 66.28125 C 190.703125 66.28125 191.359375 65.96875 192.007812 65.34375 C 192.664062 64.71875 193.109375 63.859375 193.351562 62.765625 L 195.273438 53.71875 C 195.273438 53.375 195.136719 53.039062 194.867188 52.703125 C 194.605469 52.371094 194.195312 52.203125 193.632812 52.203125 C 192.570312 52.203125 191.609375 52.824219 190.757812 54.0625 C 189.902344 55.304688 189.234375 56.796875 188.757812 58.546875 C 188.277344 60.289062 188.039062 61.824219 188.039062 63.15625 C 188.039062 64.492188 188.230469 65.34375 188.617188 65.71875 C 189 66.09375 189.476562 66.28125 190.039062 66.28125 Z M 207.625 70.15625 C 206.351562 70.15625 205.320312 69.761719 204.53125 68.96875 C 203.75 68.167969 203.359375 66.964844 203.359375 65.359375 C 203.359375 64.695312 203.464844 63.828125 203.671875 62.765625 L 207.953125 42.71875 L 213.875 41.921875 L 209.265625 63.515625 C 209.160156 63.921875 209.109375 64.351562 209.109375 64.796875 C 209.109375 65.339844 209.234375 65.726562 209.484375 65.953125 C 209.742188 66.171875 210.164062 66.28125 210.75 66.28125 C 211.519531 66.28125 212.238281 65.960938 212.90625 65.3125 C 213.570312 64.65625 214.054688 63.808594 214.359375 62.765625 L 216.03125 62.765625 C 215.039062 65.640625 213.769531 67.59375 212.21875 68.625 C 210.675781 69.648438 209.144531 70.15625 207.625 70.15625 Z M 218.304688 70.15625 C 217.03125 70.15625 216 69.761719 215.210938 68.96875 C 214.429688 68.167969 214.039062 66.964844 214.039062 65.359375 C 214.039062 64.695312 214.144531 63.828125 214.351562 62.765625 L 218.632812 42.71875 L 224.554688 41.921875 L 219.945312 63.515625 C 219.839844 63.921875 219.789062 64.351562 219.789062 64.796875 C 219.789062 65.339844 219.914062 65.726562 220.164062 65.953125 C 220.421875 66.171875 220.84375 66.28125 221.429688 66.28125 C 222.199219 66.28125 222.917969 65.960938 223.585938 65.3125 C 224.25 64.65625 224.734375 63.808594 225.039062 62.765625 L 226.710938 62.765625 C 225.71875 65.640625 224.449219 67.59375 222.898438 68.625 C 221.355469 69.648438 219.824219 70.15625 218.304688 70.15625 Z M 231.71875 47.765625 C 230.832031 47.765625 230.082031 47.460938 229.46875 46.84375 C 228.851562 46.230469 228.546875 45.484375 228.546875 44.609375 C 228.546875 43.726562 228.851562 42.96875 229.46875 42.34375 C 230.082031 41.71875 230.832031 41.40625 231.71875 41.40625 C 232.59375 41.40625 233.34375 41.71875 233.96875 42.34375 C 234.59375 42.96875 234.90625 43.726562 234.90625 44.609375 C 234.90625 45.484375 234.59375 46.230469 233.96875 46.84375 C 233.34375 47.460938 232.59375 47.765625 231.71875 47.765625 Z M 228.984375 70.15625 C 227.710938 70.15625 226.679688 69.761719 225.890625 68.96875 C 225.109375 68.167969 224.71875 66.964844 224.71875 65.359375 C 224.71875 64.695312 224.824219 63.828125 225.03125 62.765625 L 227.75 49.921875 L 233.515625 49.921875 L 230.625 63.515625 C 230.519531 63.921875 230.46875 64.351562 230.46875 64.796875 C 230.46875 65.339844 230.59375 65.726562 230.84375 65.953125 C 231.101562 66.171875 231.523438 66.28125 232.109375 66.28125 C 232.878906 66.28125 233.597656 65.960938 234.265625 65.3125 C 234.929688 64.65625 235.414062 63.808594 235.71875 62.765625 L 237.390625 62.765625 C 236.398438 65.640625 235.128906 67.59375 233.578125 68.625 C 232.035156 69.648438 230.503906 70.15625 228.984375 70.15625 Z M 250.148438 70.15625 C 248.523438 70.15625 247.328125 69.726562 246.570312 68.859375 C 245.808594 67.996094 245.429688 66.921875 245.429688 65.640625 C 245.429688 65.078125 245.496094 64.449219 245.632812 63.75 C 245.765625 63.042969 245.90625 62.355469 246.054688 61.6875 C 246.199219 61.023438 246.296875 60.59375 246.351562 60.40625 C 246.558594 59.46875 246.757812 58.546875 246.945312 57.640625 C 247.132812 56.734375 247.226562 56 247.226562 55.4375 C 247.226562 54.085938 246.746094 53.40625 245.789062 53.40625 C 245.101562 53.40625 244.484375 53.746094 243.945312 54.421875 C 243.414062 55.101562 242.984375 55.984375 242.664062 57.078125 L 239.945312 69.921875 L 234.195312 69.921875 L 238.429688 49.921875 L 244.195312 49.921875 L 243.757812 52 C 245.089844 50.511719 246.648438 49.765625 248.429688 49.765625 C 249.792969 49.765625 250.871094 50.140625 251.664062 50.890625 C 252.464844 51.632812 252.867188 52.761719 252.867188 54.28125 C 252.867188 55.054688 252.773438 55.914062 252.585938 56.859375 C 252.398438 57.808594 252.132812 58.964844 251.789062 60.328125 C 251.578125 61.152344 251.386719 61.960938 251.210938 62.75 C 251.03125 63.53125 250.945312 64.152344 250.945312 64.609375 C 250.945312 65.140625 251.0625 65.554688 251.304688 65.84375 C 251.542969 66.136719 251.960938 66.28125 252.554688 66.28125 C 253.355469 66.28125 253.996094 65.996094 254.476562 65.421875 C 254.953125 64.851562 255.433594 63.964844 255.914062 62.765625 L 257.585938 62.765625 C 256.605469 65.695312 255.464844 67.65625 254.164062 68.65625 C 252.871094 69.65625 251.53125 70.15625 250.148438 70.15625 Z M 262.957031 79.921875 C 261.695312 79.921875 260.589844 79.515625 259.644531 78.703125 C 258.695312 77.890625 258.222656 76.859375 258.222656 75.609375 C 258.222656 74.429688 258.511719 73.46875 259.097656 72.71875 C 259.691406 71.976562 260.449219 71.394531 261.378906 70.96875 C 262.316406 70.539062 263.570312 70.085938 265.144531 69.609375 L 265.503906 67.921875 C 264.117188 69.414062 262.519531 70.15625 260.707031 70.15625 C 259.183594 70.15625 257.917969 69.640625 256.910156 68.609375 C 255.902344 67.570312 255.394531 65.9375 255.394531 63.71875 C 255.394531 61.75 255.785156 59.679688 256.566406 57.5 C 257.355469 55.324219 258.527344 53.484375 260.082031 51.984375 C 261.644531 50.476562 263.507812 49.71875 265.675781 49.71875 C 266.769531 49.71875 267.582031 49.90625 268.113281 50.28125 C 268.644531 50.65625 268.910156 51.152344 268.910156 51.765625 L 268.910156 51.84375 L 269.316406 49.921875 L 275.113281 49.921875 L 270.222656 73.125 C 269.691406 75.6875 268.753906 77.457031 267.410156 78.4375 C 266.066406 79.425781 264.582031 79.921875 262.957031 79.921875 Z M 263.316406 66.28125 C 263.917969 66.28125 264.535156 66.023438 265.160156 65.5 C 265.792969 64.980469 266.242188 64.242188 266.503906 63.28125 L 268.550781 53.609375 C 268.332031 52.671875 267.785156 52.203125 266.910156 52.203125 C 265.847656 52.203125 264.886719 52.824219 264.035156 54.0625 C 263.179688 55.304688 262.511719 56.796875 262.035156 58.546875 C 261.554688 60.289062 261.316406 61.824219 261.316406 63.15625 C 261.316406 64.492188 261.507812 65.34375 261.894531 65.71875 C 262.277344 66.09375 262.753906 66.28125 263.316406 66.28125 Z M 262.035156 76.359375 C 262.511719 76.359375 262.964844 76.109375 263.394531 75.609375 C 263.820312 75.117188 264.152344 74.328125 264.394531 73.234375 L 264.863281 70.875 C 263.457031 71.363281 262.363281 71.925781 261.582031 72.5625 C 260.808594 73.195312 260.425781 74.023438 260.425781 75.046875 C 260.425781 75.359375 260.585938 75.65625 260.910156 75.9375 C 261.230469 76.21875 261.605469 76.359375 262.035156 76.359375 Z M 0.320312 29.921875 "/>
</g>
</svg>
