<?xml version="1.0" encoding="UTF-8"?>
<svg xmlns="http://www.w3.org/2000/svg" xmlns:xlink="http://www.w3.org/1999/xlink" width="276" height="80" viewBox="0 0 276 80">
<path fill-rule="nonzero" fill="rgb(0%, 0%, 0%)" fill-opacity="1" d="M 4.28125 30.199219 C 3 30.199219 1.96875 29.800781 1.179688 29 C 0.394531 28.199219 0 27 0 25.402344 C 0 24.734375 0.105469 23.867188 0.320312 22.800781 L 3.039062 9.960938 L 8.800781 9.960938 L 5.921875 23.5625 C 5.839844 23.960938 5.800781 24.335938 5.800781 24.679688 C 5.800781 25.773438 6.199219 26.320312 7 26.320312 C 7.746094 26.320312 8.386719 26.007812 8.921875 25.382812 C 9.453125 24.753906 9.878906 23.894531 10.199219 22.800781 L 12.921875 9.960938 L 18.679688 9.960938 L 15.800781 23.5625 C 15.695312 23.960938 15.640625 24.386719 15.640625 24.839844 C 15.640625 25.375 15.765625 25.753906 16.019531 25.980469 C 16.273438 26.207031 16.695312 26.320312 17.28125 26.320312 C 18.027344 26.320312 18.671875 26 19.21875 25.359375 C 19.765625 24.71875 20.199219 23.867188 20.519531 22.800781 L 22.199219 22.800781 C 21.214844 25.679688 19.992188 27.632812 18.539062 28.660156 C 17.085938 29.6875 15.628906 30.199219 14.160156 30.199219 C 13.011719 30.199219 12.101562 29.882812 11.421875 29.242188 C 10.742188 28.601562 10.332031 27.652344 10.199219 26.402344 C 9.292969 27.867188 8.339844 28.867188 7.339844 29.402344 C 6.339844 29.933594 5.320312 30.199219 4.28125 30.199219 Z M 25.078125 30.199219 C 23.800781 30.199219 22.71875 29.953125 21.839844 29.460938 C 20.960938 28.96875 20.304688 28.328125 19.878906 27.539062 C 19.453125 26.753906 19.238281 25.933594 19.238281 25.082031 C 19.238281 24.203125 19.445312 23.433594 19.859375 22.78125 C 20.273438 22.128906 20.773438 21.652344 21.359375 21.359375 C 22.398438 19.492188 23.304688 17.609375 24.078125 15.699219 C 24.851562 13.792969 25.585938 11.734375 26.28125 9.519531 L 32.199219 8.722656 C 32.332031 12.136719 32.558594 15.828125 32.878906 19.800781 C 33.011719 21.402344 33.078125 22.5625 33.078125 23.28125 C 33.078125 23.894531 33.027344 24.402344 32.917969 24.800781 C 34.171875 24.082031 35.132812 23.414062 35.800781 22.800781 L 37.480469 22.800781 C 35.773438 24.773438 33.734375 26.441406 31.359375 27.800781 C 30.585938 28.628906 29.632812 29.234375 28.5 29.621094 C 27.367188 30.007812 26.226562 30.199219 25.078125 30.199219 Z M 23.800781 27.039062 C 24.785156 27.039062 25.613281 26.746094 26.28125 26.160156 C 26.945312 25.574219 27.28125 24.628906 27.28125 23.320312 C 27.28125 22.519531 27.199219 21.402344 27.039062 19.960938 C 26.773438 16.921875 26.597656 14.882812 26.519531 13.839844 C 25.878906 15.945312 24.800781 18.46875 23.28125 21.402344 C 23.894531 21.722656 24.199219 22.1875 24.199219 22.800781 C 24.199219 23.308594 24.03125 23.761719 23.699219 24.160156 C 23.367188 24.5625 22.945312 24.761719 22.441406 24.761719 C 21.878906 24.761719 21.519531 24.585938 21.359375 24.242188 C 21.359375 25.203125 21.554688 25.90625 21.941406 26.359375 C 22.328125 26.8125 22.945312 27.039062 23.800781 27.039062 Z M 41.441406 30.199219 C 39.496094 30.199219 37.972656 29.6875 36.878906 28.660156 C 35.785156 27.632812 35.242188 26.027344 35.242188 23.839844 C 35.242188 22 35.601562 19.972656 36.320312 17.761719 C 37.039062 15.546875 38.214844 13.632812 39.839844 12.019531 C 41.46875 10.40625 43.535156 9.601562 46.039062 9.601562 C 48.972656 9.601562 50.441406 10.882812 50.441406 13.441406 C 50.441406 14.933594 50.015625 16.308594 49.160156 17.5625 C 48.308594 18.816406 47.175781 19.820312 45.761719 20.582031 C 44.347656 21.339844 42.839844 21.773438 41.242188 21.882812 C 41.1875 22.46875 41.160156 22.867188 41.160156 23.082031 C 41.160156 25.292969 41.988281 26.402344 43.640625 26.402344 C 44.386719 26.402344 45.1875 26.199219 46.039062 25.800781 C 46.894531 25.402344 47.667969 24.894531 48.359375 24.28125 C 47.640625 28.226562 45.335938 30.199219 41.441406 30.199219 Z M 41.519531 19.960938 C 42.535156 19.933594 43.488281 19.601562 44.378906 18.960938 C 45.273438 18.320312 45.992188 17.5 46.539062 16.5 C 47.085938 15.5 47.359375 14.453125 47.359375 13.359375 C 47.359375 12.265625 47.027344 11.722656 46.359375 11.722656 C 45.425781 11.722656 44.5 12.566406 43.582031 14.261719 C 42.660156 15.953125 41.972656 17.855469 41.519531 19.960938 Z M 64.839844 30.199219 C 62.867188 30.199219 61.335938 29.6875 60.242188 28.660156 C 59.148438 27.632812 58.601562 26.027344 58.601562 23.839844 C 58.601562 22 58.96875 19.972656 59.699219 17.761719 C 60.433594 15.546875 61.609375 13.632812 63.222656 12.019531 C 64.835938 10.40625 66.882812 9.601562 69.359375 9.601562 C 70.960938 9.601562 72.101562 9.949219 72.78125 10.640625 C 73.460938 11.335938 73.800781 12.214844 73.800781 13.28125 C 73.800781 14.214844 73.601562 14.933594 73.199219 15.441406 C 72.800781 15.949219 72.292969 16.199219 71.679688 16.199219 C 71.226562 16.199219 70.761719 16.039062 70.28125 15.722656 C 70.601562 14.839844 70.761719 14.054688 70.761719 13.359375 C 70.761719 12.855469 70.667969 12.453125 70.480469 12.160156 C 70.292969 11.867188 70.015625 11.722656 69.640625 11.722656 C 68.839844 11.722656 68.042969 12.375 67.242188 13.679688 C 66.441406 14.988281 65.789062 16.574219 65.28125 18.441406 C 64.773438 20.308594 64.519531 21.988281 64.519531 23.480469 C 64.519531 24.789062 64.746094 25.675781 65.199219 26.140625 C 65.652344 26.609375 66.386719 26.839844 67.402344 26.839844 C 68.839844 26.839844 70.074219 26.507812 71.101562 25.839844 C 72.128906 25.175781 73.253906 24.160156 74.480469 22.800781 L 75.839844 22.800781 C 72.878906 27.734375 69.214844 30.199219 64.839844 30.199219 Z M 96.160156 30.199219 C 94.027344 30.199219 92.566406 29.695312 91.78125 28.679688 C 90.992188 27.667969 90.601562 26.402344 90.601562 24.882812 C 90.601562 23.761719 90.894531 22.847656 91.480469 22.140625 C 92.066406 21.433594 92.734375 21.082031 93.480469 21.082031 C 94.867188 21.082031 95.558594 21.640625 95.558594 22.761719 C 95.558594 23.242188 95.375 23.660156 95 24.019531 C 94.628906 24.378906 94.171875 24.5625 93.640625 24.5625 C 93.082031 24.5625 92.71875 24.386719 92.558594 24.039062 C 92.558594 25 92.753906 25.742188 93.140625 26.261719 C 93.527344 26.78125 94.105469 27.039062 94.878906 27.039062 C 95.785156 27.039062 96.433594 26.769531 96.820312 26.222656 C 97.207031 25.675781 97.402344 24.707031 97.402344 23.320312 C 97.402344 22.519531 97.320312 21.507812 97.160156 20.28125 C 96.894531 17.722656 96.679688 15.109375 96.519531 12.441406 C 94.625 15.347656 92.386719 17.1875 89.800781 17.960938 C 89.640625 20.414062 89.121094 22.5625 88.242188 24.402344 C 87.359375 26.242188 86.234375 27.652344 84.859375 28.640625 C 83.488281 29.628906 81.972656 30.121094 80.320312 30.121094 C 78.347656 30.121094 76.789062 29.613281 75.640625 28.601562 C 74.492188 27.585938 73.921875 25.988281 73.921875 23.800781 C 73.921875 21.960938 74.28125 19.941406 75 17.742188 C 75.71875 15.542969 76.894531 13.632812 78.519531 12.019531 C 80.148438 10.40625 82.226562 9.601562 84.761719 9.601562 C 88.148438 9.601562 89.855469 11.695312 89.878906 15.882812 C 91.851562 15.773438 94.027344 13.652344 96.402344 9.519531 L 102.320312 8.722656 C 102.453125 12.136719 102.679688 15.828125 103 19.800781 C 103.132812 21.402344 103.199219 22.5625 103.199219 23.28125 C 103.199219 23.8125 103.160156 24.308594 103.082031 24.761719 C 103.882812 24.308594 104.828125 23.652344 105.921875 22.800781 L 107.601562 22.800781 C 106.132812 24.507812 104.28125 26.066406 102.039062 27.480469 C 101.375 28.441406 100.527344 29.132812 99.5 29.5625 C 98.472656 29.988281 97.359375 30.199219 96.160156 30.199219 Z M 81.921875 26.519531 C 82.90625 26.519531 83.828125 25.726562 84.679688 24.140625 C 85.535156 22.554688 86.121094 20.585938 86.441406 18.242188 C 85.800781 18 85.480469 17.402344 85.480469 16.441406 C 85.480469 15.402344 85.855469 14.707031 86.601562 14.359375 C 86.546875 13.507812 86.40625 12.90625 86.179688 12.5625 C 85.953125 12.214844 85.585938 12.039062 85.082031 12.039062 C 84.199219 12.039062 83.359375 12.675781 82.558594 13.941406 C 81.761719 15.207031 81.113281 16.742188 80.621094 18.539062 C 80.128906 20.339844 79.878906 21.921875 79.878906 23.28125 C 79.878906 24.5625 80.027344 25.421875 80.320312 25.859375 C 80.613281 26.300781 81.148438 26.519531 81.921875 26.519531 Z M 109.882812 30.199219 C 108.601562 30.199219 107.570312 29.800781 106.78125 29 C 105.996094 28.199219 105.601562 27 105.601562 25.402344 C 105.601562 24.734375 105.707031 23.867188 105.921875 22.800781 L 108.320312 11.5625 L 107 11.5625 L 107.320312 9.960938 L 108.640625 9.960938 L 109.84375 4.441406 L 115.761719 3.640625 L 114.402344 9.960938 L 116.800781 9.960938 L 116.480469 11.5625 L 114.082031 11.5625 L 111.523438 23.5625 C 111.414062 23.960938 111.363281 24.386719 111.363281 24.839844 C 111.363281 25.375 111.488281 25.753906 111.742188 25.980469 C 111.996094 26.207031 112.414062 26.320312 113 26.320312 C 113.773438 26.320312 114.496094 25.996094 115.160156 25.339844 C 115.828125 24.6875 116.308594 23.839844 116.601562 22.800781 L 118.28125 22.800781 C 117.296875 25.679688 116.027344 27.632812 114.480469 28.660156 C 112.933594 29.6875 111.402344 30.199219 109.882812 30.199219 Z M 122.441406 30.121094 C 120.46875 30.121094 118.910156 29.613281 117.761719 28.601562 C 116.613281 27.585938 116.042969 25.988281 116.042969 23.800781 C 116.042969 21.988281 116.414062 19.972656 117.160156 17.761719 C 117.90625 15.546875 119.109375 13.632812 120.761719 12.019531 C 122.414062 10.40625 124.496094 9.601562 127 9.601562 C 130.414062 9.601562 132.121094 11.734375 132.121094 16 L 132.121094 16.039062 C 132.203125 16.066406 132.347656 16.082031 132.5625 16.082031 C 133.441406 16.082031 134.453125 15.847656 135.601562 15.382812 C 136.75 14.914062 137.789062 14.347656 138.722656 13.679688 L 139.082031 14.761719 C 138.308594 15.585938 137.300781 16.289062 136.0625 16.859375 C 134.820312 17.433594 133.46875 17.839844 132 18.082031 C 131.789062 20.507812 131.242188 22.628906 130.363281 24.441406 C 129.480469 26.253906 128.347656 27.652344 126.960938 28.640625 C 125.574219 29.628906 124.066406 30.121094 122.441406 30.121094 Z M 124.042969 26.519531 C 124.683594 26.519531 125.320312 26.152344 125.960938 25.421875 C 126.601562 24.6875 127.160156 23.6875 127.640625 22.421875 C 128.121094 21.15625 128.46875 19.746094 128.679688 18.199219 C 127.960938 18.039062 127.601562 17.480469 127.601562 16.519531 C 127.601562 15.425781 128.015625 14.707031 128.839844 14.359375 C 128.789062 13.480469 128.65625 12.875 128.441406 12.539062 C 128.226562 12.207031 127.855469 12.039062 127.320312 12.039062 C 126.441406 12.039062 125.589844 12.679688 124.761719 13.960938 C 123.933594 15.242188 123.269531 16.773438 122.761719 18.5625 C 122.253906 20.347656 122 21.921875 122 23.28125 C 122 24.5625 122.148438 25.421875 122.441406 25.859375 C 122.734375 26.300781 123.269531 26.519531 124.042969 26.519531 Z M 157.800781 30.199219 C 156.386719 30.199219 155.359375 29.773438 154.71875 28.921875 C 154.078125 28.066406 153.761719 26.988281 153.761719 25.679688 C 153.761719 25.121094 153.828125 24.488281 153.960938 23.78125 C 154.09375 23.074219 154.234375 22.386719 154.378906 21.722656 C 154.527344 21.054688 154.625 20.628906 154.679688 20.441406 C 154.894531 19.507812 155.09375 18.585938 155.28125 17.679688 C 155.46875 16.773438 155.558594 16.039062 155.558594 15.480469 C 155.558594 14.121094 155.082031 13.441406 154.121094 13.441406 C 153.425781 13.441406 152.8125 13.78125 152.28125 14.460938 C 151.746094 15.140625 151.320312 16.027344 151 17.121094 L 148.28125 29.960938 L 142.519531 29.960938 L 145.441406 16.160156 C 145.519531 15.839844 145.558594 15.507812 145.558594 15.160156 C 145.558594 13.988281 145.160156 13.402344 144.359375 13.402344 C 143.613281 13.402344 142.96875 13.742188 142.421875 14.421875 C 141.875 15.101562 141.441406 16 141.121094 17.121094 L 138.398438 29.960938 L 132.640625 29.960938 L 136.878906 9.960938 L 142.640625 9.960938 L 142.199219 12.039062 C 143.558594 10.519531 145.1875 9.761719 147.082031 9.761719 C 149.425781 9.761719 150.800781 10.90625 151.199219 13.199219 C 152.667969 10.933594 154.519531 9.800781 156.761719 9.800781 C 158.121094 9.800781 159.199219 10.175781 160 10.921875 C 160.800781 11.667969 161.199219 12.800781 161.199219 14.320312 C 161.199219 15.09375 161.105469 15.953125 160.921875 16.902344 C 160.734375 17.847656 160.46875 19 160.121094 20.359375 C 159.90625 21.1875 159.714844 21.996094 159.539062 22.78125 C 159.367188 23.566406 159.28125 24.1875 159.28125 24.640625 C 159.28125 25.175781 159.398438 25.585938 159.640625 25.882812 C 159.878906 26.175781 160.292969 26.320312 160.878906 26.320312 C 161.519531 26.320312 161.960938 26.242188 162.199219 26.082031 C 162.039062 27.441406 161.554688 28.46875 160.738281 29.160156 C 159.925781 29.855469 158.945312 30.199219 157.800781 30.199219 Z M 167.277344 39.960938 C 166.023438 39.960938 164.925781 39.554688 163.980469 38.742188 C 163.03125 37.929688 162.558594 36.894531 162.558594 35.640625 C 162.558594 34.496094 162.851562 33.546875 163.4375 32.800781 C 164.023438 32.054688 164.785156 31.460938 165.71875 31.019531 C 166.652344 30.582031 167.890625 30.121094 169.4375 29.640625 L 174.277344 6.800781 C 174.8125 4.242188 175.753906 2.46875 177.097656 1.480469 C 178.445312 0.492188 179.933594 0 181.558594 0 C 182.8125 0 183.914062 0.40625 184.859375 1.222656 C 185.804688 2.035156 186.277344 3.066406 186.277344 4.320312 C 186.277344 4.933594 186.238281 5.480469 186.160156 5.960938 L 184.277344 5.960938 C 184.332031 5.375 184.359375 5.015625 184.359375 4.882812 C 184.359375 4.453125 184.210938 4.121094 183.917969 3.882812 C 183.625 3.640625 183.265625 3.519531 182.839844 3.519531 C 182.277344 3.519531 181.730469 3.769531 181.199219 4.261719 C 180.664062 4.753906 180.277344 5.601562 180.039062 6.800781 L 179.359375 9.960938 L 182.277344 9.960938 L 182 11.5625 L 179.039062 11.5625 L 174.4375 33.160156 C 173.90625 35.746094 172.984375 37.527344 171.679688 38.5 C 170.371094 39.472656 168.90625 39.960938 167.277344 39.960938 Z M 166.359375 36.402344 C 167.425781 36.402344 168.1875 35.359375 168.640625 33.28125 L 169.160156 30.960938 C 167.746094 31.441406 166.660156 31.996094 165.898438 32.621094 C 165.140625 33.246094 164.757812 34.066406 164.757812 35.082031 C 164.757812 35.402344 164.917969 35.699219 165.238281 35.980469 C 165.558594 36.261719 165.933594 36.402344 166.359375 36.402344 Z M 187.398438 30.121094 C 185.425781 30.121094 183.867188 29.613281 182.71875 28.601562 C 181.570312 27.585938 181 25.988281 181 23.800781 C 181 21.988281 181.371094 19.972656 182.117188 17.761719 C 182.863281 15.546875 184.066406 13.632812 185.71875 12.019531 C 187.371094 10.40625 189.453125 9.601562 191.957031 9.601562 C 195.371094 9.601562 197.078125 11.734375 197.078125 16 L 197.078125 16.039062 C 197.160156 16.066406 197.304688 16.082031 197.519531 16.082031 C 198.398438 16.082031 199.410156 15.847656 200.558594 15.382812 C 201.707031 14.914062 202.746094 14.347656 203.679688 13.679688 L 204.039062 14.761719 C 203.265625 15.585938 202.257812 16.289062 201.019531 16.859375 C 199.777344 17.433594 198.425781 17.839844 196.957031 18.082031 C 196.746094 20.507812 196.199219 22.628906 195.320312 24.441406 C 194.4375 26.253906 193.304688 27.652344 191.917969 28.640625 C 190.53125 29.628906 189.023438 30.121094 187.398438 30.121094 Z M 189 26.519531 C 189.640625 26.519531 190.277344 26.152344 190.917969 25.421875 C 191.558594 24.6875 192.117188 23.6875 192.597656 22.421875 C 193.078125 21.15625 193.425781 19.746094 193.636719 18.199219 C 192.917969 18.039062 192.558594 17.480469 192.558594 16.519531 C 192.558594 15.425781 192.972656 14.707031 193.796875 14.359375 C 193.746094 13.480469 193.613281 12.875 193.398438 12.539062 C 193.183594 12.207031 192.8125 12.039062 192.277344 12.039062 C 191.398438 12.039062 190.546875 12.679688 189.71875 13.960938 C 188.890625 15.242188 188.226562 16.773438 187.71875 18.5625 C 187.210938 20.347656 186.957031 21.921875 186.957031 23.28125 C 186.957031 24.5625 187.105469 25.421875 187.398438 25.859375 C 187.691406 26.300781 188.226562 26.519531 189 26.519531 Z M 213.558594 30.199219 C 211.929688 30.199219 210.738281 29.769531 209.976562 28.902344 C 209.21875 28.035156 208.835938 26.960938 208.835938 25.679688 C 208.835938 25.121094 208.902344 24.488281 209.039062 23.78125 C 209.171875 23.074219 209.308594 22.386719 209.457031 21.722656 C 209.605469 21.054688 209.703125 20.628906 209.757812 20.441406 C 209.972656 19.507812 210.171875 18.585938 210.355469 17.679688 C 210.542969 16.773438 210.636719 16.039062 210.636719 15.480469 C 210.636719 14.121094 210.15625 13.441406 209.195312 13.441406 C 208.503906 13.441406 207.890625 13.78125 207.355469 14.460938 C 206.824219 15.140625 206.398438 16.027344 206.078125 17.121094 L 203.355469 29.960938 L 197.597656 29.960938 L 201.835938 9.960938 L 207.597656 9.960938 L 207.15625 12.039062 C 208.488281 10.546875 210.050781 9.800781 211.835938 9.800781 C 213.195312 9.800781 214.277344 10.175781 215.078125 10.921875 C 215.878906 11.667969 216.277344 12.800781 216.277344 14.320312 C 216.277344 15.09375 216.183594 15.953125 215.996094 16.902344 C 215.808594 17.847656 215.542969 19 215.195312 20.359375 C 214.984375 21.1875 214.789062 21.996094 214.617188 22.78125 C 214.445312 23.566406 214.355469 24.1875 214.355469 24.640625 C 214.355469 25.175781 214.476562 25.585938 214.71875 25.882812 C 214.957031 26.175781 215.371094 26.320312 215.957031 26.320312 C 216.757812 26.320312 217.398438 26.035156 217.878906 25.460938 C 218.359375 24.886719 218.835938 24 219.316406 22.800781 L 220.996094 22.800781 C 220.011719 25.734375 218.871094 27.699219 217.578125 28.699219 C 216.285156 29.699219 214.945312 30.199219 213.558594 30.199219 Z M 223.082031 30.199219 C 221.722656 30.199219 220.714844 29.789062 220.058594 28.960938 C 219.40625 28.132812 219.082031 27.039062 219.082031 25.679688 C 219.082031 24.988281 219.160156 24.28125 219.320312 23.5625 L 221.878906 11.5625 L 220.558594 11.5625 L 220.878906 9.960938 L 222.199219 9.960938 L 223.398438 4.441406 L 229.320312 3.640625 C 229.082031 4.652344 228.945312 5.253906 228.921875 5.441406 C 228.734375 6.1875 228.414062 7.695312 227.960938 9.960938 L 230.359375 9.960938 L 230.039062 11.5625 L 227.640625 11.5625 L 225.082031 23.5625 C 224.949219 24.148438 224.878906 24.613281 224.878906 24.960938 C 224.878906 25.921875 225.347656 26.402344 226.28125 26.402344 C 226.761719 26.402344 227.105469 26.359375 227.320312 26.28125 C 226.785156 27.828125 226.160156 28.867188 225.441406 29.402344 C 224.71875 29.933594 223.933594 30.199219 223.082031 30.199219 Z M 0.320312 -10.039062 "/>
<path fill-rule="nonzero" fill="rgb(0%, 0%, 0%)" fill-opacity="1" d="M 4.28125 70.160156 C 3 70.160156 1.96875 69.761719 1.179688 68.960938 C 0.394531 68.160156 0 66.960938 0 65.363281 C 0 64.695312 0.105469 63.828125 0.320312 62.761719 L 3.039062 49.921875 L 8.800781 49.921875 L 5.921875 63.523438 C 5.839844 63.84375 5.800781 64.175781 5.800781 64.523438 C 5.800781 65.695312 6.199219 66.28125 7 66.28125 C 7.746094 66.28125 8.386719 65.96875 8.921875 65.34375 C 9.453125 64.714844 9.878906 63.855469 10.199219 62.761719 L 12.921875 49.921875 L 18.679688 49.921875 L 15.800781 63.523438 C 15.667969 64.1875 15.601562 64.667969 15.601562 64.960938 C 15.601562 65.839844 16.054688 66.28125 16.960938 66.28125 C 18.1875 66.28125 19.328125 65.507812 20.378906 63.960938 C 21.433594 62.414062 22.28125 60.574219 22.921875 58.441406 C 23.5625 56.308594 23.878906 54.46875 23.878906 52.921875 C 23.828125 53.054688 23.652344 53.15625 23.359375 53.222656 C 23.066406 53.289062 22.8125 53.320312 22.601562 53.320312 C 22.148438 53.320312 21.792969 53.109375 21.539062 52.683594 C 21.285156 52.253906 21.160156 51.789062 21.160156 51.28125 C 21.160156 50.640625 21.367188 50.121094 21.78125 49.722656 C 22.195312 49.320312 22.8125 49.121094 23.640625 49.121094 C 24.519531 49.121094 25.160156 49.449219 25.558594 50.101562 C 25.960938 50.753906 26.160156 51.589844 26.160156 52.601562 C 26.160156 55 25.746094 57.570312 24.921875 60.300781 C 24.09375 63.035156 22.828125 65.363281 21.121094 67.28125 C 19.414062 69.203125 17.292969 70.160156 14.761719 70.160156 C 13.453125 70.160156 12.386719 69.882812 11.558594 69.320312 C 10.734375 68.761719 10.199219 67.921875 9.960938 66.800781 C 8.46875 69.042969 6.574219 70.160156 4.28125 70.160156 Z M 33.441406 47.761719 C 32.5625 47.761719 31.816406 47.457031 31.203125 46.84375 C 30.589844 46.230469 30.28125 45.480469 30.28125 44.601562 C 30.28125 43.722656 30.589844 42.96875 31.203125 42.34375 C 31.816406 41.714844 32.5625 41.402344 33.441406 41.402344 C 34.320312 41.402344 35.074219 41.714844 35.703125 42.34375 C 36.328125 42.96875 36.640625 43.722656 36.640625 44.601562 C 36.640625 45.480469 36.328125 46.230469 35.703125 46.84375 C 35.074219 47.457031 34.320312 47.761719 33.441406 47.761719 Z M 30.722656 70.160156 C 29.441406 70.160156 28.410156 69.761719 27.621094 68.960938 C 26.835938 68.160156 26.441406 66.960938 26.441406 65.363281 C 26.441406 64.695312 26.546875 63.828125 26.761719 62.761719 L 29.480469 49.921875 L 35.242188 49.921875 L 32.363281 63.523438 C 32.253906 63.921875 32.203125 64.347656 32.203125 64.800781 C 32.203125 65.335938 32.328125 65.714844 32.582031 65.941406 C 32.835938 66.167969 33.253906 66.28125 33.839844 66.28125 C 34.613281 66.28125 35.335938 65.957031 36 65.300781 C 36.667969 64.648438 37.148438 63.800781 37.441406 62.761719 L 39.121094 62.761719 C 38.136719 65.640625 36.867188 67.59375 35.320312 68.621094 C 33.773438 69.648438 32.242188 70.160156 30.722656 70.160156 Z M 41.402344 70.160156 C 40.121094 70.160156 39.089844 69.761719 38.300781 68.960938 C 37.515625 68.160156 37.121094 66.960938 37.121094 65.363281 C 37.121094 64.695312 37.226562 63.828125 37.441406 62.761719 L 39.839844 51.523438 L 38.519531 51.523438 L 38.839844 49.921875 L 40.160156 49.921875 L 41.363281 44.402344 L 47.28125 43.601562 L 45.921875 49.921875 L 48.320312 49.921875 L 48 51.523438 L 45.601562 51.523438 L 43.042969 63.523438 C 42.933594 63.921875 42.882812 64.347656 42.882812 64.800781 C 42.882812 65.335938 43.007812 65.714844 43.261719 65.941406 C 43.515625 66.167969 43.933594 66.28125 44.519531 66.28125 C 45.292969 66.28125 46.015625 65.957031 46.679688 65.300781 C 47.347656 64.648438 47.828125 63.800781 48.121094 62.761719 L 49.800781 62.761719 C 48.816406 65.640625 47.546875 67.59375 46 68.621094 C 44.453125 69.648438 42.921875 70.160156 41.402344 70.160156 Z M 62.5625 70.160156 C 60.933594 70.160156 59.742188 69.730469 58.980469 68.863281 C 58.222656 67.996094 57.839844 66.921875 57.839844 65.640625 C 57.839844 65.082031 57.90625 64.449219 58.042969 63.742188 C 58.175781 63.035156 58.3125 62.347656 58.460938 61.683594 C 58.609375 61.015625 58.707031 60.589844 58.761719 60.402344 C 58.976562 59.46875 59.175781 58.546875 59.359375 57.640625 C 59.546875 56.734375 59.640625 56 59.640625 55.441406 C 59.640625 54.082031 59.160156 53.402344 58.199219 53.402344 C 57.507812 53.402344 56.894531 53.742188 56.359375 54.421875 C 55.828125 55.101562 55.402344 55.988281 55.082031 57.082031 L 52.359375 69.921875 L 46.601562 69.921875 L 52.402344 42.722656 L 58.320312 41.921875 L 56.160156 52 C 57.492188 50.507812 59.054688 49.761719 60.839844 49.761719 C 62.199219 49.761719 63.28125 50.136719 64.082031 50.882812 C 64.882812 51.628906 65.28125 52.761719 65.28125 54.28125 C 65.28125 55.054688 65.1875 55.914062 65 56.863281 C 64.8125 57.808594 64.546875 58.960938 64.199219 60.320312 C 63.988281 61.148438 63.792969 61.957031 63.621094 62.742188 C 63.449219 63.527344 63.359375 64.148438 63.359375 64.601562 C 63.359375 65.136719 63.480469 65.546875 63.722656 65.84375 C 63.960938 66.136719 64.375 66.28125 64.960938 66.28125 C 65.761719 66.28125 66.402344 65.996094 66.882812 65.421875 C 67.363281 64.847656 67.839844 63.960938 68.320312 62.761719 L 70 62.761719 C 69.015625 65.695312 67.875 67.660156 66.582031 68.660156 C 65.289062 69.660156 63.949219 70.160156 62.5625 70.160156 Z M 74.160156 70.082031 C 72.1875 70.082031 70.628906 69.574219 69.480469 68.5625 C 68.332031 67.546875 67.761719 65.949219 67.761719 63.761719 C 67.761719 61.949219 68.132812 59.933594 68.878906 57.722656 C 69.625 55.507812 70.828125 53.59375 72.480469 51.980469 C 74.132812 50.367188 76.214844 49.5625 78.71875 49.5625 C 82.132812 49.5625 83.839844 51.695312 83.839844 55.960938 L 83.839844 56 C 83.921875 56.027344 84.066406 56.042969 84.28125 56.042969 C 85.160156 56.042969 86.171875 55.808594 87.320312 55.34375 C 88.46875 54.875 89.507812 54.308594 90.441406 53.640625 L 90.800781 54.722656 C 90.027344 55.546875 89.019531 56.25 87.78125 56.820312 C 86.539062 57.394531 85.1875 57.800781 83.71875 58.042969 C 83.507812 60.46875 82.960938 62.589844 82.082031 64.402344 C 81.199219 66.214844 80.066406 67.613281 78.679688 68.601562 C 77.292969 69.589844 75.785156 70.082031 74.160156 70.082031 Z M 75.761719 66.480469 C 76.402344 66.480469 77.039062 66.113281 77.679688 65.382812 C 78.320312 64.648438 78.878906 63.648438 79.359375 62.382812 C 79.839844 61.117188 80.1875 59.707031 80.398438 58.160156 C 79.679688 58 79.320312 57.441406 79.320312 56.480469 C 79.320312 55.386719 79.734375 54.667969 80.558594 54.320312 C 80.507812 53.441406 80.375 52.835938 80.160156 52.5 C 79.945312 52.167969 79.574219 52 79.039062 52 C 78.160156 52 77.308594 52.640625 76.480469 53.921875 C 75.652344 55.203125 74.988281 56.734375 74.480469 58.523438 C 73.972656 60.308594 73.71875 61.882812 73.71875 63.242188 C 73.71875 64.523438 73.867188 65.382812 74.160156 65.820312 C 74.453125 66.261719 74.988281 66.480469 75.761719 66.480469 Z M 89.839844 70.160156 C 88.558594 70.160156 87.527344 69.761719 86.738281 68.960938 C 85.953125 68.160156 85.558594 66.960938 85.558594 65.363281 C 85.558594 64.695312 85.664062 63.828125 85.878906 62.761719 L 88.597656 49.921875 L 94.359375 49.921875 L 91.480469 63.523438 C 91.398438 63.921875 91.359375 64.296875 91.359375 64.640625 C 91.359375 65.734375 91.757812 66.28125 92.558594 66.28125 C 93.304688 66.28125 93.945312 65.96875 94.480469 65.34375 C 95.011719 64.714844 95.4375 63.855469 95.757812 62.761719 L 98.480469 49.921875 L 104.238281 49.921875 L 101.359375 63.523438 C 101.253906 63.921875 101.199219 64.347656 101.199219 64.800781 C 101.199219 65.335938 101.324219 65.714844 101.578125 65.941406 C 101.832031 66.167969 102.253906 66.28125 102.839844 66.28125 C 103.585938 66.28125 104.230469 65.960938 104.777344 65.320312 C 105.324219 64.679688 105.757812 63.828125 106.078125 62.761719 L 107.757812 62.761719 C 106.773438 65.640625 105.550781 67.59375 104.097656 68.621094 C 102.644531 69.648438 101.1875 70.160156 99.71875 70.160156 C 98.570312 70.160156 97.660156 69.84375 96.980469 69.203125 C 96.300781 68.5625 95.890625 67.613281 95.757812 66.363281 C 94.851562 67.828125 93.898438 68.828125 92.898438 69.363281 C 91.898438 69.894531 90.878906 70.160156 89.839844 70.160156 Z M 109.839844 70.160156 C 108.480469 70.160156 107.472656 69.75 106.816406 68.921875 C 106.164062 68.09375 105.839844 67 105.839844 65.640625 C 105.839844 64.949219 105.917969 64.242188 106.078125 63.523438 L 108.636719 51.523438 L 107.316406 51.523438 L 107.636719 49.921875 L 108.957031 49.921875 L 110.15625 44.402344 L 116.078125 43.601562 C 115.839844 44.613281 115.703125 45.214844 115.679688 45.402344 C 115.492188 46.148438 115.171875 47.65625 114.71875 49.921875 L 117.117188 49.921875 L 116.796875 51.523438 L 114.398438 51.523438 L 111.839844 63.523438 C 111.707031 64.109375 111.636719 64.574219 111.636719 64.921875 C 111.636719 65.882812 112.105469 66.363281 113.039062 66.363281 C 113.519531 66.363281 113.863281 66.320312 114.078125 66.242188 C 113.542969 67.789062 112.917969 68.828125 112.199219 69.363281 C 111.476562 69.894531 110.691406 70.160156 109.839844 70.160156 Z M 132.480469 47.761719 C 131.601562 47.761719 130.855469 47.457031 130.242188 46.84375 C 129.628906 46.230469 129.320312 45.480469 129.320312 44.601562 C 129.320312 43.722656 129.628906 42.96875 130.242188 42.34375 C 130.855469 41.714844 131.601562 41.402344 132.480469 41.402344 C 133.359375 41.402344 134.113281 41.714844 134.742188 42.34375 C 135.367188 42.96875 135.679688 43.722656 135.679688 44.601562 C 135.679688 45.480469 135.367188 46.230469 134.742188 46.84375 C 134.113281 47.457031 133.359375 47.761719 132.480469 47.761719 Z M 129.761719 70.160156 C 128.480469 70.160156 127.449219 69.761719 126.660156 68.960938 C 125.875 68.160156 125.480469 66.960938 125.480469 65.363281 C 125.480469 64.695312 125.585938 63.828125 125.800781 62.761719 L 128.519531 49.921875 L 134.28125 49.921875 L 131.402344 63.523438 C 131.292969 63.921875 131.242188 64.347656 131.242188 64.800781 C 131.242188 65.335938 131.367188 65.714844 131.621094 65.941406 C 131.875 66.167969 132.292969 66.28125 132.878906 66.28125 C 133.652344 66.28125 134.375 65.957031 135.039062 65.300781 C 135.707031 64.648438 136.1875 63.800781 136.480469 62.761719 L 138.160156 62.761719 C 137.175781 65.640625 135.90625 67.59375 134.359375 68.621094 C 132.8125 69.648438 131.28125 70.160156 129.761719 70.160156 Z M 150.921875 70.160156 C 149.292969 70.160156 148.101562 69.730469 147.339844 68.863281 C 146.582031 67.996094 146.199219 66.921875 146.199219 65.640625 C 146.199219 65.082031 146.265625 64.449219 146.402344 63.742188 C 146.535156 63.035156 146.671875 62.347656 146.820312 61.683594 C 146.96875 61.015625 147.066406 60.589844 147.121094 60.402344 C 147.335938 59.46875 147.535156 58.546875 147.71875 57.640625 C 147.90625 56.734375 148 56 148 55.441406 C 148 54.082031 147.519531 53.402344 146.558594 53.402344 C 145.867188 53.402344 145.253906 53.742188 144.71875 54.421875 C 144.1875 55.101562 143.761719 55.988281 143.441406 57.082031 L 140.71875 69.921875 L 134.960938 69.921875 L 139.199219 49.921875 L 144.960938 49.921875 L 144.519531 52 C 145.851562 50.507812 147.414062 49.761719 149.199219 49.761719 C 150.558594 49.761719 151.640625 50.136719 152.441406 50.882812 C 153.242188 51.628906 153.640625 52.761719 153.640625 54.28125 C 153.640625 55.054688 153.546875 55.914062 153.359375 56.863281 C 153.171875 57.808594 152.90625 58.960938 152.558594 60.320312 C 152.347656 61.148438 152.152344 61.957031 151.980469 62.742188 C 151.808594 63.527344 151.71875 64.148438 151.71875 64.601562 C 151.71875 65.136719 151.839844 65.546875 152.082031 65.84375 C 152.320312 66.136719 152.734375 66.28125 153.320312 66.28125 C 154.121094 66.28125 154.761719 65.996094 155.242188 65.421875 C 155.722656 64.847656 156.199219 63.960938 156.679688 62.761719 L 158.359375 62.761719 C 157.375 65.695312 156.234375 67.660156 154.941406 68.660156 C 153.648438 69.660156 152.308594 70.160156 150.921875 70.160156 Z M 161.238281 70.160156 C 159.960938 70.160156 158.878906 69.914062 158 69.421875 C 157.121094 68.929688 156.464844 68.289062 156.039062 67.5 C 155.613281 66.714844 155.398438 65.894531 155.398438 65.042969 C 155.398438 64.164062 155.605469 63.394531 156.019531 62.742188 C 156.433594 62.089844 156.933594 61.613281 157.519531 61.320312 C 158.558594 59.453125 159.464844 57.570312 160.238281 55.660156 C 161.011719 53.753906 161.746094 51.695312 162.441406 49.480469 L 168.359375 48.683594 C 168.492188 52.097656 168.71875 55.789062 169.039062 59.761719 C 169.171875 61.363281 169.238281 62.523438 169.238281 63.242188 C 169.238281 63.855469 169.1875 64.363281 169.078125 64.761719 C 170.332031 64.042969 171.292969 63.375 171.960938 62.761719 L 173.640625 62.761719 C 171.933594 64.734375 169.894531 66.402344 167.519531 67.761719 C 166.746094 68.589844 165.792969 69.195312 164.660156 69.582031 C 163.527344 69.96875 162.386719 70.160156 161.238281 70.160156 Z M 159.960938 67 C 160.945312 67 161.773438 66.707031 162.441406 66.121094 C 163.105469 65.535156 163.441406 64.589844 163.441406 63.28125 C 163.441406 62.480469 163.359375 61.363281 163.199219 59.921875 C 162.933594 56.882812 162.757812 54.84375 162.679688 53.800781 C 162.039062 55.90625 160.960938 58.429688 159.441406 61.363281 C 160.054688 61.683594 160.359375 62.148438 160.359375 62.761719 C 160.359375 63.269531 160.191406 63.722656 159.859375 64.121094 C 159.527344 64.523438 159.105469 64.722656 158.601562 64.722656 C 158.039062 64.722656 157.679688 64.546875 157.519531 64.203125 C 157.519531 65.164062 157.714844 65.867188 158.101562 66.320312 C 158.488281 66.773438 159.105469 67 159.960938 67 Z M 175.921875 70.160156 C 174.640625 70.160156 173.609375 69.761719 172.820312 68.960938 C 172.035156 68.160156 171.640625 66.960938 171.640625 65.363281 C 171.640625 64.695312 171.746094 63.828125 171.960938 62.761719 L 174.359375 51.523438 L 173.039062 51.523438 L 173.359375 49.921875 L 174.679688 49.921875 L 175.882812 44.402344 L 181.800781 43.601562 L 180.441406 49.921875 L 182.839844 49.921875 L 182.519531 51.523438 L 180.121094 51.523438 L 177.5625 63.523438 C 177.453125 63.921875 177.402344 64.347656 177.402344 64.800781 C 177.402344 65.335938 177.527344 65.714844 177.78125 65.941406 C 178.035156 66.167969 178.453125 66.28125 179.039062 66.28125 C 179.8125 66.28125 180.535156 65.957031 181.199219 65.300781 C 181.867188 64.648438 182.347656 63.800781 182.640625 62.761719 L 184.320312 62.761719 C 183.335938 65.640625 182.066406 67.59375 180.519531 68.621094 C 178.972656 69.648438 177.441406 70.160156 175.921875 70.160156 Z M 187.441406 70.160156 C 185.921875 70.160156 184.652344 69.640625 183.640625 68.601562 C 182.628906 67.5625 182.121094 65.933594 182.121094 63.722656 C 182.121094 61.75 182.515625 59.675781 183.300781 57.5 C 184.085938 55.328125 185.261719 53.488281 186.820312 51.980469 C 188.378906 50.476562 190.242188 49.722656 192.402344 49.722656 C 193.496094 49.722656 194.308594 49.910156 194.839844 50.28125 C 195.375 50.65625 195.640625 51.148438 195.640625 51.761719 L 195.640625 52.042969 L 196.082031 49.921875 L 201.839844 49.921875 L 198.960938 63.523438 C 198.855469 63.921875 198.800781 64.347656 198.800781 64.800781 C 198.800781 65.949219 199.347656 66.523438 200.441406 66.523438 C 201.1875 66.523438 201.832031 66.175781 202.378906 65.480469 C 202.925781 64.789062 203.359375 63.882812 203.679688 62.761719 L 205.359375 62.761719 C 204.375 65.640625 203.152344 67.59375 201.699219 68.621094 C 200.246094 69.648438 198.789062 70.160156 197.320312 70.160156 C 196.199219 70.160156 195.300781 69.847656 194.621094 69.222656 C 193.941406 68.59375 193.535156 67.683594 193.402344 66.480469 C 192.628906 67.574219 191.765625 68.460938 190.820312 69.140625 C 189.875 69.820312 188.746094 70.160156 187.441406 70.160156 Z M 190.039062 66.28125 C 190.707031 66.28125 191.367188 65.96875 192.019531 65.34375 C 192.671875 64.714844 193.121094 63.855469 193.359375 62.761719 L 195.28125 53.722656 C 195.28125 53.375 195.148438 53.035156 194.878906 52.703125 C 194.613281 52.367188 194.199219 52.203125 193.640625 52.203125 C 192.574219 52.203125 191.613281 52.820312 190.761719 54.0625 C 189.90625 55.300781 189.242188 56.796875 188.761719 58.542969 C 188.28125 60.289062 188.039062 61.828125 188.039062 63.160156 C 188.039062 64.496094 188.234375 65.347656 188.621094 65.722656 C 189.007812 66.09375 189.480469 66.28125 190.039062 66.28125 Z M 207.640625 70.160156 C 206.359375 70.160156 205.328125 69.761719 204.539062 68.960938 C 203.753906 68.160156 203.359375 66.960938 203.359375 65.363281 C 203.359375 64.695312 203.464844 63.828125 203.679688 62.761719 L 207.960938 42.722656 L 213.878906 41.921875 L 209.28125 63.523438 C 209.171875 63.921875 209.121094 64.347656 209.121094 64.800781 C 209.121094 65.335938 209.246094 65.714844 209.5 65.941406 C 209.753906 66.167969 210.171875 66.28125 210.757812 66.28125 C 211.53125 66.28125 212.253906 65.957031 212.917969 65.300781 C 213.585938 64.648438 214.066406 63.800781 214.359375 62.761719 L 216.039062 62.761719 C 215.054688 65.640625 213.785156 67.59375 212.238281 68.621094 C 210.691406 69.648438 209.160156 70.160156 207.640625 70.160156 Z M 218.320312 70.160156 C 217.039062 70.160156 216.007812 69.761719 215.21875 68.960938 C 214.433594 68.160156 214.039062 66.960938 214.039062 65.363281 C 214.039062 64.695312 214.144531 63.828125 214.359375 62.761719 L 218.640625 42.722656 L 224.558594 41.921875 L 219.960938 63.523438 C 219.851562 63.921875 219.800781 64.347656 219.800781 64.800781 C 219.800781 65.335938 219.925781 65.714844 220.179688 65.941406 C 220.433594 66.167969 220.851562 66.28125 221.4375 66.28125 C 222.210938 66.28125 222.933594 65.957031 223.597656 65.300781 C 224.265625 64.648438 224.746094 63.800781 225.039062 62.761719 L 226.71875 62.761719 C 225.734375 65.640625 224.464844 67.59375 222.917969 68.621094 C 221.371094 69.648438 219.839844 70.160156 218.320312 70.160156 Z M 231.71875 47.761719 C 230.839844 47.761719 230.09375 47.457031 229.480469 46.84375 C 228.867188 46.230469 228.558594 45.480469 228.558594 44.601562 C 228.558594 43.722656 228.867188 42.96875 229.480469 42.34375 C 230.09375 41.714844 230.839844 41.402344 231.71875 41.402344 C 232.597656 41.402344 233.351562 41.714844 233.980469 42.34375 C 234.605469 42.96875 234.917969 43.722656 234.917969 44.601562 C 234.917969 45.480469 234.605469 46.230469 233.980469 46.84375 C 233.351562 47.457031 232.597656 47.761719 231.71875 47.761719 Z M 229 70.160156 C 227.71875 70.160156 226.6875 69.761719 225.898438 68.960938 C 225.113281 68.160156 224.71875 66.960938 224.71875 65.363281 C 224.71875 64.695312 224.824219 63.828125 225.039062 62.761719 L 227.757812 49.921875 L 233.519531 49.921875 L 230.640625 63.523438 C 230.53125 63.921875 230.480469 64.347656 230.480469 64.800781 C 230.480469 65.335938 230.605469 65.714844 230.859375 65.941406 C 231.113281 66.167969 231.53125 66.28125 232.117188 66.28125 C 232.890625 66.28125 233.613281 65.957031 234.277344 65.300781 C 234.945312 64.648438 235.425781 63.800781 235.71875 62.761719 L 237.398438 62.761719 C 236.414062 65.640625 235.144531 67.59375 233.597656 68.621094 C 232.050781 69.648438 230.519531 70.160156 229 70.160156 Z M 250.160156 70.160156 C 248.53125 70.160156 247.339844 69.730469 246.578125 68.863281 C 245.820312 67.996094 245.4375 66.921875 245.4375 65.640625 C 245.4375 65.082031 245.503906 64.449219 245.640625 63.742188 C 245.773438 63.035156 245.910156 62.347656 246.058594 61.683594 C 246.207031 61.015625 246.304688 60.589844 246.359375 60.402344 C 246.574219 59.46875 246.773438 58.546875 246.957031 57.640625 C 247.144531 56.734375 247.238281 56 247.238281 55.441406 C 247.238281 54.082031 246.757812 53.402344 245.796875 53.402344 C 245.105469 53.402344 244.492188 53.742188 243.957031 54.421875 C 243.425781 55.101562 243 55.988281 242.679688 57.082031 L 239.957031 69.921875 L 234.199219 69.921875 L 238.4375 49.921875 L 244.199219 49.921875 L 243.757812 52 C 245.089844 50.507812 246.652344 49.761719 248.4375 49.761719 C 249.796875 49.761719 250.878906 50.136719 251.679688 50.882812 C 252.480469 51.628906 252.878906 52.761719 252.878906 54.28125 C 252.878906 55.054688 252.785156 55.914062 252.597656 56.863281 C 252.410156 57.808594 252.144531 58.960938 251.796875 60.320312 C 251.585938 61.148438 251.390625 61.957031 251.21875 62.742188 C 251.046875 63.527344 250.957031 64.148438 250.957031 64.601562 C 250.957031 65.136719 251.078125 65.546875 251.320312 65.84375 C 251.558594 66.136719 251.972656 66.28125 252.558594 66.28125 C 253.359375 66.28125 254 65.996094 254.480469 65.421875 C 254.960938 64.847656 255.4375 63.960938 255.917969 62.761719 L 257.597656 62.761719 C 256.613281 65.695312 255.472656 67.660156 254.179688 68.660156 C 252.886719 69.660156 251.546875 70.160156 250.160156 70.160156 Z M 262.957031 79.921875 C 261.703125 79.921875 260.605469 79.515625 259.65625 78.703125 C 258.710938 77.890625 258.238281 76.855469 258.238281 75.601562 C 258.238281 74.429688 258.53125 73.46875 259.117188 72.722656 C 259.703125 71.976562 260.464844 71.386719 261.398438 70.960938 C 262.332031 70.535156 263.585938 70.082031 265.15625 69.601562 L 265.519531 67.921875 C 264.132812 69.414062 262.53125 70.160156 260.71875 70.160156 C 259.199219 70.160156 257.929688 69.640625 256.917969 68.601562 C 255.90625 67.5625 255.398438 65.933594 255.398438 63.722656 C 255.398438 61.75 255.792969 59.675781 256.578125 57.5 C 257.363281 55.328125 258.539062 53.488281 260.097656 51.980469 C 261.65625 50.476562 263.519531 49.722656 265.679688 49.722656 C 266.773438 49.722656 267.585938 49.910156 268.117188 50.28125 C 268.652344 50.65625 268.917969 51.148438 268.917969 51.761719 L 268.917969 51.84375 L 269.316406 49.921875 L 275.117188 49.921875 L 270.238281 73.121094 C 269.703125 75.679688 268.765625 77.457031 267.417969 78.441406 C 266.070312 79.429688 264.585938 79.921875 262.957031 79.921875 Z M 263.316406 66.28125 C 263.929688 66.28125 264.550781 66.023438 265.179688 65.5 C 265.804688 64.980469 266.25 64.242188 266.519531 63.28125 L 268.558594 53.601562 C 268.34375 52.667969 267.796875 52.203125 266.917969 52.203125 C 265.851562 52.203125 264.890625 52.820312 264.039062 54.0625 C 263.183594 55.300781 262.519531 56.796875 262.039062 58.542969 C 261.558594 60.289062 261.316406 61.828125 261.316406 63.160156 C 261.316406 64.496094 261.511719 65.347656 261.898438 65.722656 C 262.285156 66.09375 262.757812 66.28125 263.316406 66.28125 Z M 262.039062 76.363281 C 262.519531 76.363281 262.972656 76.113281 263.398438 75.621094 C 263.824219 75.128906 264.15625 74.335938 264.398438 73.242188 L 264.878906 70.882812 C 263.464844 71.363281 262.371094 71.921875 261.597656 72.5625 C 260.824219 73.203125 260.4375 74.027344 260.4375 75.042969 C 260.4375 75.363281 260.597656 75.660156 260.917969 75.941406 C 261.238281 76.222656 261.609375 76.363281 262.039062 76.363281 Z M 0.320312 29.921875 "/>
</svg>
