<?xml version="1.0" encoding="UTF-8"?>
<svg xmlns="http://www.w3.org/2000/svg" xmlns:xlink="http://www.w3.org/1999/xlink" width="91pt" height="24pt" viewBox="0 0 91 24" version="1.1">
<g id="surface473">
<path style="fill-rule:nonzero;fill:rgb(0%,0%,0%);fill-opacity:1;stroke-width:2;stroke-linecap:butt;stroke-linejoin:miter;stroke:rgb(100%,100%,100%);stroke-opacity:1;stroke-miterlimit:10;" d="M 11.65625 6.871094 L 11.65625 9.417969 C 10.894531 9.035156 10.101562 8.742188 9.28125 8.542969 C 8.46875 8.347656 7.617188 8.246094 6.734375 8.246094 C 5.398438 8.246094 4.394531 8.457031 3.71875 8.871094 C 3.050781 9.277344 2.71875 9.894531 2.71875 10.714844 C 2.71875 11.339844 2.957031 11.832031 3.4375 12.183594 C 3.914062 12.539062 4.878906 12.878906 6.328125 13.199219 L 7.25 13.402344 C 9.164062 13.808594 10.523438 14.386719 11.328125 15.136719 C 12.140625 15.886719 12.546875 16.929688 12.546875 18.261719 C 12.546875 19.792969 11.941406 21.003906 10.734375 21.886719 C 9.523438 22.773438 7.867188 23.214844 5.765625 23.214844 C 4.878906 23.214844 3.957031 23.125 3 22.949219 C 2.050781 22.785156 1.050781 22.535156 0 22.199219 L 0 19.402344 C 1 19.925781 1.976562 20.316406 2.9375 20.574219 C 3.90625 20.835938 4.863281 20.964844 5.8125 20.964844 C 7.082031 20.964844 8.054688 20.746094 8.734375 20.308594 C 9.421875 19.871094 9.765625 19.257812 9.765625 18.464844 C 9.765625 17.738281 9.519531 17.179688 9.03125 16.792969 C 8.539062 16.398438 7.457031 16.019531 5.78125 15.652344 L 4.84375 15.433594 C 3.175781 15.089844 1.972656 14.554688 1.234375 13.824219 C 0.492188 13.097656 0.125 12.097656 0.125 10.824219 C 0.125 9.285156 0.671875 8.097656 1.765625 7.261719 C 2.859375 6.417969 4.410156 5.996094 6.421875 5.996094 C 7.410156 5.996094 8.34375 6.070312 9.21875 6.214844 C 10.101562 6.363281 10.914062 6.582031 11.65625 6.871094 Z M 19.503906 1.730469 L 19.503906 6.386719 L 25.050781 6.386719 L 25.050781 8.480469 L 19.503906 8.480469 L 19.503906 17.386719 C 19.503906 18.722656 19.683594 19.582031 20.050781 19.964844 C 20.414062 20.351562 21.160156 20.542969 22.285156 20.542969 L 25.050781 20.542969 L 25.050781 22.792969 L 22.285156 22.792969 C 20.199219 22.792969 18.761719 22.410156 17.972656 21.636719 C 17.179688 20.855469 16.785156 19.441406 16.785156 17.386719 L 16.785156 8.480469 L 14.816406 8.480469 L 14.816406 6.386719 L 16.785156 6.386719 L 16.785156 1.730469 Z M 38.09375 8.902344 C 37.789062 8.726562 37.460938 8.597656 37.109375 8.511719 C 36.753906 8.429688 36.363281 8.386719 35.9375 8.386719 C 34.40625 8.386719 33.234375 8.886719 32.421875 9.886719 C 31.609375 10.878906 31.203125 12.300781 31.203125 14.152344 L 31.203125 22.792969 L 28.484375 22.792969 L 28.484375 6.386719 L 31.203125 6.386719 L 31.203125 8.933594 C 31.765625 7.933594 32.5 7.195312 33.40625 6.714844 C 34.320312 6.238281 35.425781 5.996094 36.71875 5.996094 C 36.90625 5.996094 37.109375 6.007812 37.328125 6.027344 C 37.554688 6.050781 37.804688 6.085938 38.078125 6.136719 Z M 46.628906 8.277344 C 45.179688 8.277344 44.035156 8.839844 43.191406 9.964844 C 42.355469 11.089844 41.941406 12.636719 41.941406 14.605469 C 41.941406 16.566406 42.355469 18.113281 43.191406 19.246094 C 44.023438 20.371094 45.167969 20.933594 46.628906 20.933594 C 48.066406 20.933594 49.199219 20.367188 50.035156 19.230469 C 50.878906 18.097656 51.300781 16.554688 51.300781 14.605469 C 51.300781 12.660156 50.878906 11.117188 50.035156 9.980469 C 49.199219 8.847656 48.066406 8.277344 46.628906 8.277344 Z M 46.628906 5.996094 C 48.972656 5.996094 50.808594 6.757812 52.144531 8.277344 C 53.488281 9.800781 54.160156 11.910156 54.160156 14.605469 C 54.160156 17.292969 53.488281 19.402344 52.144531 20.933594 C 50.808594 22.457031 48.972656 23.214844 46.628906 23.214844 C 44.273438 23.214844 42.429688 22.457031 41.097656 20.933594 C 39.761719 19.402344 39.097656 17.292969 39.097656 14.605469 C 39.097656 11.910156 39.761719 9.800781 41.097656 8.277344 C 42.429688 6.757812 44.273438 5.996094 46.628906 5.996094 Z M 58.515625 -0.00390625 L 61.234375 -0.00390625 L 61.234375 13.464844 L 69.28125 6.386719 L 72.71875 6.386719 L 64.015625 14.058594 L 73.078125 22.792969 L 69.5625 22.792969 L 61.234375 14.777344 L 61.234375 22.792969 L 58.515625 22.792969 Z M 88.960938 13.917969 L 88.960938 15.230469 L 76.570312 15.230469 C 76.683594 17.085938 77.242188 18.503906 78.242188 19.480469 C 79.242188 20.449219 80.636719 20.933594 82.429688 20.933594 C 83.460938 20.933594 84.460938 20.808594 85.429688 20.558594 C 86.40625 20.300781 87.375 19.914062 88.335938 19.402344 L 88.335938 21.964844 C 87.367188 22.371094 86.371094 22.679688 85.351562 22.886719 C 84.339844 23.105469 83.3125 23.214844 82.273438 23.214844 C 79.648438 23.214844 77.570312 22.457031 76.039062 20.933594 C 74.515625 19.414062 73.757812 17.351562 73.757812 14.746094 C 73.757812 12.058594 74.480469 9.929688 75.929688 8.355469 C 77.375 6.785156 79.335938 5.996094 81.804688 5.996094 C 84.011719 5.996094 85.757812 6.707031 87.039062 8.121094 C 88.320312 9.539062 88.960938 11.472656 88.960938 13.917969 Z M 86.273438 13.121094 C 86.25 11.652344 85.835938 10.480469 85.023438 9.605469 C 84.21875 8.722656 83.15625 8.277344 81.835938 8.277344 C 80.324219 8.277344 79.117188 8.707031 78.210938 9.558594 C 77.3125 10.402344 76.796875 11.597656 76.664062 13.136719 Z M -1.625 -5.054688 "/>
</g>
</svg>
