<?xml version="1.0" encoding="UTF-8"?>
<svg xmlns="http://www.w3.org/2000/svg" xmlns:xlink="http://www.w3.org/1999/xlink" width="155" height="23" viewBox="0 0 155 23">
<path fill-rule="nonzero" fill="rgb(100%, 100%, 100%)" fill-opacity="1" stroke-width="1" stroke-linecap="butt" stroke-linejoin="miter" stroke="rgb(100%, 0%, 0%)" stroke-opacity="1" stroke-miterlimit="10" d="M 2.53125 16.597656 C 2.609375 17.476562 2.828125 18.152344 3.191406 18.621094 C 3.855469 19.46875 5.007812 19.894531 6.648438 19.894531 C 7.625 19.894531 8.484375 19.679688 9.226562 19.257812 C 9.96875 18.832031 10.339844 18.175781 10.339844 17.285156 C 10.339844 16.613281 10.042969 16.097656 9.445312 15.746094 C 9.066406 15.53125 8.3125 15.285156 7.191406 15 L 5.09375 14.472656 C 3.757812 14.140625 2.773438 13.769531 2.136719 13.359375 C 1.003906 12.648438 0.4375 11.660156 0.4375 10.402344 C 0.4375 8.917969 0.972656 7.714844 2.042969 6.796875 C 3.109375 5.878906 4.546875 5.421875 6.355469 5.421875 C 8.71875 5.421875 10.421875 6.113281 11.46875 7.5 C 12.121094 8.378906 12.4375 9.328125 12.421875 10.34375 L 9.929688 10.34375 C 9.882812 9.746094 9.671875 9.207031 9.300781 8.714844 C 8.695312 8.023438 7.644531 7.675781 6.148438 7.675781 C 5.152344 7.675781 4.398438 7.867188 3.886719 8.246094 C 3.375 8.628906 3.117188 9.132812 3.117188 9.757812 C 3.117188 10.441406 3.453125 10.988281 4.128906 11.398438 C 4.519531 11.640625 5.09375 11.855469 5.859375 12.042969 L 7.601562 12.464844 C 9.496094 12.925781 10.765625 13.371094 11.410156 13.800781 C 12.433594 14.472656 12.945312 15.535156 12.945312 16.980469 C 12.945312 18.375 12.417969 19.582031 11.359375 20.597656 C 10.296875 21.613281 8.683594 22.121094 6.515625 22.121094 C 4.183594 22.121094 2.53125 21.589844 1.558594 20.53125 C 0.585938 19.472656 0.0664062 18.160156 0 16.597656 Z M 16.492188 1.449219 L 19.15625 1.449219 L 19.15625 5.832031 L 21.664062 5.832031 L 21.664062 7.984375 L 19.15625 7.984375 L 19.15625 18.222656 C 19.15625 18.769531 19.34375 19.136719 19.714844 19.324219 C 19.921875 19.429688 20.261719 19.484375 20.742188 19.484375 C 20.867188 19.484375 21.003906 19.480469 21.148438 19.476562 C 21.296875 19.472656 21.46875 19.457031 21.664062 19.441406 L 21.664062 21.519531 C 21.359375 21.605469 21.046875 21.671875 20.71875 21.710938 C 20.390625 21.75 20.039062 21.769531 19.65625 21.769531 C 18.425781 21.769531 17.589844 21.453125 17.152344 20.824219 C 16.710938 20.195312 16.492188 19.375 16.492188 18.371094 L 16.492188 7.984375 L 14.367188 7.984375 L 14.367188 5.832031 L 16.492188 5.832031 Z M 24.375 5.832031 L 26.878906 5.832031 L 26.878906 8.542969 C 27.085938 8.015625 27.585938 7.371094 28.386719 6.613281 C 29.1875 5.855469 30.109375 5.480469 31.15625 5.480469 C 31.203125 5.480469 31.289062 5.484375 31.40625 5.496094 C 31.523438 5.503906 31.722656 5.523438 32.007812 5.550781 L 32.007812 8.335938 C 31.851562 8.308594 31.707031 8.285156 31.574219 8.277344 C 31.441406 8.269531 31.296875 8.261719 31.140625 8.261719 C 29.8125 8.261719 28.792969 8.691406 28.078125 9.542969 C 27.367188 10.398438 27.011719 11.382812 27.011719 12.496094 L 27.011719 21.519531 L 24.375 21.519531 Z M 40.515625 19.820312 C 42.261719 19.820312 43.460938 19.160156 44.109375 17.835938 C 44.761719 16.511719 45.085938 15.039062 45.085938 13.417969 C 45.085938 11.953125 44.851562 10.761719 44.382812 9.84375 C 43.640625 8.398438 42.359375 7.675781 40.542969 7.675781 C 38.933594 7.675781 37.761719 8.292969 37.027344 9.523438 C 36.296875 10.753906 35.929688 12.238281 35.929688 13.976562 C 35.929688 15.644531 36.296875 17.035156 37.027344 18.152344 C 37.761719 19.265625 38.921875 19.820312 40.515625 19.820312 Z M 40.617188 5.378906 C 42.636719 5.378906 44.347656 6.050781 45.746094 7.398438 C 47.140625 8.746094 47.839844 10.730469 47.839844 13.347656 C 47.839844 15.875 47.222656 17.964844 45.992188 19.613281 C 44.761719 21.265625 42.855469 22.089844 40.265625 22.089844 C 38.105469 22.089844 36.394531 21.359375 35.125 19.902344 C 33.855469 18.441406 33.21875 16.480469 33.21875 14.019531 C 33.21875 11.382812 33.886719 9.285156 35.226562 7.722656 C 36.566406 6.160156 38.363281 5.378906 40.617188 5.378906 Z M 50.914062 0 L 53.449219 0 L 53.449219 12.496094 L 60.214844 5.832031 L 63.585938 5.832031 L 57.578125 11.707031 L 63.921875 21.519531 L 60.554688 21.519531 L 55.660156 13.609375 L 53.449219 15.628906 L 53.449219 21.519531 L 50.914062 21.519531 Z M 72.507812 5.480469 C 73.621094 5.480469 74.699219 5.742188 75.742188 6.261719 C 76.789062 6.785156 77.585938 7.460938 78.132812 8.292969 C 78.660156 9.082031 79.007812 10.003906 79.1875 11.058594 C 79.34375 11.78125 79.421875 12.933594 79.421875 14.519531 L 67.921875 14.519531 C 67.96875 16.109375 68.34375 17.386719 69.046875 18.347656 C 69.75 19.308594 70.839844 19.792969 72.316406 19.792969 C 73.691406 19.792969 74.789062 19.335938 75.609375 18.429688 C 76.078125 17.902344 76.414062 17.292969 76.609375 16.597656 L 79.199219 16.597656 C 79.132812 17.175781 78.90625 17.816406 78.519531 18.523438 C 78.132812 19.230469 77.703125 19.808594 77.222656 20.261719 C 76.421875 21.042969 75.429688 21.566406 74.25 21.839844 C 73.613281 21.996094 72.898438 22.074219 72.09375 22.074219 C 70.140625 22.074219 68.488281 21.367188 67.128906 19.945312 C 65.773438 18.523438 65.09375 16.535156 65.09375 13.976562 C 65.09375 11.457031 65.777344 9.410156 67.144531 7.839844 C 68.511719 6.265625 70.296875 5.480469 72.507812 5.480469 Z M 76.710938 12.421875 C 76.601562 11.28125 76.351562 10.367188 75.960938 9.683594 C 75.238281 8.414062 74.035156 7.777344 72.34375 7.777344 C 71.132812 7.777344 70.117188 8.214844 69.296875 9.089844 C 68.476562 9.964844 68.042969 11.074219 67.992188 12.421875 Z M 97.046875 5.378906 C 98.8125 5.378906 100.25 5.808594 101.359375 6.667969 C 102.46875 7.527344 103.132812 9.003906 103.359375 11.105469 L 100.796875 11.105469 C 100.640625 10.136719 100.28125 9.335938 99.726562 8.695312 C 99.171875 8.054688 98.277344 7.734375 97.046875 7.734375 C 95.367188 7.734375 94.164062 8.554688 93.441406 10.195312 C 92.972656 11.261719 92.738281 12.574219 92.738281 14.136719 C 92.738281 15.707031 93.070312 17.03125 93.734375 18.105469 C 94.398438 19.179688 95.445312 19.71875 96.871094 19.71875 C 97.964844 19.71875 98.832031 19.382812 99.46875 18.714844 C 100.109375 18.046875 100.550781 17.128906 100.796875 15.96875 L 103.359375 15.96875 C 103.066406 18.046875 102.335938 19.570312 101.164062 20.53125 C 99.992188 21.492188 98.492188 21.972656 96.664062 21.972656 C 94.613281 21.972656 92.976562 21.222656 91.757812 19.726562 C 90.539062 18.226562 89.925781 16.355469 89.925781 14.105469 C 89.925781 11.351562 90.59375 9.210938 91.933594 7.675781 C 93.273438 6.144531 94.976562 5.378906 97.046875 5.378906 Z M 112.222656 19.820312 C 113.96875 19.820312 115.167969 19.160156 115.816406 17.835938 C 116.46875 16.511719 116.792969 15.039062 116.792969 13.417969 C 116.792969 11.953125 116.558594 10.761719 116.089844 9.84375 C 115.347656 8.398438 114.066406 7.675781 112.25 7.675781 C 110.640625 7.675781 109.46875 8.292969 108.734375 9.523438 C 108.003906 10.753906 107.636719 12.238281 107.636719 13.976562 C 107.636719 15.644531 108.003906 17.035156 108.734375 18.152344 C 109.46875 19.265625 110.628906 19.820312 112.222656 19.820312 Z M 112.324219 5.378906 C 114.34375 5.378906 116.054688 6.050781 117.453125 7.398438 C 118.847656 8.746094 119.546875 10.730469 119.546875 13.347656 C 119.546875 15.875 118.929688 17.964844 117.699219 19.613281 C 116.46875 21.265625 114.5625 22.089844 111.972656 22.089844 C 109.8125 22.089844 108.101562 21.359375 106.832031 19.902344 C 105.5625 18.441406 104.925781 16.480469 104.925781 14.019531 C 104.925781 11.382812 105.59375 9.285156 106.933594 7.722656 C 108.273438 6.160156 110.070312 5.378906 112.324219 5.378906 Z M 122.753906 0 L 125.390625 0 L 125.390625 21.519531 L 122.753906 21.519531 Z M 135.570312 19.820312 C 137.316406 19.820312 138.515625 19.160156 139.164062 17.835938 C 139.816406 16.511719 140.140625 15.039062 140.140625 13.417969 C 140.140625 11.953125 139.90625 10.761719 139.4375 9.84375 C 138.695312 8.398438 137.414062 7.675781 135.597656 7.675781 C 133.988281 7.675781 132.816406 8.292969 132.082031 9.523438 C 131.351562 10.753906 130.984375 12.238281 130.984375 13.976562 C 130.984375 15.644531 131.351562 17.035156 132.082031 18.152344 C 132.816406 19.265625 133.976562 19.820312 135.570312 19.820312 Z M 135.671875 5.378906 C 137.691406 5.378906 139.402344 6.050781 140.800781 7.398438 C 142.195312 8.746094 142.894531 10.730469 142.894531 13.347656 C 142.894531 15.875 142.277344 17.964844 141.046875 19.613281 C 139.816406 21.265625 137.910156 22.089844 135.320312 22.089844 C 133.160156 22.089844 131.449219 21.359375 130.179688 19.902344 C 128.910156 18.441406 128.273438 16.480469 128.273438 14.019531 C 128.273438 11.382812 128.941406 9.285156 130.28125 7.722656 C 131.621094 6.160156 133.417969 5.378906 135.671875 5.378906 Z M 146.101562 5.832031 L 148.605469 5.832031 L 148.605469 8.542969 C 148.8125 8.015625 149.3125 7.371094 150.113281 6.613281 C 150.914062 5.855469 151.835938 5.480469 152.882812 5.480469 C 152.929688 5.480469 153.015625 5.484375 153.132812 5.496094 C 153.25 5.503906 153.449219 5.523438 153.734375 5.550781 L 153.734375 8.335938 C 153.578125 8.308594 153.433594 8.285156 153.300781 8.277344 C 153.167969 8.269531 153.023438 8.261719 152.867188 8.261719 C 151.539062 8.261719 150.519531 8.691406 149.804688 9.542969 C 149.09375 10.398438 148.738281 11.382812 148.738281 12.496094 L 148.738281 21.519531 L 146.101562 21.519531 Z M -0.96875 -1.582031 "/>
</svg>
