<?xml version="1.0" encoding="UTF-8"?>
<svg xmlns="http://www.w3.org/2000/svg" xmlns:xlink="http://www.w3.org/1999/xlink" width="176pt" height="24pt" viewBox="0 0 176 24" version="1.1">
<g id="surface625">
<path style="fill-rule:nonzero;fill:rgb(100%,100%,100%);fill-opacity:1;stroke-width:1;stroke-linecap:butt;stroke-linejoin:miter;stroke:rgb(100%,0%,0%);stroke-opacity:1;stroke-miterlimit:10;" d="M 11.65625 6.871094 L 11.65625 9.417969 C 10.894531 9.035156 10.101562 8.742188 9.28125 8.542969 C 8.46875 8.347656 7.617188 8.246094 6.734375 8.246094 C 5.398438 8.246094 4.394531 8.457031 3.71875 8.871094 C 3.050781 9.277344 2.71875 9.894531 2.71875 10.714844 C 2.71875 11.339844 2.957031 11.832031 3.4375 12.183594 C 3.914062 12.539062 4.878906 12.878906 6.328125 13.199219 L 7.25 13.402344 C 9.164062 13.808594 10.523438 14.386719 11.328125 15.136719 C 12.140625 15.886719 12.546875 16.929688 12.546875 18.261719 C 12.546875 19.792969 11.941406 21.003906 10.734375 21.886719 C 9.523438 22.773438 7.867188 23.214844 5.765625 23.214844 C 4.878906 23.214844 3.957031 23.125 3 22.949219 C 2.050781 22.785156 1.050781 22.535156 0 22.199219 L 0 19.402344 C 1 19.925781 1.976562 20.316406 2.9375 20.574219 C 3.90625 20.835938 4.863281 20.964844 5.8125 20.964844 C 7.082031 20.964844 8.054688 20.746094 8.734375 20.308594 C 9.421875 19.871094 9.765625 19.257812 9.765625 18.464844 C 9.765625 17.738281 9.519531 17.179688 9.03125 16.792969 C 8.539062 16.398438 7.457031 16.019531 5.78125 15.652344 L 4.84375 15.433594 C 3.175781 15.089844 1.972656 14.554688 1.234375 13.824219 C 0.492188 13.097656 0.125 12.097656 0.125 10.824219 C 0.125 9.285156 0.671875 8.097656 1.765625 7.261719 C 2.859375 6.417969 4.410156 5.996094 6.421875 5.996094 C 7.410156 5.996094 8.34375 6.070312 9.21875 6.214844 C 10.101562 6.363281 10.914062 6.582031 11.65625 6.871094 Z M 19.503906 1.730469 L 19.503906 6.386719 L 25.050781 6.386719 L 25.050781 8.480469 L 19.503906 8.480469 L 19.503906 17.386719 C 19.503906 18.722656 19.683594 19.582031 20.050781 19.964844 C 20.414062 20.351562 21.160156 20.542969 22.285156 20.542969 L 25.050781 20.542969 L 25.050781 22.792969 L 22.285156 22.792969 C 20.199219 22.792969 18.761719 22.410156 17.972656 21.636719 C 17.179688 20.855469 16.785156 19.441406 16.785156 17.386719 L 16.785156 8.480469 L 14.816406 8.480469 L 14.816406 6.386719 L 16.785156 6.386719 L 16.785156 1.730469 Z M 38.09375 8.902344 C 37.789062 8.726562 37.460938 8.597656 37.109375 8.511719 C 36.753906 8.429688 36.363281 8.386719 35.9375 8.386719 C 34.40625 8.386719 33.234375 8.886719 32.421875 9.886719 C 31.609375 10.878906 31.203125 12.300781 31.203125 14.152344 L 31.203125 22.792969 L 28.484375 22.792969 L 28.484375 6.386719 L 31.203125 6.386719 L 31.203125 8.933594 C 31.765625 7.933594 32.5 7.195312 33.40625 6.714844 C 34.320312 6.238281 35.425781 5.996094 36.71875 5.996094 C 36.90625 5.996094 37.109375 6.007812 37.328125 6.027344 C 37.554688 6.050781 37.804688 6.085938 38.078125 6.136719 Z M 46.628906 8.277344 C 45.179688 8.277344 44.035156 8.839844 43.191406 9.964844 C 42.355469 11.089844 41.941406 12.636719 41.941406 14.605469 C 41.941406 16.566406 42.355469 18.113281 43.191406 19.246094 C 44.023438 20.371094 45.167969 20.933594 46.628906 20.933594 C 48.066406 20.933594 49.199219 20.367188 50.035156 19.230469 C 50.878906 18.097656 51.300781 16.554688 51.300781 14.605469 C 51.300781 12.660156 50.878906 11.117188 50.035156 9.980469 C 49.199219 8.847656 48.066406 8.277344 46.628906 8.277344 Z M 46.628906 5.996094 C 48.972656 5.996094 50.808594 6.757812 52.144531 8.277344 C 53.488281 9.800781 54.160156 11.910156 54.160156 14.605469 C 54.160156 17.292969 53.488281 19.402344 52.144531 20.933594 C 50.808594 22.457031 48.972656 23.214844 46.628906 23.214844 C 44.273438 23.214844 42.429688 22.457031 41.097656 20.933594 C 39.761719 19.402344 39.097656 17.292969 39.097656 14.605469 C 39.097656 11.910156 39.761719 9.800781 41.097656 8.277344 C 42.429688 6.757812 44.273438 5.996094 46.628906 5.996094 Z M 58.515625 -0.00390625 L 61.234375 -0.00390625 L 61.234375 13.464844 L 69.28125 6.386719 L 72.71875 6.386719 L 64.015625 14.058594 L 73.078125 22.792969 L 69.5625 22.792969 L 61.234375 14.777344 L 61.234375 22.792969 L 58.515625 22.792969 Z M 88.960938 13.917969 L 88.960938 15.230469 L 76.570312 15.230469 C 76.683594 17.085938 77.242188 18.503906 78.242188 19.480469 C 79.242188 20.449219 80.636719 20.933594 82.429688 20.933594 C 83.460938 20.933594 84.460938 20.808594 85.429688 20.558594 C 86.40625 20.300781 87.375 19.914062 88.335938 19.402344 L 88.335938 21.964844 C 87.367188 22.371094 86.371094 22.679688 85.351562 22.886719 C 84.339844 23.105469 83.3125 23.214844 82.273438 23.214844 C 79.648438 23.214844 77.570312 22.457031 76.039062 20.933594 C 74.515625 19.414062 73.757812 17.351562 73.757812 14.746094 C 73.757812 12.058594 74.480469 9.929688 75.929688 8.355469 C 77.375 6.785156 79.335938 5.996094 81.804688 5.996094 C 84.011719 5.996094 85.757812 6.707031 87.039062 8.121094 C 88.320312 9.539062 88.960938 11.472656 88.960938 13.917969 Z M 86.273438 13.121094 C 86.25 11.652344 85.835938 10.480469 85.023438 9.605469 C 84.21875 8.722656 83.15625 8.277344 81.835938 8.277344 C 80.324219 8.277344 79.117188 8.707031 78.210938 9.558594 C 77.3125 10.402344 76.796875 11.597656 76.664062 13.136719 Z M 114.734375 7.011719 L 114.734375 9.542969 C 113.960938 9.117188 113.191406 8.800781 112.421875 8.589844 C 111.660156 8.382812 110.890625 8.277344 110.109375 8.277344 C 108.359375 8.277344 107 8.835938 106.03125 9.949219 C 105.070312 11.054688 104.59375 12.605469 104.59375 14.605469 C 104.59375 16.605469 105.070312 18.164062 106.03125 19.277344 C 107 20.382812 108.359375 20.933594 110.109375 20.933594 C 110.890625 20.933594 111.660156 20.832031 112.421875 20.621094 C 113.191406 20.414062 113.960938 20.097656 114.734375 19.667969 L 114.734375 22.167969 C 113.972656 22.511719 113.191406 22.773438 112.390625 22.949219 C 111.585938 23.125 110.734375 23.214844 109.828125 23.214844 C 107.347656 23.214844 105.378906 22.441406 103.921875 20.886719 C 102.472656 19.335938 101.75 17.242188 101.75 14.605469 C 101.75 11.929688 102.484375 9.824219 103.953125 8.292969 C 105.421875 6.761719 107.4375 5.996094 110 5.996094 C 110.820312 5.996094 111.628906 6.082031 112.421875 6.246094 C 113.210938 6.414062 113.984375 6.667969 114.734375 7.011719 Z M 125.773438 8.277344 C 124.324219 8.277344 123.179688 8.839844 122.335938 9.964844 C 121.5 11.089844 121.085938 12.636719 121.085938 14.605469 C 121.085938 16.566406 121.5 18.113281 122.335938 19.246094 C 123.167969 20.371094 124.3125 20.933594 125.773438 20.933594 C 127.210938 20.933594 128.34375 20.367188 129.179688 19.230469 C 130.023438 18.097656 130.445312 16.554688 130.445312 14.605469 C 130.445312 12.660156 130.023438 11.117188 129.179688 9.980469 C 128.34375 8.847656 127.210938 8.277344 125.773438 8.277344 Z M 125.773438 5.996094 C 128.117188 5.996094 129.953125 6.757812 131.289062 8.277344 C 132.632812 9.800781 133.304688 11.910156 133.304688 14.605469 C 133.304688 17.292969 132.632812 19.402344 131.289062 20.933594 C 129.953125 22.457031 128.117188 23.214844 125.773438 23.214844 C 123.417969 23.214844 121.574219 22.457031 120.242188 20.933594 C 118.90625 19.402344 118.242188 17.292969 118.242188 14.605469 C 118.242188 11.910156 118.90625 9.800781 120.242188 8.277344 C 121.574219 6.757812 123.417969 5.996094 125.773438 5.996094 Z M 137.769531 -0.00390625 L 140.457031 -0.00390625 L 140.457031 22.792969 L 137.769531 22.792969 Z M 152.464844 8.277344 C 151.015625 8.277344 149.871094 8.839844 149.027344 9.964844 C 148.191406 11.089844 147.777344 12.636719 147.777344 14.605469 C 147.777344 16.566406 148.191406 18.113281 149.027344 19.246094 C 149.859375 20.371094 151.003906 20.933594 152.464844 20.933594 C 153.902344 20.933594 155.035156 20.367188 155.871094 19.230469 C 156.714844 18.097656 157.136719 16.554688 157.136719 14.605469 C 157.136719 12.660156 156.714844 11.117188 155.871094 9.980469 C 155.035156 8.847656 153.902344 8.277344 152.464844 8.277344 Z M 152.464844 5.996094 C 154.808594 5.996094 156.644531 6.757812 157.980469 8.277344 C 159.324219 9.800781 159.996094 11.910156 159.996094 14.605469 C 159.996094 17.292969 159.324219 19.402344 157.980469 20.933594 C 156.644531 22.457031 154.808594 23.214844 152.464844 23.214844 C 150.109375 23.214844 148.265625 22.457031 146.933594 20.933594 C 145.597656 19.402344 144.933594 17.292969 144.933594 14.605469 C 144.933594 11.910156 145.597656 9.800781 146.933594 8.277344 C 148.265625 6.757812 150.109375 5.996094 152.464844 5.996094 Z M 173.960938 8.902344 C 173.65625 8.726562 173.328125 8.597656 172.976562 8.511719 C 172.621094 8.429688 172.230469 8.386719 171.804688 8.386719 C 170.273438 8.386719 169.101562 8.886719 168.289062 9.886719 C 167.476562 10.878906 167.070312 12.300781 167.070312 14.152344 L 167.070312 22.792969 L 164.351562 22.792969 L 164.351562 6.386719 L 167.070312 6.386719 L 167.070312 8.933594 C 167.632812 7.933594 168.367188 7.195312 169.273438 6.714844 C 170.1875 6.238281 171.292969 5.996094 172.585938 5.996094 C 172.773438 5.996094 172.976562 6.007812 173.195312 6.027344 C 173.421875 6.050781 173.671875 6.085938 173.945312 6.136719 Z M -1.625 -5.054688 "/>
</g>
</svg>
